<svg width="228" height="16" viewBox="0 0 228 16" fill="none" xmlns="http://www.w3.org/2000/svg">
<path d="M1 7C0.447715 7 0 7.44772 0 8C0 8.55228 0.447715 9 1 9L1 7ZM227.707 8.70711C228.098 8.31658 228.098 7.68342 227.707 7.29289L221.343 0.928932C220.953 0.538408 220.319 0.538408 219.929 0.928932C219.538 1.31946 219.538 1.95262 219.929 2.34315L225.586 8L219.929 13.6569C219.538 14.0474 219.538 14.6805 219.929 15.0711C220.319 15.4616 220.953 15.4616 221.343 15.0711L227.707 8.70711ZM3.94783 9C4.50011 9 4.94783 8.55228 4.94783 8C4.94783 7.44772 4.50011 7 3.94783 7V9ZM7.87826 7C7.32598 7 6.87826 7.44772 6.87826 8C6.87826 8.55228 7.32598 9 7.87826 9V7ZM13.7739 9C14.3262 9 14.7739 8.55228 14.7739 8C14.7739 7.44772 14.3262 7 13.7739 7V9ZM17.7043 7C17.1521 7 16.7043 7.44772 16.7043 8C16.7043 8.55228 17.1521 9 17.7043 9V7ZM23.6 9C24.1523 9 24.6 8.55228 24.6 8C24.6 7.44772 24.1523 7 23.6 7V9ZM27.5304 7C26.9782 7 26.5304 7.44772 26.5304 8C26.5304 8.55228 26.9782 9 27.5304 9V7ZM33.4261 9C33.9784 9 34.4261 8.55228 34.4261 8C34.4261 7.44772 33.9784 7 33.4261 7V9ZM37.3565 7C36.8042 7 36.3565 7.44772 36.3565 8C36.3565 8.55228 36.8042 9 37.3565 9V7ZM43.2522 9C43.8045 9 44.2522 8.55228 44.2522 8C44.2522 7.44772 43.8045 7 43.2522 7V9ZM47.1826 7C46.6303 7 46.1826 7.44772 46.1826 8C46.1826 8.55228 46.6303 9 47.1826 9V7ZM53.0783 9C53.6306 9 54.0783 8.55228 54.0783 8C54.0783 7.44772 53.6306 7 53.0783 7V9ZM57.0087 7C56.4564 7 56.0087 7.44772 56.0087 8C56.0087 8.55228 56.4564 9 57.0087 9V7ZM62.9044 9C63.4566 9 63.9044 8.55228 63.9044 8C63.9044 7.44772 63.4566 7 62.9044 7V9ZM66.8348 7C66.2825 7 65.8348 7.44772 65.8348 8C65.8348 8.55228 66.2825 9 66.8348 9V7ZM72.7304 9C73.2827 9 73.7304 8.55228 73.7304 8C73.7304 7.44772 73.2827 7 72.7304 7V9ZM76.6609 7C76.1086 7 75.6609 7.44772 75.6609 8C75.6609 8.55228 76.1086 9 76.6609 9V7ZM82.5565 9C83.1088 9 83.5565 8.55228 83.5565 8C83.5565 7.44772 83.1088 7 82.5565 7V9ZM86.487 7C85.9347 7 85.487 7.44772 85.487 8C85.487 8.55228 85.9347 9 86.487 9V7ZM92.3826 9C92.9349 9 93.3826 8.55228 93.3826 8C93.3826 7.44772 92.9349 7 92.3826 7V9ZM96.313 7C95.7608 7 95.313 7.44772 95.313 8C95.313 8.55228 95.7608 9 96.313 9V7ZM102.209 9C102.761 9 103.209 8.55228 103.209 8C103.209 7.44772 102.761 7 102.209 7V9ZM106.139 7C105.587 7 105.139 7.44772 105.139 8C105.139 8.55228 105.587 9 106.139 9V7ZM112.035 9C112.587 9 113.035 8.55228 113.035 8C113.035 7.44772 112.587 7 112.035 7V9ZM115.965 7C115.413 7 114.965 7.44772 114.965 8C114.965 8.55228 115.413 9 115.965 9V7ZM121.861 9C122.413 9 122.861 8.55228 122.861 8C122.861 7.44772 122.413 7 121.861 7V9ZM125.791 7C125.239 7 124.791 7.44772 124.791 8C124.791 8.55228 125.239 9 125.791 9V7ZM131.687 9C132.239 9 132.687 8.55228 132.687 8C132.687 7.44772 132.239 7 131.687 7V9ZM135.617 7C135.065 7 134.617 7.44772 134.617 8C134.617 8.55228 135.065 9 135.617 9V7ZM141.513 9C142.065 9 142.513 8.55228 142.513 8C142.513 7.44772 142.065 7 141.513 7V9ZM145.443 7C144.891 7 144.443 7.44772 144.443 8C144.443 8.55228 144.891 9 145.443 9V7ZM151.339 9C151.891 9 152.339 8.55228 152.339 8C152.339 7.44772 151.891 7 151.339 7V9ZM155.27 7C154.717 7 154.27 7.44772 154.27 8C154.27 8.55228 154.717 9 155.27 9V7ZM161.165 9C161.718 9 162.165 8.55228 162.165 8C162.165 7.44772 161.718 7 161.165 7V9ZM165.096 7C164.543 7 164.096 7.44772 164.096 8C164.096 8.55228 164.543 9 165.096 9V7ZM170.991 9C171.544 9 171.991 8.55228 171.991 8C171.991 7.44772 171.544 7 170.991 7V9ZM174.922 7C174.369 7 173.922 7.44772 173.922 8C173.922 8.55228 174.369 9 174.922 9V7ZM180.817 9C181.37 9 181.817 8.55228 181.817 8C181.817 7.44772 181.37 7 180.817 7V9ZM184.748 7C184.196 7 183.748 7.44772 183.748 8C183.748 8.55228 184.196 9 184.748 9V7ZM190.643 9C191.196 9 191.643 8.55228 191.643 8C191.643 7.44772 191.196 7 190.643 7V9ZM194.574 7C194.022 7 193.574 7.44772 193.574 8C193.574 8.55228 194.022 9 194.574 9V7ZM200.47 9C201.022 9 201.47 8.55228 201.47 8C201.47 7.44772 201.022 7 200.47 7V9ZM204.4 7C203.848 7 203.4 7.44772 203.4 8C203.4 8.55228 203.848 9 204.4 9V7ZM210.296 9C210.848 9 211.296 8.55228 211.296 8C211.296 7.44772 210.848 7 210.296 7V9ZM214.226 7C213.674 7 213.226 7.44772 213.226 8C213.226 8.55228 213.674 9 214.226 9V7ZM220.122 9C220.674 9 221.122 8.55228 221.122 8C221.122 7.44772 220.674 7 220.122 7V9ZM224.052 7C223.5 7 223.052 7.44772 223.052 8C223.052 8.55228 223.5 9 224.052 9V7ZM1 9H3.94783V7H1L1 9ZM7.87826 9H13.7739V7L7.87826 7V9ZM17.7043 9H23.6V7L17.7043 7V9ZM27.5304 9L33.4261 9V7L27.5304 7V9ZM37.3565 9L43.2522 9V7L37.3565 7V9ZM47.1826 9L53.0783 9V7L47.1826 7V9ZM57.0087 9L62.9044 9V7L57.0087 7V9ZM66.8348 9H72.7304V7L66.8348 7V9ZM76.6609 9H82.5565V7L76.6609 7V9ZM86.487 9H92.3826V7H86.487V9ZM96.313 9H102.209V7L96.313 7V9ZM106.139 9H112.035V7L106.139 7V9ZM115.965 9L121.861 9V7L115.965 7V9ZM125.791 9L131.687 9V7L125.791 7V9ZM135.617 9L141.513 9V7L135.617 7V9ZM145.443 9L151.339 9V7L145.443 7V9ZM155.27 9H161.165V7L155.27 7V9ZM165.096 9H170.991V7L165.096 7V9ZM174.922 9H180.817V7H174.922V9ZM184.748 9H190.643V7L184.748 7V9ZM194.574 9H200.47V7L194.574 7V9ZM204.4 9L210.296 9V7L204.4 7V9ZM214.226 9L220.122 9V7L214.226 7V9ZM224.052 9H227V7L224.052 7V9Z" fill="#EF466F"/>
</svg>
