<svg width="219" height="153" viewBox="0 0 219 153" fill="none" xmlns="http://www.w3.org/2000/svg">
<g clip-path="url(#clip0_390_1186)">
<path d="M13.7029 151.235C13.7029 151.235 -11.9694 124.803 9.36164 96.1871C28.2881 70.7975 50.3536 72.5328 66.5431 82.8362C73.4382 87.2246 93.3181 83.3771 110.239 57.5421C133.313 22.3101 213.3 43.6781 198.716 97.884C191.657 124.116 220.194 125.07 205.655 151.291L13.7029 151.235Z" fill="#ECF2F9"/>
<path d="M83.4624 29.4899L81.8299 29.9918L80.7336 27.4498L78.2563 27.8887L77.1255 26.1206L76.232 26.6941L77.7445 29.0588L80.0922 28.6428L81.2327 31.2874L83.6892 30.5321L83.4624 29.4899Z" fill="#7CBDA4"/>
<path d="M188.152 120.922L186.52 121.423L185.423 118.881L182.946 119.32L181.815 117.552L180.922 118.126L182.434 120.49L184.782 120.075L185.923 122.719L188.379 121.964L188.152 120.922Z" fill="#7CBDA4"/>
<path d="M76.2517 147.103C76.2517 147.103 51.1388 142.896 45.6763 138.439C40.2139 133.981 45.6204 131.971 45.6204 131.971C45.6204 131.971 33.0048 125.493 33.151 121.088C33.297 116.683 39.5642 118.922 39.5642 118.922C39.5642 118.922 28.9344 106.78 31.451 104.474C36.1384 100.179 48.4271 112.801 48.4271 112.801C48.4271 112.801 44.7782 106.799 48.6211 105.849C54.4165 104.416 58.6936 119.217 58.6936 119.217C58.6936 119.217 57.6069 113.372 61.603 114.151C68.7729 115.548 76.2517 147.103 76.2517 147.103Z" fill="#7CBDA4"/>
<path d="M61.603 114.151C57.597 113.425 58.6936 119.217 58.6936 119.217C58.6936 119.217 54.4164 104.416 48.6211 105.849C44.7781 106.799 48.427 112.801 48.427 112.801C48.427 112.801 36.1383 100.179 31.4509 104.475L76.1669 147.11C75.371 143.038 68.3191 115.367 61.603 114.151Z" fill="#5E8D7C"/>
<path d="M83.0966 151.397C83.0966 151.397 70.2881 137.526 63.6738 135.92C57.0595 134.314 58.1122 139.095 58.1122 139.095C58.1122 139.095 45.2574 127.121 42.1112 129.831C38.965 132.54 42.1932 135.348 42.1932 135.348C42.1932 135.348 31.2513 133.059 29.5662 136.627C26.9768 142.11 44.9779 145.688 44.9779 145.688C44.9779 145.688 37.3798 145.983 39.032 149.521C41.5235 154.857 83.0966 151.397 83.0966 151.397Z" fill="#415485"/>
<path d="M29.5662 136.627C31.2513 133.059 42.1932 135.348 42.1932 135.348C42.1932 135.348 38.965 132.54 42.1112 129.831C45.2574 127.121 57.7496 137.509 57.7496 137.509C57.7496 137.509 54.9084 131.639 61.5227 133.245C68.1369 134.852 83.0966 151.397 83.0966 151.397L29.5662 136.627Z" fill="#556EB1"/>
<path d="M104.451 11.6207C99.9997 12.3545 98.6775 18.2074 102.378 20.8252C103.043 21.2954 103.503 22.0026 103.699 22.7939L104.373 25.5164C104.558 26.2666 105.288 26.7482 106.05 26.6226L107.736 26.3447C108.497 26.2191 109.035 25.5287 108.971 24.7584C108.737 21.9476 108.447 20.9281 109.359 19.6745C112.027 16.0073 108.904 10.8868 104.451 11.6207Z" fill="#EACA81"/>
<path d="M104.906 23.5197C104.616 21.1115 104.209 18.5692 104.07 17.8481C101.519 17.9891 102.489 15.2948 103.666 16.3904C104.002 16.7026 104.16 17.1261 104.265 17.5899C105.112 17.5135 105.941 17.2711 106.696 16.8804C106.655 16.2866 106.597 15.8366 106.762 15.4565C107.012 14.8825 107.738 14.7262 108.034 15.2856C108.145 15.4956 108.164 15.7643 108.084 15.9867C107.913 16.4617 107.398 16.7753 106.949 17.021C107.083 18.9354 107.269 20.8646 107.503 22.7645L107.262 22.7944C107.032 20.9252 106.848 19.0276 106.715 17.1437C105.965 17.517 105.149 17.7509 104.314 17.8297C104.489 18.7516 104.875 21.2298 105.147 23.4906L104.906 23.5197ZM102.859 17.2802C103.085 17.525 103.465 17.6326 104.02 17.6071C103.924 17.1979 103.782 16.8299 103.501 16.5685C102.867 15.9788 102.478 16.8695 102.859 17.2802ZM106.985 15.5537C106.846 15.8731 106.899 16.2822 106.931 16.7526C107.295 16.5447 107.719 16.2849 107.856 15.904C107.952 15.6371 107.844 15.2597 107.572 15.19C107.543 15.1827 107.083 15.3296 106.985 15.5537Z" fill="#F2DEB2"/>
<path d="M103.679 22.7268C103.685 22.7494 103.693 22.7712 103.699 22.7941L104.373 25.5166C104.558 26.2668 105.288 26.7484 106.05 26.6229L107.736 26.3449C108.497 26.2194 109.035 25.5289 108.971 24.7586C108.867 23.5082 108.752 22.6128 108.736 21.8931L103.679 22.7268Z" fill="#AAD7C7"/>
<path d="M101.152 9.58762L99.8205 7.15352C99.6918 6.91785 99.7779 6.62234 100.013 6.49319C100.248 6.36428 100.543 6.45049 100.672 6.68604L102.003 9.12026C102.132 9.35592 102.046 9.65144 101.811 9.78058C101.574 9.91031 101.28 9.822 101.152 9.58762Z" fill="#F2DEB2"/>
<path d="M98.2417 15.4756L95.3401 15.2214C95.073 15.198 94.8754 14.9622 94.8987 14.6944C94.9219 14.4269 95.1576 14.2288 95.4247 14.2524L98.3264 14.5066C98.5934 14.5299 98.7912 14.766 98.7678 15.0335C98.7444 15.301 98.5094 15.4988 98.2417 15.4756Z" fill="#F2DEB2"/>
<path d="M95.3646 24.3872C95.1762 24.1961 95.1779 23.8882 95.3687 23.6994C96.082 22.9933 96.8664 22.3523 97.7003 21.7942C97.9232 21.6449 98.2247 21.7051 98.3738 21.9284C98.5228 22.1518 98.4628 22.4537 98.2398 22.6031C97.4571 23.1269 96.7208 23.7284 96.0513 24.3912C95.8615 24.5792 95.554 24.5792 95.3646 24.3872Z" fill="#F2DEB2"/>
<path d="M108.321 9.45623C108.062 9.38681 107.908 9.12023 107.977 8.86077C108.306 7.62844 108.507 6.35772 108.576 5.08408C108.59 4.81587 108.819 4.60961 109.087 4.62454C109.354 4.63901 109.56 4.86802 109.545 5.13635C109.473 6.47707 109.261 7.81475 108.915 9.11183C108.846 9.37293 108.578 9.52541 108.321 9.45623Z" fill="#F2DEB2"/>
<path d="M111.309 13.1928C111.232 12.9356 111.377 12.6643 111.634 12.5868L114.65 11.6761C114.907 11.5986 115.178 11.7442 115.255 12.0015C115.333 12.2587 115.187 12.53 114.931 12.6075L111.914 13.5183C111.658 13.5953 111.387 13.4506 111.309 13.1928Z" fill="#F2DEB2"/>
<path d="M116.265 21.2337C116.221 21.2337 116.177 21.2278 116.133 21.2153C115.088 20.9211 114.071 20.5129 113.112 20.0024C112.875 19.8763 112.785 19.5818 112.911 19.3446C113.037 19.1074 113.331 19.0174 113.568 19.1434C114.466 19.6214 115.417 20.0034 116.396 20.2789C116.654 20.3516 116.804 20.6201 116.732 20.8788C116.671 21.0934 116.476 21.2337 116.265 21.2337Z" fill="#F2DEB2"/>
<path d="M160.449 42.7342L158.927 39.1291L155.1 38.3413C154.664 38.2516 154.52 37.7 154.856 37.408L157.809 34.844L157.374 30.9542C157.324 30.5111 157.804 30.2034 158.185 30.4336L161.531 32.454L165.09 30.8377C165.496 30.6536 165.936 31.0151 165.835 31.4494L164.951 35.2622L167.585 38.1532C167.885 38.4825 167.678 39.0134 167.235 39.0517L163.342 39.3877L161.411 42.7907C161.191 43.178 160.623 43.1447 160.449 42.7342Z" fill="#EACA81"/>
<path d="M184.677 30.3643L184.051 32.8881L179.886 32.3283L178.517 35.9054L175.332 35.997L175.378 37.6122L179.638 37.4898L180.936 34.0999L185.269 34.6822L186.21 30.8844L184.677 30.3643Z" fill="#DB8A7F"/>
<path d="M62.369 61.7742L40.1411 57.628C39.6947 57.5447 39.4001 57.1146 39.4833 56.6675L42.2678 41.6883C42.351 41.2411 42.7802 40.946 43.2266 41.0293L65.4545 45.1756C65.9009 45.2589 66.1955 45.6889 66.1123 46.1361L63.3278 61.1153C63.2446 61.5625 62.8154 61.8575 62.369 61.7742Z" fill="#EACA81"/>
<path d="M51.7882 44.65L45.0221 43.3879C44.5757 43.3047 44.2812 42.8747 44.3644 42.4275L44.7881 40.1482C44.8712 39.701 45.3005 39.406 45.7469 39.4893L52.5129 40.7514C52.9593 40.8347 53.2539 41.2647 53.1707 41.7119L52.747 43.9912C52.6639 44.4382 52.2346 44.7332 51.7882 44.65Z" fill="#EACA81"/>
<path d="M63.3811 61.2013C63.2657 61.6113 62.8573 61.8653 62.4394 61.7873L40.0663 57.614C39.6502 57.5363 39.3609 57.1549 39.3977 56.7326L40.5686 43.3054C40.5887 43.074 40.7056 42.8618 40.8903 42.7214C41.075 42.5808 41.3102 42.5249 41.5383 42.5674L66.3926 47.2036C66.6198 47.246 66.8186 47.3821 66.9406 47.5787C67.0624 47.7753 67.0962 48.0142 67.0334 48.2371L63.3811 61.2013Z" fill="#F2DEB2"/>
<path d="M165.332 12.1397L161.526 13.1807L160.706 8.56005L161.952 8.33838L162.529 11.5928L164.999 10.9173L165.332 12.1397Z" fill="#7CBDA4"/>
<path d="M44.0682 75.5965C45.0212 75.5188 46.485 75.9395 47.141 76.3851C47.2396 76.4774 47.9943 76.7784 48.7786 78.0802L48.602 78.2027C47.7743 77.3349 47.2177 77.1404 46.5547 76.9412C45.4618 76.6599 44.3605 76.8704 44.2701 76.9189L44.0682 75.5965Z" fill="#415485"/>
<path d="M48.6904 78.1415C48.6904 78.1415 42.8826 79.1124 43.4242 83.6572C43.9657 88.2021 50.0927 91.738 55.5611 88.927C62.9175 85.1456 60.0119 75.5321 54.776 74.7886C49.5402 74.0451 48.6904 78.1415 48.6904 78.1415Z" fill="#D7735A"/>
<path d="M51.1543 76.1403C51.1543 76.1403 52.6694 74.5821 55.9894 75.9997C59.3092 77.4173 59.5495 84.0284 56.5886 83.6443C53.6277 83.2603 48.7867 77.0942 51.1543 76.1403Z" fill="#DB8A7F"/>
<path d="M91.1078 15.7606L67.2212 24.2963C66.4512 24.5714 65.6044 24.1693 65.3298 23.398L60.9209 11.0169C60.6462 10.2456 61.0477 9.39737 61.8176 9.12227L85.7043 0.586586C86.4742 0.31149 87.321 0.713633 87.5956 1.48502L92.0046 13.866C92.2792 14.6371 91.8778 15.4854 91.1078 15.7606Z" fill="#92AEEE"/>
<path d="M75.2753 12.578C76.1536 15.0447 74.8696 17.7576 72.4073 18.6375C69.9449 19.5174 67.2367 18.231 66.3583 15.7644C65.4799 13.2977 66.7639 10.5848 69.2263 9.70492C71.6887 8.82502 74.3969 10.1114 75.2753 12.578Z" fill="white"/>
<path d="M71.4951 11.9145C71.7541 12.6419 71.3755 13.4419 70.6494 13.7013C69.9232 13.9608 69.1246 13.5815 68.8656 12.8541C68.6066 12.1267 68.9852 11.3267 69.7114 11.0673C70.4374 10.8078 71.236 11.1872 71.4951 11.9145Z" fill="#92AEEE"/>
<path d="M73.7696 15.8136L69.5681 17.315L69.3998 16.8426C69.0929 15.9808 69.5416 15.0329 70.4019 14.7256L71.488 14.3375C72.3483 14.0301 73.2945 14.4795 73.6013 15.3413L73.7696 15.8136Z" fill="#92AEEE"/>
<path d="M75.864 9.98971C75.6094 9.98971 75.3809 9.82836 75.2953 9.58815C75.1835 9.27409 75.3476 8.92736 75.6611 8.81536L86.103 5.08406C86.1685 5.06073 86.2367 5.04883 86.3059 5.04883C86.5605 5.04883 86.7889 5.21029 86.8745 5.4505C86.9863 5.76457 86.8223 6.1113 86.5087 6.22329L76.0668 9.95459C76.0013 9.97793 75.933 9.98971 75.864 9.98971Z" fill="white"/>
<path d="M78.6827 12.5973C78.4281 12.5973 78.1996 12.4359 78.114 12.1956C78.0022 11.8815 78.1663 11.5349 78.4798 11.4228L86.6352 8.50862C86.7006 8.48517 86.7689 8.47339 86.8379 8.47339C87.0925 8.47339 87.321 8.63474 87.4065 8.87507C87.4606 9.0272 87.4525 9.19134 87.3834 9.33729C87.3143 9.48324 87.1927 9.59349 87.0408 9.64785L78.8855 12.5621C78.82 12.5854 78.7518 12.5973 78.6827 12.5973Z" fill="white"/>
<path d="M175.427 109.415L171.055 98.4269C170.835 97.8743 171.104 97.2475 171.656 97.0272L187.389 90.7456C187.94 90.5252 188.566 90.7948 188.786 91.3475L193.158 102.335C193.378 102.888 193.109 103.515 192.557 103.735L176.825 110.017C176.273 110.237 175.647 109.968 175.427 109.415Z" fill="#F2DEB2"/>
<path d="M190.268 103.061L186.34 93.1876C186.276 93.0289 186.354 92.8493 186.512 92.7859C186.67 92.7228 186.85 92.8 186.913 92.9586L190.841 102.832C190.904 102.991 190.827 103.171 190.669 103.234C190.511 103.297 190.331 103.22 190.268 103.061Z" fill="#556EB1"/>
<path d="M188.396 101.761L185.171 93.6543C185.108 93.4958 185.185 93.316 185.343 93.2528C185.501 93.1895 185.681 93.2669 185.744 93.4254L188.969 101.532C189.033 101.691 188.955 101.87 188.797 101.934C188.639 101.997 188.46 101.92 188.396 101.761Z" fill="#556EB1"/>
<path d="M187.931 103.995L184.002 94.1208C183.939 93.9622 184.016 93.7823 184.175 93.7192C184.333 93.656 184.512 93.7333 184.575 93.8919L188.504 103.766C188.567 103.924 188.49 104.104 188.332 104.167C188.173 104.231 187.994 104.153 187.931 103.995Z" fill="#556EB1"/>
<path d="M185.866 102.208L182.833 94.5876C182.77 94.4289 182.848 94.2491 183.006 94.186C183.164 94.1228 183.344 94.2001 183.407 94.3585L186.439 101.979C186.502 102.138 186.425 102.318 186.267 102.381C186.108 102.444 185.929 102.367 185.866 102.208Z" fill="#556EB1"/>
<path d="M190.162 92.1347L190.083 91.9359C190.054 91.8626 189.975 91.8256 189.906 91.853L188.413 92.4492C188.344 92.4765 188.312 92.5583 188.341 92.6314L188.421 92.8302C188.45 92.9035 188.529 92.9405 188.598 92.9131L190.091 92.3169C190.16 92.2895 190.192 92.2079 190.162 92.1347Z" fill="#415485"/>
<path d="M190.501 92.9852L190.422 92.7864C190.393 92.7131 190.313 92.6761 190.245 92.7034L188.752 93.2997C188.683 93.327 188.651 93.4087 188.68 93.4819L188.759 93.6807C188.788 93.7539 188.868 93.791 188.936 93.7634L190.43 93.1674C190.498 93.1399 190.53 93.0583 190.501 92.9852Z" fill="#415485"/>
<path d="M190.839 93.8356L190.76 93.6368C190.731 93.5636 190.652 93.5265 190.583 93.554L189.09 94.1501C189.021 94.1774 188.989 94.2592 189.018 94.3323L189.097 94.5311C189.127 94.6043 189.206 94.6414 189.275 94.614L190.768 94.0178C190.836 93.9904 190.869 93.9088 190.839 93.8356Z" fill="#415485"/>
<path d="M191.178 94.686L191.099 94.4872C191.069 94.414 190.99 94.3769 190.921 94.4043L189.428 95.0005C189.36 95.0279 189.328 95.1095 189.357 95.1827L189.436 95.3816C189.465 95.4547 189.544 95.4918 189.613 95.4643L191.106 94.8683C191.175 94.8407 191.207 94.7592 191.178 94.686Z" fill="#415485"/>
<path d="M191.516 95.5364L191.437 95.3376C191.408 95.2643 191.328 95.2274 191.26 95.2548L189.767 95.8508C189.698 95.8782 189.666 95.96 189.695 96.0332L189.774 96.232C189.803 96.3051 189.883 96.3422 189.951 96.3148L191.444 95.7186C191.513 95.6912 191.545 95.6097 191.516 95.5364Z" fill="#415485"/>
<path d="M191.854 96.3867L191.775 96.1881C191.746 96.1148 191.667 96.0777 191.598 96.1051L190.105 96.7013C190.036 96.7287 190.004 96.8103 190.033 96.8836L190.113 97.0823C190.142 97.1556 190.221 97.1925 190.29 97.1651L191.783 96.5691C191.851 96.5417 191.884 96.46 191.854 96.3867Z" fill="#415485"/>
<path d="M192.193 97.2372L192.114 97.0384C192.085 96.9651 192.005 96.9282 191.937 96.9556L190.443 97.5516C190.375 97.5791 190.343 97.6607 190.372 97.734L190.451 97.9328C190.48 98.0059 190.559 98.043 190.628 98.0156L192.121 97.4194C192.19 97.392 192.222 97.3105 192.193 97.2372Z" fill="#415485"/>
<path d="M192.531 98.0878L192.452 97.889C192.423 97.8158 192.344 97.7787 192.275 97.8062L190.782 98.4023C190.713 98.4297 190.681 98.5113 190.71 98.5845L190.789 98.7833C190.818 98.8566 190.898 98.8936 190.966 98.8662L192.459 98.2701C192.528 98.2425 192.56 98.1609 192.531 98.0878Z" fill="#415485"/>
<path d="M192.87 98.9381L192.791 98.7395C192.761 98.6662 192.682 98.6292 192.613 98.6566L191.12 99.2527C191.052 99.2801 191.02 99.3618 191.049 99.435L191.128 99.6337C191.157 99.707 191.236 99.7441 191.305 99.7167L192.798 99.1205C192.867 99.093 192.899 99.0114 192.87 98.9381Z" fill="#415485"/>
<path d="M193.208 99.7886L193.129 99.5898C193.1 99.5166 193.02 99.4795 192.952 99.507L191.459 100.103C191.39 100.131 191.358 100.212 191.387 100.285L191.466 100.484C191.495 100.557 191.575 100.594 191.643 100.567L193.136 99.9709C193.205 99.9434 193.237 99.8617 193.208 99.7886Z" fill="#415485"/>
<path d="M193.546 100.639L193.467 100.44C193.438 100.367 193.359 100.33 193.29 100.357L191.797 100.954C191.728 100.981 191.696 101.063 191.725 101.136L191.804 101.335C191.833 101.408 191.913 101.445 191.981 101.418L193.475 100.821C193.543 100.794 193.575 100.712 193.546 100.639Z" fill="#415485"/>
<path d="M193.885 101.49L193.806 101.291C193.777 101.218 193.697 101.18 193.629 101.208L192.136 101.804C192.067 101.831 192.035 101.913 192.064 101.986L192.143 102.185C192.172 102.258 192.251 102.295 192.32 102.268L193.813 101.672C193.882 101.644 193.914 101.563 193.885 101.49Z" fill="#415485"/>
<path d="M198.01 100.614L191.766 109.521C191.752 109.541 191.741 109.563 191.734 109.586L191.097 111.543C191.023 111.771 191.286 111.959 191.477 111.814L193.148 110.552C193.169 110.537 193.186 110.519 193.201 110.498L199.461 101.568C199.541 101.454 199.51 101.296 199.393 101.221L198.342 100.548C198.231 100.478 198.085 100.507 198.01 100.614Z" fill="#A05845"/>
<path d="M193.194 110.507L193.179 110.529L191.566 111.747L191.126 111.452L191.73 109.597C192.202 109.856 192.768 110.122 193.194 110.507Z" fill="#EACA81"/>
<path d="M134.753 4.19434C135.652 4.91288 137.216 7.22518 139.211 8.84846C140.377 9.79799 141.276 9.55638 142.766 9.73686C149.833 10.5926 147.918 12.0397 148.765 12.1818C148.525 12.7367 146.323 17.4252 145.912 18.3728C145.532 19.2469 144.876 19.6381 143.925 19.5064C142.464 19.304 140.989 19.1535 139.55 18.8409C135.862 18.0397 133.81 16.1917 131.166 13.9474C130.465 13.352 130.292 12.6093 130.656 11.7678C132.348 7.8512 134.57 4.55483 134.753 4.19434Z" fill="#556EB1"/>
<path d="M149.531 17.8218C149.499 19.3647 149.617 19.6743 148.956 19.4402C148.558 19.2993 148.172 19.1158 147.796 18.9214C147.531 18.7842 147.521 18.6033 147.736 18.3865C148.05 18.0709 148.372 17.7635 148.686 17.4571C148.456 16.8521 148.719 16.1479 149.284 15.8167C149.399 15.7491 149.315 15.8926 150.299 13.6235C147.045 13.2213 144.748 12.9513 140.778 12.4622C139.716 12.3315 138.772 11.9181 137.951 11.2299C135.115 8.85287 132.279 6.47558 129.445 4.09596C129.06 3.77315 129.011 3.30019 129.317 2.9362C129.55 2.65772 129.86 2.64442 130.192 2.68618C131.099 2.80005 139.984 3.9058 140.885 4.01138C142.071 4.15021 143.115 4.59739 144.031 5.36621C146.817 7.70348 149.611 10.0322 152.401 12.3653C152.783 12.6854 152.887 12.9792 152.753 13.3353C152.605 13.7264 152.282 13.913 151.795 13.8075C151.442 13.7315 151.287 13.8378 151.166 14.1643C150.619 15.64 150.237 15.9666 150.369 16.5054C150.471 16.9212 149.977 17.6411 149.531 17.8218Z" fill="#92AEEE"/>
<path d="M164.271 122.626L165.891 124.173C169.721 127.832 172.844 132.168 175.104 136.962L175.352 137.488C175.352 137.488 179.592 137.864 180.184 134.024C176.464 129.816 173.402 125.324 170.875 120.327L170.108 118.531L164.271 122.626Z" fill="#556EB1"/>
<path d="M170.105 118.526C170.313 118.825 169.175 119.98 167.564 121.105C165.953 122.231 164.471 122.914 164.263 122.616C164.055 122.317 165.2 121.148 166.811 120.023C168.422 118.897 169.897 118.227 170.105 118.526Z" fill="#92AEEE"/>
<path d="M170.111 118.537L170.106 118.531C170.106 118.531 166.878 121.268 165.548 121.547L165.959 122.107C166.444 121.844 166.996 121.502 167.564 121.105C169.157 119.993 170.286 118.852 170.111 118.537Z" fill="#415485"/>
<path d="M174.423 126.483C174.429 126.955 174.249 128.991 170.867 129.841C171.09 130.144 171.308 130.45 171.523 130.76C173.664 130.126 174.627 129.025 175.059 128.186C175.127 128.054 175.21 127.876 175.265 127.738C174.98 127.323 174.699 126.905 174.423 126.483Z" fill="#A05845"/>
<path d="M171.17 129.239L166.193 129.06L167.373 130.063L166.668 131.344L171.379 130.141L171.17 129.239Z" fill="#A05845"/>
<path d="M171.624 130.398L169.856 133.484L171.099 133.01L171.578 133.99L172.41 130.744L171.624 130.398Z" fill="#A05845"/>
<path d="M172.3 131.235C171.425 131.297 170.665 130.616 170.601 129.714C170.538 128.811 171.195 128.03 172.069 127.968C172.943 127.906 173.703 128.587 173.767 129.489C173.831 130.391 173.174 131.173 172.3 131.235Z" fill="#D7735A"/>
<path d="M182.865 61.2159L172.383 51.8463C171.702 51.2374 171.985 49.9848 172.925 49.4517L181.29 44.7068C181.826 44.403 182.429 44.4313 182.817 44.7783L193.299 54.1479C193.98 54.7568 193.697 56.0096 192.757 56.5425L184.392 61.2874C183.856 61.5912 183.253 61.5629 182.865 61.2159Z" fill="#A4BFF6"/>
<path d="M182.368 53.7625L181.494 46.5638C181.461 46.2881 181.661 45.9935 181.942 45.9058C182.222 45.818 182.477 45.9708 182.511 46.2463L183.315 52.8706L191.263 54.7959C191.522 54.8586 191.642 55.1386 191.53 55.4212C191.418 55.7036 191.116 55.8817 190.857 55.8187L182.368 53.7625Z" fill="white"/>
<path d="M45.4931 20.7893L46.5766 22.9362L49.0243 22.857L50.0687 25.3496L52.6499 24.4598L53.9552 27.2267L56.4327 26.7008L58.1231 29.1572L57.195 29.7981L55.9311 27.9615L53.3168 28.5164L52.062 25.8568L49.4376 26.7615L48.2851 24.0107L45.8948 24.0881L44.8906 22.0982L43.3315 22.4779L43.0651 21.3807L45.4931 20.7893Z" fill="#EACA81"/>
<path d="M176.578 75.7126L178.803 76.6182L180.597 74.9476L183.019 76.1399L184.381 73.7703L187.18 74.9975L188.703 72.9706L191.588 73.7102L191.309 74.8041L189.152 74.2512L187.544 76.3899L184.854 75.2104L183.469 77.6196L180.796 76.304L179.044 77.9354L176.982 77.0959L176.056 78.4082L175.135 77.7562L176.578 75.7126Z" fill="#7CBDA4"/>
<path d="M90.7801 151.5H90.7376C90.6705 151.498 90.6047 151.485 90.5428 151.459C90.4809 151.432 90.4254 151.395 90.3777 151.346C90.3312 151.298 90.2938 151.241 90.2693 151.179C90.2448 151.116 90.2332 151.049 90.2345 150.981L90.9994 117.758L93.2531 117.494L91.331 150.983C91.3232 151.124 91.2613 151.255 91.1581 151.352C91.0562 151.448 90.9207 151.501 90.7801 151.5Z" fill="#B9D2FC"/>
<path d="M77.6425 151.5H77.5938C77.5267 151.498 77.4603 151.485 77.3983 151.459C77.3366 151.432 77.2804 151.395 77.2336 151.346C77.1867 151.298 77.1499 151.241 77.1253 151.179C77.1006 151.116 77.0886 151.049 77.0902 150.981L77.8554 117.758L80.1093 117.494L78.1859 150.983C78.1781 151.122 78.118 151.254 78.0168 151.35C77.9156 151.445 77.7817 151.498 77.6425 151.5Z" fill="#A0BEF1"/>
<path d="M111.196 151.5H111.245C111.312 151.498 111.378 151.485 111.44 151.459C111.502 151.432 111.558 151.395 111.605 151.346C111.653 151.298 111.689 151.241 111.714 151.179C111.739 151.116 111.751 151.05 111.749 150.981L110.983 117.758L108.729 117.494L110.651 150.983C110.659 151.122 110.72 151.254 110.822 151.35C110.922 151.445 111.057 151.498 111.196 151.5Z" fill="#B9D2FC"/>
<path d="M76.1477 115.698V92.9314C76.1496 91.0098 76.9133 89.1658 78.271 87.8076C79.6294 86.4482 81.4702 85.6858 83.3897 85.6858H99.765C101.683 85.6858 103.524 86.4495 104.881 87.8076C106.237 89.1671 106.999 91.0098 106.999 92.9314V116.568L76.1477 115.698Z" fill="#B9D2FC"/>
<path d="M76.1477 115.698H109.937V119.293H78.3226C77.7456 119.293 77.1924 119.063 76.7847 118.655C76.3768 118.246 76.1477 117.692 76.1477 117.114V115.698Z" fill="#A0BEF1"/>
<path d="M150.415 62.6471L153.743 61.7699L151.487 91.9043L147.495 92.0377L149.509 63.742C149.546 63.2204 149.91 62.7802 150.415 62.6471Z" fill="#2F4855"/>
<path d="M151.786 92.7636C151.711 92.7705 151.635 92.7696 151.558 92.7603C150.897 92.6821 150.407 92.0237 150.465 91.2895L152.68 62.9544C152.737 62.2202 153.319 61.6882 153.98 61.7669C154.641 61.8451 155.131 62.5035 155.073 63.2377L152.858 91.5729C152.808 92.2212 152.348 92.7117 151.786 92.7636Z" fill="#EACA81"/>
<path d="M121.159 94.2728C121.161 94.2937 121.162 94.3144 121.164 94.3354C121.268 95.4881 122.16 96.3503 123.155 96.261L151.258 93.7414C152.254 93.6522 152.976 92.6452 152.872 91.4925C152.868 91.4437 152.861 91.3958 152.854 91.3481L121.159 94.2728Z" fill="#EACA81"/>
<path d="M140.729 124.709C138.888 125.731 133.264 123.938 133.264 123.776C133.183 125.317 126.965 140.389 126.965 140.389L126.97 145.027C126.97 145.027 139.782 145.638 139.598 144.504C139.413 143.37 138.724 144.108 136.169 141.966C135.942 141.776 132.353 140.941 133.324 138.813C135.28 134.528 139.434 127.384 140.729 124.709Z" fill="#E2A290"/>
<path d="M126.549 145.192L140.573 145.196C141.079 145.145 141.198 144.732 141.019 144.482C140.651 143.965 137.963 142.747 136.156 141.94C133.009 142.308 127.477 141.096 126.971 140.377C125.639 142.164 126.266 145.134 126.549 145.192Z" fill="#5E8D7C"/>
<path d="M123.472 113.887C123.282 113.317 135.547 108.103 136.096 108.699C137.067 109.753 129.46 129.532 129.46 129.532L138.2 132.207C138.2 132.207 147.286 109.355 146.906 105.176C146.527 100.996 141.975 96.2468 132.113 99.2865C122.252 102.326 123.472 113.887 123.472 113.887Z" fill="#415485"/>
<path d="M148.866 127.309C146.795 126.931 144.112 126.823 141.964 126.786C142.217 128.702 143.446 138.527 143.221 139.131C142.311 141.576 140.292 142.721 140.292 142.721C140.292 142.721 149.815 151.328 150.39 150.334C150.965 149.34 149.965 149.473 149.343 146.193C149.288 145.902 147.911 141.324 147.826 138.855C147.663 134.146 148.795 129.923 148.866 127.309Z" fill="#E2A290"/>
<path d="M145.81 95.167C144.482 94.4569 141.033 94.4321 137.24 94.6784C129.846 95.1583 122.548 96.6159 115.514 98.9498L110.808 100.512L110.823 95.6776C110.823 95.6776 95.8505 93.168 95.3296 96.8856C94.5451 102.483 95.5185 113.848 100.507 116.385C116.003 124.264 137.717 103.833 137.796 106.506C137.901 110.096 140.923 123.454 141.695 129.303C143.843 129.341 147.534 129.339 149.134 128.971C149.446 117.513 149.592 97.1882 145.81 95.167Z" fill="#556EB1"/>
<path d="M140.001 142.922L150.707 151.488C151.131 151.77 151.483 151.526 151.504 151.219C151.546 150.585 150.237 147.937 149.351 146.165C146.683 144.452 143.166 139.984 143.229 139.107C142.1 140.061 139.82 142.697 140.001 142.922Z" fill="#5E8D7C"/>
<path d="M115.77 48.4433C115.41 45.1503 115.032 41.8452 112.307 39.4315C110.101 37.4783 107.297 37.1474 104.525 38.1924C96.6696 41.1532 100.717 48.1419 90.7006 55.188C87.5882 57.3775 84.1576 58.8761 81.8144 61.8242C78.5345 65.9509 79.7728 70.9147 82.7621 74.2288C97.0654 90.0861 113.034 68.6706 114.18 63.5298C115.033 59.7055 116.001 50.5631 115.77 48.4433Z" fill="#263A5A"/>
<path d="M112.865 66.9608C111.697 64.8031 110.493 63.0909 110.493 63.0909C109.282 60.9328 106.151 59.8413 106.151 59.8413C106.151 59.8413 105.103 59.8625 103.901 59.9217C103.826 60.1215 103.75 60.2643 103.674 60.3217C103.222 60.6612 100.632 60.2229 98.9591 61.3606C93.3519 66.1756 94.9028 89.5139 95.3438 96.8853L112.421 97.0472C112.421 97.0472 110.268 81.1865 113.738 77.1116C116.154 74.2738 114.599 70.1614 112.865 66.9608Z" fill="#7CBDA4"/>
<path d="M105.168 51.9458C105.168 51.9458 104.229 58.6614 103.574 60.2933C102.918 61.9252 107.179 65.4154 110.724 66.4747C114.269 67.534 109.64 62.87 109.787 61.1254C109.934 59.3807 110.578 51.1208 110.578 51.1208L105.168 51.9458Z" fill="#E2A290"/>
<path d="M110.399 53.4896C110.503 52.1232 110.578 51.1208 110.578 51.1208L105.168 51.9458C105.168 51.9458 105.031 52.7347 104.881 53.8503C107.074 55.125 109.046 54.7228 110.399 53.4896Z" fill="#D7735A"/>
<path d="M106.864 39.6794C106.864 39.6794 104.732 40.1608 103.415 42.1737C102.098 44.1867 101.195 50.1127 105.532 52.8787C109.869 55.6449 113.241 51.7321 113.297 47.9157C113.353 44.0995 112.537 39.0064 106.864 39.6794Z" fill="#E2A290"/>
<path d="M114.29 46.7214C113.92 47.6422 113.186 48.2137 112.65 47.9978C112.115 47.7818 111.981 46.8603 112.351 45.9394C112.721 45.0185 113.455 44.447 113.99 44.6629C114.526 44.879 114.66 45.8005 114.29 46.7214Z" fill="#E2A290"/>
<path d="M107.504 39.5545C107.504 39.5545 104.786 45.6632 102.397 46.2088C100.009 46.7544 100.043 49.8281 100.043 49.8281C100.043 49.8281 100.097 42.7299 102.335 41.1017C104.573 39.4735 107.504 39.5545 107.504 39.5545Z" fill="#263A5A"/>
<path d="M103.346 47.4783C103.66 48.4703 103.373 49.4472 102.703 49.6601C102.034 49.873 101.236 49.2414 100.922 48.2494C100.607 47.2574 100.895 46.2805 101.565 46.0675C102.234 45.8547 103.032 46.4863 103.346 47.4783Z" fill="#E2A290"/>
<path d="M133.892 91.5805C132.867 91.2093 131.342 91.1634 131.367 91.0277C131.47 90.4791 135.996 92.2382 135.385 91.4381C135.045 90.9927 131.657 89.4141 130.833 89.6748C130.034 89.9275 124.788 91.4025 124.788 91.4025L110.451 88.0364C110.451 88.0364 106.832 79.7983 106.479 72.7208C103.487 73.1261 101.451 73.8666 98.8506 75.3122C100.104 82.0806 103.152 93.0519 106.521 95.1106C107.938 95.9767 124.859 94.074 124.859 94.074C124.859 94.074 128.588 93.8101 129.198 93.5754C129.66 93.3973 130.85 92.7261 131.497 92.5424C132.968 92.1251 135.59 93.1728 135.598 92.8844C135.604 92.674 134.938 91.9596 133.892 91.5805Z" fill="#E2A290"/>
<path d="M106.566 65.1585C106.429 62.9806 105.605 60.878 103.292 60.2009C101.858 59.7812 100.25 60.1828 99.104 61.1201C97.741 62.2353 97.3606 64.0242 97.3668 65.7173C97.3811 69.5617 97.6427 73.5477 98.3439 77.3328C100.944 75.8872 103.979 75.0185 106.97 74.6132C106.969 74.5907 106.749 68.0368 106.566 65.1585Z" fill="#AAD7C7"/>
<path d="M217.979 151.454H1.96725C1.77114 151.454 1.61215 151.613 1.61215 151.81V151.81C1.61215 152.006 1.77114 152.166 1.96725 152.166H217.979C218.175 152.166 218.334 152.006 218.334 151.81V151.81C218.334 151.613 218.175 151.454 217.979 151.454Z" fill="#343852"/>
</g>
<defs>
<clipPath id="clip0_390_1186">
<rect width="217.444" height="152" fill="white" transform="translate(0.88916 0.5)"/>
</clipPath>
</defs>
</svg>
