<svg width="24" height="25" viewBox="0 0 24 25" fill="none" xmlns="http://www.w3.org/2000/svg">
<g id="Car">
<path id="Vector" opacity="0.2" d="M17.25 17.75H21V20C21 20.1989 20.921 20.3897 20.7803 20.5303C20.6397 20.671 20.4489 20.75 20.25 20.75H18C17.8011 20.75 17.6103 20.671 17.4697 20.5303C17.329 20.3897 17.25 20.1989 17.25 20V17.75ZM3 20C3 20.1989 3.07902 20.3897 3.21967 20.5303C3.36032 20.671 3.55109 20.75 3.75 20.75H6C6.19891 20.75 6.38968 20.671 6.53033 20.5303C6.67098 20.3897 6.75 20.1989 6.75 20V17.75H3V20ZM18.1978 5.44531C18.1389 5.31276 18.0428 5.20015 17.9211 5.12111C17.7995 5.04207 17.6576 5 17.5125 5H6.4875C6.34244 5 6.20049 5.04207 6.07886 5.12111C5.95722 5.20015 5.86112 5.31276 5.80219 5.44531L3 11.75H21L18.1978 5.44531Z" fill="#00B0CB"/>
<path id="Vector_2" d="M22.5 11H21.4875L18.8831 5.14062C18.7653 4.87553 18.5731 4.65029 18.3298 4.49222C18.0865 4.33414 17.8026 4.25 17.5125 4.25H6.4875C6.19738 4.25 5.91349 4.33414 5.67022 4.49222C5.42695 4.65029 5.23474 4.87553 5.11688 5.14062L2.5125 11H1.5C1.30109 11 1.11032 11.079 0.96967 11.2197C0.829018 11.3603 0.75 11.5511 0.75 11.75C0.75 11.9489 0.829018 12.1397 0.96967 12.2803C1.11032 12.421 1.30109 12.5 1.5 12.5H2.25V20C2.25 20.3978 2.40804 20.7794 2.68934 21.0607C2.97064 21.342 3.35218 21.5 3.75 21.5H6C6.39782 21.5 6.77936 21.342 7.06066 21.0607C7.34196 20.7794 7.5 20.3978 7.5 20V18.5H16.5V20C16.5 20.3978 16.658 20.7794 16.9393 21.0607C17.2206 21.342 17.6022 21.5 18 21.5H20.25C20.6478 21.5 21.0294 21.342 21.3107 21.0607C21.592 20.7794 21.75 20.3978 21.75 20V12.5H22.5C22.6989 12.5 22.8897 12.421 23.0303 12.2803C23.171 12.1397 23.25 11.9489 23.25 11.75C23.25 11.5511 23.171 11.3603 23.0303 11.2197C22.8897 11.079 22.6989 11 22.5 11ZM6.4875 5.75H17.5125L19.8459 11H4.15406L6.4875 5.75ZM6 20H3.75V18.5H6V20ZM18 20V18.5H20.25V20H18ZM20.25 17H3.75V12.5H20.25V17ZM5.25 14.75C5.25 14.5511 5.32902 14.3603 5.46967 14.2197C5.61032 14.079 5.80109 14 6 14H7.5C7.69891 14 7.88968 14.079 8.03033 14.2197C8.17098 14.3603 8.25 14.5511 8.25 14.75C8.25 14.9489 8.17098 15.1397 8.03033 15.2803C7.88968 15.421 7.69891 15.5 7.5 15.5H6C5.80109 15.5 5.61032 15.421 5.46967 15.2803C5.32902 15.1397 5.25 14.9489 5.25 14.75ZM15.75 14.75C15.75 14.5511 15.829 14.3603 15.9697 14.2197C16.1103 14.079 16.3011 14 16.5 14H18C18.1989 14 18.3897 14.079 18.5303 14.2197C18.671 14.3603 18.75 14.5511 18.75 14.75C18.75 14.9489 18.671 15.1397 18.5303 15.2803C18.3897 15.421 18.1989 15.5 18 15.5H16.5C16.3011 15.5 16.1103 15.421 15.9697 15.2803C15.829 15.1397 15.75 14.9489 15.75 14.75Z" fill="#0028A3"/>
</g>
</svg>
