<svg width="24" height="25" viewBox="0 0 24 25" fill="none" xmlns="http://www.w3.org/2000/svg">
<g id="PersonSimpleBike">
<path id="Vector" opacity="0.2" d="M21.75 17C21.75 17.5933 21.5741 18.1734 21.2444 18.6667C20.9148 19.1601 20.4462 19.5446 19.8981 19.7716C19.3499 19.9987 18.7467 20.0581 18.1647 19.9424C17.5828 19.8266 17.0482 19.5409 16.6287 19.1213C16.2091 18.7018 15.9234 18.1672 15.8076 17.5853C15.6919 17.0033 15.7513 16.4001 15.9784 15.852C16.2054 15.3038 16.5899 14.8352 17.0833 14.5056C17.5766 14.1759 18.1567 14 18.75 14C19.5457 14 20.3087 14.3161 20.8713 14.8787C21.4339 15.4413 21.75 16.2044 21.75 17ZM5.25 14C4.65666 14 4.07664 14.1759 3.58329 14.5056C3.08994 14.8352 2.70543 15.3038 2.47836 15.852C2.2513 16.4001 2.19189 17.0033 2.30765 17.5853C2.4234 18.1672 2.70912 18.7018 3.12868 19.1213C3.54824 19.5409 4.08279 19.8266 4.66473 19.9424C5.24667 20.0581 5.84987 19.9987 6.39805 19.7716C6.94623 19.5446 7.41477 19.1601 7.74441 18.6667C8.07405 18.1734 8.25 17.5933 8.25 17C8.25 16.2044 7.93393 15.4413 7.37132 14.8787C6.80871 14.3161 6.04565 14 5.25 14Z" fill="#00B0CB"/>
<path id="Vector_2" d="M15.375 8C15.8942 8 16.4017 7.84605 16.8334 7.55761C17.2651 7.26917 17.6015 6.8592 17.8002 6.37955C17.9989 5.89989 18.0508 5.37209 17.9496 4.86289C17.8483 4.35369 17.5983 3.88596 17.2312 3.51885C16.864 3.15173 16.3963 2.90173 15.8871 2.80044C15.3779 2.69915 14.8501 2.75114 14.3705 2.94982C13.8908 3.1485 13.4808 3.48495 13.1924 3.91663C12.904 4.34831 12.75 4.85583 12.75 5.375C12.75 6.07119 13.0266 6.73887 13.5188 7.23116C14.0111 7.72344 14.6788 8 15.375 8ZM15.375 4.25C15.5975 4.25 15.815 4.31598 16 4.4396C16.185 4.56321 16.3292 4.73892 16.4144 4.94448C16.4995 5.15005 16.5218 5.37625 16.4784 5.59448C16.435 5.81271 16.3278 6.01316 16.1705 6.1705C16.0132 6.32783 15.8127 6.43498 15.5945 6.47838C15.3762 6.52179 15.1501 6.49951 14.9445 6.41437C14.7389 6.32922 14.5632 6.18502 14.4396 6.00002C14.316 5.81501 14.25 5.59751 14.25 5.375C14.25 5.07663 14.3685 4.79048 14.5795 4.57951C14.7905 4.36853 15.0766 4.25 15.375 4.25ZM18.75 13.25C18.0083 13.25 17.2833 13.4699 16.6666 13.882C16.0499 14.294 15.5693 14.8797 15.2855 15.5649C15.0016 16.2502 14.9274 17.0042 15.0721 17.7316C15.2168 18.459 15.5739 19.1272 16.0984 19.6517C16.6228 20.1761 17.291 20.5333 18.0184 20.6779C18.7458 20.8226 19.4998 20.7484 20.1851 20.4646C20.8703 20.1807 21.456 19.7001 21.868 19.0834C22.2801 18.4667 22.5 17.7417 22.5 17C22.5 16.0054 22.1049 15.0516 21.4017 14.3484C20.6984 13.6451 19.7446 13.25 18.75 13.25ZM18.75 19.25C18.305 19.25 17.87 19.118 17.5 18.8708C17.13 18.6236 16.8416 18.2722 16.6713 17.861C16.501 17.4499 16.4564 16.9975 16.5432 16.561C16.6301 16.1246 16.8443 15.7237 17.159 15.409C17.4737 15.0943 17.8746 14.8801 18.311 14.7932C18.7475 14.7064 19.1999 14.751 19.611 14.9213C20.0222 15.0916 20.3736 15.38 20.6208 15.75C20.868 16.12 21 16.555 21 17C21 17.5967 20.7629 18.169 20.341 18.591C19.919 19.013 19.3467 19.25 18.75 19.25ZM5.25 13.25C4.50832 13.25 3.7833 13.4699 3.16661 13.882C2.54993 14.294 2.06928 14.8797 1.78545 15.5649C1.50162 16.2502 1.42736 17.0042 1.57206 17.7316C1.71675 18.459 2.0739 19.1272 2.59835 19.6517C3.1228 20.1761 3.79098 20.5333 4.51841 20.6779C5.24584 20.8226 5.99984 20.7484 6.68506 20.4646C7.37029 20.1807 7.95596 19.7001 8.36801 19.0834C8.78007 18.4667 9 17.7417 9 17C9 16.5075 8.90301 16.0199 8.71455 15.5649C8.52609 15.11 8.24987 14.6966 7.90165 14.3484C7.55343 14.0001 7.14004 13.7239 6.68506 13.5355C6.23009 13.347 5.74246 13.25 5.25 13.25ZM5.25 19.25C4.80499 19.25 4.36998 19.118 3.99997 18.8708C3.62996 18.6236 3.34157 18.2722 3.17127 17.861C3.00098 17.4499 2.95642 16.9975 3.04323 16.561C3.13005 16.1246 3.34434 15.7237 3.65901 15.409C3.97368 15.0943 4.37459 14.8801 4.81105 14.7932C5.24751 14.7064 5.69991 14.751 6.11104 14.9213C6.52217 15.0916 6.87358 15.38 7.12081 15.75C7.36804 16.12 7.5 16.555 7.5 17C7.5 17.5967 7.26295 18.169 6.84099 18.591C6.41904 19.013 5.84674 19.25 5.25 19.25ZM18 11.75H14.25C14.1515 11.7501 14.0539 11.7307 13.9629 11.6931C13.8718 11.6555 13.7891 11.6003 13.7194 11.5306L11.25 9.06031L9.31031 11L12.5306 14.2194C12.6003 14.2891 12.6555 14.3718 12.6931 14.4629C12.7307 14.5539 12.7501 14.6515 12.75 14.75V19.25C12.75 19.4489 12.671 19.6397 12.5303 19.7803C12.3897 19.921 12.1989 20 12 20C11.8011 20 11.6103 19.921 11.4697 19.7803C11.329 19.6397 11.25 19.4489 11.25 19.25V15.0603L7.71938 11.5306C7.64964 11.461 7.59433 11.3783 7.55658 11.2872C7.51884 11.1962 7.49941 11.0986 7.49941 11C7.49941 10.9014 7.51884 10.8038 7.55658 10.7128C7.59433 10.6217 7.64964 10.539 7.71938 10.4694L10.7194 7.46938C10.789 7.39964 10.8717 7.34433 10.9628 7.30658C11.0538 7.26884 11.1514 7.24941 11.25 7.24941C11.3486 7.24941 11.4462 7.26884 11.5372 7.30658C11.6283 7.34433 11.711 7.39964 11.7806 7.46938L14.5603 10.25H18C18.1989 10.25 18.3897 10.329 18.5303 10.4697C18.671 10.6103 18.75 10.8011 18.75 11C18.75 11.1989 18.671 11.3897 18.5303 11.5303C18.3897 11.671 18.1989 11.75 18 11.75Z" fill="#0028A3"/>
</g>
</svg>
