<svg width="24" height="25" viewBox="0 0 24 25" fill="none" xmlns="http://www.w3.org/2000/svg">
<g id="User">
<path id="Vector" d="M21.6486 20.375C20.2208 17.9065 18.0205 16.1365 15.4527 15.2975C16.7229 14.5414 17.7097 13.3892 18.2617 12.0179C18.8136 10.6467 18.9002 9.13211 18.5081 7.70688C18.116 6.28165 17.2668 5.02454 16.0911 4.1286C14.9154 3.23266 13.4781 2.74744 11.9999 2.74744C10.5217 2.74744 9.08438 3.23266 7.90866 4.1286C6.73294 5.02454 5.88382 6.28165 5.49171 7.70688C5.09959 9.13211 5.18616 10.6467 5.73813 12.0179C6.29009 13.3892 7.27692 14.5414 8.54708 15.2975C5.97926 16.1356 3.77895 17.9056 2.35114 20.375C2.29878 20.4604 2.26405 20.5554 2.249 20.6544C2.23394 20.7534 2.23888 20.8544 2.2635 20.9515C2.28813 21.0486 2.33195 21.1397 2.39238 21.2196C2.45281 21.2995 2.52862 21.3664 2.61535 21.4165C2.70207 21.4666 2.79795 21.4988 2.89733 21.5113C2.99671 21.5237 3.09757 21.5161 3.19397 21.489C3.29037 21.4618 3.38034 21.4156 3.45859 21.3531C3.53684 21.2906 3.60178 21.213 3.64958 21.125C5.41583 18.0725 8.5377 16.25 11.9999 16.25C15.4621 16.25 18.584 18.0725 20.3502 21.125C20.398 21.213 20.4629 21.2906 20.5412 21.3531C20.6194 21.4156 20.7094 21.4618 20.8058 21.489C20.9022 21.5161 21.0031 21.5237 21.1024 21.5113C21.2018 21.4988 21.2977 21.4666 21.3844 21.4165C21.4712 21.3664 21.547 21.2995 21.6074 21.2196C21.6678 21.1397 21.7116 21.0486 21.7363 20.9515C21.7609 20.8544 21.7658 20.7534 21.7508 20.6544C21.7357 20.5554 21.701 20.4604 21.6486 20.375ZM6.74989 9.49999C6.74989 8.46164 7.05779 7.4466 7.63467 6.58324C8.21155 5.71989 9.03149 5.04698 9.9908 4.64962C10.9501 4.25226 12.0057 4.14829 13.0241 4.35086C14.0425 4.55344 14.978 5.05345 15.7122 5.78768C16.4464 6.5219 16.9464 7.45736 17.149 8.47576C17.3516 9.49416 17.2476 10.5498 16.8503 11.5091C16.4529 12.4684 15.78 13.2883 14.9166 13.8652C14.0533 14.4421 13.0382 14.75 11.9999 14.75C10.608 14.7485 9.27347 14.1949 8.28922 13.2107C7.30498 12.2264 6.75138 10.8919 6.74989 9.49999Z" fill="#0028A3"/>
</g>
</svg>
