<svg width="41" height="90" viewBox="0 0 41 90" fill="none" xmlns="http://www.w3.org/2000/svg">
<g id="Group 18852">
<path id="Vector" d="M20.6345 80.3275H20.5655L1.07308 72.4843C0.965381 72.4843 0.862091 72.387 0.785934 72.2137C0.709777 72.0405 0.666992 71.8055 0.666992 71.5605C0.666992 71.3155 0.709777 71.0805 0.785934 70.9073C0.862091 70.734 0.965381 70.6367 1.07308 70.6367L12.204 65.1677C12.2715 65.1342 12.3415 65.1404 12.4076 65.1857C12.4737 65.231 12.5336 65.3138 12.5817 65.4264C14.4194 69.7712 16.8735 72.4971 19.5096 73.1218C19.6924 73.1679 19.8711 73.2049 20.0538 73.2234C20.4595 73.2789 20.8663 73.2789 21.2721 73.2234C21.4629 73.2234 21.6416 73.1679 21.8203 73.1218C24.4579 72.4992 26.9135 69.7731 28.7523 65.4264C28.8004 65.3138 28.8603 65.231 28.9264 65.1857C28.9925 65.1404 29.0625 65.1342 29.1299 65.1677L40.2609 70.6367C40.3686 70.6367 40.4719 70.734 40.548 70.9073C40.6242 71.0805 40.667 71.3155 40.667 71.5605C40.667 71.8055 40.6242 72.0405 40.548 72.2137C40.4719 72.387 40.3686 72.4843 40.2609 72.4843L20.7685 80.3275H20.6345ZM3.23349 71.4681L20.6345 78.4614L38.0355 71.4681L29.1624 67.0985C27.2069 71.5445 24.6391 74.3266 21.8893 74.9786C21.6944 74.9786 21.4832 75.0618 21.2964 75.0802C20.8637 75.1403 20.4297 75.1403 19.9969 75.0802C19.8061 75.0802 19.5909 75.0248 19.4081 74.9786C16.6482 74.341 14.0695 71.5578 12.1066 67.0985L3.23349 71.4681Z" fill="black"/>
<path id="Vector_2" d="M20.6347 89.9997H20.5657L1.07328 82.1565C0.978681 82.1172 0.893288 82.0027 0.832308 81.8335C0.771329 81.6644 0.73872 81.4514 0.740288 81.2327V71.5603C0.739419 71.4246 0.75171 71.2901 0.776288 71.1664C0.800867 71.0427 0.837127 70.9328 0.882491 70.8446C0.927854 70.7564 0.981205 70.692 1.03875 70.6561C1.09629 70.6201 1.15661 70.6134 1.21542 70.6365L20.6347 78.4612L40.0743 70.6457C40.1331 70.6227 40.1934 70.6293 40.251 70.6653C40.3085 70.7013 40.3619 70.7656 40.4072 70.8538C40.4526 70.942 40.4888 71.0519 40.5134 71.1756C40.538 71.2993 40.5503 71.4338 40.5494 71.5696V81.2235C40.551 81.4422 40.5184 81.6551 40.4574 81.8243C40.3964 81.9935 40.311 82.1079 40.2164 82.1473L20.724 89.9905L20.6347 89.9997ZM1.54841 80.4475L20.6347 88.1336L39.721 80.4475V72.6597L20.7037 80.3089C20.6585 80.3367 20.6109 80.3367 20.5657 80.3089L1.54841 72.6597V80.4475Z" fill="black"/>
<path id="Vector_3" d="M20.6344 75.1257C20.4151 75.1257 20.1958 75.1257 19.9806 75.1257C19.7653 75.1257 19.5745 75.0703 19.3917 75.0241C16.5656 74.354 13.9347 71.4319 11.9643 66.7744C11.9237 66.6913 11.8709 66.5619 11.8222 66.4418L11.7775 66.2478C9.7346 61.2162 8.59814 54.621 8.59375 47.7715C8.59375 47.5265 8.63653 47.2915 8.71269 47.1182C8.78885 46.945 8.89214 46.8477 8.99984 46.8477H32.2689C32.3766 46.8477 32.4799 46.945 32.556 47.1182C32.6322 47.2915 32.675 47.5265 32.675 47.7715C32.6717 54.6197 31.5367 61.2148 29.4953 66.2478L29.4465 66.3679C29.3968 66.4949 29.344 66.6151 29.2882 66.7282C27.321 71.3755 24.694 74.2883 21.8729 74.9502C21.678 74.9502 21.4668 75.0333 21.28 75.0518C21.0932 75.0703 20.8536 75.1257 20.6344 75.1257ZM9.41405 48.6953C9.50628 54.7829 10.5569 60.5925 12.3745 65.0653L12.4191 65.1762L12.5328 65.4533C14.3745 69.8109 16.8342 72.5466 19.477 73.1765C19.6597 73.2226 19.8384 73.2596 20.0212 73.2781C20.4269 73.3336 20.8337 73.3336 21.2394 73.2781C21.4303 73.2781 21.609 73.2226 21.7877 73.1765C24.4253 72.5539 26.8809 69.8278 28.7196 65.4811C28.7765 65.361 28.813 65.2686 28.8496 65.1762L28.8983 65.0561C30.7138 60.5847 31.7629 54.7786 31.8547 48.6953H9.41405Z" fill="black"/>
<path id="Vector_4" d="M20.6347 75.1254C17.6539 75.1069 15.3555 63.0603 15.3555 47.6973C15.3555 47.4522 15.3983 47.2173 15.4744 47.044C15.5506 46.8708 15.6539 46.7734 15.7616 46.7734H25.5078C25.6155 46.7734 25.7187 46.8708 25.7949 47.044C25.8711 47.2173 25.9138 47.4522 25.9138 47.6973C25.9138 54.8846 25.3859 61.6561 24.4397 66.7648C23.4407 72.1784 22.0844 75.1254 20.6347 75.1254ZM16.1677 48.6303C16.2448 62.0719 18.2347 73.2685 20.5981 73.2778C21.7027 73.2778 22.8235 70.6634 23.6641 66.0997C24.6107 60.5493 25.0981 54.6485 25.1017 48.695L16.1677 48.6303Z" fill="black"/>
<path id="Vector_5" d="M32.2731 48.6953H8.99594C8.88823 48.6953 8.78494 48.598 8.70878 48.4247C8.63263 48.2515 8.58984 48.0165 8.58984 47.7715C8.58984 47.5265 8.63263 47.2915 8.70878 47.1182C8.78494 46.945 8.88823 46.8477 8.99594 46.8477H32.2731C32.3808 46.8477 32.4841 46.945 32.5602 47.1182C32.6364 47.2915 32.6792 47.5265 32.6792 47.7715C32.6792 48.0165 32.6364 48.2515 32.5602 48.4247C32.4841 48.598 32.3808 48.6953 32.2731 48.6953Z" fill="black"/>
<path id="Vector_6" d="M30.6283 62.2109H10.6405C10.5328 62.2109 10.4295 62.1136 10.3533 61.9403C10.2772 61.7671 10.2344 61.5321 10.2344 61.2871C10.2344 61.0421 10.2772 60.8071 10.3533 60.6339C10.4295 60.4606 10.5328 60.3633 10.6405 60.3633H30.6283C30.736 60.3633 30.8393 60.4606 30.9154 60.6339C30.9916 60.8071 31.0344 61.0421 31.0344 61.2871C31.0344 61.5321 30.9916 61.7671 30.9154 61.9403C30.8393 62.1136 30.736 62.2109 30.6283 62.2109Z" fill="black"/>
<path id="Vector_7" d="M16.2567 48.6305H10.1653C10.0576 48.6305 9.95431 48.5332 9.87816 48.36C9.802 48.1867 9.75921 47.9517 9.75921 47.7067V26.385C9.75511 26.1812 9.78078 25.9801 9.8322 25.813C9.88362 25.6459 9.95791 25.5222 10.0435 25.4612L16.1348 21.1285C16.1955 21.0851 16.2599 21.0747 16.3227 21.0982C16.3854 21.1217 16.4449 21.1785 16.4963 21.2639C16.5477 21.3493 16.5895 21.4609 16.6184 21.5899C16.6473 21.7188 16.6625 21.8614 16.6628 22.0061V47.7067C16.6628 47.9517 16.62 48.1867 16.5438 48.36C16.4677 48.5332 16.3644 48.6305 16.2567 48.6305ZM10.5714 46.7829H15.8506V23.3087L10.5714 27.0686V46.7829Z" fill="black"/>
<path id="Vector_8" d="M31.112 48.6303H25.0206C24.9129 48.6303 24.8096 48.533 24.7335 48.3597C24.6573 48.1865 24.6145 47.9515 24.6145 47.7065V22.0521C24.6122 21.9066 24.6249 21.7619 24.6518 21.6298C24.6786 21.4976 24.7188 21.3818 24.7691 21.2917C24.8194 21.2017 24.8783 21.1399 24.9411 21.1115C25.0038 21.0831 25.0687 21.0888 25.1303 21.1282L31.2216 24.9806C31.3095 25.0364 31.3865 25.158 31.4403 25.3256C31.4941 25.4931 31.5215 25.697 31.5181 25.9044V47.7065C31.5181 47.9515 31.4753 48.1865 31.3992 48.3597C31.323 48.533 31.2197 48.6303 31.112 48.6303ZM25.4267 46.7827H30.7059V26.6065L25.4267 23.2715V46.7827Z" fill="black"/>
<path id="Vector_9" d="M25.012 48.6306H16.2567C16.149 48.6306 16.0457 48.5333 15.9695 48.3601C15.8934 48.1868 15.8506 47.9518 15.8506 47.7068V15.0683C15.8506 14.8233 15.8934 14.5884 15.9695 14.4151C16.0457 14.2419 16.149 14.1445 16.2567 14.1445H25.012C25.1197 14.1445 25.223 14.2419 25.2992 14.4151C25.3753 14.5884 25.4181 14.8233 25.4181 15.0683V47.7068C25.4181 47.9518 25.3753 48.1868 25.2992 48.3601C25.223 48.5333 25.1197 48.6306 25.012 48.6306ZM16.6628 46.783H24.6059V15.9922H16.6628V46.783Z" fill="black"/>
<path id="Vector_10" d="M27.3106 30.7637H26.6771C26.5694 30.7637 26.4661 30.6663 26.3899 30.4931C26.3138 30.3198 26.271 30.0848 26.271 29.8398C26.271 29.5948 26.3138 29.3598 26.3899 29.1866C26.4661 29.0133 26.5694 28.916 26.6771 28.916H27.3106C27.4183 28.916 27.5216 29.0133 27.5977 29.1866C27.6739 29.3598 27.7167 29.5948 27.7167 29.8398C27.7167 30.0848 27.6739 30.3198 27.5977 30.4931C27.5216 30.6663 27.4183 30.7637 27.3106 30.7637Z" fill="black"/>
<path id="Vector_11" d="M29.447 30.7637H28.8094C28.7017 30.7637 28.5984 30.6663 28.5223 30.4931C28.4461 30.3198 28.4033 30.0848 28.4033 29.8398C28.4033 29.5948 28.4461 29.3598 28.5223 29.1866C28.5984 29.0133 28.7017 28.916 28.8094 28.916H29.447C29.5547 28.916 29.658 29.0133 29.7341 29.1866C29.8103 29.3598 29.8531 29.5948 29.8531 29.8398C29.8531 30.0848 29.8103 30.3198 29.7341 30.4931C29.658 30.6663 29.5547 30.7637 29.447 30.7637Z" fill="black"/>
<path id="Vector_12" d="M27.3106 35.8086H26.6771C26.5694 35.8086 26.4661 35.7112 26.3899 35.538C26.3138 35.3647 26.271 35.1298 26.271 34.8848C26.271 34.6397 26.3138 34.4048 26.3899 34.2315C26.4661 34.0583 26.5694 33.9609 26.6771 33.9609H27.3106C27.4183 33.9609 27.5216 34.0583 27.5977 34.2315C27.6739 34.4048 27.7167 34.6397 27.7167 34.8848C27.7167 35.1298 27.6739 35.3647 27.5977 35.538C27.5216 35.7112 27.4183 35.8086 27.3106 35.8086Z" fill="black"/>
<path id="Vector_13" d="M29.447 35.8086H28.8094C28.7017 35.8086 28.5984 35.7112 28.5223 35.538C28.4461 35.3647 28.4033 35.1298 28.4033 34.8848C28.4033 34.6397 28.4461 34.4048 28.5223 34.2315C28.5984 34.0583 28.7017 33.9609 28.8094 33.9609H29.447C29.5547 33.9609 29.658 34.0583 29.7341 34.2315C29.8103 34.4048 29.8531 34.6397 29.8531 34.8848C29.8531 35.1298 29.8103 35.3647 29.7341 35.538C29.658 35.7112 29.5547 35.8086 29.447 35.8086Z" fill="black"/>
<path id="Vector_14" d="M27.3106 40.8437H26.6771C26.5694 40.8437 26.4661 40.7464 26.3899 40.5731C26.3138 40.3999 26.271 40.1649 26.271 39.9199C26.271 39.6749 26.3138 39.4399 26.3899 39.2667C26.4661 39.0934 26.5694 38.9961 26.6771 38.9961H27.3106C27.4183 38.9961 27.5216 39.0934 27.5977 39.2667C27.6739 39.4399 27.7167 39.6749 27.7167 39.9199C27.7167 40.1649 27.6739 40.3999 27.5977 40.5731C27.5216 40.7464 27.4183 40.8437 27.3106 40.8437Z" fill="black"/>
<path id="Vector_15" d="M29.447 40.8437H28.8094C28.7017 40.8437 28.5984 40.7464 28.5223 40.5731C28.4461 40.3999 28.4033 40.1649 28.4033 39.9199C28.4033 39.6749 28.4461 39.4399 28.5223 39.2667C28.5984 39.0934 28.7017 38.9961 28.8094 38.9961H29.447C29.5547 38.9961 29.658 39.0934 29.7341 39.2667C29.8103 39.4399 29.8531 39.6749 29.8531 39.9199C29.8531 40.1649 29.8103 40.3999 29.7341 40.5731C29.658 40.7464 29.5547 40.8437 29.447 40.8437Z" fill="black"/>
<path id="Vector_16" d="M12.4597 30.7637H11.8221C11.7144 30.7637 11.6111 30.6663 11.535 30.4931C11.4588 30.3198 11.416 30.0848 11.416 29.8398C11.416 29.5948 11.4588 29.3598 11.535 29.1866C11.6111 29.0133 11.7144 28.916 11.8221 28.916H12.4597C12.5674 28.916 12.6707 29.0133 12.7468 29.1866C12.823 29.3598 12.8658 29.5948 12.8658 29.8398C12.8658 30.0848 12.823 30.3198 12.7468 30.4931C12.6707 30.6663 12.5674 30.7637 12.4597 30.7637Z" fill="black"/>
<path id="Vector_17" d="M14.5923 30.7637H13.9588C13.8511 30.7637 13.7478 30.6663 13.6717 30.4931C13.5955 30.3198 13.5527 30.0848 13.5527 29.8398C13.5527 29.5948 13.5955 29.3598 13.6717 29.1866C13.7478 29.0133 13.8511 28.916 13.9588 28.916H14.5923C14.7 28.916 14.8033 29.0133 14.8795 29.1866C14.9556 29.3598 14.9984 29.5948 14.9984 29.8398C14.9984 30.0848 14.9556 30.3198 14.8795 30.4931C14.8033 30.6663 14.7 30.7637 14.5923 30.7637Z" fill="black"/>
<path id="Vector_18" d="M12.4597 35.8086H11.8221C11.7144 35.8086 11.6111 35.7112 11.535 35.538C11.4588 35.3647 11.416 35.1298 11.416 34.8848C11.416 34.6397 11.4588 34.4048 11.535 34.2315C11.6111 34.0583 11.7144 33.9609 11.8221 33.9609H12.4597C12.5674 33.9609 12.6707 34.0583 12.7468 34.2315C12.823 34.4048 12.8658 34.6397 12.8658 34.8848C12.8658 35.1298 12.823 35.3647 12.7468 35.538C12.6707 35.7112 12.5674 35.8086 12.4597 35.8086Z" fill="black"/>
<path id="Vector_19" d="M14.5923 35.8086H13.9588C13.8511 35.8086 13.7478 35.7112 13.6717 35.538C13.5955 35.3647 13.5527 35.1298 13.5527 34.8848C13.5527 34.6397 13.5955 34.4048 13.6717 34.2315C13.7478 34.0583 13.8511 33.9609 13.9588 33.9609H14.5923C14.7 33.9609 14.8033 34.0583 14.8795 34.2315C14.9556 34.4048 14.9984 34.6397 14.9984 34.8848C14.9984 35.1298 14.9556 35.3647 14.8795 35.538C14.8033 35.7112 14.7 35.8086 14.5923 35.8086Z" fill="black"/>
<path id="Vector_20" d="M12.4597 40.8437H11.8221C11.7144 40.8437 11.6111 40.7464 11.535 40.5731C11.4588 40.3999 11.416 40.1649 11.416 39.9199C11.416 39.6749 11.4588 39.4399 11.535 39.2667C11.6111 39.0934 11.7144 38.9961 11.8221 38.9961H12.4597C12.5674 38.9961 12.6707 39.0934 12.7468 39.2667C12.823 39.4399 12.8658 39.6749 12.8658 39.9199C12.8658 40.1649 12.823 40.3999 12.7468 40.5731C12.6707 40.7464 12.5674 40.8437 12.4597 40.8437Z" fill="black"/>
<path id="Vector_21" d="M14.5923 40.8437H13.9588C13.8511 40.8437 13.7478 40.7464 13.6717 40.5731C13.5955 40.3999 13.5527 40.1649 13.5527 39.9199C13.5527 39.6749 13.5955 39.4399 13.6717 39.2667C13.7478 39.0934 13.8511 38.9961 13.9588 38.9961H14.5923C14.7 38.9961 14.8033 39.0934 14.8795 39.2667C14.9556 39.4399 14.9984 39.6749 14.9984 39.9199C14.9984 40.1649 14.9556 40.3999 14.8795 40.5731C14.8033 40.7464 14.7 40.8437 14.5923 40.8437Z" fill="black"/>
<path id="Vector_22" d="M19.5669 21.4707H18.9334C18.8257 21.4707 18.7224 21.3734 18.6463 21.2001C18.5701 21.0269 18.5273 20.7919 18.5273 20.5469C18.5273 20.3019 18.5701 20.0669 18.6463 19.8936C18.7224 19.7204 18.8257 19.623 18.9334 19.623H19.5669C19.6746 19.623 19.7779 19.7204 19.8541 19.8936C19.9302 20.0669 19.973 20.3019 19.973 20.5469C19.973 20.7919 19.9302 21.0269 19.8541 21.2001C19.7779 21.3734 19.6746 21.4707 19.5669 21.4707Z" fill="black"/>
<path id="Vector_23" d="M22.3365 21.4707H21.703C21.5953 21.4707 21.492 21.3734 21.4158 21.2001C21.3397 21.0269 21.2969 20.7919 21.2969 20.5469C21.2969 20.3019 21.3397 20.0669 21.4158 19.8936C21.492 19.7204 21.5953 19.623 21.703 19.623H22.3365C22.4442 19.623 22.5475 19.7204 22.6236 19.8936C22.6998 20.0669 22.7426 20.3019 22.7426 20.5469C22.7426 20.7919 22.6998 21.0269 22.6236 21.2001C22.5475 21.3734 22.4442 21.4707 22.3365 21.4707Z" fill="black"/>
<path id="Vector_24" d="M19.5669 26.5234H18.9334C18.8257 26.5234 18.7224 26.4261 18.6463 26.2528C18.5701 26.0796 18.5273 25.8446 18.5273 25.5996C18.5273 25.3546 18.5701 25.1196 18.6463 24.9464C18.7224 24.7731 18.8257 24.6758 18.9334 24.6758H19.5669C19.6746 24.6758 19.7779 24.7731 19.8541 24.9464C19.9302 25.1196 19.973 25.3546 19.973 25.5996C19.973 25.8446 19.9302 26.0796 19.8541 26.2528C19.7779 26.4261 19.6746 26.5234 19.5669 26.5234Z" fill="black"/>
<path id="Vector_25" d="M22.3365 26.5234H21.703C21.5953 26.5234 21.492 26.4261 21.4158 26.2528C21.3397 26.0796 21.2969 25.8446 21.2969 25.5996C21.2969 25.3546 21.3397 25.1196 21.4158 24.9464C21.492 24.7731 21.5953 24.6758 21.703 24.6758H22.3365C22.4442 24.6758 22.5475 24.7731 22.6236 24.9464C22.6998 25.1196 22.7426 25.3546 22.7426 25.5996C22.7426 25.8446 22.6998 26.0796 22.6236 26.2528C22.5475 26.4261 22.4442 26.5234 22.3365 26.5234Z" fill="black"/>
<path id="Vector_26" d="M19.5669 31.5586H18.9334C18.8257 31.5586 18.7224 31.4612 18.6463 31.288C18.5701 31.1147 18.5273 30.8798 18.5273 30.6348C18.5273 30.3897 18.5701 30.1548 18.6463 29.9815C18.7224 29.8083 18.8257 29.7109 18.9334 29.7109H19.5669C19.6746 29.7109 19.7779 29.8083 19.8541 29.9815C19.9302 30.1548 19.973 30.3897 19.973 30.6348C19.973 30.8798 19.9302 31.1147 19.8541 31.288C19.7779 31.4612 19.6746 31.5586 19.5669 31.5586Z" fill="black"/>
<path id="Vector_27" d="M22.3365 31.5586H21.703C21.5953 31.5586 21.492 31.4612 21.4158 31.288C21.3397 31.1147 21.2969 30.8798 21.2969 30.6348C21.2969 30.3897 21.3397 30.1548 21.4158 29.9815C21.492 29.8083 21.5953 29.7109 21.703 29.7109H22.3365C22.4442 29.7109 22.5475 29.8083 22.6236 29.9815C22.6998 30.1548 22.7426 30.3897 22.7426 30.6348C22.7426 30.8798 22.6998 31.1147 22.6236 31.288C22.5475 31.4612 22.4442 31.5586 22.3365 31.5586Z" fill="black"/>
<path id="Vector_28" d="M19.5669 31.5586H18.9334C18.8257 31.5586 18.7224 31.4612 18.6463 31.288C18.5701 31.1147 18.5273 30.8798 18.5273 30.6348C18.5273 30.3897 18.5701 30.1548 18.6463 29.9815C18.7224 29.8083 18.8257 29.7109 18.9334 29.7109H19.5669C19.6746 29.7109 19.7779 29.8083 19.8541 29.9815C19.9302 30.1548 19.973 30.3897 19.973 30.6348C19.973 30.8798 19.9302 31.1147 19.8541 31.288C19.7779 31.4612 19.6746 31.5586 19.5669 31.5586Z" fill="black"/>
<path id="Vector_29" d="M22.3365 31.5586H21.703C21.5953 31.5586 21.492 31.4612 21.4158 31.288C21.3397 31.1147 21.2969 30.8798 21.2969 30.6348C21.2969 30.3897 21.3397 30.1548 21.4158 29.9815C21.492 29.8083 21.5953 29.7109 21.703 29.7109H22.3365C22.4442 29.7109 22.5475 29.8083 22.6236 29.9815C22.6998 30.1548 22.7426 30.3897 22.7426 30.6348C22.7426 30.8798 22.6998 31.1147 22.6236 31.288C22.5475 31.4612 22.4442 31.5586 22.3365 31.5586Z" fill="black"/>
<path id="Vector_30" d="M19.5669 36.6035H18.9334C18.8257 36.6035 18.7224 36.5062 18.6463 36.3329C18.5701 36.1597 18.5273 35.9247 18.5273 35.6797C18.5273 35.4347 18.5701 35.1997 18.6463 35.0264C18.7224 34.8532 18.8257 34.7559 18.9334 34.7559H19.5669C19.6746 34.7559 19.7779 34.8532 19.8541 35.0264C19.9302 35.1997 19.973 35.4347 19.973 35.6797C19.973 35.9247 19.9302 36.1597 19.8541 36.3329C19.7779 36.5062 19.6746 36.6035 19.5669 36.6035Z" fill="black"/>
<path id="Vector_31" d="M22.3365 36.6035H21.703C21.5953 36.6035 21.492 36.5062 21.4158 36.3329C21.3397 36.1597 21.2969 35.9247 21.2969 35.6797C21.2969 35.4347 21.3397 35.1997 21.4158 35.0264C21.492 34.8532 21.5953 34.7559 21.703 34.7559H22.3365C22.4442 34.7559 22.5475 34.8532 22.6236 35.0264C22.6998 35.1997 22.7426 35.4347 22.7426 35.6797C22.7426 35.9247 22.6998 36.1597 22.6236 36.3329C22.5475 36.5062 22.4442 36.6035 22.3365 36.6035Z" fill="black"/>
<path id="Vector_32" d="M19.5669 41.6465H18.9334C18.8257 41.6465 18.7224 41.5491 18.6463 41.3759C18.5701 41.2026 18.5273 40.9677 18.5273 40.7226C18.5273 40.4776 18.5701 40.2427 18.6463 40.0694C18.7224 39.8962 18.8257 39.7988 18.9334 39.7988H19.5669C19.6746 39.7988 19.7779 39.8962 19.8541 40.0694C19.9302 40.2427 19.973 40.4776 19.973 40.7226C19.973 40.9677 19.9302 41.2026 19.8541 41.3759C19.7779 41.5491 19.6746 41.6465 19.5669 41.6465Z" fill="black"/>
<path id="Vector_33" d="M22.3365 41.6465H21.703C21.5953 41.6465 21.492 41.5491 21.4158 41.3759C21.3397 41.2026 21.2969 40.9677 21.2969 40.7226C21.2969 40.4776 21.3397 40.2427 21.4158 40.0694C21.492 39.8962 21.5953 39.7988 21.703 39.7988H22.3365C22.4442 39.7988 22.5475 39.8962 22.6236 40.0694C22.6998 40.2427 22.7426 40.4776 22.7426 40.7226C22.7426 40.9677 22.6998 41.2026 22.6236 41.3759C22.5475 41.5491 22.4442 41.6465 22.3365 41.6465Z" fill="black"/>
<path id="Vector_34" d="M22.0189 15.9917H17.6209C17.5132 15.9917 17.4099 15.8944 17.3338 15.7211C17.2576 15.5479 17.2148 15.3129 17.2148 15.0679V11.1601C17.2148 10.9151 17.2576 10.6802 17.3338 10.5069C17.4099 10.3337 17.5132 10.2363 17.6209 10.2363H22.0189C22.1266 10.2363 22.2299 10.3337 22.3061 10.5069C22.3822 10.6802 22.425 10.9151 22.425 11.1601V15.0679C22.425 15.3129 22.3822 15.5479 22.3061 15.7211C22.2299 15.8944 22.1266 15.9917 22.0189 15.9917ZM18.027 14.1441H21.6128V12.084H18.027V14.1441Z" fill="black"/>
<path id="Vector_35" d="M18.9329 12.0835C18.8252 12.0835 18.722 11.9862 18.6458 11.813C18.5696 11.6397 18.5269 11.4047 18.5269 11.1597V0.923817C18.5269 0.678806 18.5696 0.443829 18.6458 0.27058C18.722 0.0973307 18.8252 0 18.9329 0C19.0406 0 19.1439 0.0973307 19.2201 0.27058C19.2963 0.443829 19.339 0.678806 19.339 0.923817V11.1597C19.339 11.4047 19.2963 11.6397 19.2201 11.813C19.1439 11.9862 19.0406 12.0835 18.9329 12.0835Z" fill="black"/>
<path id="Vector_36" d="M20.7078 12.0839C20.6001 12.0839 20.4969 11.9866 20.4207 11.8133C20.3445 11.6401 20.3018 11.4051 20.3018 11.1601V5.27538C20.3018 5.03037 20.3445 4.79539 20.4207 4.62214C20.4969 4.44889 20.6001 4.35156 20.7078 4.35156C20.8156 4.35156 20.9188 4.44889 20.995 4.62214C21.0712 4.79539 21.1139 5.03037 21.1139 5.27538V11.1693C21.1129 11.4127 21.0696 11.6454 20.9936 11.8166C20.9175 11.9879 20.8149 12.0839 20.7078 12.0839Z" fill="black"/>
</g>
</svg>
