<svg width="24" height="24" viewBox="0 0 24 24" fill="none" xmlns="http://www.w3.org/2000/svg">
<g id="CaretLeft">
<path id="Vector" d="M15.5305 18.9693C15.6002 19.039 15.6554 19.1217 15.6932 19.2128C15.7309 19.3038 15.7503 19.4014 15.7503 19.4999C15.7503 19.5985 15.7309 19.6961 15.6932 19.7871C15.6554 19.8781 15.6002 19.9609 15.5305 20.0306C15.4608 20.1002 15.3781 20.1555 15.287 20.1932C15.196 20.2309 15.0984 20.2503 14.9999 20.2503C14.9013 20.2503 14.8037 20.2309 14.7127 20.1932C14.6216 20.1555 14.5389 20.1002 14.4692 20.0306L6.96923 12.5306C6.8995 12.4609 6.84418 12.3782 6.80644 12.2871C6.76869 12.1961 6.74927 12.0985 6.74927 11.9999C6.74927 11.9014 6.76869 11.8038 6.80644 11.7127C6.84418 11.6217 6.8995 11.539 6.96923 11.4693L14.4692 3.9693C14.61 3.82857 14.8008 3.74951 14.9999 3.74951C15.1989 3.74951 15.3898 3.82857 15.5305 3.9693C15.6712 4.11003 15.7503 4.30091 15.7503 4.49993C15.7503 4.69895 15.6712 4.88982 15.5305 5.03055L8.56017 11.9999L15.5305 18.9693Z" fill="url(#paint0_linear_48_8374)"/>
</g>
<defs>
<linearGradient id="paint0_linear_48_8374" x1="6.74927" y1="11.8647" x2="15.7503" y2="11.8647" gradientUnits="userSpaceOnUse">
<stop stop-color="#00B6CB"/>
<stop offset="1" stop-color="#253B95"/>
</linearGradient>
</defs>
</svg>
