<svg width="20" height="20" viewBox="0 0 20 20" fill="none" xmlns="http://www.w3.org/2000/svg">
<g id="CaretDown">
<path id="Vector" d="M16.692 7.94229L10.442 14.1923C10.384 14.2504 10.3151 14.2965 10.2392 14.328C10.1633 14.3594 10.082 14.3756 9.99986 14.3756C9.91772 14.3756 9.8364 14.3594 9.76052 14.328C9.68465 14.2965 9.61572 14.2504 9.55767 14.1923L3.30767 7.94229C3.1904 7.82502 3.12451 7.66596 3.12451 7.5001C3.12451 7.33425 3.1904 7.17519 3.30767 7.05792C3.42495 6.94064 3.58401 6.87476 3.74986 6.87476C3.91571 6.87476 4.07477 6.94064 4.19205 7.05792L9.99986 12.8665L15.8077 7.05792C15.8657 6.99985 15.9347 6.95378 16.0105 6.92236C16.0864 6.89093 16.1677 6.87476 16.2499 6.87476C16.332 6.87476 16.4133 6.89093 16.4892 6.92236C16.565 6.95378 16.634 6.99985 16.692 7.05792C16.7501 7.11598 16.7962 7.18492 16.8276 7.26079C16.859 7.33666 16.8752 7.41798 16.8752 7.5001C16.8752 7.58223 16.859 7.66354 16.8276 7.73941C16.7962 7.81528 16.7501 7.88422 16.692 7.94229Z" fill="url(#paint0_linear_48_9100)"/>
</g>
<defs>
<linearGradient id="paint0_linear_48_9100" x1="3.12451" y1="10.5637" x2="16.8752" y2="10.5637" gradientUnits="userSpaceOnUse">
<stop stop-color="#00B6CB"/>
<stop offset="1" stop-color="#253B95"/>
</linearGradient>
</defs>
</svg>
