<svg width="20" height="20" viewBox="0 0 20 20" fill="none" xmlns="http://www.w3.org/2000/svg">
<g id="CaretRight">
<path id="Vector" d="M14.192 10.4423L7.94205 16.6923C7.88398 16.7504 7.81504 16.7964 7.73917 16.8278C7.6633 16.8593 7.58198 16.8755 7.49986 16.8755C7.41774 16.8755 7.33642 16.8593 7.26055 16.8278C7.18468 16.7964 7.11574 16.7504 7.05767 16.6923C6.9996 16.6342 6.95354 16.5653 6.92211 16.4894C6.89069 16.4135 6.87451 16.3322 6.87451 16.2501C6.87451 16.168 6.89069 16.0867 6.92211 16.0108C6.95354 15.9349 6.9996 15.866 7.05767 15.8079L12.8663 10.0001L7.05767 4.19229C6.9404 4.07502 6.87451 3.91596 6.87451 3.7501C6.87451 3.58425 6.9404 3.42519 7.05767 3.30792C7.17495 3.19064 7.33401 3.12476 7.49986 3.12476C7.66571 3.12476 7.82477 3.19064 7.94205 3.30792L14.192 9.55792C14.2502 9.61596 14.2963 9.68489 14.3277 9.76077C14.3592 9.83664 14.3754 9.91797 14.3754 10.0001C14.3754 10.0822 14.3592 10.1636 14.3277 10.2394C14.2963 10.3153 14.2502 10.3842 14.192 10.4423Z" fill="url(#paint0_linear_48_9247)"/>
</g>
<defs>
<linearGradient id="paint0_linear_48_9247" x1="6.87451" y1="9.88739" x2="14.3754" y2="9.88739" gradientUnits="userSpaceOnUse">
<stop stop-color="#00B6CB"/>
<stop offset="1" stop-color="#253B95"/>
</linearGradient>
</defs>
</svg>
