<svg width="28" height="28" viewBox="0 0 28 28" fill="none" xmlns="http://www.w3.org/2000/svg">
<g id="CheckCircle">
<path id="Vector" opacity="0.2" d="M24.5 14C24.5 16.0767 23.8842 18.1068 22.7304 19.8335C21.5767 21.5602 19.9368 22.906 18.0182 23.7007C16.0996 24.4955 13.9884 24.7034 11.9516 24.2982C9.91476 23.8931 8.04383 22.8931 6.57538 21.4246C5.10693 19.9562 4.1069 18.0852 3.70176 16.0484C3.29661 14.0116 3.50455 11.9004 4.29927 9.98182C5.09399 8.0632 6.4398 6.42332 8.16652 5.26957C9.89323 4.11581 11.9233 3.5 14 3.5C16.7848 3.5 19.4555 4.60625 21.4246 6.57538C23.3938 8.54451 24.5 11.2152 24.5 14Z" fill="#00B0CB"/>
<path id="Vector_2" d="M18.9941 10.7559C19.0754 10.8372 19.14 10.9337 19.184 11.0399C19.228 11.1461 19.2507 11.26 19.2507 11.375C19.2507 11.49 19.228 11.6038 19.184 11.7101C19.14 11.8163 19.0754 11.9128 18.9941 11.9941L12.8691 18.1191C12.7878 18.2004 12.6913 18.265 12.5851 18.309C12.4789 18.353 12.365 18.3757 12.25 18.3757C12.135 18.3757 12.0212 18.353 11.9149 18.309C11.8087 18.265 11.7122 18.2004 11.6309 18.1191L9.00594 15.4941C8.84176 15.3299 8.74952 15.1072 8.74952 14.875C8.74952 14.6428 8.84176 14.4201 9.00594 14.2559C9.17013 14.0918 9.39281 13.9995 9.625 13.9995C9.8572 13.9995 10.0799 14.0918 10.2441 14.2559L12.25 16.263L17.7559 10.7559C17.8372 10.6746 17.9337 10.61 18.0399 10.566C18.1462 10.522 18.26 10.4993 18.375 10.4993C18.49 10.4993 18.6039 10.522 18.7101 10.566C18.8163 10.61 18.9128 10.6746 18.9941 10.7559ZM25.375 14C25.375 16.2498 24.7079 18.449 23.458 20.3196C22.2081 22.1902 20.4315 23.6482 18.353 24.5091C16.2745 25.3701 13.9874 25.5953 11.7809 25.1564C9.57432 24.7175 7.54749 23.6342 5.95667 22.0433C4.36584 20.4525 3.28248 18.4257 2.84357 16.2192C2.40467 14.0126 2.62993 11.7255 3.49088 9.64698C4.35182 7.56847 5.80978 5.79193 7.68039 4.54203C9.551 3.29213 11.7502 2.625 14 2.625C17.0159 2.62818 19.9073 3.82764 22.0398 5.96018C24.1724 8.09271 25.3718 10.9841 25.375 14ZM23.625 14C23.625 12.0964 23.0605 10.2355 22.0029 8.65264C20.9453 7.06981 19.4421 5.83615 17.6833 5.10766C15.9246 4.37917 13.9893 4.18856 12.1223 4.55994C10.2552 4.93132 8.54018 5.84802 7.1941 7.1941C5.84802 8.54018 4.93133 10.2552 4.55995 12.1223C4.18856 13.9893 4.37917 15.9246 5.10766 17.6833C5.83616 19.4421 7.06982 20.9453 8.65264 22.0029C10.2355 23.0605 12.0964 23.625 14 23.625C16.5518 23.6221 18.9983 22.6071 20.8027 20.8027C22.6071 18.9983 23.6221 16.5518 23.625 14Z" fill="#0028A3"/>
</g>
</svg>
