<svg width="244" height="146" viewBox="0 0 244 146" fill="none" xmlns="http://www.w3.org/2000/svg">
<g clip-path="url(#clip0_48_14575)">
<path d="M15.1215 146L90.4022 145.605L110.469 145.599H117.117L137.221 145.593L229.072 145.567C229.072 145.567 250.081 118.393 227.64 92.5844C204.372 65.8255 193.058 87.6181 185.906 49.9518C167.904 -44.862 -10.0866 10.321 36.5991 91.0023C53.409 120.053 3.5095 104.612 15.1215 146Z" fill="#EBF3FA"/>
<path d="M102.207 141.431C102.207 141.431 102.492 144.738 101.793 145.082L92.8428 145.061C92.8428 145.061 92.8428 144.028 94.28 143.798C95.7173 143.568 98.2438 142.728 98.6704 140.854C99.0971 138.981 102.207 141.431 102.207 141.431Z" fill="#233862"/>
<path d="M127.883 140.152C127.883 140.152 128.148 144.738 127.453 145.082L118.503 145.064C118.503 145.064 118.503 144.031 119.94 143.802C121.377 143.572 123.903 142.732 124.331 140.858C124.758 138.985 127.883 140.152 127.883 140.152Z" fill="#233862"/>
<path d="M128.188 140.716C128.188 140.716 126.411 141.631 125.651 141.797C124.806 141.984 123.218 141.865 123.218 141.865C120.174 133.708 110.734 100.553 110.734 100.553C110.324 109.722 108.668 118.865 106.948 126.215C106.902 126.411 106.856 126.607 106.81 126.8C106.768 126.977 106.726 127.154 106.684 127.33C106.682 127.338 106.68 127.345 106.679 127.353C104.591 136.027 102.497 141.933 102.497 141.933C102.497 141.933 101.956 142.618 100.451 142.305C98.7267 141.947 98.1543 141.189 98.1543 141.189C99.2709 105.862 99.8937 85.9407 99.8937 85.9407C99.8937 85.9407 114.836 77.8719 118.895 84.7691C122.954 91.6663 128.188 140.716 128.188 140.716Z" fill="#2A4E96"/>
<path d="M122.171 89.5315C120.234 82.6095 119.915 76.0372 119.93 70.5968C119.951 62.852 120.647 57.3974 118.316 56.4774C118.316 56.4774 111.11 54.3841 106.151 53.4623C105.395 53.0344 104.616 52.6472 103.818 52.3022C102.253 51.6674 96.148 42.7978 95.1135 40.6744C94.0791 38.551 92.3654 29.2982 92.3654 29.2982L89.9864 30.0566C89.9864 30.0566 89.2718 40.4413 89.6145 43.1483C89.9573 45.8553 97.5155 57.4945 98.1427 58.5108C100.833 68.341 98.1427 84.3391 99.3723 87.9061C100.005 89.7407 111.74 93.1028 118.159 92.6799C118.479 92.6587 118.786 92.6287 119.077 92.5916C120.596 92.3806 121.701 91.8959 122.106 91.0448C122.303 90.6289 122.334 90.1292 122.171 89.5315Z" fill="#AEC3FF"/>
<path d="M92.3613 29.2982C92.3613 29.2982 93.7049 25.3949 92.7217 25.2819C91.7385 25.1688 89.2712 25.1803 88.9673 25.839C88.6635 26.4976 89.9823 30.0566 89.9823 30.0566L92.3613 29.2982Z" fill="#FFB27D"/>
<path d="M88.9667 25.839C88.9667 25.839 88.8395 27.1828 89.2706 27.437C89.7017 27.6913 89.8545 25.839 89.8545 25.839C89.8545 25.839 89.8802 27.3576 90.2079 27.4609C90.5356 27.5642 90.7379 25.7127 90.7379 25.7127C90.7379 25.7127 90.7732 27.1828 90.9967 27.1324C91.2202 27.0821 91.3722 25.7127 91.3722 25.7127C91.3722 25.7127 91.4738 26.7802 91.7785 26.5886C92.0833 26.397 92.3722 25.251 92.3722 25.251L88.9667 25.839Z" fill="#FFB27D"/>
<path d="M92.3613 29.2982C92.3613 29.2982 93.28 28.5777 93.4832 27.9182C93.6864 27.2587 94.2783 26.1524 93.9647 26.0164C93.6511 25.8805 92.7217 27.3099 92.7217 27.3099L92.3613 29.2982Z" fill="#FFB27D"/>
<path d="M108.295 52.4002L108.179 53.0006C108.179 53.0006 107.649 54.845 109.902 55.5751C112.154 56.3053 114.063 56.6461 114.286 55.1857C114.3 54.023 114.271 52.2095 114.439 51.2789C114.509 50.9015 114.611 50.5308 114.744 50.1709L110.282 49.1997L108.92 49.1511L108.295 52.4002Z" fill="#FFB27D"/>
<path d="M108.921 49.1511L108.506 51.3407C112.746 52.4629 114.601 50.5717 114.745 50.1709L110.283 49.1997L108.921 49.1511Z" fill="#E2915A"/>
<path d="M115.397 49.2659C114.083 51.9367 110.472 50.8242 108.949 50.2062C108.519 50.0296 108.257 49.8981 108.257 49.8981C107.796 49.6252 107.738 48.7618 107.897 47.697C108.213 45.5895 109.375 42.6927 109.929 42.0252C110.77 41.0205 112.095 40.0502 115.506 41.9749C118.917 43.8996 117.084 45.8411 115.397 49.2659Z" fill="#FFB27D"/>
<path d="M109.564 39.0242C110.815 39.2262 112.09 39.2381 113.345 39.0595C115.077 38.822 116.817 40.1066 117.355 40.6169C117.371 40.4739 117.355 40.3292 117.309 40.1931C117.309 40.1931 117.536 40.4739 117.499 40.767C117.521 40.7962 117.53 40.8147 117.521 40.8182C117.513 40.8218 117.86 40.8491 118.041 41.0001C118.041 41.0001 117.901 40.9392 117.824 41.0178C117.815 41.0259 117.805 41.0322 117.794 41.0363C119.875 42.8745 119.03 46.7398 118.007 47.4029C116.778 48.1975 114.666 50.395 114.666 50.395C114.742 49.8095 114.913 49.2402 115.173 48.7096C115.604 47.8267 114.798 47.5989 113.901 46.8908C113.003 46.1827 114.182 45.2336 113.495 44.2642C112.808 43.2948 109.425 42.803 109.622 42.2644C108.535 41.4839 109.53 39.1478 109.564 39.0242Z" fill="#233862"/>
<path d="M110.106 48.2788C110.106 48.2788 109.886 48.609 109.007 48.2187C109.007 48.2187 108.267 47.8912 108.438 47.5018C108.438 47.5 109.274 47.4912 110.106 48.2788Z" fill="white"/>
<path d="M109.115 57.3064C109.115 57.3064 107.083 70.8033 91.8589 80.1735L90.4385 84.2976H95.9349C95.9349 84.2976 109.568 72.8711 110.482 57.6913L109.115 57.3064Z" fill="#ED7D2B"/>
<path d="M109.115 57.3065V55.2599L111.625 55.9697L110.48 57.694L109.115 57.3065Z" fill="#DB6516"/>
<path d="M108.295 52.4001L106.826 53.6539C106.826 53.6539 106.421 55.4055 107.41 57.3064L110.37 55.6148C110.37 55.6148 108.622 54.7716 108.295 52.4001Z" fill="#9DB0F4"/>
<path d="M110.369 55.6148C110.369 55.6148 110.663 57.204 111.429 57.9898C111.429 57.9898 114.764 57.4062 115.689 55.809L114.292 53.6292C114.292 53.6292 113.964 55.1168 110.369 55.6148Z" fill="#9DB0F4"/>
<path d="M130.346 90.598C130.346 90.598 130.352 93.6192 130.074 94.2179C129.796 94.8165 128.549 96.7783 127.973 97.195C127.398 97.6117 128.097 94.775 127.917 94.2558C127.737 93.7367 127.515 95.28 127.248 95.3436C126.981 95.4071 126.91 94.0466 126.849 93.5548C126.788 93.063 127.982 91.7087 128.338 90.6112C128.694 89.5138 130.346 90.598 130.346 90.598Z" fill="#FFB27D"/>
<path d="M118.264 56.4774C118.264 56.4774 121.196 57.272 123.182 61.645C125.265 66.2264 130.841 76.4036 131.044 77.8083C131.248 79.213 130.675 92.3311 130.675 92.3311C130.675 92.3311 128.235 92.4256 127.482 91.2717C127.482 91.2717 126.633 79.756 126.257 79.13C125.88 78.504 116.274 67.059 117.088 64.1551C117.902 61.2513 118.264 56.4774 118.264 56.4774Z" fill="#AEC3FF"/>
<path d="M122.105 91.043C121.378 91.661 120.396 92.2084 119.076 92.5898C118.778 92.6784 118.467 92.7084 118.158 92.6781C112.791 92.1254 113.616 71.2898 116.214 69.7501C118.953 68.1273 119.925 70.5923 119.925 70.5923C119.91 76.0328 120.229 82.6051 122.166 89.527C122.334 90.1292 122.303 90.6289 122.105 91.043Z" fill="#9DB0F4"/>
<path d="M106.684 127.329C106.719 127.167 106.76 126.991 106.809 126.8C106.768 126.981 106.725 127.156 106.684 127.329Z" fill="#233862"/>
<path d="M106.948 126.215C108.59 118.445 106.82 97.6355 107.611 97.24C108.423 96.8338 110.734 100.553 110.734 100.553C110.324 109.722 108.668 118.865 106.948 126.215Z" fill="#233862"/>
<path d="M66.8006 142.077L66.3271 138.671L68.3156 137.01L68.9419 141.521L66.8006 142.077Z" fill="#FFB27D"/>
<path d="M73.4016 145.121H65.2975C65.2975 145.121 65.1031 143.885 65.5263 142.95C65.9317 142.051 66.5634 141.496 66.6208 140.808C67.1358 141.337 67.7692 141.678 68.9414 141.521C69.0845 141.753 69.8681 142.998 70.3478 143.342C70.8769 143.723 73.2391 143.588 73.4016 145.121Z" fill="#233862"/>
<path d="M71.7733 96.0755C71.2432 100.337 70.8095 104.354 70.457 108.099C68.5701 128.052 68.9411 140.243 68.9411 140.243C68.9411 140.243 68.8042 140.604 67.6346 140.609C67.195 140.606 66.7567 140.559 66.3263 140.469C66.3263 140.469 62.1038 127.441 62.4298 120.027C62.4536 119.218 62.5641 118.414 62.7593 117.628C63.7725 113.831 59.0102 99.3289 64.1868 93.9265C69.3634 88.524 72.0171 94.1172 71.7733 96.0755Z" fill="#F99746"/>
<path d="M71.7733 96.0755C71.2432 100.337 70.8095 104.354 70.457 108.099L62.4298 120.027C62.4536 119.218 62.5641 118.414 62.7593 117.628C63.7725 113.831 59.0102 99.3289 64.1868 93.9265C69.3634 88.524 72.0171 94.1172 71.7733 96.0755Z" fill="#ED7D2B"/>
<path d="M78.1523 55.4285C78.1523 55.4285 77.9571 54.4573 77.7371 53.7121C77.639 53.3828 78.3175 51.2241 78.7874 50.9583C79.2574 50.6926 80.48 52.1467 80.1337 53.2627C79.957 53.8366 79.6637 55.703 79.6637 55.703L78.1523 55.4285Z" fill="#FFB27D"/>
<path d="M78.153 55.4285C78.153 55.4285 77.8977 54.8643 77.6671 54.7725C77.4366 54.6807 77.1892 53.758 77.0205 53.3916C77.0205 53.3916 77.1839 53.1524 77.4693 53.4605C77.6459 53.6486 78.0329 54.1995 78.0329 54.1995L78.153 55.4285Z" fill="#FFB27D"/>
<path d="M44.6992 58.7032C44.6489 58.8056 44.58 58.9893 44.5226 59.1614C44.5226 59.1146 44.5226 59.0679 44.5226 59.0219C44.5226 58.6794 43.2381 56.8147 42.7116 56.6964C42.1851 56.5781 41.4413 58.328 42.0995 59.2939C42.4369 59.791 43.2629 61.4897 43.2629 61.4897L44.6277 60.7833C44.6277 60.7833 44.7072 60.1653 44.9006 60.0143C45.0941 59.8633 45.0597 58.9045 45.1144 58.5046C45.1047 58.5063 44.8759 58.3253 44.6992 58.7032Z" fill="#FFB27D"/>
<path d="M53.2085 141.057C53.0937 139.965 53.0654 137.092 53.0654 137.092C53.0654 137.092 55.9938 136.156 55.8861 136.798C55.356 139.957 55.5 141.521 55.5 141.521L54.3154 142.227L53.2085 141.057Z" fill="#FFB27D"/>
<path d="M69.328 95.8724C69.328 95.8724 58.0128 126.873 55.7858 140.318C55.7858 140.318 55.2699 140.671 54.307 140.555C53.2152 140.422 52.9166 139.663 52.9166 139.663C52.9166 139.663 50.8725 123.548 54.9351 117.955C57.7266 114.111 53.7311 97.2294 60.2354 95.8759C66.7397 94.5224 69.328 95.8724 69.328 95.8724Z" fill="#F99746"/>
<path d="M67.3183 66.0534C67.3159 66.0399 67.3127 66.0267 67.3086 66.0136C67.2423 65.7408 67.1699 65.4724 67.0922 65.2058C66.869 64.4294 66.5942 63.6687 66.2697 62.9288C66.0931 62.5359 65.9164 62.1721 65.7282 61.8472C65.7 61.7978 65.6717 61.751 65.6452 61.7033C65.2035 60.9687 64.7618 60.4611 64.3528 60.3048C63.6125 60.0187 62.7901 60.0982 62.223 60.2165C62.3475 60.0399 62.6293 59.9446 62.6293 59.9446C62.2671 59.9446 61.5286 60.4125 61.5286 60.4125C56.3167 59.2427 56.625 66.6114 56.9784 68.2818C57.3317 69.9523 55.6533 70.7628 53.2876 72.4721C48.7718 75.7326 48.8477 79.1883 48.8477 79.1883C48.8884 79.2059 48.9361 79.2254 48.9794 79.2483C49.1605 78.8016 49.5465 77.9549 49.9511 77.7765C49.9396 77.8163 49.611 78.9128 49.5173 79.5264C50.2055 79.9052 51.1578 80.4914 52.1913 81.1536C53.5747 82.0365 55.1012 83.0572 56.3247 83.8836C56.2664 83.5472 56.2089 83.0678 56.2946 82.7967L56.6842 84.0027L56.7354 84.1608C57.5155 84.6905 58.1312 85.1125 58.4448 85.3289L58.5331 85.388L58.6736 85.4842C58.5693 85.0578 59.0269 83.9462 59.7902 82.5451C59.8423 82.4471 59.8979 82.3473 59.9545 82.2467C60.2009 81.8052 60.4774 81.3373 60.7734 80.8561C60.8802 80.6795 60.9889 80.5073 61.1011 80.3308C61.1894 80.1886 61.2778 80.0473 61.3749 79.9025C61.5967 79.56 61.8263 79.2157 62.0596 78.8704C62.6656 77.9761 63.3069 77.0879 63.9412 76.2738C64.8608 75.0881 65.7645 74.0577 66.5206 73.3832C66.5454 73.332 66.5683 73.2799 66.5895 73.2278C66.7094 72.94 66.8029 72.6418 66.8687 72.337C66.8908 72.2434 66.9102 72.1489 66.9279 72.0553C67.0577 71.3268 67.121 70.588 67.1169 69.8481C67.1743 70.5896 67.1651 71.3348 67.0895 72.0748C67.0754 72.1948 67.0595 72.3052 67.0409 72.4085C67.0085 72.6067 66.9631 72.8025 66.9049 72.9947C67.0307 72.8372 67.1407 72.6678 67.2335 72.4888C67.2978 72.366 67.3547 72.2396 67.404 72.1101C68.0109 70.5517 67.8439 68.2306 67.3183 66.0534Z" fill="#163560"/>
<path d="M66.342 73.5174C66.3588 73.5218 64.8827 74.5902 63.6301 74.4401C62.4525 74.2997 61.4941 72.9391 61.51 72.9391C61.9755 72.7723 62.0161 72.0933 61.5842 69.2654L61.8077 69.276L65.5594 69.4526C65.5594 69.4526 65.6477 70.6118 65.805 71.6916C65.9339 72.5992 66.1168 73.4512 66.342 73.5174Z" fill="#FFB27D"/>
<path d="M65.5554 69.4534C65.5554 69.4534 65.6438 70.6126 65.801 71.6924C63.7533 71.9379 62.3982 70.2392 61.8037 69.2742L65.5554 69.4534Z" fill="#ED975D"/>
<path d="M61.3686 68.9343C61.3686 68.9343 60.0488 67.4051 59.5771 66.0004C59.2414 64.9974 59.1981 61.1003 63.1194 61.0791C63.9085 61.0716 64.6891 61.2411 65.4039 61.5753C66.3217 62.0167 67.706 63.0497 66.8561 66.5822L66.6742 67.76L61.3686 68.9343Z" fill="#163560"/>
<path d="M72.2465 95.2773C72.2465 95.2773 67.365 98.1768 61.2352 96.6855C61.1637 96.6688 56.1885 95.875 56.1885 95.875C56.2768 95.6411 56.9173 91.8004 57.0012 91.585C58.0886 88.7809 60.0762 73.5597 61.7361 72.8084C62.1601 73.2701 63.3721 73.5862 64.4092 73.4935C65.6035 73.3884 65.9993 72.8755 65.9039 72.3184C67.2289 72.9426 68.2413 73.5235 68.2413 73.5235C69.4489 75.3317 72.2465 95.2773 72.2465 95.2773Z" fill="white"/>
<path d="M66.3885 70.3751C66.3885 70.3751 61.5749 71.1697 61.1253 68.1679C60.6757 65.166 59.7499 63.2448 62.8037 62.6056C65.8576 61.9664 66.6279 63.0258 67.0227 63.9917C67.4176 64.9576 67.6287 70.0899 66.3885 70.3751Z" fill="#FFB27D"/>
<path d="M64.9912 62.2092C64.9912 62.2092 64.1962 65.9298 62.2448 66.7527C60.2934 67.5755 59.335 67.1623 59.335 67.1623C59.335 67.1623 60.706 65.6967 60.7077 63.4939C60.7077 63.4939 63.7448 60.6809 64.9912 62.2092Z" fill="#163560"/>
<path d="M64.7061 62.5447C64.7061 62.5447 65.812 63.1848 66.1654 63.9132C66.5188 64.6416 66.8615 66.2017 67.3138 66.0799C67.3138 66.0799 67.9525 63.5362 66.6327 62.3478C65.2308 61.0871 64.7061 62.5447 64.7061 62.5447Z" fill="#163560"/>
<path d="M79.6964 55.4983C79.5012 55.4294 79.2123 55.2661 78.836 55.2334C78.5815 55.2236 78.3269 55.2501 78.0798 55.312C78.0798 55.312 76.7221 63.7455 76.6214 64.1949C76.5207 64.6443 70.7972 71.0815 69.254 71.0594C67.8609 71.0365 66.2099 72.1118 65.9033 72.3184C65.9033 72.3184 69.148 79.1759 69.3105 80.465C69.4872 81.8661 71.1656 103.453 71.1656 103.453C71.1656 103.453 71.0658 104.457 72.943 103.917C74.8202 103.378 75.2892 102.93 75.2892 102.93C75.2892 102.93 73.5649 85.9363 73.2036 80.6513C73.1606 79.9847 73.0517 79.324 72.8785 78.6789C72.8018 78.3898 72.791 78.0872 72.8468 77.7934C72.9026 77.4995 73.0236 77.222 73.2009 76.981C75.5746 73.7249 79.3227 68.4487 79.5321 67.3274C79.8351 65.6799 79.6964 55.4983 79.6964 55.4983Z" fill="#2B478B"/>
<path d="M59.9608 145.121H51.854C51.854 145.121 51.6597 143.885 52.0837 142.95C52.4892 142.051 53.1199 141.496 53.1773 140.808C53.6923 141.337 54.3257 141.678 55.498 141.521C55.642 141.753 56.4246 142.998 56.9043 143.342C57.4361 143.723 59.7974 143.588 59.9608 145.121Z" fill="#233862"/>
<path d="M65.5283 81.1306C65.2554 79.4531 61.7678 72.7051 61.7678 72.7051C61.7678 72.7051 59.5593 72.0465 58.1123 72.5718C56.6654 73.0971 49.154 68.8636 48.9137 68.4707C48.6734 68.0778 44.6514 60.5917 44.6514 60.5917C44.6514 60.5917 44.3184 60.3984 43.7839 60.68C43.6325 60.7575 43.5039 60.8733 43.4109 61.0157C43.3179 61.1582 43.2638 61.3225 43.2539 61.4923C43.2539 61.4923 46.3572 70.9216 47.1832 72.3802C47.6805 73.2631 51.8651 76.3215 55.1124 78.6144C55.4163 78.8293 55.6554 79.1233 55.804 79.4645C55.9526 79.8056 56.0048 80.1809 55.9551 80.5497C55.5187 83.774 55.4083 85.5893 54.9057 91.1224C54.4896 95.7135 54.3306 104.597 54.3306 104.597C54.3306 104.597 57.9622 105.854 60.4683 106.02C62.9745 106.187 63.5213 103.548 63.5213 103.548C63.5213 103.548 65.8119 82.8576 65.5283 81.1306Z" fill="#2B478B"/>
<path d="M64.8105 68.8902C65.2007 69.1 65.6463 69.1842 66.0861 69.1312C66.5588 69.0597 66.6665 68.499 66.6665 68.499C66.6665 68.499 66.3379 68.3957 65.8132 68.499C65.4615 68.5794 65.1237 68.7112 64.8105 68.8902Z" fill="white"/>
<path d="M158.566 68.2606C158.566 68.2606 160.061 70.7231 157.25 72.2734C157.25 72.2734 159.411 73.0522 160.165 72.759C160.068 72.8611 159.957 72.9501 159.837 73.0239C159.837 73.0239 161.868 73.6675 162.88 73.3161C163.891 72.9647 166.072 63.1372 160.078 62.6189C160.078 62.6189 155.35 60.9273 154.351 66.2C153.352 71.4726 151.53 70.9614 151.53 70.9614C151.53 70.9614 151.972 71.334 152.216 71.4029C152.216 71.4029 152.609 71.3782 152.731 71.2157C152.731 71.2157 152.58 71.4806 152.466 71.5468C152.466 71.5468 154.383 72.2717 155.558 71.8629C156.732 71.4541 158.544 69.4014 158.566 68.2606Z" fill="#163560"/>
<path d="M152.546 145.839H160.192C160.192 145.839 160.376 144.674 159.977 143.79C159.593 142.943 158.998 142.419 158.944 141.769C158.458 142.27 157.86 142.591 156.754 142.443C156.619 142.662 155.881 143.837 155.429 144.162C154.928 144.52 152.7 144.392 152.546 145.839Z" fill="#233862"/>
<path d="M158.865 142.92C158.431 143.054 157.984 143.145 157.532 143.191C156.327 143.299 156.152 142.941 156.152 142.941C156.152 142.941 154.955 132.291 151.08 111.936C150.521 108.996 150.3 107.369 150.099 104.755C150.038 103.973 149.98 103.102 149.914 102.082C149.738 99.3387 150.156 94.7211 152.211 93.508C153.148 92.9553 154.424 93.1072 156.14 94.4571C156.274 94.564 156.413 94.6779 156.553 94.7997C161.574 99.14 159.516 111.606 159.718 117.466C159.753 118.437 159.849 119.231 160.049 119.769C160.307 120.469 160.864 121.439 160.99 122.354C162.049 129.955 158.865 142.92 158.865 142.92Z" fill="#2B478B"/>
<path d="M159.723 117.466L150.099 104.752C150.038 103.97 149.98 103.099 149.914 102.078C149.738 99.3352 150.156 94.7176 152.211 93.5045L156.14 94.4536C156.274 94.5605 156.413 94.6743 156.553 94.7962C161.579 99.1401 159.52 111.606 159.723 117.466Z" fill="#233862"/>
<path d="M186.923 129.755L183.743 122.805C183.743 122.805 182.607 123.124 181.969 123.854C181.357 124.555 180.914 124.431 179.52 123.464C180.044 124.274 180.116 124.751 180.44 125.818C180.696 125.85 182.155 127.26 183.648 127.648C184.244 127.803 185.547 130.217 186.923 129.755Z" fill="#233862"/>
<path d="M153.559 96.5576C153.559 96.5576 160.411 120.365 162.923 121.897C165.435 123.429 178.634 125.537 181.318 126.687C181.318 126.687 181.644 126.218 181.452 125.217C181.409 124.995 181.031 124.196 181.031 124.196C181.031 124.196 172.834 118.037 167.439 117.415C166.1 117.261 170.165 96.8251 161.116 96.0093C152.85 95.265 153.559 96.5576 153.559 96.5576Z" fill="#2B478B"/>
<path d="M143.783 57.498C143.783 57.498 143.968 56.5798 144.175 55.8788C144.264 55.568 143.627 53.5311 143.184 53.2804C142.742 53.0296 141.587 54.4017 141.914 55.455C142.082 55.9962 142.356 57.7576 142.356 57.7576L143.783 57.498Z" fill="#FFB27D"/>
<path d="M143.783 57.498C143.783 57.498 144.024 56.9682 144.242 56.8799C144.459 56.7917 144.692 55.9229 144.852 55.5777C144.852 55.5777 144.697 55.3516 144.428 55.6421C144.263 55.8187 143.898 56.3396 143.898 56.3396L143.783 57.498Z" fill="#FFB27D"/>
<path d="M175.351 60.5882C175.398 60.6844 175.463 60.8531 175.521 61.0199C175.521 60.9758 175.521 60.9316 175.521 60.8893C175.521 60.5652 176.733 58.8047 177.23 58.6944C177.726 58.584 178.428 60.2333 177.807 61.1453C177.488 61.6141 176.709 63.2175 176.709 63.2175L175.421 62.5518C175.421 62.5518 175.347 61.9726 175.164 61.826C174.981 61.6794 175.014 60.7789 174.963 60.4019C174.964 60.4019 175.174 60.2315 175.351 60.5882Z" fill="#FFB27D"/>
<path d="M154.93 74.5645C154.913 74.569 156.306 75.5772 157.492 75.4351C158.603 75.3035 159.507 74.0224 159.492 74.0171C159.051 73.8609 159.015 73.2225 159.422 70.5518L159.212 70.5615L155.672 70.731C155.672 70.731 155.59 71.824 155.44 72.8429C155.311 73.6984 155.139 74.5027 154.93 74.5645Z" fill="#FFB27D"/>
<path d="M155.668 70.7309C155.668 70.7309 155.586 71.8239 155.437 72.8428C157.368 73.075 158.647 71.4717 159.208 70.5614L155.668 70.7309Z" fill="#ED975D"/>
<path d="M159.619 70.24C159.619 70.24 160.864 68.7982 161.309 67.4721C161.626 66.5257 161.667 62.8493 157.968 62.8298C157.223 62.8224 156.486 62.9824 155.812 63.2978C154.946 63.7119 153.64 64.6892 154.441 68.0213L154.613 69.1329L159.619 70.24Z" fill="#163560"/>
<path d="M150.49 95.6411C150.49 95.6411 153.962 97.8307 159.745 96.4242C159.813 96.4074 163.032 95.8945 163.032 95.8945C162.952 95.6737 159.569 90.0859 159.489 89.8837C158.464 87.235 160.839 74.6042 159.273 73.8961C158.873 74.3314 157.73 74.6298 156.751 74.5424C155.624 74.4426 155.249 73.9561 155.337 73.4335C154.091 74.0224 153.129 74.5698 153.129 74.5698C151.996 76.2764 150.49 95.6411 150.49 95.6411Z" fill="#FFB27D"/>
<path d="M154.883 71.6032C154.883 71.6032 159.424 72.3554 159.848 69.5213C160.273 66.6872 161.145 64.8773 158.265 64.2769C155.384 63.6765 154.656 64.6742 154.284 65.5854C153.912 66.4965 153.713 71.3313 154.883 71.6032Z" fill="#FFB27D"/>
<path d="M156.201 63.8964C156.201 63.8964 156.953 67.406 158.793 68.182C160.633 68.9581 161.539 68.5696 161.539 68.5696C161.539 68.5696 160.245 67.1888 160.245 65.1078C160.245 65.1078 157.377 62.4538 156.201 63.8964Z" fill="#163560"/>
<path d="M156.47 64.2116C156.47 64.2116 155.429 64.8155 155.095 65.5033C154.761 66.1911 154.437 67.662 154.011 67.5472C154.011 67.5472 153.408 65.1475 154.654 64.0262C155.975 62.8369 156.47 64.2116 156.47 64.2116Z" fill="#163560"/>
<path d="M176.415 63.2158C176.415 63.2158 173.488 72.1119 172.705 73.4883C172.236 74.3182 166.963 77.6009 163.899 79.764C163.852 79.8036 163.812 79.8511 163.781 79.9043V79.9088C163.017 81.0901 160.642 88.4005 161.21 89.709C163.595 95.2236 165.234 97.3566 165.83 98.9035C165.9 99.0868 165.933 99.2825 165.927 99.4788C165.92 99.6751 165.874 99.8681 165.792 100.046C165.71 100.225 165.592 100.385 165.447 100.517C165.302 100.649 165.132 100.751 164.946 100.817C163.602 101.293 162.219 101.655 160.814 101.897C160.489 101.953 160.155 102.002 159.811 102.047C155.105 102.644 151.919 101.541 150.302 100.722C149.927 100.533 149.616 100.239 149.407 99.8761C149.197 99.513 149.099 99.0968 149.122 98.6783C149.219 96.9337 150.094 95.2077 150.486 91.0112C150.785 87.8275 148.037 82.983 148.152 81.2887C148.198 80.6186 148.726 79.8169 149.011 79.2969C149.516 78.3778 149.794 77.547 149.453 77.0852C147.213 74.0127 142.378 69.7775 142.18 68.7198C141.891 67.165 142.022 57.5581 142.022 57.5581C142.206 57.4937 142.478 57.3392 142.834 57.3074C143.073 57.2986 143.313 57.3236 143.546 57.3815C143.546 57.3815 144.828 65.3418 144.924 65.7638C145.019 66.1858 150.418 72.2655 151.874 72.2408C153.189 72.2187 155.043 73.2331 155.331 73.4283C154.54 74.9608 154.04 76.6263 153.856 78.3407C153.651 80.3158 154.971 79.4382 155.8 78.0856C156.922 76.2553 159.18 73.649 159.18 73.649C159.18 73.649 161.018 73.1713 162.386 73.6675C163.755 74.1637 170.839 70.1651 171.065 69.7978C171.292 69.4305 175.087 62.3646 175.087 62.3646C175.087 62.3646 175.401 62.1828 175.905 62.445C176.051 62.5173 176.174 62.6267 176.264 62.762C176.353 62.8973 176.406 63.0538 176.415 63.2158Z" fill="#F99746"/>
<path d="M156.201 70.0617C156.201 70.0617 156.007 70.4528 155.746 70.4599C155.486 70.4669 154.821 70.4043 154.775 70.3372C154.712 70.1817 154.66 70.0221 154.619 69.8595C154.619 69.8595 155.718 69.8162 156.201 70.0617Z" fill="white"/>
<path d="M164.95 100.821C163.605 101.297 162.223 101.659 160.817 101.902C159.194 99.6636 156.446 96.8489 157.153 91.6716C157.884 86.3194 163.148 80.6865 163.778 79.9095C163.014 81.0909 160.64 88.4013 161.207 89.7097C163.592 95.2243 165.231 97.3574 165.827 98.9043C165.898 99.0874 165.932 99.283 165.926 99.4794C165.92 99.6759 165.875 99.8691 165.793 100.048C165.712 100.227 165.595 100.387 165.45 100.52C165.305 100.653 165.135 100.755 164.95 100.821Z" fill="#ED7D2B"/>
<path d="M149.016 79.3021C149.521 78.383 149.798 77.5522 149.457 77.0905C147.218 74.018 142.382 69.7827 142.185 68.725C142.664 69.8727 148.521 73.3081 150.168 74.7843C151.8 76.242 149.082 79.2306 149.016 79.3021Z" fill="#ED7D2B"/>
<path d="M50.7184 36.9388C50.7184 36.9388 51.8156 38.4398 51.6981 40.1552C51.6097 41.4275 50.4764 42.7157 50.4004 42.7651L52.191 43.7195C52.191 43.7195 53.5161 41.3631 53.0744 39.3933C52.9375 38.7894 52.3023 37.8244 51.8377 37.3944C51.5321 37.1121 51.1344 36.9502 50.7184 36.9388Z" fill="#6BB7BF"/>
<path d="M47.0581 37.0977L45.9238 34.592C45.9238 34.592 51.2162 34.7686 52.9697 39.0816C52.9697 39.0816 49.2665 36.4417 47.0581 37.0977Z" fill="#86D1CD"/>
<path d="M27.0672 100.84C27.0672 100.84 25.8057 99.8869 25.4771 98.4646C25.2359 97.4051 25.8419 96.0808 25.8914 96.0242L24.2042 95.6879C24.2042 95.6879 23.7042 97.9296 24.5513 99.4199C24.811 99.8772 25.5646 100.506 26.0531 100.744C26.3687 100.897 26.7287 100.93 27.0672 100.84Z" fill="#6BB7BF"/>
<path d="M30.0041 99.8111L31.5421 101.57C31.5421 101.57 27.1959 102.724 24.7109 99.6504C24.7109 99.6504 28.3708 100.887 30.0041 99.8111Z" fill="#86D1CD"/>
<path d="M220.505 109.028C220.505 109.028 220.395 107.375 223.497 106.576C224.889 106.217 227.985 106.855 226.022 109.899C223.98 113.067 222.159 111.924 222.159 111.924C222.159 111.924 226.419 108.592 224.714 107.068C222.833 105.39 222.11 108.718 222.11 108.718C221.56 108.712 221.014 108.818 220.505 109.028Z" fill="#F1A34F"/>
<path d="M221.606 112.114C221.606 112.114 220.446 111.486 220.906 110.092L222.574 110.381C222.574 110.381 221.932 111.891 223.501 112.073C223.501 112.073 221.993 112.431 221.606 112.114Z" fill="#DB7714"/>
<path d="M112.781 23.5037C112.781 23.5037 114.515 21.0077 117.174 22.7753L118.793 21.2276C118.793 21.2276 117.281 20.0798 113.791 22.1378C111.507 23.4851 112.781 23.5037 112.781 23.5037Z" fill="#5685D8"/>
<path d="M111.07 25.9502C111.07 25.9502 110.727 23.0852 115.525 21.2982C115.525 21.2982 113.791 22.1379 113.255 24.9932L111.07 25.9502Z" fill="#739AF0"/>
<path d="M130.346 10.7564C130.346 10.7564 131.759 9.86109 131.913 8.77954C131.913 8.77954 133.294 8.85459 133.591 9.30133C133.591 9.30133 132.957 11.0919 132.211 11.4274C132.211 11.4274 130.532 11.5395 130.346 10.7564Z" fill="#F99746"/>
<path d="M84.7157 112.876C84.7157 112.876 83.2025 111.921 83.0434 110.768C83.0434 110.768 81.5709 110.847 81.252 111.324C81.252 111.324 81.9286 113.234 82.7254 113.592C82.7272 113.592 84.5178 113.711 84.7157 112.876Z" fill="#F99746"/>
<path d="M146.806 38.9544C146.806 38.9544 148.325 37.9956 148.484 36.8354C148.484 36.8354 149.964 36.9149 150.284 37.3943C150.284 37.3943 149.603 39.3129 148.804 39.6722C148.805 39.674 147.005 39.794 146.806 38.9544Z" fill="#86D1CD"/>
<path d="M176.374 82.9221C176.374 82.9221 175.495 81.8564 175.023 81.7072C174.551 81.558 173.636 80.8499 173.521 81.1421C173.407 81.4344 174.14 81.8829 174.097 82.2157C174.055 82.5486 171.765 83.0836 171.779 83.4359C171.793 83.7882 172.318 84.6402 173.193 84.5422C174.067 84.4442 176.285 83.9189 176.741 84.1458C177.198 84.3727 176.374 82.9221 176.374 82.9221Z" fill="#FFB27D"/>
<path d="M200.028 77.7394C198.809 79.3646 197.333 80.781 195.659 81.9331C190.707 85.3765 185.333 85.8903 185.333 85.8903C184.046 85.4789 180.091 85.048 177.755 84.6719C176.736 84.5086 176.025 84.3549 175.978 84.2181L176.036 82.1874C176.036 82.1874 184.613 81.7336 186.033 81.0758C188.272 79.1476 190.251 76.6437 191.54 74.6872C192.629 73.0344 193.848 71.8142 195.858 71.0991C198.765 70.0599 204.05 72.3413 200.028 77.7394Z" fill="#AEC3FF"/>
<path d="M196.097 80.6548L195.655 81.9341C190.707 85.3765 185.333 85.8904 185.333 85.8904C184.299 85.8904 180.091 85.0481 177.755 84.672C177.843 84.6799 184.115 85.1699 185.503 85.0251C186.891 84.8803 193.398 79.2518 193.398 79.2518L196.097 80.6548Z" fill="#9DB0F4"/>
<path d="M190.496 145.121H199.975C200.654 144.661 199.791 140.161 199.791 140.161C199.791 140.161 197.204 139.18 196.757 141.174C196.311 143.169 193.46 143.802 191.958 144.045C190.925 144.213 190.599 144.779 190.496 145.121Z" fill="#233862"/>
<path d="M204.554 145.121H214.032C214.711 144.661 213.849 140.161 213.849 140.161C213.849 140.161 211.262 139.18 210.815 141.174C210.368 143.169 207.52 143.802 206.014 144.045C204.983 144.213 204.657 144.779 204.554 145.121Z" fill="#233862"/>
<path d="M193.047 99.2124C193.047 99.2124 193.473 104.525 193.974 110.911C194.655 119.585 196.49 141.093 196.49 141.093C196.49 141.093 197.693 142.119 200.359 141.557C200.359 141.557 202.628 134.141 203.306 125.665C203.317 125.526 203.328 125.386 203.337 125.247C203.969 116.626 204.95 98.4725 204.95 98.4725L193.047 99.2124Z" fill="#2B478B"/>
<path d="M192.901 97.377C192.901 97.377 193.472 104.528 193.973 110.911L203.306 125.67C203.316 125.531 203.327 125.391 203.337 125.251C203.968 116.63 204.95 98.477 204.95 98.477L192.901 97.377Z" fill="#233862"/>
<path d="M195.622 97.3769C195.622 97.3769 202.391 114.216 204.554 120.597C206.095 125.144 210.443 141.094 210.443 141.094C210.443 141.094 212.332 141.669 213.921 140.558C213.921 140.558 215.538 124.262 212.271 119.668C210.539 117.229 211.841 94.3283 204.814 94.1296C197.786 93.931 195.622 97.3769 195.622 97.3769Z" fill="#2B478B"/>
<path d="M198.645 72.5532C199.538 73.0288 200.572 73.1682 201.56 72.9461C202.263 72.7876 202.931 72.5054 203.535 72.1126C203.817 71.9355 204.083 71.7346 204.33 71.5123C204.33 71.5123 204.295 71.4619 204.236 71.3622C203.931 70.8404 203.005 68.9642 203.417 65.95C203.423 65.9103 203.123 65.9668 202.672 66.0736C201.329 66.3914 198.63 67.156 198.51 67.1905C198.51 67.1905 198.477 67.8244 198.366 68.9607C198.356 69.0613 198.346 69.1655 198.335 69.2741C198.321 69.4074 198.307 69.5487 198.29 69.6944C198.165 70.8757 198.645 72.5532 198.645 72.5532Z" fill="#FFB27D"/>
<path d="M198.364 68.9607C200.369 69.4207 203.362 66.4621 203.362 66.4621C203.15 66.3044 202.919 66.1739 202.675 66.0736C201.332 66.3915 198.633 67.156 198.513 67.1905C198.513 67.1905 198.476 67.8244 198.364 68.9607Z" fill="#ED975D"/>
<path d="M197.684 67.0307C198.294 67.2347 198.922 67.3807 199.559 67.4669C201.096 67.6744 203.117 67.5552 203.752 65.694C204.821 62.565 206.188 60.6897 203.04 59.4122C201.356 58.7279 200.278 58.6917 199.546 58.9531C198.91 59.1782 198.535 59.6276 198.251 60.0735C197.64 61.0305 196.411 66.4825 197.684 67.0307Z" fill="#FFB27D"/>
<path d="M195.773 60.3198C197.596 61.6291 200.116 60.3419 200.897 60.6906C201.678 61.0394 201.821 62.3505 201.835 62.7672C201.849 63.1839 201.904 63.5362 202.967 63.2864C203.143 63.2457 203.266 63.2572 203.353 63.3093C203.795 63.5742 203.23 64.8385 203.06 65.1122C203.06 65.1122 202.816 66.0198 203.358 66.4621C203.424 66.5151 204.491 66.9804 207.059 63.0506C207.464 62.4326 207.849 61.0438 207.226 59.7062C206.602 58.3686 203.999 57.0743 201.79 56.3891C200.962 56.1322 200.349 56.1419 199.869 56.3176C199.068 56.6099 198.642 57.3665 198.219 58.1258C197.51 59.4016 195.773 60.3198 195.773 60.3198Z" fill="#A9453D"/>
<path d="M207.499 98.5537C207.499 98.5537 206.615 98.7445 205.501 98.9334C204.41 99.1162 203.096 99.2963 202.166 99.2866C197.414 99.2495 193.436 97.851 193.436 97.851C192.543 97.851 192.135 96.4683 191.988 94.5383C191.889 93.2316 191.91 91.6742 191.981 90.1238C192.005 89.6214 192.033 89.1191 192.064 88.6273C192.127 87.6517 192.2 86.7158 192.266 85.8903C192.329 85.1125 192.386 84.4317 192.419 83.9029C192.419 83.9029 192.293 80.2062 192.342 76.9536C192.379 74.6192 193.689 72.494 194.021 72.1479C194.971 71.1423 197.731 70.5066 198.28 70.4183C198.322 70.4131 198.344 70.4086 198.344 70.4086C200.611 71.6809 203.663 69.9628 203.663 69.9628C203.733 69.9742 203.8 69.9901 203.867 70.0052C204.091 69.9566 206.382 70.2965 206.915 70.587C208.233 71.3048 208.999 79.2712 208.999 79.2712C209.218 84.6816 208.942 93.3473 209.37 96.6546C209.508 97.7441 208.453 98.3339 207.499 98.5537Z" fill="#AEC3FF"/>
<path d="M203.849 70.0088C203.849 70.0088 200.471 73.4901 198.057 72.7767C198.057 72.7767 197.736 72.3061 198.823 72.1587C199.91 72.0112 201.084 72.0668 203.849 70.0088Z" fill="#9DB0F4"/>
<path d="M197.659 65.0106C197.659 65.0106 197.593 65.4159 198.536 65.739C198.536 65.739 199.326 66.0101 199.471 65.5951C199.471 65.5995 198.842 64.9965 197.659 65.0106Z" fill="white"/>
<path d="M205.7 83.179C205.7 83.179 200.796 91.3776 198.015 92.8211C196.133 93.7923 193.499 94.3106 191.99 94.541C191.891 93.2343 191.912 91.6769 191.983 90.1265C193.977 89.8846 197.012 89.4996 197.012 89.4996L205.7 83.179Z" fill="#9DB0F4"/>
<path d="M199.24 79.0593L196.625 88.4905C196.625 88.4905 193.549 88.6847 192.064 88.6309C192.127 87.6552 192.129 87.6226 192.195 86.7944C192.195 86.7944 195.727 84.9545 199.24 79.0593Z" fill="#9DB0F4"/>
<path d="M183.498 89.1889C183.498 89.1889 182.62 88.1232 182.148 87.974C181.675 87.8248 180.761 87.1167 180.646 87.409C180.531 87.7012 181.26 88.1497 181.221 88.4826C181.182 88.8154 178.884 89.3496 178.899 89.7027C178.915 90.0559 179.439 90.907 180.313 90.809C181.187 90.711 183.405 90.1857 183.862 90.4126C184.32 90.6395 183.498 89.1889 183.498 89.1889Z" fill="#FFB27D"/>
<path d="M209.272 76.106C209.272 76.106 209.427 81.1006 198.036 91.1233L195.748 87.0275C195.327 86.783 203.107 70.0573 205.343 70.1906C209.672 70.4475 209.272 76.106 209.272 76.106Z" fill="#AEC3FF"/>
<path d="M197.106 86.5375C197.106 86.5375 184.151 88.0181 183.671 88.275C183.191 88.5319 182.162 89.534 182.505 90.7913C182.505 90.7913 189.212 91.6336 192.902 91.6177C196.082 91.6044 198.143 91.0941 198.143 91.0941L197.106 86.5375Z" fill="#AEC3FF"/>
<path d="M0.298584 145.082H243.701C243.78 145.082 243.856 145.113 243.912 145.169C243.968 145.226 244 145.302 244 145.381V145.54C244 145.619 243.968 145.696 243.912 145.752C243.856 145.808 243.78 145.839 243.701 145.839H0.298584C0.259299 145.839 0.2204 145.832 0.184117 145.817C0.147833 145.801 0.114879 145.779 0.0871411 145.752C0.0594036 145.724 0.0374286 145.691 0.0224755 145.654C0.00752237 145.618 -0.00011492 145.579 1.30689e-06 145.54V145.381C1.30689e-06 145.302 0.031459 145.226 0.087454 145.17C0.143449 145.114 0.219395 145.083 0.298584 145.083V145.082Z" fill="#2E3552"/>
</g>
<defs>
<clipPath id="clip0_48_14575">
<rect width="244" height="146" fill="white"/>
</clipPath>
</defs>
</svg>
