<svg width="471" height="241" viewBox="0 0 471 241" fill="none" xmlns="http://www.w3.org/2000/svg">
<g clip-path="url(#clip0_1197_34437)">
<g opacity="0.2">
<path d="M464.313 239.856H25.1927C-1.47132 229.704 -8.0775 135.553 62.2927 130.543C132.572 125.539 36.4857 15.8348 136.941 1.42618C237.406 -12.9854 276.905 171.821 370.927 133.702C396.786 123.22 420.694 124.462 438.331 145.946C464.581 177.935 464.313 239.856 464.313 239.856Z" fill="#B1C5EF"/>
</g>
<g opacity="0.6">
<path d="M356.551 66.3418C356.515 67.0306 356.46 67.716 356.383 68.398C356.376 68.4646 356.369 68.5295 356.36 68.5942C356.111 70.6823 355.658 72.7349 354.972 74.6994C354.948 74.7696 354.924 74.8397 354.898 74.9081C351.905 83.2774 344.679 90.0353 331.103 91.1827C327.495 91.487 325.106 93.4341 323.064 96.2813C323.021 96.3416 322.979 96.4002 322.937 96.4622C319.496 101.354 316.997 108.792 311.162 115.16C311.099 115.229 311.036 115.296 310.973 115.365C303.151 123.764 289.4 130.219 259.794 126.332C259.694 126.321 259.595 126.308 259.495 126.294C259.495 126.294 259.43 126.171 259.312 125.935C257.393 122.117 241.355 88.7997 256.248 70.1392C267.41 56.1533 275.973 57.4431 282.791 53.5106C282.849 53.4785 282.905 53.4463 282.962 53.4107C285.736 51.7694 288.219 49.2291 290.47 44.3911C297.387 29.5266 312.897 28.4158 324.035 32.4115C324.096 32.4333 324.156 32.4551 324.215 32.4767C325.587 32.9771 326.89 33.5556 328.101 34.1953C339.157 40.0343 363.865 23.2799 374.78 35.9558C385.693 48.6316 357.158 54.4145 356.551 66.3418Z" fill="#D4E4FD"/>
<path d="M374.812 36.9439C373.937 37.0911 373.064 37.2502 372.193 37.4212C366.274 38.5876 360.442 40.2315 354.734 42.2198C354.669 42.2412 354.603 42.2643 354.537 42.2874C351.129 43.4797 347.764 44.7931 344.452 46.2016C332.625 51.2286 321.361 57.6053 311.002 65.2107C308.144 67.3085 305.37 69.4988 302.678 71.7816C302.642 71.8105 302.608 71.8396 302.572 71.8702C300.971 73.2296 299.4 74.6201 297.861 76.0418C297.809 76.0878 297.758 76.1339 297.71 76.1803C292.614 80.8924 287.845 85.949 283.409 91.3339C282.897 91.9546 282.391 92.5773 281.885 93.2035C281.846 93.2523 281.806 93.3027 281.767 93.3515C276.078 100.425 270.817 107.867 266.04 115.593C266.006 115.647 265.972 115.701 265.938 115.757C264.845 117.528 263.776 119.315 262.735 121.115C261.743 122.829 260.757 124.569 259.794 126.332C259.695 126.321 259.595 126.307 259.495 126.294C259.495 126.294 259.43 126.171 259.312 125.935C260.874 123.063 262.517 120.246 264.187 117.48C266.822 113.119 269.601 108.835 272.526 104.653C272.566 104.594 272.606 104.537 272.648 104.478C276.722 98.6622 281.078 93.039 285.713 87.6723C286.49 86.7732 287.277 85.8834 288.076 85.0046C288.118 84.9577 288.161 84.9109 288.203 84.864C294.845 77.5689 302.208 70.9752 310.135 65.1084C310.188 65.0674 310.241 65.0283 310.293 64.9906C311.76 63.9054 313.247 62.8471 314.752 61.8121C315.088 61.5815 315.426 61.3511 315.764 61.1223C315.825 61.0803 315.887 61.0385 315.949 60.9984C323.901 55.6322 332.317 50.9512 341.069 47.0233C341.128 46.9947 341.189 46.9679 341.25 46.9411C343.484 45.9415 345.739 44.9907 348.014 44.0903C356.621 40.6844 365.568 37.8892 374.708 36.3527C375.092 36.2872 375.193 36.88 374.812 36.9439Z" fill="#BBD4F6"/>
<path d="M263.615 63.0355C260.369 77.7042 266.716 91.9838 272.7 105.034C272.75 105.141 272.917 105.063 272.867 104.955C266.895 91.9297 260.559 77.6937 263.798 63.0532C263.824 62.9374 263.64 62.921 263.615 63.0355Z" fill="#BBD4F6"/>
<path d="M281.516 93.2331C291.431 97.9834 303.116 98.5597 313.905 97.6565C316.964 97.4005 320.008 96.9954 323.027 96.4469C323.144 96.4257 323.113 96.2439 322.996 96.2651C312.207 98.2252 300.703 98.632 289.988 96.0164C287.095 95.3102 284.267 94.3477 281.58 93.0602C281.473 93.0088 281.409 93.1822 281.516 93.2331Z" fill="#BBD4F6"/>
<path d="M324.144 32.25C318.453 40.7895 315.909 51.2348 315.758 61.4158C315.757 61.5339 315.94 61.5523 315.942 61.4336C316.092 51.2829 318.621 40.8707 324.295 32.3561C324.36 32.2573 324.21 32.151 324.144 32.25Z" fill="#BBD4F6"/>
<path d="M317.758 30.9633C314.646 36.3539 312.286 42.1593 310.792 48.2035C309.404 53.8148 308.484 59.7217 310.214 65.3689C310.248 65.4809 310.43 65.4506 310.395 65.3372C308.644 59.6185 309.613 53.6147 311.046 47.9422C312.54 42.0302 314.861 36.3491 317.909 31.0693C317.968 30.9672 317.817 30.8603 317.758 30.9633Z" fill="#BBD4F6"/>
<path d="M297.558 76.1196C311.774 81.9077 327.936 82.815 342.803 79.1243C346.984 78.0862 351.064 76.6673 354.98 74.8708C355.088 74.8213 355.01 74.6543 354.901 74.7039C341.025 81.0696 325.02 82.6791 310.082 79.6868C305.821 78.8333 301.647 77.5854 297.623 75.9467C297.513 75.9018 297.449 76.0749 297.558 76.1196Z" fill="#BBD4F6"/>
<path d="M302.631 71.9572C316.248 76.5821 331.305 76.2823 345.097 72.5548C348.962 71.5102 352.745 70.1787 356.412 68.5718C356.521 68.5241 356.442 68.3572 356.333 68.405C343.293 74.1194 328.548 76.4728 314.407 74.5339C310.425 73.988 306.501 73.0769 302.695 71.7843C302.582 71.7461 302.518 71.919 302.631 71.9572Z" fill="#BBD4F6"/>
<path d="M344.342 34.1448C341.842 37.951 340.902 42.8233 341.08 47.3239C341.085 47.4421 341.267 47.4093 341.262 47.2922C341.086 42.841 342.021 38.0136 344.493 34.2509C344.558 34.1517 344.407 34.0453 344.342 34.1448Z" fill="#BBD4F6"/>
<path d="M354.285 42.0565C359.193 46.6546 365.799 49.1741 372.524 48.9955C372.641 48.9924 372.66 48.8087 372.541 48.8118C365.866 48.9891 359.3 46.5039 354.426 41.9374C354.34 41.8572 354.198 41.9752 354.285 42.0565Z" fill="#BBD4F6"/>
<path d="M282.788 53.4746C283.212 59.1281 283.253 64.7991 283.596 70.4563C283.908 75.5929 285.041 80.7944 288.096 85.033C288.166 85.1293 288.307 85.0099 288.237 84.9139C285.059 80.5049 284.011 75.0733 283.741 69.743C283.465 64.3103 283.376 58.8687 282.97 53.4429C282.961 53.3245 282.78 53.357 282.788 53.4746Z" fill="#BBD4F6"/>
<path d="M311.064 115.139C299.717 119.077 287.074 118.872 275.312 117.255C272.082 116.811 268.874 116.229 265.693 115.517C265.577 115.491 265.561 115.675 265.675 115.701C277.391 118.324 289.815 119.448 301.734 117.604C304.931 117.11 308.086 116.367 311.143 115.306C311.255 115.267 311.176 115.1 311.064 115.139Z" fill="#BBD4F6"/>
</g>
<path d="M375.404 192.318C374.963 194.098 374.648 194.964 374.648 194.99C373.177 199.589 371.553 201.894 371.553 202.024C371.509 202.1 371.463 202.18 371.418 202.254L371.416 202.256C365.858 211.642 355.578 218.101 338.952 216.321C334.532 215.846 331.203 217.636 328.077 220.59C328.077 220.588 328.075 220.59 328.075 220.59C322.479 226.02 318.228 233.617 310.261 239.856C271.763 239.812 256.012 239.792 243.891 239.78C241.423 230.188 232.975 191.155 253.654 173.518C270.654 159.02 280.949 162.878 289.744 159.586H289.745C293.47 158.254 297.053 155.772 300.892 150.467C312.692 134.168 331.64 136.444 344.13 143.855C344.216 143.855 346.626 145.35 348.614 146.952C360.576 156.563 394.254 142.133 404.452 159.951C414.645 177.769 378.917 178.087 375.404 192.318Z" fill="#C5DCFD"/>
<path d="M404.26 161.15C403.171 161.123 402.083 161.112 400.994 161.114C393.589 161.14 386.178 161.762 378.836 162.828C378.752 162.839 378.669 162.85 378.583 162.864H378.581C374.196 163.506 369.837 164.304 365.518 165.229C350.096 168.53 335.036 173.59 320.781 180.339C316.849 182.202 312.996 184.195 309.22 186.317C309.171 186.344 309.123 186.371 309.074 186.397C309.074 186.399 309.072 186.399 309.072 186.399C306.826 187.665 304.609 188.974 302.423 190.329C302.349 190.372 302.277 190.416 302.209 190.46C294.969 194.95 288.045 199.932 281.444 205.387C280.684 206.016 279.928 206.649 279.173 207.286C279.114 207.335 279.055 207.386 278.996 207.436C270.491 214.633 262.418 222.375 254.863 230.572C254.807 230.629 254.754 230.686 254.699 230.745L254.697 230.747C252.968 232.626 251.266 234.528 249.592 236.455C248.638 237.553 247.686 238.661 246.738 239.782H245.748C247.857 237.274 250.015 234.821 252.189 232.413C256.381 227.773 260.726 223.258 265.226 218.901C265.289 218.838 265.35 218.78 265.414 218.719L265.416 218.717C271.681 212.657 278.238 206.898 285.075 201.513C286.219 200.61 287.376 199.721 288.543 198.849L288.545 198.847C288.607 198.801 288.668 198.756 288.729 198.708C298.431 191.465 308.84 185.236 319.76 180.015H319.762C319.834 179.977 319.905 179.942 319.977 179.91H319.979C321.999 178.943 324.038 178.016 326.092 177.119C326.551 176.919 327.011 176.72 327.471 176.524H327.473C327.555 176.486 327.64 176.45 327.724 176.418H327.726C338.559 171.804 349.79 168.125 361.25 165.431H361.252C361.33 165.41 361.408 165.393 361.488 165.374H361.49C364.416 164.69 367.352 164.07 370.303 163.515C381.468 161.418 392.901 160.135 404.273 160.413C404.75 160.424 404.735 161.161 404.26 161.15Z" fill="#B1CAF9"/>
<path d="M264.188 166.675C256.859 183.594 261.179 202.28 265.348 219.399C265.382 219.541 265.602 219.485 265.567 219.343C261.406 202.256 257.09 183.625 264.405 166.739C264.463 166.605 264.245 166.542 264.188 166.675Z" fill="#B1CAF9"/>
<path d="M278.72 207.235C289.561 215.27 303.507 218.687 316.719 220.113C320.464 220.518 324.226 220.739 327.992 220.782C328.138 220.783 328.143 220.557 327.997 220.555C314.539 220.403 300.583 218.212 288.281 212.563C284.959 211.038 281.776 209.219 278.838 207.041C278.721 206.955 278.604 207.149 278.72 207.235Z" fill="#B1CAF9"/>
<path d="M344.299 143.685C335.452 152.648 329.952 164.642 327.397 176.875C327.368 177.017 327.585 177.082 327.614 176.939C330.161 164.743 335.635 152.785 344.456 143.848C344.558 143.744 344.401 143.581 344.299 143.685Z" fill="#B1CAF9"/>
<path d="M336.905 140.646C331.898 146.416 327.702 152.862 324.492 159.797C321.513 166.235 319.027 173.138 319.795 180.346C319.811 180.489 320.037 180.495 320.022 180.35C319.244 173.051 321.811 166.042 324.86 159.541C328.037 152.765 332.158 146.461 337.062 140.809C337.157 140.7 337 140.536 336.905 140.646Z" fill="#B1CAF9"/>
<path d="M302.041 190.351C317.821 200.639 337.086 205.499 355.86 204.516C361.14 204.24 366.387 203.481 371.525 202.229C371.666 202.194 371.61 201.975 371.468 202.009C353.264 206.446 333.603 204.655 316.3 197.568C311.364 195.547 306.626 193.071 302.159 190.158C302.036 190.078 301.919 190.272 302.041 190.351Z" fill="#B1CAF9"/>
<path d="M309.122 186.518C324.453 195.265 342.666 198.413 360.154 197.135C365.055 196.777 369.924 196.054 374.717 194.973C374.859 194.941 374.803 194.721 374.661 194.753C357.615 198.6 339.299 198 322.711 192.368C318.041 190.782 313.524 188.769 309.24 186.325C309.113 186.253 308.995 186.446 309.122 186.518Z" fill="#B1CAF9"/>
<path d="M368.196 150.675C364.297 154.679 362.029 160.331 361.194 165.796C361.172 165.939 361.399 165.942 361.421 165.8C362.246 160.395 364.498 154.796 368.353 150.838C368.455 150.734 368.298 150.571 368.196 150.675Z" fill="#B1CAF9"/>
<path d="M378.333 162.526C383.176 169.21 390.548 173.786 398.694 175.138C398.836 175.161 398.902 174.944 398.758 174.921C390.673 173.578 383.341 169.054 378.531 162.415C378.447 162.299 378.248 162.408 378.333 162.526Z" fill="#B1CAF9"/>
<path d="M289.52 159.622C288.713 166.533 287.44 173.376 286.536 180.273C285.714 186.535 285.867 193.067 288.561 198.887C288.623 199.019 288.82 198.908 288.759 198.776C285.956 192.723 285.959 185.933 286.876 179.447C287.81 172.837 288.971 166.259 289.746 159.626C289.763 159.482 289.537 159.479 289.52 159.622Z" fill="#B1CAF9"/>
<path d="M265.646 234.735C271.884 236.856 278.407 238.671 285.031 239.828L283.897 239.826C273.841 238.024 263.987 234.777 254.697 230.747C254.596 230.703 254.498 230.659 254.397 230.616C254.264 230.559 254.327 230.342 254.462 230.399C254.595 230.458 254.728 230.515 254.862 230.572C258.399 232.104 261.998 233.494 265.646 234.735Z" fill="#B1CAF9"/>
<path d="M204.809 239.856L200.045 239.851H200.043L199.104 239.849L185.159 239.835H184.58L137.727 239.785C134.864 236.871 132.389 234.053 129.853 231.989C129.792 231.936 129.731 231.888 129.67 231.839L129.668 231.837C126.73 229.49 123.699 228.175 119.884 228.91C105.529 231.672 96.1006 226.794 90.5749 219.021C90.5288 218.956 90.4826 218.894 90.4381 218.828V218.826C89.1593 216.997 88.0947 215.008 87.2295 212.925C87.2015 212.86 87.1751 212.795 87.1488 212.729V212.727C86.8703 212.045 86.6148 211.354 86.3775 210.654C82.2806 198.512 51.1273 200.837 58.7129 184.571C66.3002 168.304 96.6922 178.424 106.412 169.179C107.477 168.166 108.655 167.188 109.927 166.274C109.981 166.234 110.036 166.193 110.092 166.153H110.094C120.435 158.787 136.778 155.425 148.244 168.766C151.975 173.108 155.279 175.01 158.622 175.898C158.691 175.918 158.758 175.936 158.828 175.952C167.013 178.03 175.482 174.209 191.077 185.408C208.812 198.142 206.436 228.406 204.809 239.856Z" fill="#D4E4FD"/>
<path d="M200.044 239.851L199.104 239.85C197.537 238.327 195.947 236.822 194.337 235.342L194.335 235.341C194.282 235.293 194.233 235.247 194.182 235.201C187.002 228.61 179.405 222.455 171.471 216.803C171.417 216.765 171.361 216.723 171.306 216.684C170.601 216.185 169.897 215.689 169.189 215.197C163.042 210.924 156.644 207.089 150.011 203.704C149.949 203.67 149.883 203.637 149.815 203.606C147.813 202.584 145.786 201.605 143.736 200.666C143.69 200.646 143.647 200.626 143.601 200.606C143.601 200.606 143.599 200.603 143.599 200.606C140.155 199.031 136.654 197.576 133.093 196.239C120.183 191.397 106.694 188.087 93.0175 186.333C89.186 185.842 85.3314 185.465 81.4636 185.224H81.4619C81.3878 185.219 81.3136 185.214 81.2395 185.211C74.7662 184.817 68.2649 184.815 61.8114 185.333C60.8622 185.409 59.9146 185.498 58.9687 185.601C58.555 185.646 58.4891 185.003 58.9028 184.96C68.7906 183.889 78.8433 184.174 88.7246 185.189C91.3333 185.458 93.9387 185.784 96.5359 186.167H96.5393C96.6101 186.177 96.6793 186.186 96.7486 186.198H96.7502C106.931 187.711 116.984 190.097 126.757 193.327H126.758C126.834 193.352 126.91 193.377 126.986 193.401C127.401 193.54 127.818 193.68 128.232 193.82C130.087 194.451 131.928 195.112 133.759 195.806H133.76C133.825 195.83 133.891 195.855 133.957 195.881H133.958C143.853 199.636 153.375 204.306 162.355 209.909C162.355 209.909 162.356 209.909 162.356 209.911C162.414 209.945 162.47 209.98 162.528 210.016C163.609 210.692 164.68 211.382 165.744 212.084C172.092 216.28 178.226 220.82 184.124 225.644C184.185 225.692 184.243 225.74 184.302 225.789C188.539 229.258 192.654 232.874 196.644 236.611C197.781 237.677 198.917 238.757 200.044 239.851Z" fill="#BBD4F6"/>
<path d="M181.402 180.213C189.02 194.419 186.617 211.013 184.232 226.231C184.212 226.357 184.017 226.325 184.037 226.198C186.417 211.009 188.821 194.463 181.218 180.284C181.158 180.172 181.343 180.102 181.402 180.213Z" fill="#BBD4F6"/>
<path d="M171.696 216.607C162.837 224.397 150.936 228.39 139.529 230.595C136.296 231.22 133.034 231.687 129.756 231.998C129.629 232.01 129.609 231.813 129.736 231.801C141.449 230.688 153.448 227.763 163.755 221.946C166.538 220.375 169.178 218.559 171.579 216.448C171.675 216.363 171.791 216.524 171.696 216.607Z" fill="#BBD4F6"/>
<path d="M109.934 166.018C118.295 173.183 123.96 183.231 127.076 193.703C127.112 193.824 126.928 193.897 126.892 193.775C123.785 183.334 118.146 173.316 109.809 166.172C109.713 166.089 109.837 165.935 109.934 166.018Z" fill="#BBD4F6"/>
<path d="M116.156 162.832C120.938 167.495 125.063 172.804 128.364 178.612C131.429 184.005 134.097 189.838 133.953 196.173C133.95 196.299 133.753 196.321 133.756 196.193C133.902 189.778 131.155 183.858 128.025 178.417C124.763 172.745 120.714 167.552 116.031 162.985C115.94 162.897 116.064 162.743 116.156 162.832Z" fill="#BBD4F6"/>
<path d="M150.15 203.597C137.151 213.709 120.721 219.346 104.294 219.857C99.673 220.001 95.0466 219.722 90.4795 219.005C90.3537 218.985 90.3863 218.79 90.5124 218.81C106.695 221.349 123.694 218.357 138.253 210.923C142.405 208.802 146.353 206.3 150.033 203.437C150.134 203.359 150.25 203.519 150.15 203.597Z" fill="#BBD4F6"/>
<path d="M143.701 200.773C130.981 209.51 115.343 213.579 100.014 213.74C95.718 213.785 91.424 213.51 87.1691 212.916C87.043 212.899 87.0757 212.703 87.2021 212.721C102.333 214.831 118.246 212.974 132.287 206.859C136.241 205.137 140.029 203.055 143.584 200.613C143.689 200.541 143.806 200.701 143.701 200.773Z" fill="#BBD4F6"/>
<path d="M89.6244 173.849C93.3133 177.053 95.7006 181.812 96.8256 186.512C96.8551 186.636 96.6579 186.655 96.6287 186.532C95.516 181.884 93.1461 177.17 89.4994 174.002C89.4033 173.919 89.528 173.765 89.6244 173.849Z" fill="#BBD4F6"/>
<path d="M81.6554 184.912C77.923 191.088 71.8335 195.611 64.8356 197.382C64.7135 197.413 64.6407 197.229 64.7639 197.198C71.7097 195.44 77.7686 190.964 81.4752 184.83C81.5403 184.722 81.7214 184.803 81.6554 184.912Z" fill="#BBD4F6"/>
<path d="M158.819 175.913C160.026 181.876 161.633 187.745 162.923 193.688C164.095 199.083 164.438 204.785 162.514 210.051C162.47 210.171 162.29 210.089 162.334 209.969C164.335 204.491 163.838 198.577 162.567 192.993C161.271 187.302 159.781 181.656 158.622 175.933C158.597 175.809 158.794 175.789 158.819 175.913Z" fill="#BBD4F6"/>
<path d="M194.591 235.207C194.507 235.253 194.421 235.298 194.337 235.342C191.353 236.946 188.289 238.454 185.16 239.835H184.581C184.751 239.76 184.919 239.688 185.089 239.614C188.179 238.267 191.211 236.794 194.182 235.2C194.294 235.143 194.406 235.083 194.518 235.022C194.63 234.961 194.701 235.146 194.591 235.207Z" fill="#BBD4F6"/>
<path d="M281.508 16.8076H203.347C183.018 16.8076 166.537 33.288 166.537 53.6176V179.186C166.537 199.516 183.018 215.996 203.347 215.996H281.508C301.838 215.996 318.318 199.516 318.318 179.186V53.6176C318.318 33.288 301.838 16.8076 281.508 16.8076Z" fill="#384987"/>
<path d="M308.221 58.2999V225.543H156.441V26.356H280.763L308.221 58.2999Z" fill="white"/>
<path d="M308.489 225.811H156.173V26.0879H280.886L280.966 26.1811L308.489 58.2004V225.811ZM156.708 225.275H307.953V58.399L280.64 26.6235H156.708V225.275Z" fill="#C5DCFD"/>
<path d="M308.221 58.2999H280.763V26.356L308.221 58.2999Z" fill="#C5DCFD"/>
<path d="M276.334 125.774H262.663C253.255 125.774 245.628 133.401 245.628 142.809V152.548C245.628 161.957 253.255 169.583 262.663 169.583H276.334C285.742 169.583 293.369 161.957 293.369 152.548V142.809C293.369 133.401 285.742 125.774 276.334 125.774Z" fill="#E1954D"/>
<path d="M268.811 161.519L251.539 144.872L256.606 139.615L267.883 150.485L280.337 133.617L286.211 137.954L268.811 161.519Z" fill="#D6833E"/>
<path d="M271.114 160.818L253.842 144.171L258.909 138.914L270.187 149.784L282.641 132.916L288.514 137.253L271.114 160.818Z" fill="white"/>
<path d="M203.794 41.8409C202.159 41.841 200.55 41.0624 199.562 39.6194L184.399 17.4601C183.107 15.5728 182.633 13.2963 183.063 11.0502C183.493 8.80416 184.774 6.86388 186.671 5.58685C188.309 4.48473 190.277 4.08648 192.214 4.46466C194.151 4.84311 195.824 5.95308 196.926 7.59027L216.625 36.8533C217.037 37.4661 216.875 38.2972 216.262 38.7097C215.649 39.1222 214.818 38.9598 214.405 38.347L194.707 9.084C194.004 8.03959 192.936 7.3315 191.701 7.09011C190.465 6.8487 189.209 7.10293 188.165 7.80595C186.864 8.68184 185.985 10.0126 185.69 11.5531C185.395 13.0936 185.721 14.6549 186.606 15.9494L201.77 38.1088C202.523 39.21 204.037 39.4996 205.145 38.7547C206.256 38.0068 206.555 36.4921 205.812 35.3779L195.239 19.5272C194.829 18.9127 194.995 18.0823 195.609 17.6723C196.224 17.2626 197.054 17.4283 197.464 18.0429L208.037 33.8936C209.595 36.2295 208.968 39.4057 206.639 40.9738C205.767 41.5601 204.776 41.8409 203.794 41.8409Z" fill="#E1954D"/>
<path d="M213.934 26.356H204.137L216.18 43.8917L220.486 39.6485L213.934 26.356Z" fill="white"/>
<path d="M199.959 16.867L205.476 16.8076L210.967 26.3562H205.695L199.959 16.867Z" fill="#384987"/>
<path d="M374.571 222.101C374.297 224.553 371.935 224.307 370.819 225.347C370.437 225.703 370.861 226.988 370.539 226.578C369.019 224.645 363.758 219.871 358.014 214.474L357.755 214.23C349.486 206.453 340.327 197.458 339.937 193.815C339.205 186.982 343.183 151.905 344.088 150.235C344.992 148.563 354.587 145.956 354.587 145.956C354.587 145.956 366.473 165.321 360.036 170.506C357.525 172.528 355.497 175.755 353.955 178.935C352.741 181.443 351.831 183.922 351.227 185.766C350.632 187.58 350.334 188.776 350.334 188.776C350.334 188.776 353.101 190.283 355.727 192.711H355.729C356.067 193.025 356.405 193.353 356.731 193.695C358.183 195.209 359.464 197 360.036 198.956C361.736 204.783 374.571 222.101 374.571 222.101Z" fill="#E9B9A3"/>
<path d="M368.263 212.84C368.263 212.84 368.381 220.943 367.119 223.029L364.778 220.774L367.763 211.99L368.263 212.84Z" fill="#D69189"/>
<path d="M358.014 214.474L357.754 214.23L355.327 211.932C357.686 205.393 352.898 191.088 352.898 191.088L355.729 192.711C356.067 193.025 356.405 193.353 356.731 193.695L358.014 214.474Z" fill="#D69189"/>
<path d="M353.498 187.014C357.364 204.741 358.285 231.176 358.285 231.176C358.285 231.176 361.832 232.435 364.796 230.886C364.796 230.886 368.049 213.291 368.879 208.145C369.708 202.999 367.883 197.853 367.219 195.529C366.679 193.641 371.862 175.485 370.63 159.332C370.083 152.17 344.23 144.518 353.498 187.014Z" fill="#E9B9A3"/>
<path d="M369.569 194.118C369.569 194.118 360.663 195.699 354.032 193.572C343.749 190.273 339.394 191.831 339.394 191.831C338.799 188.523 340.373 174.549 341.846 163.035C341.846 163.032 341.848 163.022 341.851 163.006C342.545 157.577 343.215 152.699 343.626 149.746C343.876 147.937 344.029 146.85 344.029 146.8C344.04 146.799 362.559 146.689 364.077 148.15C364.088 148.16 364.739 148.864 364.749 148.873C367.562 151.591 370.128 155.049 370.63 159.332C371.9 170.166 370.999 187.281 369.569 194.118Z" fill="#E1954D"/>
<path d="M357.463 151.166C344.451 151.836 341.972 162.373 341.851 163.006C342.545 157.577 343.216 152.699 343.626 149.746L357.463 151.166Z" fill="#D37C35"/>
<path d="M361.414 237.062V239.807H364.541L365.253 236.812L361.414 237.062Z" fill="#2D2B4F"/>
<path d="M358.736 229.349C358.736 229.349 358.283 233.043 355.948 234.409C354.066 235.511 352.666 236.517 352.666 236.517C352.452 237.004 350.354 238.97 350.866 238.97L358.231 239.47C358.231 239.47 360.072 237.155 361.731 237.403C363.389 237.652 365.791 235.575 365.145 234.091C364.497 232.604 364.797 230.886 364.797 230.886L358.736 229.349Z" fill="#E9B9A3"/>
<path d="M352.666 236.517C352.666 236.517 348.254 239.01 349.077 239.807H358.096C358.466 239.807 358.813 239.629 359.03 239.329C359.488 238.697 360.505 237.597 362.264 237.637C365.914 237.72 365.78 236.837 365.145 234.091C365.145 234.091 360.752 236.33 358.065 236.949C352.915 238.134 352.666 236.517 352.666 236.517Z" fill="#504A78"/>
<path d="M377.082 228.68L379.172 230.459L381.199 228.078L379.379 225.595L377.082 228.68Z" fill="#2D2B4F"/>
<path d="M369.27 225.163C369.27 225.163 371.992 228.46 371.52 231.123C371.138 233.27 370.997 234.989 370.997 234.989C371.23 235.467 371.367 238.339 371.698 237.949L376.853 232.664C376.853 232.664 376.283 229.762 377.547 228.66C378.811 227.558 378.787 224.383 377.237 223.913C375.685 223.443 374.571 222.101 374.571 222.101L369.27 225.163Z" fill="#E9B9A3"/>
<path d="M370.998 234.989C370.998 234.989 370.037 239.964 371.176 239.854L377.022 232.986C377.262 232.704 377.352 232.325 377.264 231.965C377.079 231.207 376.901 229.718 378.071 228.405C380.5 225.68 379.741 225.209 377.238 223.913C377.238 223.913 376.096 228.71 374.825 231.157C372.39 235.846 370.998 234.989 370.998 234.989Z" fill="#504A78"/>
<path d="M333.381 115.025C333.381 115.025 332.13 111.725 331.109 111.052C326.48 107.998 326.672 108.186 326.357 107.155C325.608 104.712 326.616 102.017 326.958 101.971C327.269 101.929 327.179 103.328 327.088 103.743C326.912 104.541 327.969 105.806 327.969 105.806C327.969 105.806 327.939 104.171 328.133 103.454C328.285 102.892 329.052 101.084 329.206 101.098C329.759 101.147 329.339 102.441 329.186 103.613C329.079 104.443 329.766 106.267 329.766 106.267C329.766 106.267 329.772 104.832 329.948 104.124C330.144 103.337 331.191 101.756 331.419 101.805C331.811 101.89 331.405 102.947 331.255 104.049C331.134 104.931 331.753 106.478 331.753 106.478C331.753 106.478 332.043 105.509 332.399 104.988C332.755 104.467 333.646 103.644 333.756 103.845C333.957 104.217 333.718 104.66 333.201 105.555C332.906 106.065 333.258 107.424 334.078 108.013C334.234 108.125 336.255 108.933 336.776 110.886C337.297 112.839 333.381 115.025 333.381 115.025Z" fill="#E9B9A3"/>
<path d="M352.682 116.714C352.682 116.714 351.177 114.373 346.562 116.098C345.146 116.627 341.778 120.764 340.042 122.973C339.545 123.605 337.466 126.795 336.347 127.802C335.946 128.162 335.524 128.532 335.098 128.901C335.635 125.103 335.884 121.816 336.227 119.537C336.656 116.685 337.307 114.109 336.524 112.253C336.372 111.893 335.077 112.219 333.923 112.183C332.935 112.152 332.085 111.732 331.858 111.901C329.858 113.384 328.643 120.39 326.912 125.753C324.775 132.376 325.965 136.612 327.342 138.801C328.114 140.027 338.4 141.9 347.59 135.54C356.78 129.179 352.682 116.714 352.682 116.714Z" fill="#85A9EE"/>
<path d="M335.058 128.529C334.932 129.428 335.228 130.315 335.08 131.226C334.929 132.149 334.529 133.006 333.932 133.724C333.888 133.777 333.968 133.847 334.012 133.795C334.565 133.129 334.954 132.347 335.136 131.499C335.227 131.079 335.265 130.646 335.248 130.216C335.226 129.657 335.083 129.112 335.162 128.551C335.172 128.483 335.068 128.461 335.058 128.529Z" fill="#5F81D6"/>
<path d="M353.089 108.629L350.788 118.971L365.274 142.67C365.274 142.67 370.248 139.245 376.261 141.848C377.929 142.571 380 142.113 381.575 141.269C383.98 135.794 381.55 131.915 381.55 131.915C383.409 135.048 383.357 138.234 382.9 140.619C384.974 139.553 385.639 138.905 385.639 138.905C387.543 132.82 384.457 119.72 372.893 116.187C361.328 112.655 362.853 104.447 362.853 104.447L353.089 108.629Z" fill="#60333D"/>
<path d="M363.291 139.996C363.052 129.913 366.254 116.544 363.683 115.518C361.113 114.492 359.771 114.587 357.525 113.75C354.75 112.716 354.562 112.377 350.034 114.614C345.51 116.849 346.115 116.861 346.115 116.861C346.115 116.861 343.094 127.665 342.975 130.285C342.791 134.316 345.011 135.235 345.011 135.235C345.011 135.235 348.429 141.842 349.097 144.816C349.292 145.683 348.979 149.185 348.979 149.185L367.608 145.839C367.608 145.839 363.356 142.752 363.291 139.996Z" fill="#E9B9A3"/>
<path d="M365.648 128.733C365.648 128.733 363.907 138.237 363.733 139.724C363.714 139.89 363.757 140.074 363.85 140.274C364.58 141.86 368.355 144.376 367.608 145.84C367.389 146.269 366.015 146.704 364.103 147.109C364.103 147.109 364.102 147.109 364.1 147.11L364.092 147.111C364.085 147.113 364.075 147.114 364.061 147.118C363.739 147.186 363.401 147.253 363.051 147.319C362.966 147.335 362.876 147.353 362.782 147.371C357.254 148.395 348.979 149.185 348.979 149.185C348.979 149.185 348.979 149.184 348.979 149.182C348.991 149.138 349.109 148.703 349.166 148.003C349.263 146.793 349.18 144.793 348.064 142.65L348.064 142.647C346.296 139.246 345.051 135.358 345.013 135.238C345.011 135.236 345.011 135.235 345.011 135.235C345.011 135.235 345.01 135.235 345.007 135.234C344.947 135.217 344.257 135.007 343.598 134.383C342.704 133.536 341.867 131.927 342.742 129.002C343.674 125.888 344.154 119.266 345.878 116.562C346.189 116.074 350.063 114.571 350.063 114.571C350.063 114.571 346.835 125.623 348.23 127.17C349.603 128.694 354.179 123.056 356.62 118.614C356.917 118.074 359.061 114.88 359.798 114.367C359.835 114.341 362.037 114.757 364.565 115.627C365.657 116.003 367.611 118.226 365.648 128.733Z" fill="#85A9EE"/>
<path d="M376.724 143.7C376.704 143.83 376.648 143.952 376.562 144.051C375.747 144.989 373.678 148.626 365.534 149.352C358.447 149.984 356.13 151.28 356.13 151.28L351.731 146.239C351.731 146.239 353.483 148.54 363.569 143.179C367.408 141.139 368.42 140.4 368.42 140.4C368.42 140.4 378.128 134.225 376.724 143.7Z" fill="#E9B9A3"/>
<path d="M370.702 140.331C370.702 140.331 366.317 130.461 363.163 128.571C360.009 126.68 367.247 123.513 370.332 124.44C373.417 125.368 379.15 137.865 376.537 144.882L370.702 140.331Z" fill="#E9B9A3"/>
<path d="M348.488 99.0703C348.488 99.0703 347.655 96.2783 350.518 94.1946C353.38 92.111 355.069 91.7428 357.638 92.7092C360.206 93.6756 363.57 94.2633 364.892 96.6504C366.94 100.349 365.997 105.409 362.451 108.705C358.906 112.001 355.953 109.589 354.137 110.05C352.32 110.512 348.488 99.0703 348.488 99.0703Z" fill="#60333D"/>
<path d="M357.641 116.158C357.641 116.158 354.632 118.893 350.526 117.412C350.526 117.412 350.836 115.321 350.745 113.284C350.708 112.453 350.694 110.092 350.483 109.229C350.563 109.127 350.657 109.026 350.76 108.926L350.761 108.925C352.398 107.329 356.599 105.956 356.64 105.942C356.622 105.975 356.037 106.979 355.888 108.566C355.857 108.893 355.845 109.245 355.86 109.619C355.875 110.025 355.924 110.455 356.015 110.905C356.607 113.817 357.641 116.158 357.641 116.158Z" fill="#E9B9A3"/>
<path d="M355.86 109.619C354.461 111.755 350.773 112.172 350.712 112.197C350.675 111.366 350.693 110.092 350.483 109.229C350.47 109.171 350.455 109.12 350.439 109.077C350.541 109.022 350.649 108.973 350.759 108.926L350.761 108.925C352.432 108.233 354.988 108.476 355.888 108.566C355.857 108.893 355.845 109.245 355.86 109.619Z" fill="#CF8D78"/>
<path d="M355.1 109.97C350.78 111.323 347.555 109.943 346.846 109.407C346.137 108.87 346.382 108.144 345.918 105.844C345.598 104.259 345.852 102.972 346.299 102.101C346.5 101.707 346.741 101.399 346.986 101.185C347.063 101.118 347.128 101.055 347.185 100.994C347.714 100.434 347.466 100.102 347.837 98.9271C347.924 98.6526 348.143 98.3399 348.435 98.0168C348.565 97.8735 348.709 97.7275 348.863 97.5828C349.999 96.5093 351.636 95.466 351.636 95.466C358.573 93.661 361.078 99.6725 360.688 101.929C360.298 104.184 359.419 108.616 355.1 109.97Z" fill="#E9B9A3"/>
<path d="M354.553 95.7131C354.553 95.7131 356.56 96.2451 356.867 98.5174C357.175 100.79 358.363 104.1 358.791 104.521C359.219 104.943 357.524 107.074 357.524 107.074C357.524 107.074 357.744 108.718 355.859 109.686C355.859 109.686 358.52 109.765 359.933 108.479C361.347 107.193 362.05 100.877 361.283 98.4685C360.516 96.0604 357.351 94.2744 356.34 94.3031C355.329 94.3317 354.553 95.7131 354.553 95.7131Z" fill="#60333D"/>
<path d="M354.553 95.7134C354.553 95.7134 352.427 95.0618 350.139 96.5576C349.919 96.7011 349.703 96.8285 349.533 96.995C348.177 98.3267 351.723 91.6738 356.34 94.3033C360.957 96.9328 354.553 95.7134 354.553 95.7134Z" fill="#60333D"/>
<path d="M359.799 114.367C359.799 114.367 365.061 115.241 367.362 116.532C369.664 117.824 371.474 122.187 374.11 126.205C376.746 130.223 380.367 139.844 377.566 146.21C374.765 152.577 362.232 151.698 360.563 149.814C360.563 149.814 360.931 146.839 359.248 145.064L363.061 133.229L359.799 114.367Z" fill="#85A9EE"/>
<path d="M359.449 145.223C359.424 142.856 362.029 142.126 363.844 141.563C366.208 140.829 368.505 139.119 371.094 139.698C371.181 139.717 371.164 139.855 371.077 139.835C368.685 139.3 366.588 140.763 364.428 141.517C362.593 142.158 359.56 142.673 359.587 145.203C359.588 145.291 359.45 145.312 359.449 145.223Z" fill="#5F81D6"/>
<path d="M367.901 139.96C368.453 139.166 369.089 138.446 369.808 137.8C369.875 137.74 369.96 137.849 369.894 137.909C369.183 138.548 368.557 139.259 368.011 140.044C367.96 140.118 367.85 140.033 367.901 139.96Z" fill="#5F81D6"/>
<path d="M367.862 139.976C367.904 139.119 367.457 138.356 367.062 137.628C366.671 136.908 366.307 136.175 365.978 135.426C365.338 133.973 364.825 132.469 364.426 130.933C364.404 130.846 364.541 130.827 364.564 130.913C365.009 132.629 365.601 134.303 366.35 135.911C366.699 136.661 367.104 137.379 367.48 138.114C367.783 138.708 368.032 139.316 367.999 139.993C367.995 140.082 367.857 140.065 367.862 139.976Z" fill="#5F81D6"/>
<path d="M357.094 134.468C355.421 135.934 353.065 136.399 350.959 135.69C350.875 135.661 350.928 135.533 351.012 135.561C353.072 136.256 355.374 135.791 357.008 134.359C357.076 134.3 357.161 134.409 357.094 134.468Z" fill="#5F81D6"/>
<path d="M385.647 137.342C387.297 131.741 385.947 125.617 382.016 121.284C380.11 119.183 377.693 117.577 374.997 116.686C373.407 116.161 371.759 115.833 370.201 115.211C368.814 114.658 367.478 113.929 366.294 113.015C364.234 111.424 362.538 109.166 362.43 106.481C362.426 106.392 362.565 106.394 362.569 106.483C362.681 109.284 364.563 111.617 366.761 113.189C368.123 114.164 369.648 114.916 371.237 115.441C372.792 115.954 374.408 116.274 375.934 116.876C380.835 118.812 384.661 123.185 385.965 128.286C386.728 131.27 386.65 134.429 385.781 137.38C385.756 137.466 385.622 137.428 385.647 137.342Z" fill="#60333D"/>
<path d="M362.152 108.06C361.135 110.619 363.393 113.262 365.036 114.975C367.004 117.028 369.314 118.704 371.478 120.537C375.42 123.876 378.757 128.181 379.27 133.49C379.547 136.362 378.954 139.305 377.401 141.752C377.353 141.828 377.234 141.756 377.282 141.681C380.307 136.914 379.456 130.865 376.529 126.279C375.033 123.934 373.047 122.018 370.921 120.249C368.744 118.438 366.445 116.744 364.533 114.64C362.993 112.947 361.053 110.452 362.019 108.023C362.051 107.941 362.185 107.977 362.152 108.06Z" fill="#844E5F"/>
<path d="M362.149 108.313C359.673 110.473 361.932 113.926 363.476 115.868C365.18 118.012 367.226 119.846 369.17 121.764C372.356 124.908 375.617 128.786 375.73 133.498C375.797 136.279 374.609 138.979 372.576 140.863C372.511 140.923 372.415 140.823 372.481 140.762C374.53 138.862 375.7 136.133 375.586 133.331C375.489 130.948 374.523 128.7 373.23 126.727C370.318 122.28 365.711 119.316 362.646 114.994C361.303 113.1 359.888 110.102 362.054 108.212C362.121 108.154 362.217 108.254 362.149 108.313Z" fill="#844E5F"/>
<path d="M355.08 95.2092C359.343 96.5606 358.75 102.668 362.83 104.231C362.913 104.263 362.876 104.396 362.793 104.364C358.692 102.794 359.277 96.6851 355.042 95.3428C354.957 95.3158 354.995 95.1821 355.08 95.2092Z" fill="#844E5F"/>
<path d="M355.105 95.1682C357.27 94.8916 358.588 96.9084 359.526 98.5317C360.189 99.6778 360.905 100.736 362.002 101.51C363.09 102.277 364.372 102.709 365.699 102.782C365.788 102.787 365.786 102.926 365.697 102.921C363.592 102.805 361.601 101.778 360.339 100.08C359.013 98.2972 357.95 94.9436 355.138 95.3029C355.051 95.3142 355.016 95.1796 355.105 95.1682Z" fill="#844E5F"/>
<g opacity="0.5">
<path d="M365.43 133.97C364.93 132.732 366.798 137.383 365.107 139.3C363.415 141.216 361.228 142.624 361.228 142.624C361.228 142.624 365.202 140.952 367.931 139.984C368.633 139.736 366.287 136.089 365.43 133.97Z" fill="#5F81D6"/>
</g>
<path d="M368.07 117.275C366.823 117.575 365.479 117.904 364.505 118.793C363.442 119.763 363.06 121.349 362.86 122.721C362.46 125.472 363.04 128.317 364.475 130.696C364.435 130.719 364.396 130.743 364.357 130.766C364.23 130.356 364.104 129.947 363.978 129.537C363.952 129.453 364.08 129.397 364.106 129.482C364.232 129.892 364.358 130.302 364.484 130.711C364.505 130.779 364.41 130.855 364.366 130.781C362.849 128.268 362.268 125.245 362.779 122.349C363.01 121.042 363.406 119.607 364.42 118.684C365.413 117.779 366.778 117.443 368.05 117.138C368.137 117.117 368.156 117.255 368.07 117.275Z" fill="#5F81D6"/>
<path d="M365.393 117.915C363.851 116.479 361.999 115.456 359.96 114.922C359.875 114.9 359.891 114.762 359.977 114.785C362.04 115.324 363.916 116.351 365.477 117.805C365.542 117.865 365.459 117.976 365.393 117.915Z" fill="#5F81D6"/>
<path d="M343.739 123.497C343.569 125.626 342.877 127.676 342.6 129.79C342.463 130.827 342.386 131.941 342.726 132.948C343.106 134.078 344.015 135.064 345.265 135.099C345.354 135.101 345.336 135.239 345.247 135.237C342.97 135.173 342.262 132.617 342.367 130.749C342.506 128.284 343.405 125.936 343.601 123.48C343.608 123.391 343.746 123.408 343.739 123.497Z" fill="#5F81D6"/>
<path d="M374.425 114.462C369.501 115.497 364.884 112.508 362.67 108.212C362.629 108.133 362.751 108.066 362.792 108.146C364.976 112.385 369.528 115.35 374.392 114.327C374.479 114.309 374.513 114.444 374.425 114.462Z" fill="#60333D"/>
<path d="M331.763 134.766C331.763 134.766 344.359 134.431 346.585 134.503C346.585 134.503 351.881 150.099 352.127 155.192C352.127 155.192 341.284 155.699 335.953 155.159C335.953 155.159 331.592 136.57 331.763 134.766Z" fill="#504A78"/>
<path d="M357.335 146.058C357.335 146.058 353.962 147.096 352.803 146.703C347.552 144.921 347.818 144.958 346.811 145.34C344.422 146.248 342.912 148.698 343.086 148.996C343.243 149.267 344.293 148.338 344.565 148.011C345.087 147.383 346.735 147.442 346.735 147.442C346.735 147.442 345.426 148.421 344.978 149.014C344.627 149.479 343.67 151.194 343.776 151.307C344.154 151.714 344.918 150.588 345.75 149.748C346.339 149.154 348.201 148.577 348.201 148.577C348.201 148.577 347.072 149.463 346.621 150.036C346.12 150.674 345.514 152.471 345.692 152.62C345.999 152.878 346.586 151.909 347.363 151.114C347.985 150.478 349.587 150.017 349.587 150.017C349.587 150.017 349 150.84 348.807 151.441C348.614 152.042 348.51 153.251 348.736 153.214C349.154 153.145 349.357 152.684 349.746 151.727C349.968 151.181 351.257 150.625 352.225 150.912C352.41 150.966 354.288 152.066 356.15 151.279C358.012 150.492 357.335 146.058 357.335 146.058Z" fill="#E9B9A3"/>
<path d="M341.833 132.959C341.833 132.959 343.636 132.716 343.136 135.149L339.912 135.333L340.502 133.696L341.16 133.017L341.833 132.959Z" fill="white"/>
<path d="M341.834 132.959C341.834 132.959 339.559 134.255 340.502 137.319C341.445 140.382 339.019 140.928 339.019 140.928L325.114 142.217C325.114 142.217 327.114 139.588 326.247 137.319C325.381 135.05 326.581 134.66 328.358 134.447C330.347 134.208 341.834 132.959 341.834 132.959Z" fill="white"/>
<path d="M137.403 239.076V239.856H133.691L133.264 238.347L137.403 239.076Z" fill="#2D2B4F"/>
<path d="M138.925 230.427C138.925 230.427 140.31 234.57 142.415 235.801C144.112 236.794 147.355 236.943 148.219 238.917C148.412 239.356 148.095 239.856 147.634 239.856H138.925C138.925 239.856 135.757 238.936 134.261 239.16C132.766 239.384 132.837 235.607 133.264 234.211C133.692 232.815 133.335 230.427 133.335 230.427H138.925Z" fill="#3A3762"/>
<path d="M105.358 239.076V239.856H109.07L109.497 238.347L105.358 239.076Z" fill="#2D2B4F"/>
<path d="M103.836 230.427C103.836 230.427 102.451 234.57 100.347 235.801C98.6495 236.794 95.4064 236.943 94.5417 238.917C94.3493 239.356 94.6658 239.856 95.1268 239.856H103.836C103.836 239.856 107.004 238.936 108.5 239.16C109.995 239.384 109.924 235.607 109.497 234.211C109.07 232.815 109.426 230.427 109.426 230.427H103.836Z" fill="#3A3762"/>
<path d="M137.144 158.746C137.144 158.746 139.959 168.971 140.249 176.234C140.496 182.454 139.908 195.864 139.995 206.251C140.119 221.194 140.93 231.558 140.545 232.032C139.87 232.863 139.212 232.086 136.433 232.741C133.417 233.451 132.071 231.98 132.071 231.98C132.071 231.98 131.237 226.307 129.812 216.719C129.3 213.278 128.745 209.554 128.181 205.786C126.307 193.27 125.452 181.817 124.818 180.488C124.818 180.488 122.123 190.536 118.33 205.179C113.936 222.144 110.669 232.213 110.299 233.534C110.299 233.534 108.938 234.206 106.395 233.11C105.41 232.685 103.028 232.788 102.263 232.01C101.257 230.986 105.992 211.067 107.736 189.782C109.314 170.523 112.256 162.575 113.687 159.123L137.144 158.746Z" fill="#504A78"/>
<path d="M126.333 176.68C125.768 177.488 125.44 178.424 125.172 179.378C124.874 180.432 124.602 181.494 124.319 182.553C124.272 182.726 124.015 182.652 124.061 182.478C124.354 181.386 124.632 180.288 124.943 179.201C125.212 178.262 125.545 177.336 126.102 176.538C126.203 176.395 126.435 176.534 126.333 176.68Z" fill="#3A3762"/>
<path d="M132.906 174.415C131.884 174.889 130.981 175.581 130.242 176.459C130.199 176.381 130.155 176.303 130.112 176.225C131.337 175.916 132.581 175.706 133.836 175.596C134.007 175.581 134.006 175.861 133.836 175.876C132.604 175.984 131.385 176.192 130.183 176.495C130.049 176.529 129.965 176.366 130.053 176.261C130.806 175.367 131.73 174.656 132.771 174.173C132.927 174.101 133.063 174.342 132.906 174.415Z" fill="#3A3762"/>
<path d="M111.805 175.372C111.733 175.671 111.662 175.969 111.59 176.268C111.548 176.442 111.291 176.368 111.333 176.193C111.404 175.895 111.476 175.596 111.547 175.298C111.589 175.123 111.847 175.197 111.805 175.372Z" fill="#3A3762"/>
<path d="M110.774 178.515C110.697 178.962 110.621 179.409 110.545 179.856C110.514 180.033 110.257 179.958 110.287 179.781C110.364 179.334 110.44 178.887 110.516 178.44C110.547 178.263 110.804 178.338 110.774 178.515Z" fill="#3A3762"/>
<path d="M109.927 183.222C109.854 183.52 109.781 183.818 109.708 184.116C109.665 184.29 109.407 184.217 109.45 184.042C109.523 183.744 109.596 183.445 109.669 183.147C109.712 182.973 109.969 183.047 109.927 183.222Z" fill="#3A3762"/>
<path d="M109.267 187.694C109.187 188.215 109.108 188.736 109.028 189.258C109.001 189.435 108.744 189.36 108.771 189.183C108.85 188.662 108.93 188.141 109.009 187.62C109.036 187.442 109.294 187.518 109.267 187.694Z" fill="#3A3762"/>
<path d="M108.617 194.373V196.164C108.617 196.344 108.35 196.344 108.35 196.164V194.373C108.35 194.192 108.617 194.192 108.617 194.373Z" fill="#3A3762"/>
<path d="M108.573 200.737C108.397 200.949 108.34 201.228 108.408 201.499C108.452 201.673 108.194 201.748 108.151 201.573C108.058 201.202 108.145 200.828 108.384 200.539C108.497 200.403 108.685 200.601 108.573 200.737Z" fill="#3A3762"/>
<path d="M106.223 206.594C107.25 207.95 108.604 208.995 110.151 209.604C110.31 209.667 110.241 209.938 110.08 209.874C108.49 209.248 107.09 208.188 106.034 206.792C105.928 206.652 106.116 206.453 106.223 206.594Z" fill="#3A3762"/>
<path d="M106.359 207.401C106.825 208.22 107.291 209.039 107.757 209.858C107.845 210.013 107.614 210.154 107.526 209.999C107.06 209.18 106.594 208.361 106.128 207.542C106.04 207.387 106.271 207.246 106.359 207.401Z" fill="#3A3762"/>
<path d="M129.278 208.01C130.073 208.8 130.867 209.591 131.662 210.382C131.787 210.506 131.598 210.704 131.473 210.58C130.679 209.789 129.884 208.998 129.089 208.208C128.964 208.083 129.153 207.886 129.278 208.01Z" fill="#3A3762"/>
<path d="M130.602 210.537C131.399 211.63 132.04 212.829 132.522 214.108C132.585 214.276 132.327 214.348 132.264 214.182C131.791 212.927 131.153 211.751 130.371 210.678C130.267 210.535 130.499 210.396 130.602 210.537Z" fill="#3A3762"/>
<path d="M106.257 213.64V214.143C106.257 214.324 105.99 214.324 105.99 214.143V213.64C105.99 213.459 106.257 213.459 106.257 213.64Z" fill="#3A3762"/>
<path d="M105.777 217.502V219.014C105.777 219.194 105.51 219.194 105.51 219.014V217.502C105.51 217.322 105.777 217.322 105.777 217.502Z" fill="#3A3762"/>
<path d="M105.276 221.603C105.142 221.883 105.092 222.192 105.136 222.503C105.16 222.679 104.903 222.755 104.878 222.577C104.823 222.186 104.877 221.816 105.045 221.461C105.122 221.3 105.352 221.442 105.276 221.603Z" fill="#3A3762"/>
<path d="M104.787 228.65C104.648 228.873 104.601 229.126 104.66 229.386C104.7 229.561 104.443 229.636 104.403 229.461C104.328 229.13 104.378 228.794 104.556 228.509C104.65 228.358 104.881 228.499 104.787 228.65Z" fill="#3A3762"/>
<path d="M117.587 167.988C117.262 168.972 116.938 169.956 116.613 170.94C116.445 171.452 116.277 171.964 116.107 172.475C115.993 172.821 115.882 173.111 115.554 173.284C114.814 173.673 113.898 173.827 113.082 173.91C112.176 174.002 111.264 173.945 110.372 173.761C110.203 173.726 110.274 173.456 110.443 173.491C111.258 173.659 112.089 173.714 112.918 173.645C113.735 173.577 114.643 173.422 115.392 173.054C115.81 172.849 115.887 172.288 116.025 171.869C116.168 171.437 116.311 171.004 116.453 170.571C116.745 169.685 117.037 168.8 117.329 167.914C117.385 167.745 117.643 167.818 117.587 167.988Z" fill="#3A3762"/>
<path d="M136.726 169.251C137.019 170.359 137.312 171.467 137.605 172.576C137.675 172.841 137.732 173.115 137.817 173.375C137.926 173.708 138.167 173.796 138.46 173.92C138.956 174.129 139.452 174.338 139.948 174.546C140.105 174.613 140.036 174.884 139.877 174.816C139.31 174.578 138.742 174.342 138.177 174.1C137.708 173.899 137.603 173.618 137.473 173.125C137.138 171.858 136.804 170.592 136.469 169.325C136.423 169.151 136.68 169.077 136.726 169.251Z" fill="#3A3762"/>
<path d="M107.785 127.506C107.895 128.524 108.476 131.78 109.179 135.621C109.295 136.256 109.414 136.907 109.536 137.566C110.716 143.979 112.062 151.194 112.133 152.333C112.346 155.749 110.585 164.369 110.511 166.595C110.493 167.152 112.109 166.823 113.908 166.662C115.89 166.484 119.728 166.591 125.005 167.832C131.025 169.249 135.302 168.55 138.298 167.666C139.43 167.332 141.137 166.067 140.72 164.962C140.55 164.515 140.317 163.911 140.049 163.203C139.859 162.7 139.651 162.145 139.436 161.556C138.368 158.631 137.131 154.89 137.019 152.677C136.937 151.052 140.311 127.463 140.311 127.463L137.742 120.422C125.832 117.454 112.757 120.408 112.757 120.408C112.757 120.408 107.113 121.337 107.785 127.506Z" fill="#7CBDA4"/>
<path d="M153.197 119.396L151.096 128.017L156.853 128.938C156.853 128.938 156.508 125.542 157.572 124.679C158.637 123.815 153.197 119.396 153.197 119.396Z" fill="#E9B9A3"/>
<path d="M152.626 122.944C152.626 122.944 153.708 119.876 155.509 119.276C157.311 118.675 158.292 118.973 159.012 119.694C159.732 120.414 159.963 122.726 159.242 124.167C158.522 125.608 157.071 126.772 155.39 126.412C153.87 126.086 152.626 122.944 152.626 122.944Z" fill="#E9B9A3"/>
<path d="M132.855 125.774L143.76 126.289C143.76 126.289 144.798 132.148 146.83 136.092C150.954 144.093 151.885 149.438 146.548 150.871C143.115 151.794 140.82 150.147 136.324 142.003C130.205 130.92 132.855 125.774 132.855 125.774Z" fill="#7CBDA4"/>
<path d="M124.257 115.203C124.257 115.203 124.445 115.574 124.782 116.207C124.964 116.55 125.19 116.97 125.454 117.45C126.085 118.599 126.93 120.091 127.903 121.686C130.75 126.353 134.685 131.908 137.537 132.385C138.09 132.477 145.455 133.597 143.76 126.289C142.591 121.248 139.204 117.389 134.831 116.641C133.589 116.428 132.249 116.225 130.953 116.043C128.533 115.703 126.269 115.433 125.095 115.298C124.564 115.237 124.257 115.203 124.257 115.203Z" fill="#7CBDA4"/>
<path d="M93.6763 142.562C93.6763 142.562 107.096 145.574 105.447 143.891C104.276 142.697 113.182 132.474 114.981 132.193C117.849 131.745 120.819 126.052 122.829 121.287C123.424 119.876 123.935 118.549 124.333 117.461C124.504 116.994 124.655 116.572 124.782 116.207C124.91 115.843 125.014 115.537 125.095 115.298C125.216 114.938 125.28 114.735 125.28 114.735C125.28 114.735 122.913 115.315 119.888 115.934C118.716 116.174 117.445 116.42 116.174 116.641C111.802 117.399 106.906 119.347 104.8 124.073C102.096 130.144 94.9185 136.021 93.6763 142.562Z" fill="#7CBDA4"/>
<path d="M120.829 115.738C121.548 115.587 122.106 114.991 122.237 114.235C122.5 112.711 122.825 110.671 123.04 108.763C123.097 108.255 122.588 106.313 122.568 106.279C122.626 106.295 130.569 108.607 129.6 111.047C129.557 111.155 129.517 111.27 129.481 111.39C129.247 112.168 129.166 113.149 129.167 114.139C129.168 114.731 129.207 115.297 129.264 115.812C129.81 115.884 130.377 115.961 130.953 116.042C131.053 116.493 131.135 117.087 131.09 117.732C130.995 119.137 130.303 120.779 127.903 121.686C127.545 121.822 127.147 121.941 126.707 122.041C125.08 122.409 123.814 122.038 122.83 121.287C121.676 120.405 120.911 119.001 120.412 117.655C120.187 117.052 120.016 116.461 119.888 115.934C120.21 115.868 120.524 115.803 120.829 115.738Z" fill="#E9B9A3"/>
<path d="M122.901 108.521C122.95 108.883 122.799 110.233 122.801 110.648C124.593 114.296 129.102 114.115 129.167 114.139C129.167 113.15 129.247 112.168 129.481 111.39C127.696 110.498 123.914 108.366 122.901 108.521Z" fill="#D69189"/>
<path d="M132.231 116.299C132.895 119.41 130.92 122.477 128.168 123.55C125.369 124.642 121.47 124.084 119.733 121.317C118.819 119.862 118.487 118.08 118.367 116.369C118.361 116.279 118.494 116.279 118.5 116.369C118.604 117.838 118.866 119.34 119.52 120.659C120.249 122.129 121.439 123.081 122.949 123.547C125.815 124.433 129.24 123.741 131.069 121.109C132.016 119.746 132.457 117.998 132.102 116.336C132.083 116.249 132.212 116.211 132.231 116.299Z" fill="#5E8D7C"/>
<path d="M121.769 149.655C120.156 149.457 117.818 152.691 116.411 153.211L114.015 152.481L112.316 156.95L115.575 157.808C116.059 157.99 116.54 158.149 116.821 158.182C119.575 158.51 120.335 156.647 121.27 156.557C121.542 156.53 123.223 156.739 123.348 156.304C123.418 156.06 121.794 155.537 121.006 155.201C120.909 155.16 120.914 155.019 121.012 154.991C122.135 154.674 124.418 155.031 124.575 154.382C124.608 154.244 123.334 153.821 122.542 153.534C122.117 153.38 121.317 153.419 120.665 153.489C120.614 153.494 120.593 153.422 120.639 153.4C121.171 153.145 121.886 152.963 122.313 152.922C123.047 152.851 124.978 152.891 125.376 152.17C125.542 151.869 123.102 151.732 122.129 151.56C121.972 151.533 121.772 151.546 121.55 151.586C121.508 151.594 121.487 151.534 121.525 151.516C121.865 151.352 122.157 151.225 122.289 151.204C123.516 151.013 125.116 150.97 125.391 150.146C125.462 149.931 122.122 149.699 121.769 149.655Z" fill="#E9B9A3"/>
<path d="M113.104 158.746C113.104 158.746 105.535 155.94 99.9056 152.222C94.7263 148.8 93.8067 144.045 93.6767 142.562C93.6322 142.054 93.9339 141.582 94.4148 141.412C96.1723 140.793 100.75 139.549 103.655 142.125C107.311 145.367 108.334 147.344 111.24 149.66C112.99 151.055 115.839 151.812 116.004 152.574C116.169 153.337 114.868 154.312 114.918 155.265C114.969 156.218 113.746 158.952 113.104 158.746Z" fill="#7CBDA4"/>
<path d="M157.333 128.135C157.333 128.135 156.3 136.204 153.543 142.362C149.888 150.526 147.153 150.884 145.513 151.101C145.007 151.168 144.292 150.317 144.031 149.879C143.077 148.278 140.954 144.037 142.905 140.68C145.362 136.456 147.097 135.062 148.794 131.756C149.816 129.765 149.995 126.823 150.71 126.511C151.425 126.198 152.638 127.281 153.562 127.043C154.486 126.805 157.408 127.464 157.333 128.135Z" fill="#7CBDA4"/>
<path d="M105.447 143.891C105.447 143.891 103.107 142.294 100.678 142.746C100.678 142.746 103.36 141.738 105.606 142.665C105.606 142.665 105.14 143.408 105.447 143.891Z" fill="#5E8D7C"/>
<path d="M109.478 137.241C109.478 137.241 110.93 134.657 112.349 134.279C113.769 133.9 111.184 135.461 110.914 137.241C110.644 139.021 110.053 140.393 110.029 140.246C110.005 140.1 109.478 137.241 109.478 137.241Z" fill="#5E8D7C"/>
<path d="M146.489 135.392C146.489 135.392 142.922 138.955 142.864 142.352C142.864 142.352 141.025 138.146 146.061 134.406L146.489 135.392Z" fill="#5E8D7C"/>
<path d="M167.557 142.683C167.539 142.803 167.546 142.921 167.579 143.039C167.588 143.07 167.637 143.057 167.628 143.026C167.597 142.917 167.589 142.807 167.606 142.696C167.61 142.664 167.562 142.651 167.557 142.683Z" fill="#C5806F"/>
<path d="M157.385 118.56C158.847 118.154 159.437 118.29 159.637 119.011C159.837 119.733 159.538 119.949 158.076 120.355C156.613 120.76 154.989 121.077 154.789 120.355C154.588 119.634 155.922 118.965 157.385 118.56Z" fill="#F0CABA"/>
<path d="M157.667 120.298C159.457 119.802 160.162 119.905 160.362 120.627C160.562 121.349 160.189 121.586 158.398 122.082C156.608 122.578 154.627 122.994 154.427 122.272C154.227 121.55 155.876 120.794 157.667 120.298Z" fill="#F0CABA"/>
<path d="M157.881 121.834C159.58 121.363 160.252 121.476 160.452 122.198C160.653 122.919 160.3 123.15 158.601 123.621C156.902 124.092 155.021 124.48 154.821 123.759C154.621 123.037 156.182 122.305 157.881 121.834Z" fill="#F0CABA"/>
<path d="M158.326 123.283C159.547 122.945 160.04 123.063 160.211 123.679C160.381 124.294 160.133 124.477 158.912 124.816C157.691 125.154 156.335 125.416 156.164 124.801C155.993 124.185 157.105 123.622 158.326 123.283Z" fill="#F0CABA"/>
<path d="M156.147 120.824C157.142 120.595 158.137 120.367 159.132 120.138C159.226 120.116 159.186 119.971 159.092 119.993C158.097 120.222 157.102 120.451 156.107 120.68C156.013 120.701 156.053 120.846 156.147 120.824Z" fill="#DAA28F"/>
<path d="M155.705 122.716C157.128 122.469 158.524 122.117 159.894 121.661C159.985 121.631 159.946 121.486 159.854 121.516C158.484 121.972 157.088 122.324 155.666 122.571C155.571 122.588 155.611 122.732 155.705 122.716Z" fill="#DAA28F"/>
<path d="M156.451 124.185C157.604 123.978 158.731 123.677 159.833 123.281C159.924 123.248 159.885 123.103 159.794 123.136C158.691 123.532 157.564 123.834 156.411 124.041C156.316 124.058 156.356 124.202 156.451 124.185Z" fill="#DAA28F"/>
<path d="M132.615 96.143C133.393 95.1198 133.549 93.6885 132.899 92.5572C132.25 91.4287 130.91 90.8046 129.633 90.998C127.58 91.3086 125.47 93.6056 123.331 92.2959C123.259 92.2518 123.325 92.1382 123.398 92.1825C124.842 93.0673 126.455 92.1557 127.788 91.5087C128.843 90.9969 129.969 90.6074 131.133 90.99C133.329 91.7117 134.117 94.3827 132.729 96.2093C132.678 96.2758 132.564 96.2104 132.615 96.143Z" fill="#60333D"/>
<path d="M124.959 96.7995C124.959 96.7995 123.973 96.3062 123.03 96.7401C123.03 96.7401 123.776 96.7024 124.442 97.1401C125.108 97.5778 124.959 96.7995 124.959 96.7995Z" fill="#302F4E"/>
<path d="M120.777 106.246C120.899 106.277 121.522 106.439 122.365 106.704C122.324 106.259 120.966 106.27 120.777 106.246Z" fill="#E9B9A3"/>
<path d="M122.479 110.692C122.832 111.702 126.514 112.437 127.982 112.559C128.95 112.64 130.435 112.826 131.246 112.24C131.933 111.744 133.797 107.581 133.286 105.471C133.187 105.062 133.027 103.339 133.174 102.173C133.419 100.236 131.989 97.0782 131.989 97.0782C126.316 93.2727 121.574 98.9455 121.216 101.098C120.857 103.25 121.054 106.62 122.479 110.692Z" fill="#E9B9A3"/>
<path d="M117.964 104.444C118.805 107.184 121.82 108.545 121.82 108.545C121.501 106.832 121.281 103.277 121.698 103.274C122.117 103.27 123.282 104.525 123.158 103.895C123.033 103.266 122.39 102.351 123.179 100.971C123.969 99.591 123.225 97.9354 123.225 97.9354C123.225 97.9354 123.23 97.9375 123.243 97.9418C123.247 97.9429 123.25 97.9439 123.255 97.9461C123.405 98.0068 123.575 98.0578 123.759 98.1005C123.761 98.1005 123.763 98.1015 123.765 98.1015C124.26 98.2182 124.86 98.2775 125.504 98.2932C126.072 98.3073 126.673 98.2874 127.265 98.2413C127.899 98.1908 128.522 98.1118 129.081 98.0138C129.61 97.9199 130.082 97.8089 130.452 97.6878C130.679 97.6136 130.88 97.5642 131.057 97.5347C131.199 97.5108 131.326 97.4986 131.439 97.497C132.24 97.4839 132.349 97.9652 132.349 97.9652C133.523 96.2907 133.26 95.1868 132.942 94.1599C132.373 92.3258 130.74 90.9106 128.328 91.6052C125.964 92.2862 126.398 92.3632 124.08 92.2189C118.709 91.8845 118.883 95.5333 118.883 95.5333C116.302 97.0977 117.123 101.703 117.964 104.444Z" fill="#60333D"/>
<path d="M122.926 104.39C122.926 104.39 121.594 102.448 120.412 103.37C119.229 104.292 120.502 105.914 120.981 106.537C121.494 107.203 121.782 107.202 122.652 106.962C123.522 106.723 122.926 104.39 122.926 104.39Z" fill="#E9B9A3"/>
<path d="M122.707 106.797C122.433 107.303 121.756 107.286 121.335 106.985C121.071 106.797 120.879 106.527 120.703 106.259C120.492 105.936 120.289 105.604 120.139 105.247C119.888 104.652 119.759 103.834 120.327 103.374C120.886 102.922 121.65 103.109 122.12 103.591C122.181 103.654 122.087 103.753 122.025 103.69C121.589 103.242 120.852 103.057 120.356 103.53C119.857 104.005 120.077 104.811 120.335 105.353C120.557 105.819 120.848 106.33 121.213 106.7C121.565 107.056 122.287 107.286 122.587 106.731C122.629 106.653 122.749 106.719 122.707 106.797Z" fill="#DA9D89"/>
<path d="M121.232 103.742C121.438 103.82 121.638 103.929 121.759 104.121C121.9 104.344 121.855 104.521 121.793 104.755C121.675 105.198 122.124 105.275 122.351 105.549C122.48 105.705 122.521 105.899 122.422 106.078C122.379 106.155 122.259 106.089 122.302 106.012C122.535 105.591 121.712 105.372 121.629 104.992C121.595 104.834 121.678 104.724 121.713 104.576C121.797 104.224 121.489 103.984 121.199 103.875C121.118 103.844 121.15 103.711 121.232 103.742Z" fill="#DA9D89"/>
<path d="M128.631 91.6376C129.886 91.3434 131.246 91.4857 132.248 92.3576C133.168 93.1575 133.504 94.4217 133.026 95.5508C132.993 95.6283 132.88 95.5615 132.912 95.4845C133.404 94.3244 132.961 93.0444 131.973 92.3071C131.016 91.5927 129.8 91.4983 128.666 91.7642C128.584 91.7835 128.549 91.6569 128.631 91.6376Z" fill="#60333D"/>
<path d="M118.794 93.8017C118.665 94.5982 118.832 95.3685 119.27 96.0443C119.316 96.1154 119.203 96.1813 119.157 96.1106C118.698 95.4038 118.533 94.5974 118.667 93.7668C118.681 93.6835 118.808 93.7188 118.794 93.8017Z" fill="#60333D"/>
<path d="M119.231 95.4679C118.595 95.6679 118.01 95.9594 117.467 96.344C117.398 96.3929 117.333 96.2791 117.401 96.2305C117.953 95.84 118.551 95.5441 119.196 95.3412C119.277 95.3158 119.311 95.4426 119.231 95.4679Z" fill="#60333D"/>
<path d="M128.506 97.9863C129.724 97.7032 129.859 96.0018 129.641 94.9958C129.37 93.7425 128.165 93.4635 127.052 93.4278C126.968 93.4251 126.967 93.2937 127.052 93.2964C128.321 93.3371 129.579 93.723 129.8 95.138C129.964 96.1883 129.789 97.8229 128.541 98.113C128.459 98.1321 128.424 98.0055 128.506 97.9863Z" fill="#6C3D4A"/>
<path d="M127.004 94.9503C127.631 95.2605 128.217 95.6238 128.519 96.2816C128.774 96.839 128.784 97.4502 128.58 98.0238C128.552 98.1029 128.425 98.0688 128.454 97.9889C128.663 97.401 128.638 96.7676 128.338 96.2128C128.036 95.6535 127.489 95.3365 126.938 95.0638C126.862 95.0262 126.929 94.9129 127.004 94.9503Z" fill="#6C3D4A"/>
<path d="M123.14 97.8659C122.175 97.3956 121.292 96.8012 120.492 96.0859C120.429 96.0295 120.522 95.9368 120.585 95.993C121.377 96.7011 122.252 97.2873 123.206 97.7525C123.282 97.7895 123.216 97.9028 123.14 97.8659Z" fill="#6C3D4A"/>
<path d="M151.837 125.393C151.837 125.393 150.959 122.118 151.412 121.189C151.865 120.261 153.199 118.494 154.205 118.334C155.612 118.111 157.779 117.636 157.62 118.258C157.478 118.813 156.321 120.131 155.227 120.071C154.792 120.047 154.858 121.255 154.614 121.582C153.408 123.195 153.188 125.12 153.188 125.12L151.837 125.393Z" fill="#E9B9A3"/>
<path d="M130.918 164.976C135.803 165.57 140.049 163.203 140.049 163.203C139.858 162.7 139.651 162.145 139.436 161.556C138.379 163.547 130.918 164.976 130.918 164.976Z" fill="#5E8D7C"/>
<path d="M129.86 162.254C129.86 162.254 124.105 163.43 121.055 160.649C121.055 160.649 124.021 162.206 126.338 162.041C128.655 161.875 130.182 161.825 129.86 162.254Z" fill="#5E8D7C"/>
<path d="M128.852 160.181C128.852 160.181 126.112 161.416 124.799 161.133C124.799 161.133 127.493 160.553 128.3 159.643C129.107 158.732 129.445 159.936 128.852 160.181Z" fill="#5E8D7C"/>
<path d="M111.749 150.127C112.404 150.733 113.154 151.167 113.968 151.528C114.29 151.67 114.618 151.797 114.944 151.93C115.403 152.115 115.79 152.301 115.76 152.894C115.751 153.078 115.503 153.368 115.423 153.53C115.043 154.294 114.833 155.055 114.696 155.895C114.611 156.417 114.545 156.973 114.289 157.448C113.891 158.185 112.953 158.74 112.221 158.064C112.116 157.967 111.957 158.124 112.063 158.222C112.635 158.75 113.45 158.698 114.021 158.182C114.986 157.311 114.818 155.811 115.184 154.675C115.385 154.053 115.921 153.42 116.057 152.798C116.121 152.502 116.079 152.334 115.857 152.119C115.443 151.716 114.585 151.558 114.081 151.335C113.283 150.983 112.551 150.565 111.907 149.969C111.802 149.872 111.644 150.029 111.749 150.127Z" fill="#5E8D7C"/>
<path d="M109.96 136.781C111.382 135.316 112.647 133.704 114.81 133.456C114.951 133.439 114.952 133.216 114.81 133.232C112.564 133.491 111.288 135.091 109.802 136.624C109.702 136.727 109.86 136.885 109.96 136.781Z" fill="#5E8D7C"/>
<path d="M139.061 131.018C138.986 136.006 138.503 140.973 137.611 145.882C137.585 146.022 137.801 146.082 137.826 145.941C138.721 141.013 139.209 136.026 139.284 131.018C139.286 130.874 139.063 130.874 139.061 131.018Z" fill="#5E8D7C"/>
<path d="M146.462 135.359C143.588 138.062 142.11 141.826 142.824 145.755C142.85 145.896 143.065 145.836 143.039 145.695C142.34 141.847 143.808 138.161 146.619 135.517C146.724 135.418 146.566 135.26 146.462 135.359Z" fill="#5E8D7C"/>
<path d="M105.421 143.634C103.751 142.69 101.889 142.364 99.9977 142.678C99.8563 142.701 99.9163 142.916 100.057 142.893C101.888 142.589 103.693 142.913 105.308 143.826C105.433 143.897 105.546 143.704 105.421 143.634Z" fill="#5E8D7C"/>
<path d="M139.118 134.113C139.602 133.304 140.027 132.467 140.395 131.598C140.45 131.467 140.258 131.353 140.202 131.485C139.834 132.354 139.409 133.191 138.925 134C138.851 134.124 139.044 134.236 139.118 134.113Z" fill="#5E8D7C"/>
<path d="M266.751 64.0322H199.441C198.663 64.0322 198.026 63.3952 198.026 62.6167C198.026 61.8382 198.663 61.2012 199.441 61.2012H266.751C267.53 61.2012 268.167 61.8382 268.167 62.6167C268.167 63.3952 267.53 64.0322 266.751 64.0322Z" fill="#85A9EE"/>
<path d="M271.944 70.9839H194.248C193.47 70.9839 192.833 70.3469 192.833 69.5684C192.833 68.7898 193.47 68.1528 194.248 68.1528H271.944C272.722 68.1528 273.359 68.7898 273.359 69.5684C273.359 70.3469 272.722 70.9839 271.944 70.9839Z" fill="#85A9EE"/>
<path d="M239.259 94.8958H174.478C173.698 94.8958 173.06 94.2573 173.06 93.477C173.06 92.6966 173.698 92.0581 174.478 92.0581H239.259C240.04 92.0581 240.678 92.6966 240.678 93.477C240.678 94.2573 240.04 94.8958 239.259 94.8958Z" fill="#D4E4FD"/>
<path d="M291.95 94.8958H247.005C246.225 94.8958 245.586 94.2573 245.586 93.477C245.586 92.6966 246.225 92.0581 247.005 92.0581H291.95C292.731 92.0581 293.369 92.6966 293.369 93.477C293.369 94.2573 292.731 94.8958 291.95 94.8958Z" fill="#D4E4FD"/>
<path d="M220.057 84.8748H174.478C173.698 84.8748 173.06 84.2363 173.06 83.4559C173.06 82.6756 173.698 82.0371 174.478 82.0371H220.057C220.838 82.0371 221.476 82.6756 221.476 83.4559C221.476 84.2363 220.838 84.8748 220.057 84.8748Z" fill="#D4E4FD"/>
<path d="M263.393 84.8748H228.152C227.372 84.8748 226.733 84.2363 226.733 83.4559C226.733 82.6756 227.372 82.0371 228.152 82.0371H263.393C264.173 82.0371 264.811 82.6756 264.811 83.4559C264.811 84.2363 264.173 84.8748 263.393 84.8748Z" fill="#D4E4FD"/>
<path d="M291.95 84.8748H270.278C269.498 84.8748 268.859 84.2363 268.859 83.4559C268.859 82.6756 269.498 82.0371 270.278 82.0371H291.95C292.73 82.0371 293.369 82.6756 293.369 83.4559C293.369 84.2363 292.73 84.8748 291.95 84.8748Z" fill="#D4E4FD"/>
<path d="M220.057 104.916H174.478C173.698 104.916 173.06 104.278 173.06 103.497C173.06 102.717 173.698 102.079 174.478 102.079H220.057C220.838 102.079 221.476 102.717 221.476 103.497C221.476 104.278 220.838 104.916 220.057 104.916Z" fill="#D4E4FD"/>
<path d="M263.393 104.916H228.152C227.372 104.916 226.733 104.278 226.733 103.497C226.733 102.717 227.372 102.079 228.152 102.079H263.393C264.173 102.079 264.811 102.717 264.811 103.497C264.811 104.278 264.173 104.916 263.393 104.916Z" fill="#D4E4FD"/>
<path d="M291.95 104.916H270.278C269.498 104.916 268.859 104.278 268.859 103.497C268.859 102.717 269.498 102.079 270.278 102.079H291.95C292.73 102.079 293.369 102.717 293.369 103.497C293.369 104.278 292.73 104.916 291.95 104.916Z" fill="#D4E4FD"/>
<path d="M226.3 122.415H174.163C173.554 122.415 173.06 122.909 173.06 123.518V124.149C173.06 124.758 173.554 125.252 174.163 125.252H226.3C226.909 125.252 227.403 124.758 227.403 124.149V123.518C227.403 122.909 226.909 122.415 226.3 122.415Z" fill="#D4E4FD"/>
<path d="M220.057 115.231H174.478C173.698 115.231 173.06 114.593 173.06 113.812C173.06 113.032 173.698 112.394 174.478 112.394H220.057C220.838 112.394 221.476 113.032 221.476 113.812C221.476 114.593 220.838 115.231 220.057 115.231Z" fill="#D4E4FD"/>
<path d="M263.393 115.231H228.152C227.372 115.231 226.733 114.593 226.733 113.812C226.733 113.032 227.372 112.394 228.152 112.394H263.393C264.173 112.394 264.811 113.032 264.811 113.812C264.811 114.593 264.173 115.231 263.393 115.231Z" fill="#D4E4FD"/>
<path d="M291.95 115.231H270.278C269.498 115.231 268.859 114.593 268.859 113.812C268.859 113.032 269.498 112.394 270.278 112.394H291.95C292.73 112.394 293.369 113.032 293.369 113.812C293.369 114.593 292.73 115.231 291.95 115.231Z" fill="#D4E4FD"/>
<path d="M174.631 145.937H211.212C211.817 145.937 212.312 145.442 212.312 144.837C212.312 144.233 211.817 143.738 211.212 143.738H174.631C174.026 143.738 173.532 144.233 173.532 144.837C173.532 145.442 174.026 145.937 174.631 145.937Z" fill="#D4E4FD"/>
<path d="M174.631 161.509H211.212C211.817 161.509 212.312 161.014 212.312 160.409C212.312 159.805 211.817 159.31 211.212 159.31H174.631C174.026 159.31 173.532 159.805 173.532 160.409C173.532 161.014 174.026 161.509 174.631 161.509Z" fill="#D4E4FD"/>
<path d="M174.631 138.172H192.324C192.929 138.172 193.423 137.677 193.423 137.073C193.423 136.468 192.929 135.973 192.324 135.973H174.631C174.026 135.973 173.532 136.468 173.532 137.073C173.532 137.677 174.026 138.172 174.631 138.172Z" fill="#D4E4FD"/>
<path d="M174.631 153.701H192.324C192.929 153.701 193.423 153.207 193.423 152.602C193.423 151.997 192.929 151.502 192.324 151.502H174.631C174.026 151.502 173.532 151.997 173.532 152.602C173.532 153.207 174.026 153.701 174.631 153.701Z" fill="#D4E4FD"/>
<path d="M174.631 169.152H192.324C192.929 169.152 193.423 168.657 193.423 168.053C193.423 167.448 192.929 166.953 192.324 166.953H174.631C174.026 166.953 173.532 167.448 173.532 168.053C173.532 168.657 174.026 169.152 174.631 169.152Z" fill="#D4E4FD"/>
<path d="M296.884 195.338H249.087V217.506H296.884V195.338Z" fill="#D4E4FD"/>
<path d="M259.612 166.853C257.298 171.453 255.109 176.121 252.797 181.143C250.998 185.046 249.352 189.124 247.374 193.751C241.149 208.322 235.81 217.706 235.384 218.563C235.332 218.657 234.392 220.368 234.174 220.744C234.207 220.744 234.369 220.73 234.514 220.756C238.182 221.252 242.16 233.77 236.461 238.605C236.459 238.605 236.457 238.607 236.457 238.607C236.21 238.817 235.546 239.259 234.599 239.854C212.015 239.824 206.863 239.816 181.864 239.788C183.809 231.348 186.432 213.692 188.337 207.61C192.977 192.782 193.633 183.95 198.582 182.317C200.894 181.553 203.156 180.977 205.339 183.714C205.893 184.407 207.98 181.197 211.733 181.58C218.307 182.251 216.966 186.343 217.94 187.862C218.008 187.97 218.083 188.03 218.168 188.053H218.17C219.169 188.305 221.255 182.844 225.219 182.72C233.267 182.469 231.839 189.479 232.535 190.668C233.815 192.894 246.345 167.478 254.071 157.491C258.103 152.279 265.258 155.618 259.612 166.853Z" fill="#EBB89F"/>
<path d="M260.964 157.899C260.964 157.899 259.983 162.426 258.226 163.208C256.469 163.99 253.563 162.184 253.53 161.302C253.496 160.419 256.124 156.192 256.67 155.972C257.217 155.751 260.359 156.824 260.964 157.899Z" fill="#EFC4B0"/>
<path d="M234.893 219.747C233.042 222.472 231.445 225.347 230.111 228.359C230.037 228.525 229.793 228.382 229.867 228.216C231.201 225.205 232.798 222.329 234.649 219.604C234.751 219.454 234.996 219.595 234.893 219.747Z" fill="#D98C7B"/>
<path d="M261.322 203.337C261.322 203.355 258.716 205.945 256.424 209.253C255.225 210.982 254.177 212.839 253.801 214.445C252.741 218.994 251.71 220.999 246.291 227.857C244.295 230.383 239.927 237.412 237.901 239.279C237.685 239.478 237.472 239.671 237.258 239.856C233.54 239.853 237.926 239.859 211.272 239.823C210.928 236.133 212.416 231.966 216.414 228.86C223.252 223.549 230.887 220.762 235.079 218.919H235.081C235.082 218.919 235.432 218.762 235.434 218.762C238.082 217.577 238.074 217.239 238.362 216.763C239.504 214.809 243.175 210.159 244.98 208.784C245.963 207.268 247.744 205.028 249.437 203.382C250.883 201.976 252.831 200.425 254.787 199.965C259.639 198.807 262.834 201.7 261.322 203.337Z" fill="#EBB89F"/>
<path d="M237.144 215.314C234.849 219.728 232.874 224.299 231.235 228.996C231.182 229.148 230.938 229.082 230.992 228.929C232.639 224.212 234.622 219.62 236.926 215.187C237.001 215.043 237.218 215.17 237.144 215.314Z" fill="#D98C7B"/>
<path d="M245.215 208.62C245.964 208.645 246.675 208.808 247.363 209.104C247.512 209.168 247.384 209.385 247.236 209.321C246.591 209.043 245.917 208.895 245.215 208.871C245.053 208.866 245.052 208.614 245.215 208.62Z" fill="#D98C7B"/>
<path d="M245.504 208.801C245.802 209.039 246.071 209.307 246.31 209.605C246.411 209.73 246.234 209.909 246.132 209.783C245.893 209.485 245.625 209.216 245.326 208.979C245.199 208.878 245.378 208.701 245.504 208.801Z" fill="#D98C7B"/>
<path d="M237.131 217.971C237.573 217.663 238.068 217.488 238.604 217.439C238.765 217.424 238.764 217.676 238.604 217.691C238.112 217.736 237.663 217.906 237.258 218.188C237.125 218.281 236.999 218.063 237.131 217.971Z" fill="#D98C7B"/>
<path d="M233.908 189.933C233.053 190.823 232.199 191.713 231.344 192.603C231.232 192.72 231.054 192.542 231.166 192.425C232.021 191.535 232.875 190.645 233.73 189.755C233.842 189.638 234.02 189.816 233.908 189.933Z" fill="#D98C7B"/>
<path d="M219.122 187.759C218.515 188.228 217.831 188.53 217.071 188.646C216.913 188.67 216.844 188.428 217.004 188.404C217.718 188.295 218.372 188.023 218.944 187.581C219.071 187.483 219.25 187.66 219.122 187.759Z" fill="#D98C7B"/>
<path d="M206.362 183.325C205.706 184.046 204.873 184.537 203.925 184.763C203.767 184.801 203.7 184.558 203.858 184.521C204.767 184.304 205.556 183.838 206.185 183.147C206.294 183.027 206.471 183.206 206.362 183.325Z" fill="#D98C7B"/>
<path d="M255.212 207.346C255.174 208.178 255.856 208.844 256.424 209.252C259.71 206.265 261.432 203.6 261.317 203.342L261.321 203.338C261.321 203.338 260.446 201.71 259.304 202.515C258.165 203.32 255.278 205.937 255.212 207.346Z" fill="#EFC4B0"/>
<path d="M248.887 180.273C247.775 179.416 246.502 178.864 245.116 178.637C244.957 178.611 245.024 178.368 245.183 178.394C246.589 178.624 247.885 179.186 249.014 180.056C249.141 180.153 249.016 180.372 248.887 180.273Z" fill="#D98C7B"/>
<path d="M247.125 180.769C246.724 180.628 246.324 180.488 245.924 180.347C245.772 180.294 245.837 180.051 245.99 180.104C246.391 180.245 246.791 180.386 247.191 180.526C247.343 180.58 247.278 180.823 247.125 180.769Z" fill="#D98C7B"/>
<g opacity="0.5">
<path d="M238.199 217.046C240.147 217.584 247.626 210.025 250.471 205.442C253.316 200.857 259.815 200.266 259.815 200.266C258.584 199.71 256.831 199.476 254.787 199.965C249.953 201.121 244.98 208.783 244.98 208.783C243.101 210.209 239.218 215.171 238.199 217.046Z" fill="#D57A7D"/>
</g>
<path d="M470.74 238.965H0V240.623H470.74V238.965Z" fill="#343852"/>
<path d="M182.852 36.5127C182.846 36.5063 182.84 36.5001 182.834 36.4937C180.353 39.1507 176.395 41.3283 172.16 42.2561C172.159 42.5389 172.152 44.1062 172.119 51.3299C172.076 60.9661 181.247 65.675 182.671 66.3977C178.488 49.4658 181.765 39.2248 182.852 36.5127Z" fill="#F5F8FF"/>
<path d="M182.852 36.5127C181.765 39.2248 178.488 49.4658 182.671 66.3977C184.05 65.7627 193.337 61.0611 193.38 51.4249C193.412 44.2012 193.419 42.634 193.42 42.3511C189.203 41.3878 185.31 39.1831 182.852 36.5127Z" fill="#E4ECFD"/>
<path d="M182.667 66.5968L182.589 66.5575C179.813 65.1484 177.864 63.4824 176.718 62.3329C173.529 59.1353 171.921 55.433 171.94 51.3289L171.981 42.1114L172.121 42.0807C176.254 41.1754 180.21 39.041 182.702 36.3711L182.834 36.23L182.984 36.3911C185.459 39.0803 189.375 41.243 193.46 42.1761L193.6 42.2081L193.6 42.3518C193.598 42.5952 193.593 43.789 193.571 48.7169L193.559 51.4255C193.515 61.3184 183.848 66.0532 182.746 66.5605L182.667 66.5968ZM172.338 42.3999L172.298 51.3306C172.26 59.9063 179.477 64.5599 182.674 66.198C184.068 65.541 193.158 60.8926 193.2 51.4239L193.212 48.7153C193.231 44.4096 193.238 42.9545 193.24 42.4934C189.199 41.542 185.331 39.409 182.833 36.7553C180.315 39.3808 176.417 41.4786 172.338 42.3999Z" fill="white"/>
<path d="M182.684 64.6777L182.521 64.5926C181.523 64.0738 179.573 62.9276 177.717 61.0802C174.87 58.2464 173.434 54.9725 173.45 51.3493L173.486 43.3717L173.754 43.3025C177.181 42.4185 180.307 40.7951 182.557 38.7315L182.803 38.5054L183.064 38.7512C185.293 40.8268 188.398 42.4717 191.805 43.3831L192.073 43.4546L192.037 51.4324C192.021 55.0555 190.556 58.3165 187.684 61.1248C185.868 62.8999 183.96 64.0163 182.985 64.5238L182.96 64.5364C182.922 64.5563 182.884 64.5761 182.849 64.594L182.684 64.6777ZM174.201 43.9266L174.168 51.3525C174.153 54.7765 175.517 57.8783 178.223 60.5716C179.915 62.2552 181.687 63.3344 182.688 63.8694C183.638 63.3723 185.453 62.3017 187.182 60.6116C189.912 57.9426 191.304 54.8532 191.319 51.4292L191.353 44.0032C188.05 43.0793 185.032 41.4839 182.797 39.4799C180.544 41.4638 177.514 43.0318 174.201 43.9266Z" fill="#456AC7"/>
</g>
<defs>
<clipPath id="clip0_1197_34437">
<rect width="470.74" height="240" fill="white" transform="translate(0 0.623047)"/>
</clipPath>
</defs>
</svg>
