<svg width="336" height="199" viewBox="0 0 336 199" fill="none" xmlns="http://www.w3.org/2000/svg">
<path d="M21.1143 198.58C21.1143 198.58 -20.1002 156.176 14.1447 110.266C44.5292 69.5335 79.9532 72.3177 105.944 88.8473C117.013 95.8879 148.929 89.7151 176.093 48.2677C213.137 -8.25565 341.546 26.0254 318.134 112.989C306.803 155.074 352.617 156.603 329.273 198.669L21.1143 198.58Z" fill="#DCF1F5"/>
<path d="M190.301 141.717L194.273 142.342C194.589 142.391 194.869 142.52 195.089 142.696C195.321 142.882 195.488 143.124 195.558 143.389C195.58 143.469 195.594 143.552 195.596 143.636C195.599 143.711 195.594 143.789 195.582 143.866L186.445 196.9C186.326 197.583 185.584 198.045 184.773 197.953C184.747 197.95 184.719 197.947 184.694 197.942L180.722 197.316C180.696 197.311 180.671 197.308 180.643 197.303C179.844 197.142 179.294 196.477 179.413 195.792L188.55 142.758C188.564 142.681 188.584 142.607 188.614 142.536C188.644 142.459 188.684 142.383 188.732 142.314C188.889 142.085 189.126 141.908 189.409 141.802C189.677 141.702 189.985 141.667 190.301 141.717Z" fill="#FFB93E"/>
<path d="M191.317 168.626L186.421 197.038C186.316 197.649 185.582 198.049 184.771 197.953C184.745 197.95 184.718 197.947 184.692 197.942L180.72 197.316C180.695 197.311 180.669 197.308 180.641 197.303C179.841 197.145 179.282 196.541 179.387 195.93L183.682 171.007C185.821 170.935 188.846 170.459 191.317 168.626Z" fill="#FFA412"/>
<path d="M187.677 147.941L187.573 148.543L194.604 149.656L194.708 149.054L187.677 147.941Z" fill="#FFA412"/>
<path d="M187.31 149.972L187.206 150.575L194.238 151.684L194.342 151.082L187.31 149.972Z" fill="#FFA412"/>
<path d="M186.892 152.437L186.788 153.04L193.819 154.151L193.923 153.549L186.892 152.437Z" fill="#FFA412"/>
<path d="M186.25 156.154L186.146 156.757L193.178 157.868L193.282 157.265L186.25 156.154Z" fill="#FFA412"/>
<path d="M185.571 160.113L185.467 160.715L192.499 161.826L192.603 161.224L185.571 160.113Z" fill="#FFA412"/>
<path d="M184.517 166.209L184.414 166.812L191.446 167.921L191.549 167.319L184.517 166.209Z" fill="#FFA412"/>
<path d="M183.54 171.917L183.436 172.52L190.468 173.633L190.572 173.03L183.54 171.917Z" fill="#FFA412"/>
<path d="M182.666 176.977L182.562 177.579L189.594 178.69L189.698 178.088L182.666 176.977Z" fill="#FFA412"/>
<path d="M188.005 145.983L187.901 146.585L194.933 147.695L195.037 147.093L188.005 145.983Z" fill="#FFA412"/>
<path d="M188.221 144.685L188.117 145.288L195.149 146.399L195.253 145.796L188.221 144.685Z" fill="#FFA412"/>
<path d="M188.43 143.462L188.326 144.064L195.358 145.174L195.462 144.572L188.43 143.462Z" fill="#FFA412"/>
<path d="M188.491 143.137L195.523 144.244L195.588 143.867C195.602 143.79 195.605 143.713 195.602 143.637L188.618 142.538C188.589 142.608 188.568 142.682 188.554 142.76L188.491 143.137Z" fill="#FFA412"/>
<path d="M188.745 142.314L195.571 143.389C195.5 143.126 195.333 142.884 195.101 142.696L189.42 141.801C189.14 141.908 188.901 142.085 188.745 142.314Z" fill="#FFA412"/>
<path d="M197.491 141.717L201.463 142.342C201.779 142.391 202.059 142.52 202.279 142.696C202.511 142.882 202.678 143.124 202.748 143.389C202.771 143.469 202.783 143.552 202.786 143.636C202.79 143.711 202.784 143.789 202.772 143.866L193.635 196.9C193.516 197.583 192.774 198.045 191.963 197.953C191.937 197.95 191.91 197.947 191.884 197.942L187.912 197.316C187.886 197.311 187.861 197.308 187.833 197.303C187.034 197.142 186.484 196.477 186.603 195.792L195.74 142.758C195.754 142.681 195.775 142.607 195.804 142.536C195.835 142.459 195.874 142.383 195.922 142.314C196.079 142.085 196.316 141.908 196.599 141.802C196.868 141.702 197.175 141.667 197.491 141.717Z" fill="#FFB93E"/>
<path d="M198.507 168.627L193.611 197.039C193.506 197.65 192.772 198.05 191.961 197.954C191.935 197.951 191.908 197.947 191.882 197.943L187.91 197.317C187.885 197.312 187.859 197.309 187.831 197.304C187.031 197.146 186.472 196.542 186.577 195.931L190.871 171.008C193.011 170.936 196.034 170.46 198.507 168.627Z" fill="#FFA412"/>
<path d="M194.859 147.941L194.755 148.543L201.787 149.656L201.891 149.054L194.859 147.941Z" fill="#FFA412"/>
<path d="M194.523 149.978L194.419 150.58L201.451 151.69L201.555 151.087L194.523 149.978Z" fill="#FFA412"/>
<path d="M194.075 152.437L193.971 153.039L201.003 154.151L201.107 153.548L194.075 152.437Z" fill="#FFA412"/>
<path d="M193.426 156.148L193.322 156.75L200.354 157.862L200.458 157.259L193.426 156.148Z" fill="#FFA412"/>
<path d="M192.753 160.113L192.65 160.716L199.682 161.827L199.785 161.224L192.753 160.113Z" fill="#FFA412"/>
<path d="M191.708 166.234L191.604 166.836L198.635 167.948L198.739 167.345L191.708 166.234Z" fill="#FFA412"/>
<path d="M190.723 171.884L190.619 172.487L197.651 173.598L197.755 172.995L190.723 171.884Z" fill="#FFA412"/>
<path d="M189.849 176.969L189.745 177.571L196.777 178.682L196.881 178.08L189.849 176.969Z" fill="#FFA412"/>
<path d="M195.195 146.008L195.091 146.611L202.122 147.723L202.226 147.12L195.195 146.008Z" fill="#FFA412"/>
<path d="M195.426 144.712L195.323 145.314L202.355 146.424L202.458 145.821L195.426 144.712Z" fill="#FFA412"/>
<path d="M195.621 143.462L195.517 144.064L202.549 145.174L202.652 144.572L195.621 143.462Z" fill="#FFA412"/>
<path d="M195.681 143.137L202.713 144.244L202.778 143.867C202.792 143.79 202.796 143.713 202.792 143.637L195.808 142.538C195.779 142.608 195.758 142.682 195.744 142.76L195.681 143.137Z" fill="#FFA412"/>
<path d="M195.927 142.314L202.753 143.389C202.683 143.126 202.516 142.884 202.284 142.696L196.603 141.801C196.321 141.908 196.082 142.085 195.927 142.314Z" fill="#FFA412"/>
<path d="M171.161 192.631L171.154 196.485C171.154 196.793 171.068 197.078 170.92 197.315C170.766 197.563 170.542 197.759 170.283 197.869C170.204 197.904 170.119 197.929 170.033 197.945C169.956 197.96 169.875 197.968 169.795 197.968L113.666 197.84C112.942 197.838 112.348 197.21 112.312 196.428C112.312 196.401 112.31 196.377 112.31 196.352L112.317 192.498C112.317 192.473 112.317 192.447 112.318 192.422C112.356 191.64 112.954 191.015 113.678 191.017L169.807 191.145C169.887 191.145 169.968 191.153 170.046 191.17C170.131 191.186 170.214 191.212 170.295 191.247C170.554 191.357 170.778 191.555 170.931 191.805C171.077 192.039 171.163 192.323 171.161 192.631Z" fill="#FFB93E"/>
<path d="M143.583 197.909L113.512 197.84C112.866 197.838 112.335 197.21 112.304 196.428C112.304 196.401 112.302 196.377 112.302 196.352L112.309 192.498C112.309 192.473 112.309 192.447 112.311 192.422C112.345 191.64 112.878 191.015 113.524 191.017L139.902 191.076C140.321 193.085 141.297 195.867 143.583 197.909Z" fill="#FFA412"/>
<path d="M163.689 191.128L163.672 197.953L164.312 197.955L164.329 191.13L163.689 191.128Z" fill="#FFA412"/>
<path d="M161.531 191.125L161.514 197.95L162.154 197.952L162.171 191.127L161.531 191.125Z" fill="#FFA412"/>
<path d="M158.942 191.119L158.923 197.944L159.563 197.945L159.582 191.121L158.942 191.119Z" fill="#FFA412"/>
<path d="M154.975 191.108L154.959 197.933L155.599 197.935L155.615 191.11L154.975 191.108Z" fill="#FFA412"/>
<path d="M150.779 191.101L150.762 197.926L151.402 197.927L151.419 191.102L150.779 191.101Z" fill="#FFA412"/>
<path d="M144.336 191.085L144.319 197.91L144.959 197.912L144.976 191.087L144.336 191.085Z" fill="#FFA412"/>
<path d="M138.318 191.073L138.301 197.898L138.941 197.899L138.958 191.075L138.318 191.073Z" fill="#FFA412"/>
<path d="M132.936 191.058L132.917 197.883L133.557 197.885L133.576 191.06L132.936 191.058Z" fill="#FFA412"/>
<path d="M165.75 191.134L165.733 197.958L166.373 197.96L166.39 191.135L165.75 191.134Z" fill="#FFA412"/>
<path d="M167.099 191.137L167.084 197.961L167.724 197.963L167.739 191.138L167.099 191.137Z" fill="#FFA412"/>
<path d="M168.415 191.139L168.398 197.964L169.038 197.965L169.055 191.14L168.415 191.139Z" fill="#FFA412"/>
<path d="M169.398 191.143L169.384 197.967L169.784 197.969C169.867 197.969 169.946 197.961 170.024 197.946L170.038 191.169C169.96 191.152 169.879 191.144 169.798 191.144L169.398 191.143Z" fill="#FFA412"/>
<path d="M170.284 191.245L170.272 197.871C170.534 197.761 170.757 197.566 170.912 197.316L170.922 191.803C170.769 191.553 170.546 191.355 170.284 191.245Z" fill="#FFA412"/>
<path d="M165.172 185.793L165.165 189.647C165.165 189.955 165.08 190.239 164.932 190.476C164.777 190.725 164.554 190.921 164.294 191.031C164.215 191.066 164.131 191.09 164.045 191.107C163.968 191.122 163.887 191.13 163.806 191.13L107.677 191.001C106.954 191 106.359 190.371 106.323 189.589C106.323 189.563 106.321 189.538 106.321 189.514L106.328 185.659C106.328 185.635 106.328 185.608 106.33 185.584C106.368 184.802 106.966 184.177 107.689 184.178L163.818 184.307C163.854 184.307 163.89 184.308 163.925 184.312C163.94 184.312 163.956 184.313 163.971 184.316C163.988 184.318 164.005 184.321 164.021 184.323C164.033 184.325 164.045 184.328 164.057 184.33C164.143 184.346 164.225 184.372 164.304 184.407C164.316 184.412 164.329 184.417 164.341 184.423C164.353 184.428 164.365 184.433 164.375 184.44C164.397 184.451 164.421 184.465 164.444 184.476C164.456 184.484 164.469 184.493 164.483 184.501C164.495 184.507 164.506 184.514 164.518 184.524C164.54 184.537 164.561 184.552 164.581 184.568C164.605 184.586 164.628 184.606 164.652 184.626C164.669 184.641 164.688 184.657 164.705 184.674C164.705 184.674 164.707 184.675 164.708 184.677C164.72 184.688 164.731 184.7 164.743 184.711C164.777 184.746 164.81 184.784 164.841 184.822C164.851 184.833 164.86 184.845 164.868 184.856C164.877 184.868 164.885 184.879 164.894 184.892C164.911 184.917 164.928 184.942 164.944 184.968C165.088 185.202 165.172 185.487 165.172 185.793Z" fill="#FFB93E"/>
<path d="M137.595 191.07L107.524 191.001C106.878 190.999 106.347 190.37 106.316 189.589C106.316 189.562 106.314 189.538 106.314 189.513L106.321 185.659C106.321 185.634 106.321 185.608 106.323 185.583C106.357 184.801 106.89 184.176 107.536 184.176L133.912 184.237C133.924 184.293 133.936 184.349 133.948 184.405C134.388 186.399 135.371 189.083 137.595 191.07Z" fill="#FFA412"/>
<path d="M157.708 184.29L157.691 191.115L158.331 191.116L158.348 184.291L157.708 184.29Z" fill="#FFA412"/>
<path d="M155.55 184.284L155.533 191.108L156.173 191.11L156.19 184.285L155.55 184.284Z" fill="#FFA412"/>
<path d="M152.96 184.279L152.943 191.104L153.583 191.105L153.6 184.28L152.96 184.279Z" fill="#FFA412"/>
<path d="M148.995 184.271L148.978 191.096L149.618 191.097L149.635 184.272L148.995 184.271Z" fill="#FFA412"/>
<path d="M144.797 184.261L144.782 191.085L145.422 191.087L145.437 184.262L144.797 184.261Z" fill="#FFA412"/>
<path d="M138.364 184.245L138.345 191.07L138.985 191.071L139.004 184.247L138.364 184.245Z" fill="#FFA412"/>
<path d="M132.337 184.231L132.32 191.056L132.96 191.057L132.977 184.232L132.337 184.231Z" fill="#FFA412"/>
<path d="M126.952 184.221L126.937 191.046L127.576 191.047L127.591 184.222L126.952 184.221Z" fill="#FFA412"/>
<path d="M159.761 184.295L159.745 191.12L160.384 191.121L160.401 184.296L159.761 184.295Z" fill="#FFA412"/>
<path d="M161.12 184.299L161.104 191.124L161.743 191.125L161.76 184.3L161.12 184.299Z" fill="#FFA412"/>
<path d="M162.435 184.301L162.418 191.126L163.058 191.127L163.075 184.303L162.435 184.301Z" fill="#FFA412"/>
<path d="M163.417 184.302L163.403 191.127H163.803C163.886 191.127 163.966 191.118 164.043 191.104L164.057 184.326C163.979 184.31 163.898 184.302 163.817 184.302H163.417Z" fill="#FFA412"/>
<path d="M164.304 184.404L164.292 191.028C164.554 190.918 164.776 190.723 164.931 190.473L164.942 184.96C164.788 184.712 164.564 184.516 164.304 184.404Z" fill="#FFA412"/>
<path d="M168.079 179.141L168.072 182.995C168.072 183.303 167.986 183.588 167.838 183.825C167.684 184.073 167.46 184.271 167.201 184.38C167.122 184.414 167.037 184.439 166.951 184.455C166.872 184.47 166.793 184.478 166.713 184.478L110.582 184.352C110.357 184.352 110.144 184.289 109.956 184.182C109.559 183.953 109.276 183.516 109.233 183.005C109.231 182.984 109.23 182.961 109.228 182.94C109.228 182.915 109.226 182.888 109.226 182.864L109.233 179.009C109.233 178.985 109.233 178.958 109.235 178.934C109.272 178.152 109.871 177.527 110.594 177.528L166.723 177.655C166.805 177.655 166.884 177.663 166.962 177.68C167.048 177.696 167.13 177.723 167.211 177.757C167.47 177.867 167.692 178.065 167.847 178.315C167.993 178.55 168.079 178.835 168.079 179.141Z" fill="#FFB93E"/>
<path d="M140.501 184.419L110.43 184.35C110.229 184.35 110.038 184.287 109.871 184.18C109.517 183.952 109.265 183.516 109.225 183.005C109.223 182.984 109.222 182.961 109.22 182.94C109.22 182.915 109.218 182.888 109.218 182.864L109.225 179.009C109.225 178.985 109.225 178.958 109.227 178.934C109.261 178.152 109.794 177.527 110.44 177.528L136.818 177.588C137.223 179.543 138.158 182.227 140.313 184.253C140.377 184.307 140.437 184.363 140.501 184.419Z" fill="#FFA412"/>
<path d="M169.428 172.32L169.422 176.174C169.422 176.482 169.336 176.766 169.188 177.003C169.033 177.252 168.81 177.449 168.55 177.558C168.471 177.593 168.387 177.617 168.301 177.634C168.222 177.648 168.143 177.657 168.062 177.657L111.933 177.528C111.21 177.527 110.615 176.898 110.579 176.116C110.579 176.09 110.577 176.065 110.577 176.041L110.584 172.186C110.584 172.162 110.584 172.135 110.586 172.111C110.62 171.386 111.134 170.797 111.784 170.715C111.837 170.708 111.89 170.705 111.945 170.705L168.074 170.833C168.157 170.833 168.236 170.842 168.313 170.858C168.399 170.875 168.482 170.901 168.562 170.935C168.822 171.046 169.045 171.243 169.198 171.493C169.344 171.727 169.43 172.012 169.428 172.32Z" fill="#FFB93E"/>
<path d="M141.858 177.597L111.787 177.528C111.141 177.527 110.61 176.898 110.579 176.116C110.579 176.09 110.577 176.065 110.577 176.041L110.584 172.186C110.584 172.162 110.584 172.135 110.586 172.111C110.617 171.388 111.076 170.797 111.657 170.715C111.703 170.708 111.751 170.705 111.799 170.705L138.177 170.764C138.177 170.768 138.179 170.773 138.179 170.776C138.598 172.782 139.576 175.557 141.858 177.597Z" fill="#FFA412"/>
<path d="M165.316 165.495L165.31 169.349C165.31 169.657 165.224 169.942 165.076 170.179C164.921 170.427 164.698 170.623 164.438 170.733C164.359 170.768 164.275 170.793 164.189 170.809C164.163 170.814 164.136 170.819 164.11 170.822C164.096 170.824 164.081 170.826 164.065 170.827C164.052 170.829 164.036 170.831 164.021 170.831C163.997 170.832 163.972 170.832 163.948 170.832L107.82 170.704C107.096 170.702 106.501 170.073 106.465 169.292C106.465 169.267 106.464 169.241 106.464 169.216L106.471 165.362C106.471 165.335 106.471 165.311 106.472 165.286C106.472 165.265 106.474 165.245 106.476 165.223C106.531 164.595 106.95 164.076 107.496 163.925C107.51 163.92 107.524 163.918 107.538 163.913C107.632 163.89 107.73 163.879 107.832 163.879L163.96 164.007C164.002 164.007 164.043 164.011 164.082 164.014C164.101 164.017 164.119 164.019 164.137 164.02C164.158 164.024 164.179 164.029 164.201 164.032C164.287 164.048 164.369 164.075 164.45 164.109C164.71 164.22 164.933 164.417 165.086 164.667C165.232 164.903 165.316 165.189 165.316 165.495Z" fill="#FFB93E"/>
<path d="M137.744 170.773L107.673 170.704C107.027 170.702 106.496 170.073 106.465 169.292C106.465 169.267 106.464 169.241 106.464 169.216L106.471 165.362C106.471 165.335 106.471 165.311 106.472 165.286C106.472 165.265 106.474 165.245 106.476 165.223C106.525 164.58 106.916 164.055 107.419 163.915C107.436 163.909 107.453 163.905 107.471 163.902C107.541 163.887 107.612 163.879 107.685 163.879L134.063 163.938C134.067 163.955 134.07 163.969 134.074 163.986C134.496 165.989 135.472 168.736 137.731 170.761C137.736 170.765 137.741 170.77 137.744 170.773Z" fill="#FFA412"/>
<path d="M165.219 158.718L165.212 162.572C165.212 162.88 165.126 163.165 164.979 163.402C164.824 163.652 164.601 163.846 164.339 163.956C164.277 163.983 164.212 164.004 164.145 164.02H164.143C164.124 164.025 164.107 164.029 164.09 164.032C164.013 164.047 163.932 164.055 163.851 164.055L107.722 163.928C107.664 163.928 107.604 163.923 107.547 163.915C107.525 163.913 107.502 163.908 107.48 163.904C106.87 163.782 106.399 163.209 106.368 162.516C106.368 162.49 106.366 162.465 106.366 162.44L106.373 158.586C106.373 158.56 106.373 158.535 106.375 158.51C106.413 157.729 107.011 157.103 107.734 157.105L163.863 157.233C163.899 157.233 163.935 157.235 163.97 157.238C163.985 157.24 164.001 157.242 164.016 157.243C164.033 157.245 164.051 157.248 164.066 157.251C164.078 157.253 164.09 157.256 164.102 157.258C164.188 157.275 164.271 157.301 164.351 157.335C164.363 157.34 164.374 157.345 164.387 157.352C164.399 157.357 164.41 157.362 164.422 157.368C164.444 157.38 164.468 157.393 164.491 157.405C164.515 157.419 164.54 157.434 164.564 157.451C164.587 157.465 164.607 157.48 164.628 157.495C164.652 157.513 164.674 157.533 164.697 157.553C164.716 157.567 164.733 157.582 164.75 157.6C164.75 157.6 164.752 157.602 164.753 157.604C164.766 157.614 164.778 157.627 164.788 157.638C164.822 157.673 164.855 157.711 164.886 157.748C164.896 157.76 164.905 157.772 164.913 157.783C164.922 157.796 164.93 157.806 164.939 157.819C164.956 157.844 164.973 157.869 164.989 157.895C165.135 158.125 165.219 158.412 165.219 158.718Z" fill="#FFB93E"/>
<path d="M137.649 163.995L107.578 163.926C107.554 163.926 107.53 163.924 107.506 163.923C107.48 163.921 107.454 163.918 107.429 163.913C106.851 163.824 106.397 163.235 106.368 162.512C106.368 162.486 106.366 162.461 106.366 162.437L106.373 158.582C106.373 158.556 106.373 158.531 106.375 158.507C106.409 157.725 106.942 157.1 107.588 157.1L133.964 157.159C133.976 157.215 133.988 157.271 134 157.327C134.433 159.305 135.404 161.963 137.59 163.944C137.613 163.962 137.63 163.979 137.649 163.995Z" fill="#FFA412"/>
<path d="M168.129 152.068L168.122 155.922C168.122 156.23 168.037 156.514 167.889 156.751C167.734 157 167.511 157.196 167.251 157.306C167.172 157.341 167.088 157.365 167.002 157.382C166.925 157.397 166.844 157.405 166.763 157.405L110.634 157.276C110.409 157.276 110.196 157.214 110.009 157.107C109.612 156.878 109.33 156.44 109.285 155.93C109.283 155.909 109.282 155.886 109.28 155.864C109.28 155.84 109.278 155.813 109.278 155.789L109.285 151.934C109.285 151.91 109.287 151.883 109.287 151.859C109.325 151.077 109.923 150.451 110.646 150.453L166.775 150.58C166.858 150.58 166.937 150.588 167.014 150.605C167.1 150.621 167.182 150.647 167.263 150.682C167.523 150.792 167.746 150.99 167.899 151.24C168.043 151.475 168.129 151.761 168.129 152.068Z" fill="#FFB93E"/>
<path d="M140.561 157.346L110.49 157.278C110.289 157.278 110.1 157.216 109.931 157.109C109.577 156.88 109.325 156.444 109.285 155.934C109.283 155.912 109.282 155.889 109.28 155.868C109.28 155.843 109.278 155.817 109.278 155.792L109.285 151.938C109.285 151.913 109.287 151.887 109.287 151.862C109.321 151.08 109.856 150.455 110.5 150.455L136.878 150.514C137.283 152.469 138.218 155.155 140.373 157.18C140.439 157.234 140.499 157.29 140.561 157.346Z" fill="#FFA412"/>
<path d="M172.721 145.252L172.714 149.106C172.714 149.414 172.628 149.699 172.481 149.936C172.326 150.184 172.102 150.38 171.843 150.491C171.764 150.525 171.68 150.55 171.594 150.566C171.516 150.581 171.436 150.589 171.355 150.589L115.226 150.461C114.503 150.459 113.908 149.831 113.872 149.049C113.872 149.024 113.87 148.998 113.87 148.973L113.877 145.119C113.877 145.094 113.877 145.068 113.879 145.043C113.913 144.321 114.427 143.73 115.077 143.648C115.13 143.641 115.183 143.638 115.236 143.638L171.365 143.766C171.448 143.766 171.527 143.774 171.604 143.791C171.69 143.807 171.773 143.834 171.852 143.868C172.111 143.978 172.334 144.176 172.487 144.426C172.637 144.66 172.721 144.946 172.721 145.252Z" fill="#FFB93E"/>
<path d="M145.151 150.53L115.08 150.461C114.434 150.459 113.903 149.831 113.872 149.049C113.872 149.024 113.87 148.998 113.87 148.973L113.877 145.119C113.877 145.094 113.877 145.068 113.879 145.043C113.91 144.321 114.368 143.73 114.949 143.648C114.996 143.641 115.044 143.638 115.092 143.638L141.47 143.697C141.47 143.7 141.471 143.704 141.471 143.708C141.892 145.716 142.869 148.491 145.151 150.53Z" fill="#FFA412"/>
<path d="M165.367 138.422L165.36 142.276C165.36 142.584 165.274 142.869 165.126 143.106C164.971 143.354 164.748 143.55 164.488 143.66C164.409 143.695 164.325 143.72 164.239 143.736C164.214 143.741 164.186 143.746 164.16 143.749C164.14 143.752 164.117 143.754 164.097 143.756C164.086 143.756 164.076 143.757 164.066 143.759C164.043 143.759 164.023 143.761 164 143.761L107.872 143.632C107.148 143.631 106.553 143.002 106.517 142.22C106.517 142.196 106.516 142.169 106.516 142.145L106.522 138.29C106.522 138.266 106.524 138.239 106.524 138.215C106.562 137.433 107.16 136.807 107.884 136.809L164.012 136.937C164.037 136.937 164.061 136.937 164.085 136.941C164.141 136.944 164.198 136.952 164.251 136.962C164.337 136.979 164.42 137.005 164.501 137.039C164.542 137.058 164.581 137.076 164.617 137.097C164.641 137.11 164.666 137.123 164.688 137.138C164.69 137.138 164.693 137.14 164.695 137.143C164.717 137.158 164.741 137.174 164.763 137.191C164.769 137.193 164.772 137.196 164.775 137.199C164.796 137.214 164.817 137.23 164.836 137.247C164.884 137.286 164.928 137.329 164.971 137.377C164.985 137.39 164.997 137.405 165.009 137.42C165.011 137.421 165.014 137.425 165.016 137.428C165.025 137.436 165.032 137.446 165.04 137.456C165.042 137.458 165.044 137.459 165.045 137.462C165.059 137.479 165.073 137.497 165.085 137.517C165.104 137.543 165.121 137.569 165.138 137.597C165.282 137.829 165.367 138.114 165.367 138.422Z" fill="#FFB93E"/>
<path d="M137.796 143.699L107.725 143.63C107.079 143.628 106.548 142.999 106.517 142.218C106.517 142.193 106.516 142.167 106.516 142.142L106.522 138.288C106.522 138.263 106.524 138.236 106.524 138.212C106.559 137.43 107.093 136.805 107.737 136.805L134.115 136.866C134.126 136.917 134.138 136.969 134.15 137.024C134.583 139.017 135.564 141.701 137.783 143.689C137.788 143.69 137.793 143.695 137.796 143.699Z" fill="#FFA412"/>
<path d="M169.51 131.762L169.504 135.616C169.504 135.924 169.418 136.209 169.27 136.446C169.115 136.694 168.892 136.89 168.632 137.001C168.553 137.035 168.469 137.06 168.383 137.076C168.304 137.091 168.225 137.099 168.144 137.099L112.015 136.971C111.797 136.971 111.591 136.913 111.409 136.811C111 136.586 110.708 136.14 110.665 135.618C110.663 135.598 110.661 135.579 110.661 135.557C110.661 135.533 110.659 135.506 110.659 135.481L110.666 131.627C110.666 131.601 110.666 131.576 110.668 131.551C110.702 130.827 111.216 130.238 111.866 130.156C111.919 130.149 111.972 130.146 112.027 130.146L168.156 130.274C168.239 130.274 168.318 130.283 168.395 130.299C168.481 130.316 168.564 130.342 168.644 130.376C168.904 130.487 169.126 130.684 169.28 130.934C169.426 131.17 169.512 131.456 169.51 131.762Z" fill="#FFB93E"/>
<path d="M141.94 137.041L111.869 136.972C111.675 136.972 111.491 136.914 111.328 136.812C110.964 136.587 110.702 136.141 110.665 135.621C110.663 135.601 110.661 135.581 110.661 135.56C110.661 135.535 110.659 135.509 110.659 135.484L110.666 131.63C110.666 131.603 110.666 131.579 110.668 131.554C110.699 130.831 111.158 130.241 111.739 130.158C111.785 130.152 111.833 130.148 111.881 130.148L138.259 130.208C138.259 130.211 138.261 130.214 138.261 130.219C138.668 132.178 139.606 134.862 141.767 136.884C141.825 136.935 141.882 136.988 141.94 137.041Z" fill="#FFA412"/>
<path d="M165.399 124.939L165.392 128.794C165.392 129.101 165.306 129.386 165.158 129.623C165.003 129.873 164.78 130.069 164.521 130.178C164.441 130.212 164.357 130.237 164.271 130.253C164.246 130.258 164.218 130.263 164.192 130.266C164.179 130.268 164.163 130.27 164.148 130.271C164.134 130.273 164.118 130.273 164.103 130.275C164.079 130.276 164.055 130.276 164.031 130.276L107.902 130.148C107.178 130.146 106.584 129.518 106.548 128.736C106.548 128.71 106.546 128.685 106.546 128.66L106.553 124.806C106.553 124.781 106.553 124.755 106.554 124.73C106.592 123.948 107.19 123.323 107.914 123.325L164.043 123.453C164.125 123.453 164.204 123.461 164.282 123.478C164.368 123.494 164.45 123.521 164.531 123.555C164.79 123.665 165.014 123.863 165.167 124.113C165.314 124.347 165.399 124.631 165.399 124.939Z" fill="#FFB93E"/>
<path d="M137.827 130.215L107.756 130.148C107.11 130.146 106.579 129.518 106.548 128.736C106.548 128.71 106.546 128.685 106.546 128.66L106.553 124.806C106.553 124.781 106.553 124.755 106.554 124.73C106.589 123.948 107.122 123.323 107.768 123.325L134.145 123.384C134.561 125.392 135.536 128.165 137.813 130.207C137.818 130.209 137.821 130.212 137.827 130.215Z" fill="#FFA412"/>
<path d="M160.612 177.64L160.595 184.465L161.235 184.467L161.252 177.642L160.612 177.64Z" fill="#FFA412"/>
<path d="M158.453 177.634L158.438 184.459L159.078 184.46L159.093 177.635L158.453 177.634Z" fill="#FFA412"/>
<path d="M155.87 177.628L155.855 184.453L156.495 184.454L156.51 177.63L155.87 177.628Z" fill="#FFA412"/>
<path d="M151.907 177.62L151.89 184.445L152.53 184.446L152.547 177.621L151.907 177.62Z" fill="#FFA412"/>
<path d="M147.703 177.611L147.686 184.436L148.326 184.437L148.343 177.612L147.703 177.611Z" fill="#FFA412"/>
<path d="M141.267 177.596L141.25 184.421L141.89 184.423L141.907 177.598L141.267 177.596Z" fill="#FFA412"/>
<path d="M135.24 177.581L135.225 184.406L135.864 184.408L135.879 177.583L135.24 177.581Z" fill="#FFA412"/>
<path d="M129.866 177.57L129.849 184.395L130.488 184.396L130.505 177.572L129.866 177.57Z" fill="#FFA412"/>
<path d="M162.674 177.644L162.657 184.469L163.297 184.471L163.313 177.646L162.674 177.644Z" fill="#FFA412"/>
<path d="M164.023 177.648L164.008 184.473L164.648 184.474L164.663 177.649L164.023 177.648Z" fill="#FFA412"/>
<path d="M165.347 177.65L165.33 184.475L165.97 184.476L165.987 177.651L165.347 177.65Z" fill="#FFA412"/>
<path d="M166.328 177.651L166.315 184.476L166.716 184.478C166.798 184.478 166.878 184.47 166.955 184.455L166.969 177.678C166.891 177.661 166.81 177.653 166.729 177.653L166.328 177.651Z" fill="#FFA412"/>
<path d="M167.208 177.754L167.196 184.38C167.458 184.27 167.681 184.076 167.836 183.826L167.846 178.312C167.691 178.062 167.469 177.865 167.208 177.754Z" fill="#FFA412"/>
<path d="M142.626 170.773L142.609 177.598L143.249 177.599L143.266 170.774L142.626 170.773Z" fill="#FFA412"/>
<path d="M136.6 170.758L136.584 177.583L137.224 177.584L137.24 170.76L136.6 170.758Z" fill="#FFA412"/>
<path d="M131.217 170.747L131.2 177.572L131.84 177.573L131.857 170.748L131.217 170.747Z" fill="#FFA412"/>
<path d="M164.654 177.648L164.668 170.823L164.108 170.821C164.137 170.818 164.168 170.815 164.198 170.808L164.211 164.031C164.172 164.023 164.132 164.018 164.093 164.013L164.105 157.399H164.354L164.342 163.955C164.603 163.845 164.824 163.651 164.979 163.401L164.989 157.888C164.862 157.682 164.687 157.514 164.484 157.399H164.707L164.721 150.574L164.084 150.572L164.072 157.247C164.005 157.236 163.938 157.229 163.868 157.229L163.47 157.228L163.456 164.053H163.574L163.561 170.83L163.959 170.831C163.983 170.831 164.007 170.83 164.031 170.828L164.017 177.646L164.654 177.648Z" fill="#FFA412"/>
<path d="M165.391 170.825L165.375 177.649L166.014 177.651L166.031 170.826L165.391 170.825Z" fill="#FFA412"/>
<path d="M166.7 170.827L166.681 177.652L167.321 177.654L167.34 170.829L166.7 170.827Z" fill="#FFA412"/>
<path d="M167.688 170.83L167.674 177.654L168.074 177.656C168.157 177.656 168.236 177.648 168.314 177.633L168.326 170.856C168.248 170.839 168.167 170.831 168.086 170.831L167.688 170.83Z" fill="#FFA412"/>
<path d="M168.582 170.933L168.57 177.559C168.832 177.449 169.055 177.254 169.21 177.004L169.22 171.491C169.065 171.241 168.843 171.043 168.582 170.933Z" fill="#FFA412"/>
<path d="M158.487 170.82L158.499 163.994H158.383L158.395 157.216L157.757 157.215L157.743 164.041H157.862L157.848 170.807L157.226 170.805L157.214 177.632H157.851L157.865 170.819L158.487 170.82Z" fill="#FFA412"/>
<path d="M153.751 163.984L153.633 163.983L153.646 157.207L153.009 157.206L152.995 164.03H153.113L153.1 170.808H153.258L153.244 177.623L153.882 177.624L153.895 170.799L153.737 170.798L153.751 163.984Z" fill="#FFA412"/>
<path d="M164.453 164.107L164.441 170.733C164.704 170.623 164.926 170.427 165.081 170.179L165.092 164.665C164.938 164.415 164.714 164.218 164.453 164.107Z" fill="#FFA412"/>
<path d="M149.682 157.197L149.044 157.196L149.03 164.022H149.149L149.137 170.788H149.065L149.053 177.613L149.69 177.615L149.704 170.8L149.774 170.801L149.786 163.975H149.67L149.682 157.197Z" fill="#FFA412"/>
<path d="M145.478 157.189L144.84 157.187L144.827 164.012H144.945L144.931 170.789L145.569 170.791L145.583 163.964H145.464L145.478 157.189Z" fill="#FFA412"/>
<path d="M139.042 157.174L138.402 157.172L138.39 163.997H138.507L138.495 170.774L139.133 170.776L139.147 163.949H139.028L139.042 157.174Z" fill="#FFA412"/>
<path d="M133.024 157.159L132.386 157.157L132.372 163.984H132.491L132.477 170.761H133.116L133.129 163.936H133.01L133.024 157.159Z" fill="#FFA412"/>
<path d="M127.639 157.148L127.001 157.146L126.989 163.971H127.106L127.094 170.749L127.732 170.75L127.745 163.925H127.627L127.639 157.148Z" fill="#FFA412"/>
<path d="M160.448 157.222L159.811 157.22L159.797 164.047H159.916L159.904 170.812H159.814L159.802 177.637L160.44 177.639L160.452 170.824H160.541L160.553 163.999H160.436L160.448 157.222Z" fill="#FFA412"/>
<path d="M161.807 157.225L161.295 157.223L161.307 150.566L160.67 150.564L160.656 157.391H161.17L161.158 164.048L161.274 164.05L161.262 170.825L161.9 170.827L161.912 164.002H161.795L161.807 157.225Z" fill="#FFA412"/>
<path d="M158.507 150.56L158.49 157.385L159.13 157.386L159.147 150.561L158.507 150.56Z" fill="#FFA412"/>
<path d="M155.909 157.213L155.598 157.211L155.586 164.038H155.703L155.691 170.815L156.328 170.816L156.342 163.99H156.224L156.236 157.382H156.547L156.56 150.557L155.921 150.556L155.909 157.213Z" fill="#FFA412"/>
<path d="M151.954 150.544L151.935 157.369L152.575 157.371L152.593 150.546L151.954 150.544Z" fill="#FFA412"/>
<path d="M147.755 150.536L147.739 157.361L148.378 157.362L148.395 150.537L147.755 150.536Z" fill="#FFA412"/>
<path d="M141.319 150.521L141.302 157.346L141.942 157.348L141.959 150.523L141.319 150.521Z" fill="#FFA412"/>
<path d="M135.292 150.507L135.277 157.332L135.917 157.333L135.932 150.508L135.292 150.507Z" fill="#FFA412"/>
<path d="M129.925 150.495L129.908 157.32L130.548 157.322L130.565 150.497L129.925 150.495Z" fill="#FFA412"/>
<path d="M162.71 157.226H162.48L162.468 164.051H162.585L162.573 170.819L161.976 170.817L161.962 177.642L162.599 177.643L162.613 170.828L163.21 170.83L163.222 164.005H163.105L163.117 157.396H163.347L163.361 150.571L162.724 150.569L162.71 157.226Z" fill="#FFA412"/>
<path d="M165.391 150.576L165.375 157.4L166.014 157.402L166.031 150.577L165.391 150.576Z" fill="#FFA412"/>
<path d="M167 157.381L167.014 150.604C166.934 150.587 166.855 150.579 166.774 150.579L166.374 150.578L166.36 157.403L166.76 157.404C166.841 157.404 166.921 157.396 167 157.381Z" fill="#FFA412"/>
<path d="M167.896 156.751L167.907 151.238C167.751 150.988 167.529 150.792 167.268 150.68L167.256 157.306C167.517 157.196 167.741 157 167.896 156.751Z" fill="#FFA412"/>
<path d="M165.272 143.749L165.255 150.574L165.894 150.576L165.911 143.751L165.272 143.749Z" fill="#FFA412"/>
<path d="M156.551 143.73L156.534 150.555L157.174 150.557L157.191 143.732L156.551 143.73Z" fill="#FFA412"/>
<path d="M152.355 143.721L152.338 150.545L152.978 150.547L152.995 143.722L152.355 143.721Z" fill="#FFA412"/>
<path d="M145.919 143.706L145.902 150.531L146.542 150.533L146.559 143.708L145.919 143.706Z" fill="#FFA412"/>
<path d="M139.901 143.693L139.884 150.518L140.524 150.52L140.541 143.695L139.901 143.693Z" fill="#FFA412"/>
<path d="M134.515 143.682L134.5 150.507L135.14 150.508L135.155 143.683L134.515 143.682Z" fill="#FFA412"/>
<path d="M167.325 143.755L167.309 150.58L167.948 150.581L167.965 143.756L167.325 143.755Z" fill="#FFA412"/>
<path d="M168.684 143.758L168.667 150.583L169.307 150.584L169.324 143.759L168.684 143.758Z" fill="#FFA412"/>
<path d="M169.991 143.76L169.974 150.585L170.614 150.586L170.63 143.761L169.991 143.76Z" fill="#FFA412"/>
<path d="M170.987 143.763L170.975 150.588L171.375 150.589C171.457 150.589 171.537 150.581 171.614 150.566L171.628 143.789C171.551 143.774 171.47 143.764 171.389 143.764L170.987 143.763Z" fill="#FFA412"/>
<path d="M171.868 143.865L171.855 150.491C172.118 150.38 172.34 150.184 172.495 149.936L172.506 144.423C172.352 144.173 172.13 143.975 171.868 143.865Z" fill="#FFA412"/>
<path d="M157.897 143.744L158.536 143.746L158.548 136.92L157.926 136.918L157.938 130.261L158.56 130.263L158.574 123.438L157.937 123.436L157.923 130.251L157.301 130.249L157.289 137.074L157.911 137.076L157.897 143.744Z" fill="#FFA412"/>
<path d="M155.754 136.913L155.735 143.738L156.375 143.74L156.394 136.915L155.754 136.913Z" fill="#FFA412"/>
<path d="M145.001 136.888L144.984 143.713L145.623 143.715L145.64 136.89L145.001 136.888Z" fill="#FFA412"/>
<path d="M138.564 136.873L138.547 143.698L139.187 143.699L139.204 136.874L138.564 136.873Z" fill="#FFA412"/>
<path d="M132.546 136.861L132.529 143.686L133.169 143.687L133.186 136.862L132.546 136.861Z" fill="#FFA412"/>
<path d="M127.155 136.849L127.139 143.674L127.778 143.675L127.795 136.85L127.155 136.849Z" fill="#FFA412"/>
<path d="M159.957 143.748L160.52 143.749L160.508 150.564L161.146 150.566L161.158 143.741L160.594 143.739L160.606 136.924H160.519L160.531 130.267H160.62L160.632 123.443L159.995 123.441L159.981 130.254H159.893L159.879 137.081H159.969L159.957 143.748Z" fill="#FFA412"/>
<path d="M161.326 136.927L161.313 143.752L161.953 143.753L161.966 136.928L161.326 136.927Z" fill="#FFA412"/>
<path d="M164.626 137.091H164.738L164.751 130.267L164.191 130.265C164.22 130.262 164.251 130.258 164.28 130.252L164.294 123.475C164.217 123.458 164.136 123.45 164.055 123.45L163.657 123.448L163.643 130.273H164.042C164.066 130.273 164.09 130.271 164.114 130.27L164.102 136.935C164.078 136.933 164.054 136.932 164.03 136.932H163.631L163.617 143.747H163.268L163.282 136.932L162.684 136.93L162.696 130.273L163.294 130.275L163.308 123.45L162.67 123.448L162.656 130.263L162.058 130.262L162.045 137.087L162.643 137.088L162.631 143.757L163.115 143.758L163.102 150.573L163.739 150.575L163.753 143.76H164.014C164.097 143.76 164.176 143.752 164.253 143.737L164.265 137.093H164.514L164.502 143.661C164.763 143.553 164.985 143.357 165.14 143.107L165.15 137.593C165.021 137.378 164.837 137.207 164.626 137.091Z" fill="#FFA412"/>
<path d="M142.706 130.217L142.691 137.042L143.331 137.043L143.346 130.218L142.706 130.217Z" fill="#FFA412"/>
<path d="M136.682 130.203L136.666 137.028L137.305 137.03L137.322 130.205L136.682 130.203Z" fill="#FFA412"/>
<path d="M131.292 130.189L131.275 137.014L131.914 137.016L131.931 130.191L131.292 130.189Z" fill="#FFA412"/>
<path d="M165.466 130.267L165.449 137.092L166.089 137.093L166.106 130.268L165.466 130.267Z" fill="#FFA412"/>
<path d="M166.78 130.271L166.763 137.096L167.403 137.098L167.42 130.273L166.78 130.271Z" fill="#FFA412"/>
<path d="M167.755 130.272L167.741 137.097H168.142C168.224 137.097 168.304 137.089 168.381 137.074L168.393 130.297C168.316 130.28 168.235 130.272 168.154 130.272H167.755Z" fill="#FFA412"/>
<path d="M169.285 136.445L169.295 130.932C169.14 130.682 168.917 130.486 168.657 130.374L168.645 137C168.905 136.89 169.129 136.694 169.285 136.445Z" fill="#FFA412"/>
<path d="M155.782 123.431L155.765 130.256L156.405 130.257L156.422 123.432L155.782 123.431Z" fill="#FFA412"/>
<path d="M153.821 123.426L153.184 123.425L153.17 130.251H153.326L153.314 136.908H153.158L153.144 143.733L153.782 143.735L153.796 137.066H153.952L153.966 130.241H153.808L153.821 123.426Z" fill="#FFA412"/>
<path d="M149.21 130.232L149.139 130.23L149.127 137.056H149.198L149.184 143.725H149.823L149.835 136.9H149.765L149.777 130.243H149.849L149.861 123.418L149.223 123.417L149.21 130.232Z" fill="#FFA412"/>
<path d="M145.015 123.407L144.998 130.231L145.638 130.233L145.655 123.408L145.015 123.407Z" fill="#FFA412"/>
<path d="M138.587 123.391L138.57 130.216L139.21 130.217L139.227 123.392L138.587 123.391Z" fill="#FFA412"/>
<path d="M132.563 123.378L132.544 130.203L133.184 130.204L133.202 123.379L132.563 123.378Z" fill="#FFA412"/>
<path d="M127.183 123.366L127.168 130.191L127.808 130.193L127.823 123.368L127.183 123.366Z" fill="#FFA412"/>
<path d="M161.354 123.444L161.335 130.269L161.975 130.27L161.994 123.445L161.354 123.444Z" fill="#FFA412"/>
<path d="M164.528 123.551L164.516 130.177C164.778 130.067 165 129.873 165.155 129.622L165.166 124.109C165.012 123.857 164.788 123.662 164.528 123.551Z" fill="#FFA412"/>
<path d="M183.232 141.749L187.195 142.422C187.511 142.477 187.79 142.607 188.006 142.786C188.236 142.975 188.398 143.219 188.467 143.484C188.487 143.565 188.499 143.648 188.501 143.731C188.503 143.806 188.498 143.884 188.484 143.961L178.638 196.878C178.511 197.561 177.762 198.012 176.953 197.91C176.927 197.907 176.899 197.904 176.873 197.899L172.911 197.224C172.885 197.219 172.859 197.214 172.831 197.209C172.034 197.038 171.494 196.367 171.62 195.684L181.465 142.766C181.472 142.732 181.479 142.699 181.489 142.666C181.493 142.651 181.498 142.638 181.503 142.623C181.508 142.608 181.513 142.592 181.52 142.577C181.524 142.566 181.529 142.556 181.534 142.544C181.567 142.467 181.606 142.393 181.656 142.324C181.663 142.314 181.67 142.304 181.678 142.292C181.685 142.283 181.694 142.273 181.701 142.263C181.716 142.243 181.733 142.223 181.751 142.205C181.761 142.194 181.771 142.184 181.782 142.172C181.792 142.162 181.8 142.153 181.811 142.144C181.83 142.126 181.849 142.11 181.868 142.092C181.89 142.072 181.914 142.054 181.938 142.036C181.957 142.021 181.976 142.008 181.995 141.995C181.996 141.995 181.996 141.993 181.998 141.993C182.012 141.985 182.026 141.975 182.039 141.967C182.081 141.94 182.125 141.916 182.17 141.892C182.184 141.886 182.197 141.879 182.209 141.873C182.223 141.866 182.237 141.861 182.251 141.855C182.28 141.843 182.307 141.832 182.337 141.82C182.608 141.726 182.916 141.695 183.232 141.749Z" fill="#FFB93E"/>
<path d="M183.894 168.669L178.62 197.019C178.507 197.628 177.768 198.02 176.958 197.914C176.933 197.911 176.905 197.908 176.879 197.903L172.916 197.228C172.891 197.223 172.865 197.218 172.837 197.213C172.04 197.045 171.488 196.435 171.602 195.824L176.228 170.957C176.288 170.955 176.347 170.954 176.407 170.952C178.534 170.886 181.466 170.422 183.894 168.669Z" fill="#FFA412"/>
<path d="M180.495 147.933L180.383 148.534L187.398 149.733L187.51 149.132L180.495 147.933Z" fill="#FFA412"/>
<path d="M180.114 149.966L180.002 150.567L187.018 151.763L187.13 151.161L180.114 149.966Z" fill="#FFA412"/>
<path d="M179.666 152.392L179.554 152.993L186.57 154.19L186.682 153.589L179.666 152.392Z" fill="#FFA412"/>
<path d="M178.972 156.134L178.86 156.735L185.876 157.932L185.988 157.331L178.972 156.134Z" fill="#FFA412"/>
<path d="M178.232 160.106L178.12 160.707L185.136 161.903L185.248 161.302L178.232 160.106Z" fill="#FFA412"/>
<path d="M177.135 166.174L177.023 166.775L184.039 167.973L184.151 167.372L177.135 166.174Z" fill="#FFA412"/>
<path d="M176.044 171.852L175.932 172.453L182.949 173.649L183.06 173.048L176.044 171.852Z" fill="#FFA412"/>
<path d="M175.111 176.939L174.999 177.54L182.015 178.737L182.127 178.136L175.111 176.939Z" fill="#FFA412"/>
<path d="M180.861 145.977L180.749 146.578L187.765 147.775L187.877 147.174L180.861 145.977Z" fill="#FFA412"/>
<path d="M181.122 144.711L181.01 145.312L188.026 146.51L188.138 145.909L181.122 144.711Z" fill="#FFA412"/>
<path d="M181.338 143.461L181.226 144.062L188.243 145.26L188.354 144.658L181.338 143.461Z" fill="#FFA412"/>
<path d="M181.398 143.144L188.415 144.337L188.485 143.962C188.499 143.885 188.506 143.809 188.503 143.732L181.534 142.547C181.505 142.618 181.482 142.692 181.467 142.769L181.398 143.144Z" fill="#FFA412"/>
<path d="M181.659 142.326L188.471 143.484C188.404 143.22 188.241 142.976 188.011 142.787L182.343 141.822C182.06 141.924 181.819 142.099 181.659 142.326Z" fill="#FFA412"/>
<path d="M317.005 197.908H292.885C291.593 196.858 293.781 194.473 296.064 194.313C297.058 194.241 298.312 194.44 299.746 194.731C300.077 190.51 301.973 171.531 309.117 172.293C317.149 173.147 309.117 180.652 306.847 185.094C305.164 188.385 303.391 193.104 302.579 195.33C303.231 195.465 303.906 195.599 304.595 195.72C305.661 192.59 309.622 182.061 314.659 182.673C320.574 183.392 318.196 187.614 314.004 190.12C310.928 191.963 307.152 194.582 305.357 195.847C306.877 196.084 308.464 196.245 310.074 196.209C314.207 196.114 316.225 197.279 317.005 197.908Z" fill="#82B378"/>
<path d="M42.5181 197.14C41.5609 195.698 38.6772 191.959 34.838 192.453C30.6534 192.992 39.4591 195.634 42.1538 197.149C41.5557 197.158 41.0402 197.112 40.6621 196.983C38.8594 196.368 35.7746 197.548 34.7864 197.962H51.9425C51.8239 197.569 51.5146 196.927 50.7155 196.46C50.4336 196.295 49.8682 196.272 49.1362 196.325C50.157 195.173 50.865 191.495 48.0243 192.441C45.95 193.132 45.9552 195.38 46.1597 196.71C45.718 196.776 45.2712 196.843 44.8278 196.904C43.9737 192.736 40.9525 180.518 34.8294 180.192C28.6221 179.861 40.0933 192.862 43.9135 197.021C43.4255 197.077 42.9546 197.12 42.5181 197.14Z" fill="#82B378"/>
<path d="M167.406 86.5878C177.054 77.3484 177.054 62.3684 167.406 53.129C157.758 43.8896 142.115 43.8896 132.467 53.129C122.819 62.3684 122.819 77.3484 132.467 86.5878C142.115 95.8272 157.758 95.8272 167.406 86.5878Z" fill="#C06F0F"/>
<path d="M171.946 76.8593C175.411 64.2213 167.523 51.2857 154.326 47.9667C141.129 44.6478 127.621 52.2024 124.155 64.8405C120.689 77.4785 128.578 90.4141 141.775 93.7331C154.972 97.052 168.48 89.4974 171.946 76.8593Z" fill="#FFB93E"/>
<path d="M148.233 92.6503C140.29 92.6503 132.58 88.6232 128.482 81.5037C125.579 76.4612 124.9 70.6385 126.572 65.1072C128.243 59.5759 132.063 54.999 137.329 52.2194C142.594 49.4397 148.674 48.7896 154.45 50.3893C160.226 51.989 165.006 55.6475 167.908 60.69C173.901 71.0993 169.933 84.2356 159.063 89.9743C155.626 91.7896 151.903 92.6503 148.233 92.6503ZM148.164 50.8189C144.638 50.8189 141.149 51.6713 137.977 53.3467C133.025 55.9602 129.434 60.2638 127.861 65.466C126.291 70.6665 126.928 76.1435 129.657 80.8849C133.51 87.5782 140.762 91.3667 148.229 91.3667C151.682 91.3667 155.181 90.5569 158.412 88.852C168.633 83.4556 172.364 71.1026 166.729 61.3154C164 56.574 159.506 53.1344 154.074 51.6286C152.127 51.0855 150.14 50.8189 148.164 50.8189Z" fill="#FFA412"/>
<path d="M161.945 82.799L143.922 75.2477L147.131 73.4733C148.773 72.5633 150.041 71.1429 150.726 69.4473C151.41 67.7516 151.47 65.8821 150.895 64.148L152.357 63.3396L152.07 59.629L149.146 61.2458C148.377 60.4281 147.44 59.7717 146.395 59.3178L149.041 57.8547L148.753 54.144L134.132 62.2278L134.42 65.9385L140.539 62.5554C141.388 62.0913 142.364 61.8838 143.339 61.9603C144.313 62.0367 145.242 62.3935 146.002 62.9838L137.42 67.729L137.707 71.4396L147.708 65.9103C147.849 66.8268 147.7 67.7625 147.28 68.5963C146.86 69.4301 146.188 70.1236 145.352 70.5872L139.233 73.9703L141.655 77.9872L158.151 84.8967L161.945 82.799Z" fill="#FFA412"/>
<path d="M177.853 63.9072C176.82 63.2077 174.476 61.6706 174.354 62.0129C174.266 62.2598 174.391 62.6778 174.672 63.1139C173.254 62.607 171.814 62.2746 168.411 62.9C167.729 63.025 167.112 63.397 166.737 63.9549C166.39 64.4717 166.261 65.1201 167.129 65.6368C168.866 66.672 168.363 66.0516 170.777 67.5574C173.192 69.0633 176.148 69.4484 177.913 68.3918L180.283 68.0133L180.576 64.2807C180.575 64.2807 179.224 64.126 177.853 63.9072Z" fill="#FFB27D"/>
<path d="M239.954 32.5969C239.954 32.5969 234.367 38.9445 227.252 36.2899C227.252 36.2899 225.721 32.745 225.7 30.1315C225.699 29.809 225.693 29.4979 225.688 29.2017C225.65 26.2591 225.547 24.6068 225.547 24.6068C225.547 24.6068 225.549 24.6068 225.554 24.6051C225.877 24.4751 236.431 20.3262 236.422 20.6718C236.24 28.6306 239.954 32.5969 239.954 32.5969Z" fill="#FFB27D"/>
<path d="M235.362 22.5698C234.344 24.3769 230.852 27.9103 225.688 29.2005C225.65 26.2579 225.547 24.6056 225.547 24.6056C225.547 24.6056 225.549 24.6056 225.554 24.604C225.845 24.5299 235.664 22.0366 235.362 22.5698Z" fill="#ED975D"/>
<path d="M223.339 24.3004C223.339 24.3004 235.208 26.9731 236.832 19.8684C238.456 12.7654 241.08 8.32683 233.572 6.32067C226.063 4.31451 223.967 6.71565 222.822 8.96044C221.678 11.2036 220.294 23.4216 223.339 24.3004Z" fill="#FFB27D"/>
<path d="M236.417 21.8045C236.579 21.9033 239.133 22.6554 243.968 13.4293C244.728 11.9811 245.245 8.8476 243.475 6.07946C241.705 3.31132 235.431 1.134 230.217 0.187701C225.004 -0.760247 223.752 2.04904 222.525 4.87313C221.236 7.83711 217.513 10.2761 217.513 10.2761C222.009 12.6805 227.424 9.24093 229.299 9.80707C231.176 10.3732 231.837 13.2039 231.978 14.1107C232.119 15.0175 232.336 15.7729 234.694 14.9615C237.053 14.1518 235.761 18.1625 235.383 18.9294C235.384 18.9311 235.063 20.9751 236.417 21.8045Z" fill="#233862"/>
<path d="M267.012 198.945H274.199C275.706 198.945 277.38 197.5 277.798 194.855C278.217 192.209 281.314 190.766 281.984 188.601C282.654 186.436 279.221 183.389 279.221 183.389L278.647 182.683L278.05 181.948L272.359 183.23C272.359 183.23 272.218 184.528 272.13 186.181C272.07 187.374 272.035 188.755 272.108 189.964C272.274 192.851 271.264 195.96 268.586 196.521C265.902 197.084 267.012 198.945 267.012 198.945Z" fill="#2C3A64"/>
<path d="M216.976 198.945H236.024C236.206 198.911 236.345 198.873 236.428 198.833C237.699 198.223 237.301 193.56 237.148 192.12C237.118 191.854 237.098 191.698 237.098 191.698C237.098 191.698 230.399 186.568 229.478 190.496C229.449 190.618 229.414 190.74 229.38 190.858V190.86C228.216 194.535 223.02 196.205 220.017 196.671C217.723 197.026 217.129 198.307 216.976 198.945Z" fill="#2C3A64"/>
<path d="M220.814 93.7516C220.814 93.7516 221.831 105.905 223.027 120.516C224.653 140.362 226.607 164.741 226.799 169.36C227.134 177.38 228.475 190.207 228.475 190.207C228.475 190.207 231.654 193.255 238.02 191.97C238.02 191.97 243.691 173.657 245.311 154.282C245.337 153.964 245.361 153.645 245.387 153.324C246.894 133.6 249.238 92.0664 249.238 92.0664L220.814 93.7516Z" fill="#2B478B"/>
<path d="M220.814 93.751C220.814 93.751 221.831 105.905 223.027 120.516L245.311 154.283C245.337 153.965 245.361 153.646 245.387 153.325C246.894 133.601 249.238 92.0674 249.238 92.0674L220.814 93.751Z" fill="#233862"/>
<path d="M225.45 95.1942C225.45 95.1942 243.785 139.213 255.842 159.898C267.9 180.584 271.667 186.357 271.667 186.357C271.667 186.357 278.573 183.71 279.202 181.907C279.202 181.907 274.592 141.971 266.518 132.237C261.955 126.735 256.597 110.228 256.346 104.455C256.095 98.6816 254.713 87.2568 254.713 87.2568L225.45 95.1942Z" fill="#2B478B"/>
<path d="M267.265 87.1958L267.459 90.0265C267.459 90.0265 265.51 95.0559 270.972 97.6348C270.972 97.6348 273.311 98.5383 273.405 96.7954C273.5 95.0526 273.201 95.7076 273.391 93.2538C273.582 90.7984 272.573 88.4795 270.879 87.6978L269.487 86.1606L267.265 87.1958Z" fill="#FFB27D"/>
<path d="M269.4 89.2574C267.37 89.8811 267.045 89.7396 267.045 89.7396C267.045 89.7396 257.167 72.5169 256.167 70.9402C255.167 69.3636 235.194 51.6275 235.194 51.6275L240.327 33.2988C240.327 33.2988 263.043 61.469 265.497 65.5109C269.551 72.191 271.926 87.7038 271.926 87.7038C271.926 87.7038 270.993 88.7669 269.4 89.2574Z" fill="#1E3D70"/>
<path d="M216.933 58.8255C217.004 62.5893 217.232 66.8205 217.542 71.1192C217.56 71.3743 217.579 71.6293 217.598 71.8844C217.796 74.5472 218.009 77.215 218.255 79.8169C218.353 80.8603 218.458 81.8922 218.568 82.9043L218.585 83.0409C218.593 83.4194 218.641 83.8309 218.684 84.2061C219.686 93.9538 220.735 101.654 220.931 101.773C221.163 101.921 221.425 101.995 221.712 101.964C224.381 101.643 232.345 102.222 238.865 100.864C244.366 99.7534 249.104 97.6452 254.124 94.8047C254.791 94.4278 256.31 93.4288 256.186 92.6817C256.064 91.8605 255.841 90.6755 255.555 89.1845C254.567 84.0004 252.859 75.0821 252.277 64.6448C252.163 62.7012 251.998 60.7806 251.783 58.893C251.223 53.9755 250.328 49.3049 249.125 45.1559C246.889 37.4473 243.605 31.544 239.484 29.235C238.946 28.9454 236.048 30.7113 233.386 32.3471C230.929 33.8563 228.341 34.2727 225.825 34.062L223.61 36.4072C220.929 39.3926 218.073 43.367 217.292 49.0169C217.234 49.4349 217.184 49.8776 217.141 50.3483C216.925 52.649 216.871 55.562 216.933 58.8255Z" fill="#2A4E96"/>
<path d="M216.933 58.8263C217.004 62.5901 217.232 66.8213 217.542 71.12C217.56 71.3751 217.579 71.6302 217.598 71.8853C232.845 62.7465 235.193 46.0225 235.193 46.0225C227.691 46.3368 221.733 47.9891 217.141 50.3508C216.925 52.6499 216.871 55.5628 216.933 58.8263Z" fill="#1E3D70"/>
<path d="M178.418 66.0236C178.262 63.8578 179.432 63.4974 179.432 63.4974C179.432 63.4974 202.419 59.5081 204.373 58.9189C206.327 58.3298 223.036 41.6847 223.036 41.6847C223.036 41.6847 229.441 34.7677 234.686 36.2949C239.244 37.623 241.024 41.0264 241.631 44.2702C242.354 48.1344 240.493 52.0233 236.997 54.0772C229.152 58.6852 213.447 67.7632 209.748 68.8016C201.517 71.1122 179.398 68.9876 179.398 68.9876C179.398 68.9876 178.542 67.7237 178.418 66.0236Z" fill="#2A4E96"/>
<path opacity="0.2" d="M205.464 108.307V190.133C205.464 194.906 201.386 198.813 196.403 198.813H108.574C107.812 198.813 107.07 198.722 106.36 198.554C104.839 198.194 103.463 197.471 102.337 196.487C101.533 195.784 100.859 194.948 100.352 194.018C100.325 193.969 100.299 193.92 100.273 193.867C99.7473 192.855 99.4173 191.734 99.3331 190.553C99.3177 190.35 99.3108 190.148 99.3108 189.942V108.832C99.3108 104.242 101.787 99.9972 105.827 97.527C105.827 97.527 105.831 97.5253 105.838 97.522C109.203 95.4599 111.433 91.8459 111.433 87.7365C111.433 86.517 111.237 85.3436 110.873 84.2393H193.902C193.538 85.3436 193.342 86.517 193.342 87.7365C193.342 91.678 195.392 95.1604 198.527 97.2587C198.528 97.2587 198.528 97.2604 198.53 97.2604C198.74 97.4003 198.953 97.5336 199.171 97.6603C199.173 97.6619 199.173 97.6619 199.173 97.6619C203.062 99.9265 205.464 103.945 205.464 108.307Z" fill="#ED9F4A"/>
<path opacity="0.2" d="M205.454 108.306V190.132C205.454 194.699 201.719 198.473 197.031 198.789C196.82 198.804 196.607 198.81 196.392 198.81H157.718C152.623 198.81 148.455 194.818 148.455 189.94V108.831C148.455 104.241 150.932 99.9964 154.972 97.5262C158.344 95.4657 160.58 91.85 160.58 87.734C160.58 86.5145 160.384 85.3411 160.019 84.2368H193.89C193.525 85.3411 193.33 86.5145 193.33 87.734C193.33 90.9646 194.706 93.8858 196.93 95.9891C197.602 96.626 198.349 97.1872 199.161 97.6578C203.051 99.9257 205.454 103.945 205.454 108.306Z" fill="#ED9F4A"/>
<path opacity="0.6" d="M198.525 97.2571C195.813 95.7019 184.063 90.1903 154.187 90.424C119.964 90.6922 106.255 97.3163 105.836 97.522C109.201 95.4599 111.431 91.8459 111.431 87.7365C111.431 86.517 111.236 85.3436 110.871 84.2393H193.9C193.536 85.3436 193.34 86.517 193.34 87.7365C193.34 91.6747 195.39 95.1588 198.525 97.2571Z" fill="#ED9F4A"/>
<path d="M195.77 83.6644V87.3755C195.77 87.7425 195.459 88.0404 195.078 88.0404H109.674C109.291 88.0404 108.979 87.7425 108.979 87.3755V83.6644C108.979 83.299 109.291 82.9995 109.674 82.9995H195.078C195.459 82.9995 195.77 83.299 195.77 83.6644Z" fill="#2B478B"/>
<path d="M195.781 83.6644V87.3755C195.781 87.7425 195.47 88.0404 195.088 88.0404H162.761C162.38 88.0404 162.067 87.7425 162.067 87.3755V83.6644C162.067 83.299 162.38 82.9995 162.761 82.9995H195.088C195.47 82.9995 195.781 83.299 195.781 83.6644Z" fill="#233862"/>
<path opacity="0.5" d="M111.408 192.629C110.958 192.856 110.504 193.07 110.049 193.277C109.614 193.517 109.172 193.754 108.722 193.98C106.646 195.025 104.506 195.857 102.329 196.486C101.525 195.783 100.851 194.947 100.344 194.018C99.997 194.195 99.6516 194.365 99.3027 194.531V132.791C100.903 132.995 102.487 133.301 104.039 133.703C112.749 135.957 120.504 141.263 125.222 149.069C134.593 164.577 128.408 184.079 111.408 192.629Z" fill="#CB750F"/>
<path d="M117.286 146.638C107.915 130.358 86.5384 124.437 69.5387 133.411C52.539 142.385 46.3557 162.857 55.7251 179.136C65.0963 195.416 86.473 201.338 103.473 192.365C120.474 183.389 126.657 162.918 117.286 146.638Z" fill="#B2670F"/>
<path d="M102.114 193.047C101.681 193.3 101.241 193.544 100.793 193.781C100.642 193.862 100.49 193.941 100.337 194.016C99.9902 194.194 99.6447 194.363 99.2959 194.53C82.5591 202.401 62.143 196.36 53.0451 180.554C44.3666 165.477 49.0306 146.805 63.2721 136.999C64.408 136.218 65.6024 135.492 66.8586 134.829C67.3089 134.59 67.7643 134.363 68.2197 134.147C68.6631 133.935 69.1099 133.734 69.5585 133.543C70.9333 132.956 72.3322 132.461 73.7448 132.056C75.8431 131.45 77.9741 131.042 80.1085 130.826C86.73 130.155 93.391 131.313 99.2959 134.08C105.563 137.014 110.982 141.761 114.606 148.056C123.73 163.907 118.109 183.73 102.114 193.047Z" fill="#FFB93E"/>
<path d="M84.0696 195.333C81.081 195.333 78.0753 194.928 75.1246 194.112C66.9083 191.836 60.1081 186.632 55.9802 179.458C51.8506 172.284 50.8865 163.999 53.2632 156.131C55.6399 148.263 61.0739 141.751 68.565 137.798C76.0561 133.843 84.7054 132.92 92.9234 135.196C101.14 137.472 107.94 142.676 112.07 149.849C116.199 157.023 117.163 165.306 114.787 173.176C112.41 181.044 106.976 187.557 99.4848 191.51C94.6832 194.044 89.4039 195.333 84.0696 195.333ZM57.654 178.574C61.5362 185.32 67.9309 190.213 75.6574 192.354C83.3839 194.495 91.5177 193.626 98.5619 189.907C105.606 186.189 110.715 180.065 112.951 172.666C115.187 165.267 114.28 157.477 110.396 150.732C106.512 143.986 100.119 139.093 92.3924 136.952C84.6659 134.812 76.5321 135.68 69.4878 139.399C62.4436 143.117 57.3344 149.24 55.0986 156.64C52.8628 164.039 53.7702 171.828 57.654 178.574Z" fill="#FFA412"/>
<path d="M92.6457 189.493L74.9323 166.46H80.5591C83.44 166.457 86.2338 165.512 88.4782 163.78C90.7226 162.047 92.2833 159.633 92.9021 156.934H95.4655L98.029 151.846H92.9021C92.5398 150.212 91.8284 148.668 90.8129 147.311H95.4527L98.0161 142.222H72.3817L69.8182 147.311H80.5463C82.0307 147.318 83.4784 147.754 84.6996 148.564C85.9209 149.373 86.8588 150.517 87.3907 151.846H72.3432L69.7798 156.934H87.3138C86.7725 158.242 85.8346 159.364 84.6213 160.155C83.4079 160.946 81.975 161.37 80.5078 161.371H69.7798V168.414L85.9936 189.493H92.6457Z" fill="#FFA412"/>
<path d="M335.62 199H0.922569C0.713982 199 0.542969 198.778 0.542969 198.508V198.34C0.542969 198.069 0.713982 197.848 0.922569 197.848H335.62C335.829 197.848 336 198.069 336 198.34V198.508C336 198.778 335.829 199 335.62 199Z" fill="#2E3552"/>
</svg>
