<svg width="455" height="240" viewBox="0 0 455 240" fill="none" xmlns="http://www.w3.org/2000/svg">
<g clip-path="url(#clip0_1197_34936)">
<path d="M24.2881 239.859C24.2881 239.859 -18.016 179.695 9.75436 118.228C50.2476 28.5995 101.443 114.093 99.0742 50.7484C96.7056 -12.5966 187.785 -5.53976 224.699 12.8401C261.614 31.2201 260.262 47.4488 336.484 40.156C412.705 32.8631 428.687 78.6295 413.57 122.1C395.79 173.224 497.948 172.601 432.585 240L24.2881 239.859Z" fill="#ECF2F9"/>
<path d="M115.324 62.3275L113.662 58.6541C113.662 58.6541 121.419 58.9135 123.991 65.2358C123.991 65.2358 118.561 61.3659 115.324 62.3275Z" fill="#9ECFCB"/>
<path d="M356.631 67.3253L358.293 63.6519C358.293 63.6519 350.536 63.9113 347.965 70.2336C347.965 70.2336 353.394 66.3637 356.631 67.3253Z" fill="#7F98EC"/>
<path d="M90.3252 154.257L92.5797 156.835C92.5797 156.835 86.2091 158.527 82.5664 154.021C82.5664 154.021 87.9315 155.834 90.3252 154.257Z" fill="#9ECFCB"/>
<path d="M369.575 167.768C369.575 167.768 369.412 165.345 373.961 164.173C376 163.649 380.538 164.582 377.661 169.044C374.667 173.688 371.998 172.013 371.998 172.013C371.998 172.013 378.243 167.129 375.743 164.895C372.986 162.435 371.928 167.313 371.928 167.313C371.12 167.306 370.32 167.46 369.575 167.768Z" fill="#DCA155"/>
<path d="M173.295 34.1339C173.295 34.1339 172.792 29.9342 179.825 27.3147C179.825 27.3147 177.284 28.546 176.499 32.7311L173.295 34.1339Z" fill="#7F98EC"/>
<path d="M257.344 48.2442C257.344 48.2442 259.415 46.9323 259.641 45.3462C259.641 45.3462 261.665 45.4561 262.1 46.1114C262.1 46.1114 261.171 48.7353 260.078 49.2278C260.078 49.2278 257.616 49.392 257.344 48.2442Z" fill="#E1954D"/>
<path d="M170.525 173.408C170.525 173.408 168.307 172.008 168.074 170.318C168.074 170.318 165.915 170.434 165.447 171.133C165.447 171.133 166.44 173.933 167.608 174.458C167.611 174.458 170.235 174.632 170.525 173.408Z" fill="#E1954D"/>
<path d="M285.406 88.1315C285.406 88.1315 287.633 86.7258 287.866 85.0254C287.866 85.0254 290.035 85.1427 290.505 85.8448C290.505 85.8448 289.506 88.6578 288.335 89.184C288.337 89.187 285.698 89.3629 285.406 88.1315Z" fill="#9ECFCB"/>
<path d="M132.193 161.417C132.193 161.417 155.017 173.276 152.548 177.387C150.079 181.498 128.068 162.338 128.068 162.338C128.068 162.338 104.675 173.846 99.6861 181.65C99.6861 181.65 128.1 185.422 124.695 188.798C121.29 192.174 91.5406 189.623 91.5406 189.623C91.5406 189.623 73.162 205.821 82.0062 217.674C90.8504 229.527 100.321 229.019 103.225 226.762C106.13 224.505 120.031 206.306 122.003 208.61C123.976 210.913 118.174 226.017 110.745 231.15C110.745 231.15 135.103 238.165 141.877 227.604C148.651 217.043 144.954 209.228 149.259 202.778C153.564 196.327 158.689 193.167 157.94 197.494C157.192 201.82 148.014 211.251 148.336 219.442C148.658 227.632 148.111 233.629 157.142 225.973C166.173 218.316 177.853 201.021 173.404 192.238C173.21 191.855 173.025 191.49 172.847 191.14C173.272 191.793 173.404 192.238 173.404 192.238C175.707 191.325 182.37 192.475 187.337 193.542C188.144 193.772 189.3 194.041 190.909 194.355C191.615 194.525 192.19 194.668 192.589 194.769C203.161 197.867 215.721 210.475 215.721 210.475L217.775 208.936C207.157 193.627 189.706 192.176 189.706 192.176C176.726 189.931 168.955 183.455 168.955 183.455C168.955 183.455 172.895 158.198 153.134 155.923C153.134 155.923 139.805 156.05 132.193 161.417Z" fill="#BBD4F6"/>
<path d="M361.02 109.481C356.221 91.7603 326.318 97.2979 326.318 97.2979C326.318 97.2979 306.013 128.308 300.106 129.047C294.199 129.785 312.289 99.1438 312.289 99.1438C300.845 98.0363 271.68 112.065 271.68 112.065C271.68 112.065 273.526 148.244 267.619 147.505C261.712 146.767 267.619 115.387 267.619 115.387C256.544 118.71 246.207 131.631 246.207 131.631C233.286 152.674 260.974 168.179 260.974 168.179C260.974 168.179 261.343 180.731 253.591 195.129C253.591 195.129 251.841 197.787 250.062 202.306H253.081C253.328 201.496 253.6 200.714 253.901 199.962C253.901 199.956 253.903 199.952 253.907 199.949C253.911 199.937 253.916 199.927 253.92 199.916C254.127 199.449 254.424 198.786 254.794 197.977C254.795 197.976 254.795 197.975 254.796 197.974C254.796 197.972 254.798 197.972 254.798 197.97C255.72 196.164 256.344 194.83 256.738 193.867C256.739 193.864 256.74 193.861 256.741 193.858C259.505 188.189 263.487 180.803 266.142 179.254C266.142 179.254 265.808 178.784 265.496 177.869C265.702 178.311 265.917 178.772 266.142 179.254C271.311 190.329 297.153 192.175 311.551 189.222C325.948 186.269 319.673 182.208 311.92 175.617C304.167 169.026 287.924 170.763 283.124 168.179C278.325 165.595 285.339 163.011 294.938 163.749C304.536 164.487 309.336 174.086 324.841 175.563C340.346 177.039 352.16 147.875 352.16 147.875C341.454 151.197 322.257 145.29 321.518 141.599C320.78 137.907 349.206 138.276 353.636 137.169C358.066 136.061 365.819 127.201 361.02 109.481Z" fill="#BBD4F6"/>
<path d="M146.879 175.448H238.4C246.852 175.448 253.715 182.311 253.715 190.764V195.077C253.715 203.722 246.697 210.74 238.052 210.74H146.879V175.448Z" fill="#F8EAD8"/>
<path d="M333.396 189.968V195.278C333.396 198.115 332.683 200.771 331.437 203.055C328.934 207.65 324.279 210.739 318.949 210.739H144.017C142.86 210.739 141.922 209.735 141.922 208.498V207.703C141.922 206.466 142.86 205.462 144.017 205.462H250.654C251.225 204.718 251.726 203.913 252.151 203.055C253.149 201.041 253.714 198.745 253.714 196.308V189.559C253.714 188.317 253.564 187.113 253.282 185.967C252.804 184.024 251.95 182.246 250.809 180.727H144.017C142.86 180.727 141.922 179.723 141.922 178.484V177.691C141.922 176.452 142.86 175.448 144.017 175.448H319.83C326.025 175.448 331.251 179.893 332.873 185.967C333.214 187.238 333.396 188.581 333.396 189.968Z" fill="#739AF0"/>
<path d="M332.873 185.967H253.282C252.804 184.024 251.95 182.246 250.809 180.727H144.017C142.86 180.727 141.922 179.723 141.922 178.484V177.691C141.922 176.452 142.86 175.448 144.017 175.448H319.83C326.025 175.448 331.251 179.893 332.873 185.967Z" fill="#608CE4"/>
<path d="M146.879 193.094L159.832 193.687L146.879 194.044V193.094Z" fill="#EECFB3"/>
<path d="M146.879 198.631L177.694 199.225L146.879 199.582V198.631Z" fill="#EECFB3"/>
<path d="M234.211 238.116H142.281C135.423 238.116 129.855 232.548 129.855 225.69V222.334C129.855 215.894 135.083 210.665 141.524 210.665H234.211V238.116Z" fill="#DC683E"/>
<path d="M333.742 238.116H229.14C222.416 238.116 216.957 232.657 216.957 225.933V222.578C216.957 216.003 222.295 210.665 228.87 210.665H333.742V238.116Z" fill="#F8EAD8"/>
<path d="M209.983 238.116L337.358 238.116C338.353 238.116 339.16 237.309 339.16 236.314V235.813C339.16 234.817 338.353 234.011 337.358 234.011L209.983 234.011C208.988 234.011 208.181 234.817 208.181 235.813V236.314C208.181 237.309 208.988 238.116 209.983 238.116Z" fill="#DC683E"/>
<path d="M209.983 214.771L337.358 214.771C338.353 214.771 339.16 213.964 339.16 212.969V212.467C339.16 211.472 338.353 210.665 337.358 210.665L209.983 210.665C208.988 210.665 208.181 211.472 208.181 212.467V212.969C208.181 213.964 208.988 214.771 209.983 214.771Z" fill="#DC683E"/>
<path d="M333.741 224.391L319.582 224.852L333.741 225.13V224.391Z" fill="#EECFB3"/>
<path d="M333.741 218.074L300.057 218.535L333.741 218.813V218.074Z" fill="#EECFB3"/>
<path d="M300.404 218.443C300.404 218.443 301.848 219.623 302.326 221.562C302.41 221.9 302.464 222.264 302.475 222.646C302.555 225.222 302.475 231.052 302.475 231.052L306.737 228.137L310.988 231.052V223.15C310.988 221.656 310.623 220.203 309.946 219.251C309.618 218.79 309.22 218.443 308.768 218.443H300.404Z" fill="#739AF0"/>
<path d="M300.404 218.443C300.404 218.443 301.848 219.623 302.326 221.562L310.866 221.677C310.866 221.677 310.531 218.901 308.768 218.443H300.404Z" fill="#618ADD"/>
<path d="M133.166 135.191H220.156C229.816 135.191 237.659 143.034 237.659 152.694V157.623C237.659 167.502 229.638 175.523 219.759 175.523H133.166V135.191Z" fill="#F8EAD8"/>
<path d="M237.709 150.84V159.52C237.687 163.227 235.969 166.444 233.444 168.164C232.201 169.007 230.764 169.49 229.238 169.49H130.415C129.257 169.49 128.318 170.611 128.318 171.994V173.019C128.318 174.402 129.257 175.523 130.415 175.523H301.133C306.032 175.523 310.36 172.615 312.975 168.164C314.624 165.359 315.592 161.944 315.592 158.255V151.406C315.592 148.879 315.108 146.486 314.243 144.355C312.048 138.932 307.399 135.192 302.016 135.192H130.415C129.257 135.192 128.318 136.312 128.318 137.695V138.719C128.318 140.102 129.257 141.224 130.415 141.224H229.54C231.909 141.224 234.054 142.428 235.551 144.355C236.877 146.062 237.696 148.336 237.709 150.84Z" fill="#EC9037"/>
<path d="M128.318 171.994V173.018C128.318 174.401 129.257 175.523 130.415 175.523H301.133C306.032 175.523 310.36 172.615 312.975 168.164H233.444C232.201 169.007 230.764 169.49 229.238 169.49H130.415C129.257 169.49 128.318 170.611 128.318 171.994Z" fill="#DF750D"/>
<path d="M133.166 155.357L145.834 156.035L133.166 156.443V155.357Z" fill="#EECFB3"/>
<path d="M133.166 146.075L163.305 146.753L133.166 147.162V146.075Z" fill="#EECFB3"/>
<path d="M221.955 146.618C221.955 146.618 219.966 147.897 219.307 149.999C219.191 150.367 219.117 150.761 219.101 151.175C218.991 153.968 219.101 160.289 219.101 160.289L213.229 157.129L207.371 160.289V151.722C207.371 150.102 207.874 148.526 208.807 147.494C209.259 146.995 209.808 146.618 210.429 146.618H221.955Z" fill="#EC9037"/>
<path d="M221.955 146.618C221.955 146.618 219.966 147.897 219.308 149.999L207.539 150.124C207.539 150.124 208.001 147.114 210.43 146.618H221.955Z" fill="#DF750D"/>
<path d="M196.325 181.463C196.891 182.119 196.958 182.85 196.671 183.627C196.67 183.63 196.668 183.635 196.665 183.638C196.133 185.076 194.398 186.673 192.386 188.266C192.128 188.471 191.9 188.657 191.7 188.83C191.648 188.875 191.595 188.92 191.546 188.966C191.506 189.001 191.467 189.038 191.428 189.071C189.549 190.779 190.248 191.178 186.871 194.646C183.019 198.597 180.386 198.65 179.639 198.283C179.008 197.969 180.31 195.868 181.753 193.507C181.823 193.393 181.892 193.278 181.963 193.162C182.156 192.848 182.346 192.53 182.537 192.214C184.229 189.372 183.809 188.029 183.443 183.779C183.145 180.325 178.209 164.457 178.209 164.457L185.545 163.246C185.545 163.246 187.663 175.869 190.081 177.827C191.374 178.872 192.829 178.895 194.073 179.671C194.161 179.725 194.247 179.78 194.332 179.837C195.039 180.313 195.758 180.804 196.325 181.463Z" fill="#F4AC75"/>
<path d="M196.326 181.462C196.892 182.119 196.959 182.85 196.672 183.627C196.671 183.63 196.669 183.635 196.666 183.638C196.017 185.073 194.326 186.663 192.38 188.252C192.126 188.46 191.901 188.651 191.701 188.83C191.649 188.875 191.596 188.92 191.547 188.966C191.507 189.001 191.468 189.038 191.428 189.071C189.55 190.779 190.249 191.178 186.872 194.646C183.02 198.597 180.386 198.65 179.64 198.283C179.009 197.969 180.311 195.868 181.754 193.507C182.5 193.239 185.968 191.859 188.605 188.532C190.929 185.611 192.491 181.846 194.074 179.671C194.162 179.725 194.248 179.78 194.333 179.837C195.04 180.313 195.759 180.804 196.326 181.462Z" fill="#2C3A64"/>
<path d="M137.273 176.469C136.804 178.727 133.583 178.327 129.987 177.422C126.391 176.516 127.24 177.569 122.117 176.965C116.994 176.361 115.455 174.439 115.304 173.675C115.169 172.998 117.704 172.777 120.423 172.484C120.765 172.448 121.108 172.408 121.452 172.368C124.522 172.005 126.783 170.041 129.581 168.435C132.231 166.914 136.214 160.667 136.214 160.667L143.241 161.274C143.241 161.274 139.512 166.852 138.068 169.278C137.218 170.705 137.249 172.6 137.344 174.064C137.392 174.86 137.439 175.673 137.273 176.469Z" fill="#F4AC75"/>
<path d="M129.987 177.422C126.391 176.516 127.24 177.569 122.117 176.965C116.994 176.361 115.455 174.439 115.304 173.675C115.169 172.998 117.704 172.777 120.423 172.483L120.448 172.536C120.448 172.536 123.507 174.737 127.774 174.87C131.251 174.979 134.942 174.008 137.344 174.064C137.392 174.86 137.439 175.673 137.273 176.469C136.804 178.727 133.583 178.327 129.987 177.422Z" fill="#2C3A64"/>
<path d="M164.533 131.704L170.981 149.435L179.399 172.588C179.399 172.588 181.726 172.829 183.96 172.203C186.017 171.624 188.383 170.088 188.383 170.088C188.383 170.088 186.176 145.277 181.832 131.013C180.719 127.352 179.463 124.388 178.066 122.715C171.233 114.523 164.533 131.704 164.533 131.704Z" fill="#2C3A64"/>
<path d="M171.414 103.664C175.729 102.305 187.997 104.175 200.316 106.677L202.93 102.435L229.59 100.542C229.59 100.542 238.246 120.103 233.344 132.494C232.624 134.315 230.867 135.073 228.47 135.094C228.469 135.095 228.468 135.097 228.467 135.098C228.467 135.098 212.564 135.374 207.415 135.337C194.163 135.244 179.434 126.03 177.523 125.634C174.396 124.986 173.098 131.242 169.92 137.797C166.741 144.353 140.27 166.72 140.27 166.72C140.27 166.72 136.226 166.732 134.56 166.093C132.768 165.407 132.117 164.527 132.117 164.527C132.117 164.527 161.681 106.728 171.414 103.664Z" fill="#35488B"/>
<path d="M203.345 65.7407C212.797 71.0323 231.97 81.9988 232.07 81.9296C232.07 81.9296 239.126 84.6456 243.159 82.008C249.88 77.6124 253.552 65.6804 241.39 55.3039C235.325 50.129 230.999 48.8491 230.398 40.6499C230.072 36.2018 224.098 21.4867 213.992 22.7724C213.147 22.8799 212.296 22.9551 211.445 22.9216C210.266 22.8752 208.319 23.0337 206.313 24.2086C200.574 27.5704 189.135 63.6184 203.345 65.7407Z" fill="#2C3A64"/>
<path d="M211.33 61.3498C211.288 61.3765 215.987 63.0178 219.146 61.6452C222.118 60.3567 224.397 55.4978 224.353 55.4949C223.006 55.4231 221.535 54.2342 220.449 46.4939L219.874 46.6958L210.199 50.1001C210.199 50.1001 210.876 53.2015 211.308 56.1529C211.671 58.6309 211.859 61.0036 211.33 61.3498Z" fill="#F4AC75"/>
<path d="M210.199 50.1001C210.199 50.1001 210.611 52.2736 211.184 55.3798C216.734 54.4215 219.072 49.6871 219.874 46.6958L210.199 50.1001Z" fill="#E19054"/>
<path d="M208.741 53.1634C208.741 53.1634 221.957 51.4844 220.785 43.2702C219.613 35.0562 220.529 29.3074 212.041 30.032C203.554 30.7567 202.365 34.1245 202.09 36.9614C201.814 39.7984 205.273 53.3884 208.741 53.1634Z" fill="#F4AC75"/>
<path d="M202.602 32.467C202.602 32.467 211.003 39.8105 216.748 40.4383C222.493 41.066 224.682 39.2359 224.682 39.2359C224.682 39.2359 221.313 36.3985 219.306 31.8433C218.714 30.5006 217.451 29.5734 215.99 29.4369C211.888 29.0535 204.107 28.8369 202.602 32.467Z" fill="#2C3A64"/>
<path d="M207.889 31.8519C207.889 31.8519 205.042 34.566 204.137 36.5876C203.264 38.5383 202.973 43.2167 203.645 45.0804C203.645 45.0804 199.3 36.4829 201.823 32.3386C204.499 27.9439 207.889 31.8519 207.889 31.8519Z" fill="#2C3A64"/>
<path d="M200.075 80.7215C200.286 107.451 200.035 101.864 202.941 104.421C203.641 105.037 205.619 105.414 208.224 105.605C216.416 106.207 230.832 104.958 231.39 103.447C233.318 98.2204 231.995 96.5828 233.629 88.5706C233.799 87.7187 234.009 86.7966 234.255 85.7923C235.609 80.2911 236.902 78.4255 232.299 69.5396C228.125 61.4904 223.776 54.9508 223.379 55.1827C212.17 61.7301 211.309 56.1543 211.309 56.1543C211.309 56.1543 199.971 67.6832 200.075 80.7215Z" fill="#F4DABA"/>
<path d="M170.98 149.435L179.398 172.587C179.398 172.587 181.725 172.829 183.959 172.203C186.016 171.624 188.383 170.088 188.383 170.088C188.383 170.088 186.175 145.277 181.831 131.013L170.98 149.435Z" fill="#35488B"/>
<path d="M211.307 56.1528C211.307 56.1528 199.808 58.019 198.424 62.9546C197.04 67.8902 188.898 96.9052 188.898 96.9052C188.898 96.9052 194.73 97.9953 197.446 95.3169C200.163 92.6388 207.008 70.3581 207.008 70.3581L211.307 56.1528Z" fill="#F4DABA"/>
<path d="M208.223 105.605C216.414 106.207 230.83 104.958 231.389 103.447C233.316 98.2205 231.993 96.5829 233.627 88.5706L229.753 77.4121C229.753 77.4121 230.319 89.8115 226.64 93.046C222.966 96.2805 211.63 99.2337 209.834 101.945C208.967 103.246 208.395 104.553 208.223 105.605Z" fill="#EBC8A4"/>
<path d="M217.651 100.458C217.651 100.458 209.579 98.6007 208.269 99.309C206.959 100.017 203.752 102.608 203.347 103.515C202.941 104.421 206.256 102.845 207.333 102.564C208.03 102.382 209.857 103.032 210.762 103.341C214.569 104.639 216.911 104.001 216.911 104.001L217.651 100.458Z" fill="#F4AC75"/>
<path d="M223.384 55.177C223.384 55.177 234.236 55.9223 237.957 61.1907C243.195 68.6066 253.468 100.127 247.424 104.279C240.617 108.954 216.587 105.297 216.587 105.297C216.587 105.297 215.813 101.55 216.94 99.7475C218.067 97.9456 236.186 95.1495 237.027 94.3201C237.868 93.4907 226.7 77.9578 226.718 75.4517C226.736 72.9458 223.384 55.177 223.384 55.177Z" fill="#F4DABA"/>
<path d="M207.86 101.557C207.86 101.557 206.151 103.73 205.593 103.987C205.036 104.244 204.678 104.176 204.678 104.176L205.834 102.13L207.86 101.557Z" fill="#F4AC75"/>
<path d="M208.268 99.3091L203.326 101.666C203.326 101.666 203.533 102.01 204.14 101.987C204.746 101.964 206.28 101.415 206.28 101.415L208.268 99.3091Z" fill="#F4AC75"/>
<path d="M206.648 107.514L167.686 107.239L156.172 78.011L195.074 78.2855L206.648 107.514Z" fill="#EC9037"/>
<path d="M167.238 106.101L218.688 106.463L218.68 107.599L167.687 107.239L167.238 106.101Z" fill="#DF750D"/>
<path d="M177.624 92.736C177.338 91.7093 177.936 90.883 178.961 90.8902C179.985 90.8974 181.048 91.7354 181.334 92.7621C181.621 93.7888 181.023 94.6151 179.998 94.6079C178.974 94.6007 177.911 93.7626 177.624 92.736Z" fill="white"/>
<path d="M453.348 240L6.68722 239.846C6.34563 239.846 6.06625 239.567 6.06641 239.225L6.06656 238.688C6.06671 238.346 6.34624 238.067 6.68786 238.067L453.348 238.221C453.69 238.221 453.969 238.5 453.969 238.842L453.969 239.379C453.969 239.721 453.689 240 453.348 240Z" fill="#333854"/>
<path d="M107.316 111.353C107.316 111.353 109.388 110.041 109.613 108.455C109.613 108.455 111.638 108.565 112.073 109.22C112.073 109.22 111.144 111.844 110.05 112.337C110.05 112.337 107.589 112.501 107.316 111.353Z" fill="#E1954D"/>
</g>
<defs>
<clipPath id="clip0_1197_34936">
<rect width="454.381" height="240" fill="white" transform="translate(0.308594)"/>
</clipPath>
</defs>
</svg>
