<svg width="32" height="32" viewBox="0 0 32 32" fill="none" xmlns="http://www.w3.org/2000/svg">
<path opacity="0.2" d="M27.0003 17C27.0003 19.1756 26.3551 21.3023 25.1464 23.1113C23.9377 24.9202 22.2198 26.3301 20.2098 27.1627C18.1998 27.9952 15.988 28.2131 13.8543 27.7886C11.7205 27.3642 9.76045 26.3166 8.22208 24.7782C6.6837 23.2398 5.63605 21.2798 5.21161 19.146C4.78717 17.0122 5.00501 14.8005 5.83757 12.7905C6.67014 10.7805 8.08004 9.06253 9.88898 7.85383C11.6979 6.64514 13.8247 6 16.0002 6C18.9176 6 21.7155 7.15893 23.7784 9.22183C25.8413 11.2847 27.0003 14.0826 27.0003 17Z" fill="#00B0CB"/>
<path d="M15.9998 5C13.6264 5 11.3063 5.70379 9.33292 7.02236C7.35953 8.34094 5.82146 10.2151 4.91321 12.4078C4.00496 14.6005 3.76732 17.0133 4.23034 19.3411C4.69336 21.6689 5.83625 23.8071 7.51448 25.4853C9.19271 27.1635 11.3309 28.3064 13.6587 28.7694C15.9865 29.2324 18.3993 28.9948 20.592 28.0866C22.7847 27.1783 24.6588 25.6402 25.9774 23.6668C27.296 21.6935 27.9998 19.3734 27.9998 17C27.9961 13.8185 26.7307 10.7684 24.481 8.51874C22.2314 6.26909 19.1812 5.00364 15.9998 5ZM15.9998 27C14.0219 27 12.0886 26.4135 10.4441 25.3147C8.79957 24.2159 7.51784 22.6541 6.76097 20.8268C6.00409 18.9996 5.80606 16.9889 6.19191 15.0491C6.57776 13.1093 7.53017 11.3275 8.92869 9.92893C10.3272 8.53041 12.109 7.578 14.0489 7.19215C15.9887 6.80629 17.9993 7.00433 19.8266 7.7612C21.6539 8.51808 23.2156 9.79981 24.3145 11.4443C25.4133 13.0888 25.9998 15.0222 25.9998 17C25.9968 19.6513 24.9423 22.1931 23.0675 24.0678C21.1928 25.9425 18.651 26.997 15.9998 27ZM21.7073 11.2925C21.8002 11.3854 21.874 11.4957 21.9243 11.6171C21.9746 11.7385 22.0005 11.8686 22.0005 12C22.0005 12.1314 21.9746 12.2615 21.9243 12.3829C21.874 12.5043 21.8002 12.6146 21.7073 12.7075L16.7073 17.7075C16.6144 17.8004 16.5041 17.8741 16.3827 17.9244C16.2613 17.9747 16.1312 18.0006 15.9998 18.0006C15.8684 18.0006 15.7383 17.9747 15.6169 17.9244C15.4955 17.8741 15.3852 17.8004 15.2923 17.7075C15.1994 17.6146 15.1257 17.5043 15.0754 17.3829C15.0251 17.2615 14.9992 17.1314 14.9992 17C14.9992 16.8686 15.0251 16.7385 15.0754 16.6171C15.1257 16.4957 15.1994 16.3854 15.2923 16.2925L20.2923 11.2925C20.3851 11.1995 20.4954 11.1258 20.6168 11.0754C20.7382 11.0251 20.8683 10.9992 20.9998 10.9992C21.1312 10.9992 21.2613 11.0251 21.3827 11.0754C21.5041 11.1258 21.6144 11.1995 21.7073 11.2925ZM11.9998 2C11.9998 1.73478 12.1051 1.48043 12.2927 1.29289C12.4802 1.10536 12.7345 1 12.9998 1H18.9998C19.265 1 19.5193 1.10536 19.7069 1.29289C19.8944 1.48043 19.9998 1.73478 19.9998 2C19.9998 2.26522 19.8944 2.51957 19.7069 2.70711C19.5193 2.89464 19.265 3 18.9998 3H12.9998C12.7345 3 12.4802 2.89464 12.2927 2.70711C12.1051 2.51957 11.9998 2.26522 11.9998 2Z" fill="#0028A3"/>
</svg>
