<svg width="474" height="240" viewBox="0 0 474 240" fill="none" xmlns="http://www.w3.org/2000/svg">
<g clip-path="url(#clip0_1197_34704)">
<path d="M33.6144 239.017C33.634 239.032 446.299 238.964 446.299 238.964C459.883 208.815 459.862 194.085 461.408 176.804C469.943 81.2883 400.794 66.6039 380.533 62.6211C318.503 50.4261 346.737 -9.91574 185.102 1.4058C170.292 2.44448 135.361 10.8203 123.326 16.2486C114.883 20.0508 83.0644 37.0698 73.7355 65.8581C70.7895 74.9456 70.0792 85.2029 73.0514 96.5892C83.5751 136.878 56.1463 134.562 36.1119 153.757C9.36559 179.387 12.161 221.293 33.6144 239.017Z" fill="#EBF3FA"/>
<path d="M279.427 238.991H279.483C279.562 238.991 279.64 238.975 279.714 238.943C279.787 238.911 279.853 238.865 279.908 238.806C279.964 238.747 280.007 238.677 280.036 238.6C280.065 238.524 280.079 238.442 280.077 238.359L279.177 197.764L276.525 197.442L278.787 238.363C278.796 238.533 278.868 238.693 278.987 238.809C279.106 238.926 279.264 238.991 279.427 238.991Z" fill="#B0D4FF"/>
<path d="M294.88 238.991H294.936C295.015 238.991 295.094 238.975 295.167 238.943C295.24 238.911 295.306 238.865 295.361 238.806C295.417 238.747 295.46 238.677 295.489 238.6C295.518 238.524 295.532 238.442 295.53 238.359L294.63 197.764L291.979 197.442L294.239 238.363C294.248 238.533 294.32 238.693 294.439 238.81C294.559 238.926 294.717 238.991 294.88 238.991Z" fill="#95C0F4"/>
<path d="M252.238 238.991H252.182C252.103 238.991 252.025 238.975 251.952 238.943C251.879 238.911 251.813 238.864 251.757 238.805C251.702 238.746 251.659 238.677 251.629 238.6C251.6 238.523 251.586 238.442 251.588 238.359L252.488 197.764L255.141 197.442L252.873 238.363C252.863 238.532 252.792 238.691 252.674 238.807C252.557 238.924 252.4 238.99 252.238 238.991Z" fill="#B0D4FF"/>
<path d="M296.637 195.247V167.429C296.637 165.081 295.74 162.829 294.144 161.168C292.548 159.508 290.384 158.575 288.126 158.575H268.855C266.597 158.575 264.432 159.508 262.834 161.168C261.237 162.828 260.339 165.08 260.336 167.429V196.309L296.637 195.247Z" fill="#B0D4FF"/>
<path d="M294.079 199.638H256.885V195.247H296.637V196.977C296.637 197.683 296.367 198.36 295.887 198.859C295.408 199.358 294.757 199.638 294.079 199.638Z" fill="#95C0F4"/>
<path d="M252.43 199.638H280.567C281.612 199.638 282.459 198.757 282.459 197.67V197.215C282.459 196.128 281.612 195.247 280.567 195.247H252.43C251.385 195.247 250.538 196.128 250.538 197.215V197.67C250.538 198.757 251.385 199.638 252.43 199.638Z" fill="#CAE5FF"/>
<path d="M317.269 48.8398H206.217V148.576H317.269V48.8398Z" fill="#95C0F4"/>
<path d="M315.108 50.5005H208.329V146.586H315.108V50.5005Z" fill="#DFEDFB"/>
<path d="M245.651 92.3066H222.253V61.9092L226.22 58.187H245.651V92.3066Z" fill="white"/>
<path d="M222.253 61.9092H226.093L226.22 58.187L222.253 61.9092Z" fill="#B0D4FF"/>
<path d="M237.696 61.1475H230.205V61.5187H237.696V61.1475Z" fill="#B0D4FF"/>
<path d="M239.46 62.2612H228.44V62.6324H239.46V62.2612Z" fill="#B0D4FF"/>
<path d="M243.318 69.4121H225.021V69.8889H243.318V69.4121Z" fill="#B0D4FF"/>
<path d="M243.318 70.8608H225.021V71.3376H243.318V70.8608Z" fill="#B0D4FF"/>
<path d="M243.318 72.3105H225.021V72.7873H243.318V72.3105Z" fill="#B0D4FF"/>
<path d="M243.318 73.7603H225.021V74.237H243.318V73.7603Z" fill="#B0D4FF"/>
<path d="M243.318 89.2695H225.021V89.7463H243.318V89.2695Z" fill="#B0D4FF"/>
<path d="M272.668 134.479H249.269V104.082L253.237 100.361H272.668V134.479Z" fill="white"/>
<path d="M249.269 104.082H253.11L253.237 100.361L249.269 104.082Z" fill="#B0D4FF"/>
<path d="M264.715 103.32H257.223V103.692H264.715V103.32Z" fill="#B0D4FF"/>
<path d="M266.479 104.435H255.459V104.806H266.479V104.435Z" fill="#B0D4FF"/>
<path d="M270.336 111.586H252.04V112.063H270.336V111.586Z" fill="#B0D4FF"/>
<path d="M270.336 113.035H252.04V113.512H270.336V113.035Z" fill="#B0D4FF"/>
<path d="M270.336 114.483H252.04V114.96H270.336V114.483Z" fill="#B0D4FF"/>
<path d="M270.336 115.933H252.04V116.41H270.336V115.933Z" fill="#B0D4FF"/>
<path d="M270.336 120.392H252.04V120.869H270.336V120.392Z" fill="#B0D4FF"/>
<path d="M270.336 121.841H252.04V122.318H270.336V121.841Z" fill="#B0D4FF"/>
<path d="M270.336 123.521H252.04V123.998H270.336V123.521Z" fill="#B0D4FF"/>
<path d="M285.871 58.187H272.951V70.0381H285.871V58.187Z" fill="#B0D4FF"/>
<path d="M278.847 59.5952C278.846 59.4786 278.879 59.3644 278.941 59.2673C279.004 59.1701 279.092 59.0944 279.196 59.0496C279.299 59.0048 279.413 58.993 279.523 59.0156C279.633 59.0383 279.734 59.0945 279.813 59.177C279.893 59.2594 279.947 59.3646 279.968 59.479C279.99 59.5935 279.979 59.7121 279.936 59.8198C279.893 59.9275 279.82 60.0195 279.727 60.0841C279.633 60.1487 279.523 60.183 279.411 60.1827C279.262 60.1827 279.118 60.1208 279.012 60.0106C278.906 59.9005 278.847 59.751 278.847 59.5952Z" fill="#FFA412"/>
<path d="M285.456 73.7796L272.567 74.7148L273.36 86.5372L286.248 85.6019L285.456 73.7796Z" fill="white"/>
<path d="M278.595 76.4124C278.588 76.2966 278.613 76.1811 278.669 76.0805C278.724 75.9798 278.807 75.8986 278.907 75.847C279.007 75.7953 279.12 75.7757 279.23 75.7904C279.341 75.8052 279.445 75.8537 279.529 75.9299C279.613 76.0061 279.674 76.1065 279.703 76.2184C279.732 76.3304 279.729 76.4489 279.694 76.559C279.659 76.6691 279.593 76.7659 279.505 76.8371C279.417 76.9082 279.31 76.9507 279.199 76.959C279.125 76.9646 279.05 76.9548 278.98 76.9303C278.909 76.9058 278.844 76.8671 278.788 76.8163C278.732 76.7655 278.686 76.7037 278.653 76.6344C278.62 76.5651 278.6 76.4897 278.595 76.4124Z" fill="#B0D4FF"/>
<path d="M242.519 117.434L229.631 118.37L230.423 130.192L243.312 129.257L242.519 117.434Z" fill="white"/>
<path d="M235.66 120.071C235.653 119.955 235.679 119.84 235.734 119.739C235.79 119.639 235.873 119.557 235.973 119.506C236.073 119.454 236.185 119.434 236.296 119.449C236.406 119.464 236.51 119.512 236.594 119.589C236.679 119.665 236.739 119.765 236.769 119.877C236.798 119.989 236.795 120.108 236.759 120.218C236.724 120.328 236.658 120.425 236.57 120.496C236.482 120.567 236.376 120.609 236.264 120.618C236.19 120.623 236.116 120.614 236.045 120.589C235.975 120.565 235.909 120.526 235.853 120.475C235.797 120.424 235.751 120.362 235.718 120.293C235.685 120.224 235.665 120.148 235.66 120.071Z" fill="#B0D4FF"/>
<path d="M226.314 125.916L213.395 126.055L213.512 137.905L226.431 137.767L226.314 125.916Z" fill="white"/>
<path d="M219.303 128.147C219.301 128.03 219.333 127.916 219.395 127.818C219.456 127.721 219.543 127.644 219.646 127.598C219.749 127.552 219.863 127.539 219.973 127.561C220.083 127.582 220.185 127.637 220.265 127.719C220.345 127.8 220.4 127.904 220.423 128.018C220.446 128.132 220.436 128.251 220.395 128.359C220.353 128.467 220.281 128.56 220.189 128.626C220.097 128.692 219.988 128.728 219.876 128.729C219.726 128.73 219.581 128.67 219.474 128.561C219.366 128.452 219.305 128.303 219.303 128.147Z" fill="#B0D4FF"/>
<path d="M305.025 83.2713L292.307 80.9072L290.303 92.5736L303.022 94.9377L305.025 83.2713Z" fill="#EEF6FF"/>
<path d="M297.905 83.5925C297.923 83.4931 297.968 83.4014 298.035 83.3288C298.103 83.2562 298.189 83.206 298.284 83.1845C298.379 83.1631 298.478 83.1713 298.568 83.2082C298.658 83.2451 298.736 83.309 298.791 83.3918C298.847 83.4746 298.877 83.5727 298.879 83.6736C298.881 83.7745 298.854 83.8737 298.802 83.9588C298.75 84.0438 298.675 84.1108 298.586 84.1514C298.497 84.192 298.399 84.2043 298.303 84.1867C298.239 84.175 298.179 84.1503 298.124 84.1141C298.07 84.0779 298.022 84.0308 297.986 83.9756C297.949 83.9203 297.922 83.8581 297.909 83.7923C297.895 83.7266 297.894 83.6587 297.905 83.5925Z" fill="#78ACEA"/>
<path d="M265.334 73.511L252.489 74.958L253.716 86.7402L266.56 85.2932L265.334 73.511Z" fill="#EEF6FF"/>
<path d="M258.587 75.9009C258.577 75.8005 258.595 75.6993 258.64 75.61C258.686 75.5206 258.755 75.4472 258.84 75.399C258.926 75.3508 259.023 75.3299 259.119 75.339C259.216 75.3481 259.308 75.3868 259.383 75.4501C259.459 75.5135 259.515 75.5987 259.544 75.695C259.573 75.7914 259.573 75.8945 259.546 75.9913C259.519 76.0882 259.465 76.1745 259.39 76.2393C259.316 76.3041 259.225 76.3446 259.128 76.3555C259.064 76.3628 258.999 76.3569 258.937 76.338C258.875 76.3191 258.817 76.2876 258.767 76.2453C258.716 76.2031 258.675 76.1509 258.644 76.0918C258.613 76.0327 258.593 75.9678 258.587 75.9009Z" fill="#78ACEA"/>
<path d="M231.797 101.528L219.161 104.332L221.537 115.922L234.173 113.118L231.797 101.528Z" fill="#BAE8E3"/>
<path d="M225.529 104.936C225.447 104.881 225.384 104.802 225.345 104.71C225.307 104.617 225.296 104.515 225.314 104.415C225.332 104.316 225.377 104.224 225.445 104.152C225.512 104.08 225.599 104.03 225.694 104.009C225.789 103.988 225.888 103.996 225.978 104.034C226.068 104.071 226.145 104.135 226.201 104.218C226.256 104.301 226.286 104.399 226.288 104.5C226.289 104.601 226.262 104.7 226.21 104.785C226.174 104.841 226.129 104.89 226.076 104.929C226.023 104.967 225.963 104.994 225.899 105.008C225.836 105.022 225.771 105.023 225.707 105.011C225.644 104.998 225.583 104.973 225.529 104.936Z" fill="#FFA412"/>
<path d="M265.67 70.0381H253.374V61.4427L256.778 58.187H265.67V70.0381Z" fill="white"/>
<path d="M253.307 61.4427H256.667L256.778 58.187L253.307 61.4427Z" fill="#B0D4FF"/>
<path d="M259.566 59.2848C259.566 59.2017 259.59 59.1203 259.635 59.0512C259.679 58.982 259.742 58.9281 259.816 58.8963C259.89 58.8644 259.971 58.8561 260.05 58.8723C260.128 58.8886 260.2 58.9286 260.257 58.9874C260.313 59.0463 260.352 59.1212 260.367 59.2028C260.383 59.2844 260.375 59.3689 260.344 59.4458C260.314 59.5226 260.262 59.5883 260.195 59.6345C260.129 59.6807 260.051 59.7054 259.971 59.7054C259.864 59.705 259.761 59.6605 259.685 59.5817C259.61 59.503 259.567 59.3962 259.566 59.2848Z" fill="#B0D4FF"/>
<path d="M301.602 140.406H289.304V131.81L292.708 128.556H301.602V140.406Z" fill="white"/>
<path d="M289.237 131.81H292.596L292.707 128.556L289.237 131.81Z" fill="#B0D4FF"/>
<path d="M295.496 129.652C295.496 129.569 295.52 129.488 295.564 129.418C295.609 129.349 295.672 129.295 295.746 129.263C295.819 129.232 295.901 129.223 295.979 129.24C296.058 129.256 296.13 129.296 296.186 129.355C296.243 129.413 296.281 129.488 296.297 129.57C296.312 129.652 296.304 129.736 296.274 129.813C296.243 129.89 296.191 129.956 296.125 130.002C296.058 130.048 295.98 130.073 295.9 130.073C295.793 130.073 295.69 130.028 295.614 129.949C295.539 129.871 295.496 129.764 295.496 129.652Z" fill="#B0D4FF"/>
<path d="M307.21 123.347H294.914V114.75L298.318 111.496H307.21V123.347Z" fill="white"/>
<path d="M294.847 114.75H298.207L298.318 111.496L294.847 114.75Z" fill="#B0D4FF"/>
<path d="M301.106 112.592C301.106 112.509 301.13 112.428 301.175 112.359C301.219 112.29 301.282 112.236 301.356 112.204C301.43 112.172 301.511 112.164 301.59 112.18C301.668 112.196 301.74 112.236 301.797 112.295C301.853 112.354 301.892 112.429 301.907 112.51C301.923 112.592 301.915 112.677 301.884 112.753C301.854 112.83 301.802 112.896 301.735 112.942C301.669 112.988 301.591 113.013 301.511 113.013C301.458 113.013 301.405 113.003 301.356 112.981C301.307 112.96 301.262 112.929 301.224 112.89C301.187 112.851 301.157 112.805 301.137 112.754C301.117 112.703 301.106 112.648 301.106 112.592Z" fill="#B0D4FF"/>
<path d="M290.982 123.347H278.685V114.75L282.089 111.496H290.982V123.347Z" fill="#BAE8E3"/>
<path d="M278.619 114.75H281.978L282.089 111.496L278.619 114.75Z" fill="#A1D6CE"/>
<path d="M284.878 112.592C284.878 112.509 284.902 112.428 284.946 112.359C284.99 112.29 285.054 112.236 285.127 112.204C285.201 112.172 285.283 112.164 285.361 112.18C285.439 112.196 285.512 112.236 285.568 112.295C285.625 112.354 285.663 112.429 285.679 112.51C285.694 112.592 285.686 112.677 285.656 112.753C285.625 112.83 285.573 112.896 285.507 112.942C285.44 112.988 285.362 113.013 285.282 113.013C285.229 113.013 285.177 113.002 285.127 112.981C285.078 112.96 285.034 112.929 284.996 112.89C284.959 112.851 284.929 112.804 284.909 112.753C284.888 112.702 284.878 112.648 284.878 112.592Z" fill="#F99746"/>
<path d="M310.68 67.0728H298.384V58.4756L301.788 55.2217H310.68V67.0728Z" fill="#BAE8E3"/>
<path d="M298.318 58.4756H301.677L301.788 55.2217L298.318 58.4756Z" fill="#A1D6CE"/>
<path d="M304.576 56.3176C304.576 56.2344 304.6 56.1531 304.644 56.0839C304.689 56.0147 304.752 55.9608 304.826 55.929C304.9 55.8972 304.981 55.8888 305.059 55.9051C305.138 55.9213 305.21 55.9613 305.266 56.0202C305.323 56.079 305.361 56.1539 305.377 56.2355C305.392 56.3171 305.385 56.4016 305.354 56.4785C305.323 56.5553 305.272 56.621 305.205 56.6673C305.139 56.7135 305.06 56.7381 304.98 56.7381C304.873 56.7377 304.771 56.6932 304.695 56.6145C304.619 56.5357 304.577 56.429 304.576 56.3176Z" fill="#F99746"/>
<path d="M189.074 18.8772H165.683C164.605 18.8772 163.73 19.7867 163.73 20.9086V44.3962C163.73 45.5181 164.605 46.4276 165.683 46.4276H189.074C190.153 46.4276 191.027 45.5181 191.027 44.3962V20.9086C191.027 19.7867 190.153 18.8772 189.074 18.8772Z" fill="#C0D8FB"/>
<path d="M188.061 20.0708H166.698C165.713 20.0708 164.914 20.9018 164.914 21.9268V43.378C164.914 44.403 165.713 45.2339 166.698 45.2339H188.061C189.047 45.2339 189.845 44.403 189.845 43.378V21.9268C189.845 20.9018 189.047 20.0708 188.061 20.0708Z" fill="#DFEBFD"/>
<path d="M176.813 22.5828C176.813 22.4662 176.847 22.3522 176.909 22.2553C176.971 22.1584 177.06 22.0829 177.163 22.0383C177.267 21.9938 177.381 21.9822 177.491 22.0051C177.601 22.028 177.702 22.0842 177.781 22.1668C177.86 22.2494 177.914 22.3545 177.935 22.4689C177.957 22.5833 177.946 22.7018 177.902 22.8094C177.859 22.9171 177.787 23.009 177.693 23.0735C177.6 23.138 177.49 23.1723 177.378 23.1719C177.304 23.1722 177.23 23.1571 177.161 23.1275C177.093 23.098 177.03 23.0546 176.978 22.9998C176.925 22.945 176.884 22.88 176.856 22.8084C176.827 22.7368 176.813 22.6602 176.813 22.5828Z" fill="#B7D3F3"/>
<path d="M181.375 23.4156C181.429 23.314 181.511 23.2314 181.611 23.1783C181.71 23.1252 181.822 23.1039 181.933 23.1171C182.044 23.1304 182.149 23.1775 182.234 23.2527C182.319 23.3279 182.381 23.4276 182.412 23.5393C182.442 23.6511 182.441 23.7698 182.406 23.8804C182.372 23.991 182.307 24.0886 182.22 24.1609C182.132 24.2331 182.026 24.2767 181.915 24.2862C181.804 24.2957 181.692 24.2706 181.594 24.2142C181.464 24.1382 181.368 24.0115 181.326 23.8619C181.285 23.7123 181.303 23.5518 181.375 23.4156Z" fill="#B7D3F3"/>
<path d="M185.278 26.6463C185.372 26.5828 185.481 26.5496 185.593 26.5508C185.705 26.552 185.813 26.5877 185.906 26.6532C185.998 26.7187 186.069 26.8112 186.111 26.9189C186.153 27.0267 186.163 27.1448 186.14 27.2585C186.117 27.3722 186.062 27.4763 185.983 27.5576C185.903 27.6389 185.802 27.6939 185.692 27.7154C185.582 27.737 185.469 27.7243 185.366 27.6789C185.263 27.6334 185.176 27.5573 185.115 27.4602C185.074 27.3956 185.046 27.3233 185.032 27.2474C185.018 27.1715 185.019 27.0935 185.034 27.0179C185.05 26.9423 185.079 26.8706 185.121 26.8068C185.163 26.7431 185.216 26.6885 185.278 26.6463Z" fill="#B7D3F3"/>
<path d="M187.222 31.648C187.334 31.648 187.443 31.6825 187.536 31.7474C187.63 31.8122 187.702 31.9043 187.745 32.012C187.788 32.1198 187.799 32.2383 187.777 32.3527C187.755 32.467 187.701 32.572 187.621 32.6543C187.542 32.7366 187.441 32.7926 187.331 32.8151C187.221 32.8377 187.107 32.8258 187.004 32.7809C186.9 32.7361 186.812 32.6603 186.75 32.5632C186.688 32.4661 186.655 32.352 186.655 32.2354C186.655 32.1581 186.67 32.0816 186.698 32.0102C186.727 31.9388 186.769 31.874 186.821 31.8194C186.874 31.7648 186.936 31.7216 187.005 31.6922C187.074 31.6628 187.147 31.6477 187.222 31.648Z" fill="#B7D3F3"/>
<path d="M186.232 37.4502C186.311 37.5324 186.364 37.6371 186.386 37.751C186.408 37.865 186.397 37.9831 186.354 38.0904C186.311 38.1977 186.239 38.2895 186.146 38.354C186.053 38.4186 185.944 38.453 185.832 38.453C185.721 38.453 185.611 38.4186 185.519 38.354C185.426 38.2895 185.353 38.1977 185.311 38.0904C185.268 37.9831 185.257 37.865 185.278 37.751C185.3 37.6371 185.354 37.5324 185.433 37.4502C185.539 37.3404 185.683 37.2788 185.832 37.2788C185.982 37.2788 186.125 37.3404 186.232 37.4502Z" fill="#B7D3F3"/>
<path d="M182.681 41.1532C182.761 41.2356 182.815 41.3406 182.836 41.4549C182.858 41.5692 182.847 41.6877 182.804 41.7954C182.762 41.9031 182.689 41.9951 182.596 42.0599C182.503 42.1247 182.393 42.1593 182.281 42.1593C182.169 42.1593 182.06 42.1247 181.966 42.0599C181.873 41.9951 181.801 41.9031 181.758 41.7954C181.715 41.6877 181.704 41.5692 181.726 41.4549C181.748 41.3406 181.802 41.2356 181.881 41.1532C181.987 41.0429 182.131 40.981 182.281 40.981C182.431 40.981 182.575 41.0429 182.681 41.1532Z" fill="#B7D3F3"/>
<path d="M176.813 43.0633C176.813 42.9467 176.847 42.8327 176.909 42.7358C176.971 42.6389 177.06 42.5633 177.163 42.5188C177.267 42.4743 177.381 42.4627 177.491 42.4856C177.601 42.5084 177.702 42.5647 177.781 42.6473C177.86 42.7298 177.914 42.835 177.935 42.9494C177.957 43.0638 177.946 43.1823 177.902 43.2899C177.859 43.3975 177.787 43.4894 177.693 43.554C177.6 43.6185 177.49 43.6528 177.378 43.6524C177.304 43.6526 177.23 43.6375 177.161 43.608C177.093 43.5784 177.03 43.535 176.978 43.4803C176.925 43.4255 176.884 43.3604 176.856 43.2889C176.827 43.2173 176.813 43.1406 176.813 43.0633Z" fill="#B7D3F3"/>
<path d="M173.364 23.4156C173.31 23.314 173.228 23.2314 173.128 23.1783C173.029 23.1252 172.917 23.1039 172.806 23.1171C172.695 23.1304 172.59 23.1775 172.505 23.2527C172.42 23.3279 172.358 23.4276 172.327 23.5393C172.297 23.6511 172.299 23.7698 172.333 23.8804C172.367 23.991 172.432 24.0886 172.519 24.1609C172.607 24.2331 172.713 24.2767 172.824 24.2862C172.936 24.2957 173.047 24.2706 173.145 24.2142C173.275 24.1382 173.371 24.0115 173.413 23.8619C173.454 23.7123 173.436 23.5518 173.364 23.4156Z" fill="#B7D3F3"/>
<path d="M169.455 26.646C169.362 26.582 169.252 26.5484 169.14 26.5493C169.028 26.5503 168.918 26.5859 168.826 26.6515C168.733 26.7172 168.661 26.81 168.619 26.9181C168.577 27.0263 168.567 27.145 168.59 27.2591C168.613 27.3733 168.668 27.4778 168.748 27.5594C168.828 27.641 168.93 27.696 169.04 27.7175C169.15 27.739 169.264 27.726 169.367 27.6802C169.47 27.6343 169.558 27.5577 169.619 27.4599C169.701 27.3293 169.729 27.1704 169.699 27.0178C169.668 26.8653 169.58 26.7316 169.455 26.646Z" fill="#B7D3F3"/>
<path d="M167.519 31.648C167.407 31.6476 167.297 31.6819 167.204 31.7465C167.11 31.8111 167.038 31.9031 166.995 32.0109C166.952 32.1186 166.94 32.2372 166.962 32.3516C166.984 32.4661 167.038 32.5712 167.117 32.6537C167.196 32.7362 167.297 32.7923 167.407 32.815C167.517 32.8377 167.631 32.8259 167.735 32.7811C167.838 32.7363 167.927 32.6605 167.989 32.5634C168.051 32.4662 168.084 32.3521 168.084 32.2354C168.084 32.0796 168.024 31.9302 167.918 31.82C167.812 31.7098 167.669 31.648 167.519 31.648Z" fill="#B7D3F3"/>
<path d="M168.508 37.4502C168.429 37.5324 168.375 37.6371 168.354 37.751C168.332 37.865 168.343 37.9831 168.386 38.0904C168.429 38.1977 168.501 38.2895 168.594 38.354C168.687 38.4186 168.796 38.453 168.907 38.453C169.019 38.453 169.128 38.4186 169.221 38.354C169.314 38.2895 169.386 38.1977 169.429 38.0904C169.472 37.9831 169.483 37.865 169.461 37.751C169.439 37.6371 169.386 37.5324 169.307 37.4502C169.201 37.3404 169.057 37.2788 168.907 37.2788C168.758 37.2788 168.614 37.3404 168.508 37.4502Z" fill="#B7D3F3"/>
<path d="M172.058 41.1532C171.978 41.2356 171.924 41.3406 171.903 41.4549C171.881 41.5692 171.892 41.6877 171.935 41.7954C171.977 41.9031 172.05 41.9951 172.143 42.0599C172.236 42.1247 172.346 42.1593 172.458 42.1593C172.57 42.1593 172.679 42.1247 172.773 42.0599C172.866 41.9951 172.938 41.9031 172.981 41.7954C173.024 41.6877 173.035 41.5692 173.013 41.4549C172.991 41.3406 172.937 41.2356 172.858 41.1532C172.752 41.0429 172.608 40.981 172.458 40.981C172.308 40.981 172.164 41.0429 172.058 41.1532Z" fill="#B7D3F3"/>
<path d="M177.226 32.2342C177.226 32.1176 177.259 32.0036 177.321 31.9067C177.383 31.8098 177.472 31.7342 177.576 31.6897C177.679 31.6452 177.793 31.6336 177.903 31.6565C178.013 31.6793 178.114 31.7356 178.193 31.8182C178.272 31.9007 178.326 32.0059 178.347 32.1203C178.369 32.2347 178.358 32.3532 178.315 32.4608C178.271 32.5684 178.199 32.6603 178.105 32.7249C178.012 32.7894 177.902 32.8237 177.79 32.8233C177.716 32.8233 177.642 32.8081 177.574 32.7784C177.505 32.7488 177.443 32.7054 177.39 32.6507C177.338 32.5959 177.296 32.531 177.268 32.4595C177.24 32.388 177.225 32.3115 177.226 32.2342Z" fill="#B7D3F3"/>
<path d="M177.868 24.8857H177.714V32.2348H177.868V24.8857Z" fill="#B7D3F3"/>
<path d="M181.323 28.9766L177.578 32.0356L177.864 32.4146L181.609 29.3556L181.323 28.9766Z" fill="#B7D3F3"/>
<path d="M333.069 237.533C332.958 239.113 330.814 239.13 328.382 238.837C325.95 238.544 326.596 239.177 323.19 239.234C319.784 239.29 318.607 238.112 318.444 237.606C318.296 237.156 319.936 236.778 321.691 236.334L322.355 236.164C324.334 235.641 325.643 234.1 327.336 232.758C328.94 231.484 331.008 226.872 331.008 226.872L335.66 226.654C335.66 226.654 333.696 230.788 332.964 232.569C332.532 233.618 332.717 234.905 332.904 235.895C333.029 236.431 333.084 236.981 333.069 237.533Z" fill="#FFB27D"/>
<path d="M328.386 238.841C325.954 238.549 326.601 239.182 323.195 239.238C319.789 239.294 318.612 238.116 318.449 237.61C318.301 237.161 319.941 236.783 321.696 236.338L321.717 236.371C323.271 237.145 324.998 237.467 326.714 237.302C329.005 237.064 331.332 236.071 332.909 235.894C333.033 236.432 333.089 236.984 333.072 237.537C332.963 239.117 330.819 239.134 328.386 238.841Z" fill="#233862"/>
<path d="M365.203 237.873C365.093 239.453 362.949 239.472 360.517 239.181C358.085 238.89 358.732 239.521 355.326 239.583C351.92 239.644 350.743 238.466 350.58 237.96C350.432 237.51 352.072 237.131 353.827 236.685C354.046 236.63 354.269 236.571 354.481 236.514C356.46 235.99 357.768 234.447 359.46 233.109C361.062 231.833 359.46 224.278 359.46 224.278L364.578 223.768C364.578 223.768 364.332 230.127 364.336 233.02C364.336 234.161 364.841 235.258 365.031 236.245C365.157 236.778 365.214 237.325 365.203 237.873Z" fill="#FFB27D"/>
<path d="M360.517 239.174C358.085 238.883 358.732 239.514 355.326 239.576C351.92 239.637 350.743 238.459 350.58 237.953C350.432 237.503 352.072 237.124 353.827 236.678L353.846 236.712C355.401 237.484 357.129 237.804 358.845 237.638C361.136 237.396 363.462 236.402 365.039 236.221C365.164 236.76 365.219 237.313 365.203 237.866C365.093 239.446 362.949 239.465 360.517 239.174Z" fill="#233862"/>
<path d="M350.271 107.312C349.39 103.543 350.667 101.787 351.819 100.852C352.366 99.4662 352.989 98.4684 353.619 98.0887C354.783 97.4076 356.176 97.3258 357.151 97.3854C356.937 97.1994 356.681 97.0729 356.407 97.0176C357.011 96.924 358.359 97.5489 358.359 97.5489C366.768 94.1775 368.089 107.057 367.912 110.05C367.736 113.044 367.76 116.565 372.135 118.923C380.482 123.422 369.361 140.378 369.361 140.378C369.574 137.96 358.85 125.2 353.254 121.379C351.893 119.291 351.408 115.606 351.372 115.317C351.608 118.239 352.088 119.879 352.518 120.802C349.973 118.355 349.6 112.49 350.271 107.312Z" fill="#A9453D"/>
<path d="M353.592 121.562C353.564 121.576 356.294 123.05 358.347 122.466C360.278 121.918 361.54 119.313 361.513 119.307C360.695 119.137 360.459 117.969 360.477 112.944L360.108 113.021L353.888 114.301C353.888 114.301 354.029 116.345 354.034 118.253C354.04 119.873 353.947 121.39 353.592 121.562Z" fill="#FFB27D"/>
<path d="M353.891 114.301C353.891 114.301 354.031 116.345 354.036 118.254C357.514 118.151 359.354 114.848 360.107 113.021L353.891 114.301Z" fill="#ED975D"/>
<path d="M328.598 229.434C328.527 229.666 328.508 229.912 328.542 230.153C328.577 230.394 328.664 230.623 328.798 230.823C328.932 231.023 329.108 231.188 329.313 231.305C329.517 231.423 329.746 231.49 329.979 231.501L332.408 231.621L334.978 231.702C335.295 231.712 335.609 231.646 335.898 231.509C336.186 231.372 336.44 231.168 336.641 230.912C338.693 228.295 345.006 219.569 348.835 206.892C348.943 206.537 349.056 206.176 349.177 205.812C351.706 198.139 356.95 188.51 359.713 179.792C360.149 178.404 360.545 177.094 360.901 175.861C361.015 175.464 361.125 175.076 361.228 174.693C363.266 167.332 363.855 162.499 364.398 157.335L344.446 157.505C344.446 157.505 340.248 191.466 328.598 229.434Z" fill="#2A4E96"/>
<path d="M347.242 145.574C347.292 155.45 345.849 159.69 345.849 159.69C345.849 159.69 354.391 164.206 364.544 160.882C364.664 160.843 372.95 158.876 372.95 158.876C372.787 158.476 371.269 151.82 371.104 151.452C368.96 146.664 367.34 144.563 367.08 143.092C366.607 140.342 366.589 137.498 366.832 134.816C367.232 130.41 368.054 126.056 369.287 121.819C366.521 121.165 363.931 120.014 361.052 118.891C360.389 119.742 358.364 120.646 356.608 120.605C354.585 120.559 353.929 119.659 354.034 118.674C351.88 119.922 350.16 121.101 350.16 121.101C348.328 124.411 344.613 127.626 344.345 132.703C344.284 133.951 347.24 145.297 347.242 145.574Z" fill="white"/>
<path d="M364.4 146.675C365.272 147.96 366.943 155.766 371.11 156.746C368.966 151.183 367.346 148.743 367.085 147.041C366.612 143.848 366.594 140.543 366.838 137.427C365.445 134.888 364.406 133.148 364.406 133.148C364.297 132.738 362.193 125.969 361.519 132.019C360.845 138.069 363.426 145.244 364.4 146.675Z" fill="#5F9AA8"/>
<path d="M352.729 116.117C352.729 116.117 360.959 116.259 360.964 110.926C360.969 105.593 362.036 102.017 356.781 101.702C351.526 101.387 350.504 103.42 350.085 105.199C349.666 106.979 350.581 115.944 352.729 116.117Z" fill="#FFB27D"/>
<path d="M353.036 101.57C353.036 101.57 355.29 107.828 358.748 108.753C362.206 109.677 363.707 108.715 363.707 108.715C363.707 108.715 361.054 106.522 360.503 102.694C360.499 102.694 354.733 98.5889 353.036 101.57Z" fill="#A9453D"/>
<path d="M353.592 102.078C353.592 102.078 351.909 103.476 351.498 104.833C351.088 106.19 350.904 108.988 350.12 108.892C350.12 108.892 348.423 104.635 350.331 102.233C352.354 99.6822 353.592 102.078 353.592 102.078Z" fill="#A9453D"/>
<path d="M339.778 152.429L335.891 164.76L338.108 165.685L344.535 154.791L339.778 152.429Z" fill="#FFB27D"/>
<path d="M350.254 120.373C350.254 120.373 345.672 122.265 344.344 125.216C343.017 128.167 341.009 147.956 340.209 149.987C339.408 152.019 338.808 153.629 338.808 153.629C338.808 153.629 341.119 155.654 343.443 155.804C345.767 155.954 350.254 120.373 350.254 120.373Z" fill="#F99746"/>
<path d="M354.039 118.681C354.039 118.681 349.278 130.92 349.129 133.397C348.98 135.875 348.569 173.901 348.569 173.901C348.569 173.901 348.849 175.649 345.623 174.922C342.397 174.195 341.562 173.465 341.562 173.465C341.562 173.465 344.656 149.998 343.816 141.838C342.977 133.678 350.253 120.373 350.253 120.373L354.039 118.681Z" fill="#F99746"/>
<path d="M332.414 231.621L335.196 231.71C335.442 231.718 335.686 231.667 335.911 231.562C336.135 231.456 336.333 231.299 336.489 231.102C338.365 228.738 344.905 219.894 348.833 206.892C348.941 206.538 349.054 206.177 349.175 205.813C351.704 198.14 356.948 188.511 359.71 179.793C360.147 178.405 360.543 177.094 360.899 175.861C361.013 175.465 361.123 175.077 361.226 174.693L358.288 172.373C358.288 172.373 349.466 187.234 346.736 201.219C344.362 213.368 334.869 227.986 332.414 231.621Z" fill="#1E3D70"/>
<path d="M357.986 202.522C357.939 208.956 358.232 223.295 358.985 230.307C359.018 230.617 359.159 230.903 359.383 231.111C359.607 231.319 359.896 231.433 360.196 231.432H362.277C363.155 231.432 363.811 231.432 364.241 231.419C364.425 231.416 364.602 231.348 364.743 231.226C364.884 231.103 364.979 230.934 365.014 230.746C367.084 219.787 368.566 210.681 369.651 202.821C370.559 196.235 371.364 190.589 371.985 185.729C372.61 180.837 373.043 176.742 373.199 173.282C373.223 172.737 373.241 172.206 373.251 171.692C373.261 171.177 373.264 170.67 373.259 170.185L356.021 168.436C356.243 180.345 358.014 198.569 357.986 202.522Z" fill="#2A4E96"/>
<path d="M362.277 231.431C363.065 231.431 363.675 231.431 364.107 231.421C364.33 231.417 364.544 231.334 364.715 231.185C364.886 231.036 365.002 230.831 365.045 230.604C367.102 219.706 368.575 210.646 369.655 202.813C370.564 196.227 371.369 190.581 371.989 185.721C372.615 180.829 373.048 176.734 373.204 173.274L366.878 177.144C366.878 177.144 370.916 178.627 369.376 189.845C367.835 201.063 364.421 229.844 362.277 231.431Z" fill="#1E3D70"/>
<path d="M361.462 173.17C361.462 173.17 362.676 177.735 366.877 177.153C371.079 176.57 377.052 173.946 377.052 173.946C377.052 173.946 375.252 168.045 373.024 160.29C370.322 150.903 366.969 138.802 365.399 131.173C364.957 129.035 364.655 127.257 364.543 125.97L361.056 118.924C361.056 118.924 355.859 131.059 355.578 134.119C355.296 137.179 361.462 173.17 361.462 173.17Z" fill="#F99746"/>
<path d="M365.657 133.666L361.056 118.924C361.068 118.924 366.866 120.719 369.781 122.251C369.781 122.251 371.605 124.696 372.727 130.337C372.727 130.337 373.92 143.879 371.254 148.834C371.254 148.834 362.852 150.581 349.408 145.769V142.568C349.408 142.568 364.112 143.37 367.123 143.735L365.657 133.666Z" fill="#FFB27D"/>
<path d="M361.648 140.527C361.836 145.482 362.958 155.098 372.941 160.245L373.02 160.284C370.318 150.897 366.964 138.796 365.395 131.167C363.565 134.016 361.547 137.801 361.648 140.527Z" fill="#ED7D2B"/>
<path d="M361.056 118.924C361.056 118.924 369.583 119.549 371.637 124.308C373.691 129.067 374.344 144.899 371.73 149.561C371.73 149.561 368.13 150.629 361.766 149.391L361.531 149.343C361.531 149.343 359.5 144.172 361.321 143.152C361.321 143.152 366.689 143.443 366.128 141.598C365.567 139.752 361.056 118.924 361.056 118.924Z" fill="#F99746"/>
<path d="M339.677 144.548L339.927 145.389L353.921 140.859C353.975 140.789 354.012 140.705 354.029 140.616C354.045 140.527 354.041 140.435 354.016 140.349C353.999 140.263 353.956 140.186 353.894 140.127C353.832 140.069 353.754 140.032 353.67 140.023L339.677 144.548Z" fill="#A9453D"/>
<path d="M338.665 145.343L339.677 144.547L339.927 145.389L338.665 145.343Z" fill="#A9453D"/>
<path d="M336.443 164.424C336.443 164.424 332.894 166.468 332.426 168.019C331.958 169.57 332.28 172.831 332.843 172.786C333.406 172.742 334.248 169.287 334.716 169.04C335.184 168.794 335.835 168.068 335.835 168.603C335.835 169.138 335.369 170.11 335.603 170.255C335.837 170.399 336.585 168.892 337.097 168.603C337.609 168.313 337.827 165.909 338.326 165.264C338.825 164.618 336.443 164.424 336.443 164.424Z" fill="#FFB27D"/>
<path d="M349.42 142.568C349.42 142.568 346.245 140.534 344.913 140.848C343.58 141.161 340.188 143.717 341.819 144.27C343.451 144.824 344.775 144.243 345.402 144.647C346.029 145.05 346.494 145.784 349.42 145.774C352.346 145.764 349.42 142.568 349.42 142.568Z" fill="#FFB27D"/>
<path d="M99.763 120.713C99.2311 119.646 111.373 115.801 111.565 126.333C111.565 126.333 134.315 125.75 123.45 112.561C119.686 107.996 120.077 104.217 120.19 100.705C120.303 97.1918 117.848 86.9821 109.429 88.0106C109.429 88.0106 107.225 87.0775 104.473 88.5623C98.2082 91.9473 84.1984 124.601 99.763 120.713Z" fill="#163560"/>
<path d="M136.95 132.498C136.95 132.498 138.423 130.151 139.624 130.114C140.825 130.077 143.027 129.424 142.85 129.884C142.673 130.344 141.303 130.395 141.171 130.666C141.038 130.936 143.203 131.357 143.822 131.401C144.441 131.446 145.899 131.401 145.855 131.725C145.811 132.048 143.226 133.38 141.403 133.196C139.58 133.012 137.324 133.739 137.324 133.739L136.95 132.498Z" fill="#FFB27D"/>
<path d="M115.537 133.256C116.185 134.514 116.943 135.707 117.802 136.819C119.562 139.111 122.274 141.757 125.679 142.282C127.306 142.532 128.897 142.168 130.36 141.492C134.498 139.581 137.607 135.192 137.607 135.192C138.337 133.123 137.144 131.72 137.144 131.72C137.144 131.72 128.797 133.674 127.995 133.261C127.193 132.847 122.558 118.939 121.449 117.19C120.339 115.441 116.576 114.536 116.576 114.536L115.537 133.256Z" fill="#B0D0FF"/>
<path d="M117.803 136.819C119.562 139.111 122.274 141.757 125.68 142.281C127.307 142.532 128.898 142.167 130.361 141.491C130.197 141.513 126.068 142.045 124.421 138.98C122.74 135.853 120.924 130.886 118.429 132.542C117.357 133.257 117.4 135.028 117.803 136.819Z" fill="#98BAF4"/>
<path d="M84.3734 227.061C84.3734 227.061 81.8252 229.481 82.3227 231.2C82.8203 232.92 85.1198 234.066 85.4324 236.167C85.745 238.268 86.9872 239.414 88.105 239.414H93.4405C93.4405 239.414 94.2589 237.936 92.2752 237.49C90.2916 237.044 89.5355 234.575 89.6566 232.283C89.7777 229.991 89.47 226.933 89.47 226.933L85.2425 225.912L84.3734 227.061Z" fill="#233862"/>
<path d="M105.947 228.087C105.947 228.087 105.03 238.34 106.149 238.912L120.469 238.883C120.469 238.883 120.469 237.163 118.177 236.78C115.886 236.397 111.837 234.997 111.153 231.878C110.469 228.758 105.947 228.087 105.947 228.087Z" fill="#233862"/>
<path d="M95.7418 154.541C98.6878 147.665 100.488 145.687 100.148 143.557C99.8907 141.968 100.928 113.943 100.928 113.943C101.277 113.83 101.979 113.73 102.362 113.641C102.956 113.507 103.507 113.219 103.965 112.804C104.423 112.389 104.772 111.859 104.981 111.266C105.482 109.803 105.881 107.646 105.871 104.942L106.249 105.019L112.611 106.326C112.611 106.326 112.467 108.405 112.462 110.363V110.411C112.456 111.237 112.71 112.043 113.184 112.705C113.658 113.368 114.327 113.852 115.089 114.084L116.588 114.53C116.588 114.53 118.919 121.453 119.37 128.564C119.822 135.675 115.131 138.767 119.406 152.978C123.761 167.492 94.1166 158.34 95.7418 154.541Z" fill="#FFB27D"/>
<path d="M112.611 106.327C112.611 106.327 112.467 108.406 112.462 110.364C108.911 110.258 107.033 106.889 106.264 105.019L112.611 106.327Z" fill="#E8945B"/>
<path d="M113.789 108.18C113.789 108.18 105.385 108.325 105.38 102.878C105.375 97.4311 104.285 93.7838 109.65 93.462C115.015 93.1401 116.061 95.2158 116.488 97.0377C116.915 98.8597 115.974 108.003 113.789 108.18Z" fill="#FFB27D"/>
<path d="M113.478 93.3274C113.478 93.3274 111.177 99.7178 107.647 100.661C104.117 101.604 102.583 100.622 102.583 100.622C102.583 100.622 105.292 98.3846 105.856 94.4768C105.855 94.4768 111.742 90.2863 113.478 93.3274Z" fill="#163560"/>
<path d="M112.907 93.8462C112.907 93.8462 114.614 94.5103 115.316 95.8044C116.165 97.3155 116.56 99.0556 116.452 100.802C116.452 100.802 118.185 96.4599 116.238 94.0029C114.172 91.3994 112.907 93.8462 112.907 93.8462Z" fill="#163560"/>
<path d="M111.956 104.802C112.172 105.056 112.441 105.255 112.743 105.383C113.045 105.511 113.371 105.564 113.696 105.539C113.968 105.523 114.231 105.432 114.458 105.275C114.686 105.119 114.869 104.903 114.99 104.649C114.99 104.649 113.278 104.22 111.956 104.802Z" fill="#EBF3FA"/>
<path d="M94.9349 126.343C94.8062 128.637 94.8062 130.936 94.9349 133.229C95.0757 135.72 97.4963 139.054 97.84 139.88C98.7025 141.949 99.6731 142.285 99.6731 142.285L107.202 144.202L109.845 144.883L118.176 142.281C118.176 142.281 121.973 131.254 120.447 125.048C118.922 118.841 116.593 114.53 116.593 114.53C116.593 114.53 109.791 121.46 100.932 113.942L94.9349 126.343Z" fill="#B0D0FF"/>
<path d="M97.1313 134.242C97.2737 136.732 97.493 139.051 97.8367 139.877C98.6993 141.946 99.6698 142.281 99.6698 142.281L107.198 144.198L110.472 143.201C110.472 143.201 99.57 141.481 100.778 131.724L97.1313 134.242Z" fill="#F2CCAA"/>
<path d="M117.64 143.956C117.64 143.956 121.776 157.334 122.033 161.879C122.29 166.423 114.141 226.542 113.814 228.64C113.505 230.617 111.144 231.875 111.144 231.875C111.144 231.875 110.059 232.541 108.509 232.084C106.361 231.454 105.681 230.698 105.681 230.698C105.681 230.698 102.464 187.83 104.457 172.514C105.668 163.044 106.339 153.508 106.469 143.956H117.64Z" fill="#ED7D2B"/>
<path d="M100.148 143.556C100.148 143.556 93.8497 152.347 93.2622 158.29C92.6746 164.233 92.3423 185.108 91.0903 190.901C89.8383 196.694 85.2441 207.843 85.2441 225.914C85.2441 225.914 85.722 226.95 87.1967 227.501C87.7596 227.699 88.3328 227.864 88.9135 227.995C89.5047 228.135 90.1241 228.064 90.6718 227.794C91.2196 227.523 91.6639 227.069 91.9332 226.504C95.0428 219.996 104.938 199.004 105.445 194.647C105.804 191.563 108.93 171.149 115.747 159.181C117.383 156.305 114.742 144.877 114.742 144.877L100.148 143.556Z" fill="#F99746"/>
<path d="M112.148 104.947C112.148 104.947 112.294 105.589 113.827 105.49C113.827 105.49 115.115 105.408 115.076 104.702C115.076 104.702 113.827 104.208 112.148 104.947Z" fill="white"/>
<path d="M118.3 141.891C118.3 141.891 116.642 143.253 113.349 143.325C109.421 143.407 99.6716 142.281 99.6716 142.281C99.403 143.116 99.2627 143.989 99.2559 144.869C99.2559 144.869 111.158 147.992 118.055 145.326C118.055 145.326 118.943 143.584 118.3 141.891Z" fill="#233862"/>
<path d="M112.498 144.733C112.498 143.567 113.303 142.62 114.298 142.62C115.293 142.62 116.099 143.567 116.099 144.733C116.099 145.9 115.293 146.846 114.298 146.846C113.303 146.846 112.498 145.903 112.498 144.733ZM113.094 144.733C113.094 145.557 113.632 146.227 114.293 146.227C114.955 146.227 115.493 145.557 115.493 144.733C115.493 143.909 114.955 143.238 114.293 143.238C113.632 143.238 113.102 143.914 113.102 144.733H113.094Z" fill="white"/>
<path d="M87.7175 144.478L99.8452 155.582L114.454 138.311L102.326 127.207L87.7175 144.478Z" fill="#B5453C"/>
<path d="M102.421 144.35C102.421 144.35 106.883 144.903 106.883 145.998C106.883 147.093 105.768 149.368 105.217 149.469C104.665 149.569 101.582 146.404 101.582 146.404L102.421 144.35Z" fill="#FFB27D"/>
<path d="M100.927 113.942C100.927 113.942 94.9629 114.377 92.6765 120.161C90.3901 125.945 86.0513 135.656 86.0513 137.287C86.0513 138.918 88.4735 143.955 101.49 146.851C101.49 146.851 102.835 145.377 102.753 144.212C102.753 144.212 94.629 136.952 94.6519 136.104C94.6928 134.498 95.9825 132.38 103.117 124.956C105.056 122.938 100.927 113.942 100.927 113.942Z" fill="#B0D0FF"/>
<path d="M166.833 239.099H166.784C166.705 239.099 166.627 239.083 166.554 239.051C166.481 239.019 166.415 238.972 166.36 238.913C166.305 238.854 166.262 238.784 166.233 238.708C166.204 238.632 166.19 238.55 166.192 238.468L167.092 197.873L169.743 197.551L167.481 238.469C167.472 238.641 167.399 238.802 167.279 238.92C167.158 239.037 166.998 239.101 166.833 239.099Z" fill="#B0D4FF"/>
<path d="M151.38 239.099H151.323C151.244 239.099 151.166 239.083 151.093 239.051C151.02 239.019 150.955 238.972 150.899 238.913C150.844 238.854 150.801 238.784 150.772 238.708C150.743 238.632 150.729 238.55 150.731 238.468L151.631 197.873L154.282 197.551L152.02 238.469C152.011 238.64 151.94 238.8 151.821 238.917C151.702 239.034 151.544 239.099 151.38 239.099Z" fill="#95C0F4"/>
<path d="M194.022 239.099H194.079C194.158 239.099 194.237 239.083 194.309 239.051C194.382 239.019 194.448 238.972 194.504 238.913C194.559 238.854 194.602 238.785 194.631 238.708C194.661 238.632 194.675 238.55 194.673 238.468L193.772 197.873L191.12 197.551L193.382 238.469C193.391 238.64 193.463 238.8 193.582 238.917C193.701 239.034 193.858 239.099 194.022 239.099Z" fill="#B0D4FF"/>
<path d="M149.622 195.356V167.538C149.624 165.189 150.523 162.937 152.12 161.276C153.717 159.616 155.883 158.684 158.141 158.684H177.404C179.662 158.684 181.826 159.616 183.422 161.277C185.018 162.937 185.915 165.19 185.915 167.538V196.418L149.622 195.356Z" fill="#B0D4FF"/>
<path d="M149.622 195.356H189.37V199.747H152.18C151.502 199.747 150.851 199.467 150.371 198.968C149.892 198.469 149.622 197.792 149.622 197.086V195.356Z" fill="#95C0F4"/>
<path d="M193.832 195.356H165.695C164.65 195.356 163.803 196.237 163.803 197.324V197.779C163.803 198.866 164.65 199.747 165.695 199.747H193.832C194.877 199.747 195.724 198.866 195.724 197.779V197.324C195.724 196.237 194.877 195.356 193.832 195.356Z" fill="#B0D4FF"/>
<path d="M192.74 188.424C189.981 193.422 186.51 195.349 186.51 195.349H172.069C172.069 195.349 194.845 184.612 192.74 188.424Z" fill="#233862"/>
<path d="M181.65 227.087C181.477 227.285 181.362 227.53 181.32 227.794C181.278 228.057 181.309 228.328 181.411 228.574C181.756 229.563 182.894 230.67 184.216 231.773C184.38 231.916 184.544 232.044 184.666 232.165C184.701 232.195 184.735 232.226 184.766 232.258C184.797 232.291 184.819 232.308 184.845 232.332C186.077 233.513 185.612 233.784 187.827 236.183C190.352 238.916 192.09 238.965 192.585 238.715C193.004 238.504 192.154 237.053 191.211 235.425C191.166 235.347 191.121 235.267 191.074 235.187L190.699 234.533C189.596 232.572 189.881 231.652 190.141 228.734C190.354 226.363 193.688 215.486 193.688 215.486L188.848 214.62C188.848 214.62 187.391 223.28 185.786 224.615C184.928 225.325 183.966 225.333 183.141 225.861L182.977 225.974C182.489 226.281 182.042 226.656 181.65 227.087Z" fill="#FFB27D"/>
<path d="M181.65 227.087C181.477 227.284 181.362 227.53 181.32 227.793C181.278 228.057 181.309 228.328 181.411 228.573C181.833 229.563 182.943 230.663 184.22 231.763C184.383 231.907 184.534 232.04 184.666 232.164C184.701 232.195 184.735 232.226 184.766 232.258C184.797 232.29 184.819 232.307 184.845 232.331C186.077 233.513 185.612 233.784 187.827 236.183C190.352 238.916 192.09 238.965 192.585 238.715C193.004 238.504 192.154 237.053 191.211 235.425C189.445 234.707 187.893 233.516 186.711 231.974C185.19 229.956 184.177 227.363 183.141 225.861L182.977 225.973C182.489 226.281 182.042 226.655 181.65 227.087Z" fill="#233862"/>
<path d="M220.663 223.943C220.963 225.495 223.092 225.237 225.47 224.624C227.848 224.011 227.283 224.738 230.668 224.348C234.053 223.958 235.087 222.645 235.182 222.121C235.273 221.656 233.601 221.492 231.807 221.269C231.581 221.244 231.355 221.213 231.128 221.184C229.103 220.92 227.619 219.56 225.779 218.444C224.036 217.385 221.436 213.076 221.436 213.076L216.794 213.459C216.794 213.459 219.229 217.309 220.172 218.983C220.727 219.967 220.697 221.268 220.627 222.274C220.568 222.829 220.58 223.39 220.663 223.943Z" fill="#FFB27D"/>
<path d="M225.47 224.633C227.848 224.029 227.284 224.747 230.668 224.357C234.053 223.967 235.087 222.655 235.182 222.13C235.274 221.665 233.601 221.502 231.808 221.279L231.791 221.315C230.341 222.284 228.666 222.825 226.943 222.883C224.652 222.941 222.213 222.256 220.627 222.283C220.57 222.833 220.582 223.389 220.663 223.935C220.958 225.497 223.086 225.238 225.47 224.633Z" fill="#233862"/>
<path d="M202.873 193.061L198.536 205.21L192.87 221.072C191.858 221.151 190.841 221.054 189.86 220.786C188.505 220.379 186.948 219.312 186.948 219.312C186.948 219.312 188.521 202.284 191.457 192.502C192.208 189.992 193.051 187.963 193.981 186.82C198.536 181.226 202.873 193.061 202.873 193.061Z" fill="#233862"/>
<path d="M198.46 173.765C195.617 172.811 187.509 174.037 179.364 175.696L177.658 172.769L160.062 171.338C160.062 171.338 154.257 184.734 157.444 193.27C157.91 194.523 158.84 195.328 160.421 195.356H160.679H174.55C183.301 195.356 193.069 189.098 194.332 188.834C196.401 188.405 197.228 192.708 199.296 197.227C201.365 201.746 218.738 217.238 218.738 217.238C218.738 217.238 221.408 217.266 222.503 216.836C223.689 216.373 224.123 215.771 224.123 215.771C224.123 215.771 204.873 175.917 198.46 173.765Z" fill="#2B478B"/>
<path d="M176.966 119.468C174.712 118.237 171.282 118.07 170.725 117.993C164.058 117.06 160.045 127.14 159.809 130.194C159.373 135.823 156.511 136.681 152.483 140.207C144.405 147.275 146.773 155.489 151.19 158.542C153.842 160.373 158.513 158.542 158.513 158.542C158.578 158.59 171.288 151.149 177.554 147.56C186.946 146.172 182.709 122.606 176.966 119.468Z" fill="#233862"/>
<path d="M172.304 144.505C172.331 144.524 169.22 145.629 167.142 144.676C165.178 143.777 163.705 140.419 163.731 140.419C164.621 140.376 165.598 139.567 166.349 134.255L166.728 134.396L173.101 136.78C173.101 136.78 172.639 138.907 172.34 140.933C172.091 142.636 171.955 144.265 172.304 144.505Z" fill="#FFB27D"/>
<path d="M173.102 136.783C173.102 136.783 172.64 138.91 172.341 140.936C168.681 140.255 167.244 136.457 166.729 134.398L173.102 136.783Z" fill="#ED975D"/>
<path d="M174.051 138.895C174.051 138.895 165.332 137.677 166.144 132.041C166.956 126.405 166.378 122.449 171.979 122.989C177.58 123.529 178.349 125.846 178.526 127.798C178.702 129.749 176.339 139.066 174.051 138.895Z" fill="#FFB27D"/>
<path d="M178.2 124.707C178.2 124.707 172.619 129.711 168.823 130.115C165.028 130.519 163.586 129.25 163.586 129.25C165.101 127.84 166.321 126.12 167.17 124.198C167.363 123.746 167.669 123.356 168.056 123.068C168.443 122.78 168.896 122.605 169.37 122.562C172.085 122.318 177.223 122.206 178.2 124.707Z" fill="#233862"/>
<path d="M174.713 124.26C174.713 124.26 176.579 126.133 177.168 127.531C177.734 128.874 177.904 132.091 177.453 133.368C177.453 133.368 180.361 127.483 178.715 124.622C176.968 121.591 174.713 124.26 174.713 124.26Z" fill="#233862"/>
<path d="M179.643 157.867C179.38 176.228 179.571 172.391 177.642 174.133C177.175 174.552 175.867 174.803 174.147 174.922C168.735 175.295 159.223 174.367 158.861 173.326C157.612 169.727 158.494 168.608 157.453 163.096C157.344 162.51 157.209 161.877 157.052 161.186C156.183 157.4 155.339 156.112 158.419 150.029C161.213 144.521 164.115 140.05 164.376 140.211C171.741 144.763 172.34 140.937 172.34 140.937C172.34 140.937 179.772 148.912 179.643 157.867Z" fill="white"/>
<path d="M198.536 205.209L192.87 221.072C191.858 221.15 190.841 221.054 189.86 220.786C188.505 220.379 186.948 219.311 186.948 219.311C186.948 219.311 188.521 202.284 191.457 192.501L198.536 205.209Z" fill="#2B478B"/>
<path d="M172.349 140.936C172.349 140.936 179.933 142.273 180.823 145.67C181.714 149.067 186.954 169.038 186.954 169.038C186.954 169.038 183.1 169.758 181.318 167.906C179.535 166.053 175.121 150.708 175.121 150.708L172.349 140.936Z" fill="white"/>
<path d="M174.149 174.921C168.737 175.294 159.224 174.366 158.863 173.326C157.614 169.726 158.496 168.607 157.455 163.096L160.064 155.45C160.064 155.45 159.633 163.964 162.046 166.205C164.458 168.446 171.928 170.528 173.102 172.399C173.666 173.297 174.038 174.191 174.149 174.921Z" fill="#EBF3FF"/>
<path d="M167.948 171.339C167.948 171.339 173.285 170.103 174.148 170.597C175.01 171.091 177.114 172.884 177.379 173.509C177.644 174.134 175.461 173.035 174.75 172.838C174.29 172.708 173.081 173.146 172.483 173.349C169.963 174.222 168.42 173.773 168.42 173.773L167.948 171.339Z" fill="#FFB27D"/>
<path d="M164.372 140.207C164.372 140.207 157.203 140.665 154.715 144.266C151.236 149.33 144.298 170.938 148.27 173.819C152.743 177.065 168.625 174.671 168.625 174.671C168.625 174.671 169.154 172.101 168.419 170.858C167.684 169.615 155.733 167.606 155.182 167.032C154.63 166.458 162.076 155.842 162.076 154.122C162.076 152.402 164.372 140.207 164.372 140.207Z" fill="white"/>
<path d="M174.406 172.147C174.406 172.147 175.524 173.647 175.891 173.826C176.075 173.931 176.285 173.978 176.495 173.96L175.74 172.549L174.406 172.147Z" fill="#FFB27D"/>
<path d="M174.149 170.596L177.401 172.239C177.401 172.239 177.262 172.474 176.863 172.456C176.464 172.437 175.452 172.052 175.452 172.052L174.149 170.596Z" fill="#FFB27D"/>
<path d="M175.891 176.122H201.617L209.357 156.1H183.67L175.891 176.122Z" fill="#F99746"/>
<path d="M201.919 175.342H167.948V176.122H201.618L201.919 175.342Z" fill="#ED7D2B"/>
<path d="M195.123 166.11C195.318 165.405 194.927 164.835 194.249 164.835C193.571 164.835 192.868 165.405 192.673 166.11C192.478 166.815 192.871 167.384 193.547 167.384C193.903 167.363 194.244 167.231 194.526 167.003C194.808 166.775 195.016 166.464 195.123 166.11Z" fill="white"/>
<path d="M310.257 239.84H310.333C310.44 239.836 310.546 239.81 310.643 239.763C310.741 239.716 310.829 239.649 310.902 239.567C310.975 239.485 311.031 239.389 311.069 239.284C311.106 239.179 311.122 239.067 311.118 238.955L309.927 182.117L306.421 181.668L309.411 238.96C309.417 239.192 309.508 239.412 309.666 239.576C309.823 239.739 310.035 239.834 310.257 239.84Z" fill="#78ACEA"/>
<path d="M168.075 239.84H168C167.893 239.836 167.787 239.81 167.689 239.763C167.592 239.716 167.504 239.649 167.431 239.567C167.358 239.485 167.301 239.389 167.264 239.284C167.227 239.179 167.21 239.067 167.215 238.955L168.406 182.117L171.912 181.668L168.922 238.96C168.915 239.192 168.824 239.412 168.667 239.576C168.51 239.739 168.298 239.834 168.075 239.84Z" fill="#78ACEA"/>
<path d="M314.48 176.305H164.441C163.211 176.305 162.215 177.342 162.215 178.621V180.848C162.215 182.127 163.211 183.164 164.441 183.164H314.48C315.709 183.164 316.706 182.127 316.706 180.848V178.621C316.706 177.342 315.709 176.305 314.48 176.305Z" fill="#78ACEA"/>
<path d="M131.742 78.8922C131.174 64.298 142.932 57.814 154.955 57.814C166.978 57.814 180.059 61.0492 181.192 80.4605C181.922 92.945 175.524 100.633 157.105 100.633C150.886 100.633 146.064 99.6112 142.366 97.7944L133.158 106.308L137.683 94.5438C133.675 90.6582 131.986 85.1907 131.742 78.8922Z" fill="#DFEDFB"/>
<path d="M404.982 239.776C404.982 239.776 405.32 237.035 406.104 235.406C406.888 233.776 411.873 234.813 411.873 234.813C411.873 234.813 412.869 235.702 413.084 239.851L404.982 239.776Z" fill="#233862"/>
<path d="M387.998 239.747C389.168 239.003 388.502 233.447 388.502 233.447C388.502 233.447 383.043 228.904 382.292 232.381C381.541 235.858 377.107 237.421 374.582 237.849C372.841 238.141 372.3 239.146 372.127 239.74L387.998 239.747Z" fill="#233862"/>
<path d="M399.303 199.38C399.111 200.392 398.978 201.416 398.902 202.445C398.395 212.743 390.57 236.287 389.171 236.84C387.005 237.692 383.596 235.883 381.806 235.291C381.066 235.046 380.567 234.269 380.732 233.482C384.606 214.951 386.03 188.266 386.549 172.466C386.81 164.508 388.123 159.015 388.123 159.015C388.123 159.015 407.207 153.717 407.319 160.418C407.426 166.343 401.005 189.598 399.303 199.38Z" fill="#213F7A"/>
<path d="M399.304 199.379L386.556 172.463C386.818 164.505 388.13 159.012 388.13 159.012C388.13 159.012 407.214 153.715 407.327 160.415C407.426 166.342 401.006 189.596 399.304 199.379Z" fill="#233862"/>
<path d="M395.058 160.436L405.144 236.511C405.144 236.511 409.575 237.621 413.02 236.732C413.02 236.732 415.974 196.277 415.729 186.501C415.483 176.726 417.848 160.33 415.189 158.522C412.529 156.714 395.058 160.436 395.058 160.436Z" fill="#213F7A"/>
<path d="M417.154 159.168C417.178 159.502 417.09 159.833 416.906 160.107C416.722 160.381 416.453 160.58 416.144 160.672C414.737 161.098 413.115 161.394 409.986 162.068C406.117 162.88 402.181 163.292 398.234 163.296C390.506 163.347 387.581 160.572 387.581 160.572C387.254 160.572 387.757 158.894 388.215 150.895C388.37 148.184 388.519 144.75 388.627 140.409C388.725 136.502 388.791 131.862 388.791 126.355C388.799 119.733 398.653 112.607 398.835 112.607C398.835 113.56 400.28 115.319 402.505 115.473C405.146 115.643 408.385 114.281 408.385 112.702C408.385 112.685 413.159 120.647 414.855 129.13C415.721 133.409 415.374 133.294 417.154 159.168Z" fill="#B0D0FF"/>
<path d="M398.842 112.613C398.842 112.613 389.677 112.533 387.474 115.749C385.271 118.966 380.436 136.276 382.957 142.036C385.477 147.797 390.201 139.653 392.821 136.126C395.441 132.6 398.842 112.613 398.842 112.613Z" fill="#B0D0FF"/>
<path d="M398.748 111.158V112.144C398.748 112.144 398.49 115.225 402.138 115.676C405.786 116.127 408.493 115.1 408.393 112.721C408.066 110.881 407.76 108.989 407.738 107.467C407.731 106.849 407.775 106.231 407.869 105.621L400.801 105.475L398.719 105.827L398.748 111.158Z" fill="#FFB27D"/>
<path d="M398.721 105.827L398.749 111.158C399.546 111.546 400.415 111.745 401.295 111.742C404.544 111.742 406.644 109.265 407.74 107.467C407.733 106.849 407.777 106.231 407.871 105.621L400.803 105.475L398.721 105.827Z" fill="#E2915A"/>
<path d="M408.413 104.438C407.595 109.035 401.897 108.878 399.436 108.589C398.744 108.509 398.308 108.419 398.308 108.419C397.528 108.202 397.091 106.922 396.889 105.246C396.487 101.929 396.994 97.0596 397.532 95.8132C398.351 93.9402 399.871 91.9122 405.606 93.3748C411.341 94.8375 409.464 98.5546 408.413 104.438Z" fill="#FFB27D"/>
<path d="M389.472 125.512C389.472 125.512 385.928 133.655 386.035 136.095C387.195 136.077 388.353 136.232 389.472 136.554C392.242 137.411 389.472 125.512 389.472 125.512Z" fill="#98BAF4"/>
<path d="M395.773 91.4373C397.672 91.2128 399.527 90.691 401.275 89.8895C403.691 88.7964 406.74 90.0002 407.73 90.5417C407.695 90.3194 407.612 90.1082 407.488 89.9236C407.488 89.9236 407.933 90.2505 407.999 90.7086C408.045 90.7443 408.064 90.7682 408.053 90.7767C408.041 90.7852 408.557 90.6813 408.881 90.8329C408.881 90.8329 408.654 90.7988 408.573 90.9504C408.564 90.9659 408.551 90.9797 408.537 90.9912C412.302 92.8864 412.655 99.0844 411.441 100.527C409.983 102.253 407.778 106.158 407.778 106.158C407.778 106.158 407.593 105.221 407.86 103.702C408.127 102.183 406.865 102.183 405.272 101.489C403.68 100.794 405.007 98.8664 403.613 97.6932C402.218 96.52 397.112 97.2096 397.177 96.3123C395.282 95.5937 395.773 91.6434 395.773 91.4373Z" fill="#233862"/>
<path d="M409.567 140.764C408.071 147.015 391.891 150.245 388.215 150.901C388.37 148.19 388.519 144.755 388.627 140.415L409.567 140.764Z" fill="#98BAF4"/>
<path d="M406.016 142.795C406.179 142.795 409.616 142.26 410.23 141.943C410.844 141.627 413.667 137.453 411.819 136.384C409.971 135.315 405.016 139.592 405.016 139.592L406.016 142.795Z" fill="#FFB27D"/>
<path d="M385.078 144.035C385.078 144.035 398.392 144.786 407.326 142.795C407.326 142.795 407.552 140.11 404.745 138.918C404.745 138.918 390.819 135.853 387.474 136.705C384.128 137.556 385.078 144.035 385.078 144.035Z" fill="#B0D0FF"/>
<path d="M415.654 133.165C412.891 136.631 409.271 139.465 405.297 140.124C404.512 138.726 404.169 137.108 404.315 135.497C404.455 133.979 404.953 132.521 405.765 131.251C406.077 130.731 406.339 130.182 406.547 129.609C408.723 123.837 408.399 112.713 408.399 112.713C408.399 112.713 417.633 113.719 420.51 117.991C422.268 120.612 420.02 127.685 415.654 133.165Z" fill="#B0D0FF"/>
<path d="M399.436 108.589C398.744 108.509 398.309 108.418 398.309 108.418C397.528 108.202 397.091 106.922 396.89 105.246C398.353 105.621 399.017 106.797 399.304 107.3C399.43 107.523 399.456 108.028 399.436 108.589Z" fill="#E2915A"/>
<path d="M395.715 111.189C395.715 111.189 392.527 105.713 395.007 105.477C397.486 105.24 398.483 106.983 398.841 107.625C399.2 108.267 398.748 111.16 398.748 111.16L395.715 111.189Z" fill="#FFB27D"/>
<path d="M407.865 135.312C407.769 135.969 407.586 136.609 407.321 137.214C406.837 138.315 406.146 139.304 405.29 140.124C397.009 136.235 395.333 122.879 395.051 115.542C394.938 112.591 395.051 110.614 395.051 110.614C398.788 109.327 399.838 111.562 399.838 111.562C399.838 111.562 404.257 122.477 406.537 129.611C407.418 132.337 407.982 134.517 407.865 135.312Z" fill="#B0D0FF"/>
<path d="M415.653 133.165C412.891 136.632 409.27 139.465 405.297 140.124C397.015 136.235 395.339 122.879 395.058 115.542C395.058 115.542 398.986 130.33 404.311 135.498C405.275 136.434 406.287 137.054 407.329 137.216C407.329 137.216 414.054 135.237 415.467 133.374C415.516 133.293 415.58 133.222 415.653 133.165Z" fill="#98BAF4"/>
<path d="M264.8 176.304H239.074L231.334 156.283H257.021L264.8 176.304Z" fill="#2B478B"/>
<path d="M238.773 175.524H272.744V176.304H239.075L238.773 175.524Z" fill="#2B478B"/>
<path d="M245.569 166.294C245.374 165.591 245.765 165.021 246.443 165.021C246.798 165.041 247.14 165.174 247.421 165.402C247.703 165.629 247.911 165.941 248.019 166.294C248.212 166.999 247.821 167.57 247.145 167.57C246.788 167.549 246.447 167.416 246.165 167.188C245.883 166.96 245.675 166.648 245.569 166.294Z" fill="white"/>
<path d="M473.495 239.333V239.503C473.486 239.643 473.425 239.773 473.325 239.866C473.225 239.959 473.093 240.007 472.959 240.001H1.0347C0.90068 240.007 0.769539 239.959 0.669464 239.866C0.569388 239.773 0.508366 239.643 0.499512 239.503L0.499512 239.333C0.508364 239.194 0.569443 239.064 0.669568 238.971C0.769694 238.879 0.900838 238.831 1.0347 238.838H472.964C473.097 238.832 473.227 238.881 473.326 238.973C473.425 239.066 473.486 239.195 473.495 239.333Z" fill="#2E3552"/>
</g>
<defs>
<clipPath id="clip0_1197_34704">
<rect width="473" height="240" fill="white" transform="translate(0.5)"/>
</clipPath>
</defs>
</svg>
