<svg width="299" height="153" viewBox="0 0 299 153" fill="none" xmlns="http://www.w3.org/2000/svg">
<g clip-path="url(#clip0_394_2950)">
<path d="M34.4929 151.978C34.4929 151.978 13.3535 119.589 26.0372 88.7668C38.7208 57.945 62.8199 65.2586 96.643 33.9143C137.704 -4.13761 166.537 -6.2287 203.186 10.4062C223.903 19.8094 227.285 58.4674 260.263 82.4979C289.991 104.161 265.759 141.007 250.116 146.754C234.472 152.5 223.903 152.5 223.903 152.5L34.4929 151.978Z" fill="#E9F2FD"/>
<path d="M171.256 86.792C165.15 99.1868 157.495 133.057 155.407 134.913C153.319 136.769 141.255 143.961 139.167 147.44C137.08 150.92 138.008 149.76 138.936 149.992C139.863 150.224 192.293 150.456 192.293 150.456C192.293 150.456 186.261 114.498 185.565 114.266C184.869 114.034 171.256 86.792 171.256 86.792Z" fill="#B4DDF0"/>
<path d="M162.574 150.288C172.204 150.356 182.365 150.409 187.958 150.436L180.3 104.635C176.215 96.7155 171.256 86.792 171.256 86.792C170.486 88.3546 169.692 90.2587 168.887 92.3968C168.093 126.797 173.047 136.439 169.326 142.569C166.422 147.352 163.771 149.492 162.574 150.288Z" fill="#A6CDDD"/>
<path d="M203.409 71.8318C212.118 79.87 231.501 87.4927 231.501 87.4927C231.501 87.4927 234.446 114.703 232.437 130.109C230.427 145.516 231.543 148.642 231.543 148.642H191.575C191.575 148.642 186.211 141.198 176.392 118.052C170.14 103.315 171.256 86.792 171.256 86.792L195.595 75.8508L203.409 71.8318Z" fill="#B4DDF0"/>
<path d="M191.575 148.642H231.543C231.543 148.642 230.427 145.516 232.437 130.109C234.091 117.423 232.387 96.7344 231.733 89.8238L228.098 88.266C218.973 90.8953 213.714 104.506 212.168 117.807C211.133 126.707 196.388 135.468 186.743 140.292C189.912 146.332 191.575 148.642 191.575 148.642Z" fill="#A6CDDD"/>
<path d="M181.777 43.903C176.959 54.6335 182.742 64.5738 182.566 64.1547C182.391 63.7356 189.859 46.0376 189.859 46.0376L181.777 43.903Z" fill="#415B96"/>
<path d="M200.034 51.8378L206.144 74.1716C206.316 74.8019 206.17 75.4735 205.758 75.9807C204.324 77.746 202.284 81.3776 198.167 82.5425C197.367 82.769 196.381 82.8295 195.583 82.8325C194.744 82.8356 194.02 82.2447 193.861 81.4209L189.767 60.2379L200.034 51.8378Z" fill="#DA975D"/>
<path d="M198.867 53.7045L196.634 54.62L189.767 60.238L193.453 79.0185C199.703 75.1214 200.615 72.4913 198.867 53.7045Z" fill="#CC8346"/>
<path d="M199.81 61.7172C198.457 69.0641 192.959 74.0331 187.53 72.8155C182.101 71.5981 179.511 66.8428 180.148 57.3083C180.648 49.8282 184.337 41.6977 189.766 42.9153C195.196 44.1327 201.162 54.3701 199.81 61.7172Z" fill="#DA975D"/>
<path d="M231.501 87.4927C239.588 89.3187 241.09 105.743 243.72 123.066C244.022 125.06 245.576 141.935 245.576 141.935C245.576 141.935 245.73 145.029 242.637 146.575C239.994 147.897 238.925 148.895 223.613 149.05C208.907 149.199 189.947 148.586 189.947 148.586C189.947 148.586 189.779 143.114 191.288 140.44C193.556 136.419 216.808 130.645 218.973 130.335C219.282 126.005 216.838 110.336 220.21 99.7114C222.53 92.4034 225.024 88.5754 228.149 87.5748C229.191 87.2414 230.302 87.222 231.501 87.4927Z" fill="#B4DDF0"/>
<path d="M198.262 148.919C205.512 149.028 215.461 149.132 223.613 149.05C238.925 148.895 239.994 147.897 242.637 146.575C245.73 145.029 245.885 142.399 245.885 142.399C245.885 142.399 244.322 124.443 244.029 122.447C242.328 110.847 240.489 97.5735 236.211 91.1662C240.232 102.954 240.88 112.9 240.952 117.148C240.989 119.299 240.79 122.245 240.162 124.303C239.466 126.585 237.688 128.015 234.904 127.242C229.336 125.695 222.376 128.943 222.376 128.943C222.376 128.943 227.634 127.087 232.584 128.789C237.533 130.49 247.741 141.781 236.605 145.957C233.197 147.235 212.786 148.277 198.262 148.919Z" fill="#A6CDDD"/>
<path d="M192.525 140.956C192.525 140.956 194.587 137.45 198.815 137.45C203.042 137.45 202.733 144.359 202.114 146.627C201.496 148.895 199.021 148.999 199.021 148.999L189.947 148.586L192.525 140.956Z" fill="#A6CDDD"/>
<path d="M126.35 146.985H183.101C184.091 146.985 184.895 147.789 184.895 148.779C184.895 149.769 184.091 150.573 183.101 150.573H126.35C125.36 150.573 124.556 149.769 124.556 148.779C124.556 147.789 125.36 146.985 126.35 146.985Z" fill="#819FDA"/>
<path d="M191.391 141.368C182.523 138.172 180.197 139.375 178.192 138.791C173.243 137.347 172.006 138.584 168.809 147.349C168.173 149.095 170.047 149.205 171.903 149.205C173.759 149.205 176.027 145.596 176.749 145.183C177.471 144.771 179.43 144.565 179.43 144.565C179.43 144.565 178.811 144.565 177.883 146.421C176.955 148.277 175.821 148.999 177.264 148.999C178.708 148.999 178.914 146.627 181.595 147.143C184.276 147.658 183.245 148.999 189.947 148.895C196.649 148.792 201.707 148.895 201.599 144.874C201.495 141.059 201.918 139.151 198.299 138.481C195.515 137.966 191.391 141.368 191.391 141.368Z" fill="#DA975D"/>
<path d="M191.507 141.368C197.436 140.698 195.696 148.083 195.077 148.702C194.458 149.321 198.378 148.919 198.378 148.919C198.378 148.919 200.22 145.957 198.673 142.554C197.126 139.151 194.033 138.997 194.033 138.997L191.404 140.44L191.507 141.368Z" fill="#976B4B"/>
<path d="M197.697 140.726C197.621 141.641 196.065 142.258 194.223 142.104C192.381 141.95 190.95 141.083 191.026 140.168C191.103 139.253 192.658 138.635 194.5 138.789C196.342 138.943 197.774 139.81 197.697 140.726Z" fill="#415B96"/>
<path d="M197.226 140.27C197.157 141.088 195.768 141.64 194.122 141.502C192.476 141.365 191.197 140.59 191.265 139.772C191.334 138.955 192.724 138.403 194.369 138.541C196.015 138.678 197.294 139.453 197.226 140.27Z" fill="#4F6BA6"/>
<path d="M196.198 139.891C196.148 140.48 195.148 140.877 193.963 140.778C192.779 140.679 191.858 140.121 191.907 139.533C191.956 138.944 192.957 138.547 194.142 138.646C195.326 138.745 196.247 139.303 196.198 139.891Z" fill="#E5CCB3"/>
<path d="M124.033 139.991H66.4095C63.3784 139.991 60.7795 137.796 60.2319 134.773L52.7166 93.289C52.0079 89.3768 54.971 85.7706 58.8943 85.7706H116.517C119.549 85.7706 122.147 87.9656 122.695 90.9882L130.21 132.472C130.919 136.384 127.956 139.991 124.033 139.991Z" fill="#819FDA"/>
<path d="M126.725 132.628L119.055 92.0021C118.496 89.042 115.844 86.8924 112.75 86.8924H54.1907C52.9615 88.3198 52.3463 90.2733 52.7203 92.3091L60.4999 134.663C61.0665 137.75 63.7567 139.991 66.8944 139.991H120.42C124.424 139.991 127.448 136.459 126.725 132.628Z" fill="#B1CCFC"/>
<path d="M112.83 145.546H101.891C99.9403 145.546 98.3589 143.808 98.3589 141.665V121.665C98.3589 118.254 95.8417 115.488 92.7365 115.488H87.0222C83.9172 115.488 81.4 118.254 81.4 121.665V144.063C81.4 147.893 84.2378 150.991 87.7244 150.967L117.579 150.762C117.579 147.881 115.453 145.546 112.83 145.546Z" fill="#819FDA"/>
<path d="M81.8351 122.114V144.169C81.8351 147.759 84.6181 150.694 88.1392 150.948L117.275 150.766C117.272 150.288 114.975 149.419 112.138 149.419H100.305C98.1947 149.419 96.484 147.708 96.484 145.597V122.114C96.484 118.755 93.761 116.032 90.4021 116.032H87.917C84.5579 116.032 81.8351 118.755 81.8351 122.114Z" fill="#B1CCFC"/>
<path d="M142.821 142.256C147.224 139.81 152.605 140.625 154.562 143.071C156.519 145.518 156.845 147.148 152.442 147.148C148.039 147.148 139.233 147.475 137.765 147.312C136.298 147.148 142.821 142.256 142.821 142.256Z" fill="#DA975D"/>
<path d="M149.344 140.788C154.073 139.647 157.304 142.399 161.248 145.028C164.673 147.312 165.361 149.531 161.575 147.638C156.03 144.865 152.768 144.539 152.768 144.539L149.344 140.788Z" fill="#DA975D"/>
<path d="M145.036 142.241C142.648 142.241 140.563 141.479 138.877 141.62C137.191 141.76 131.853 147.24 132.696 147.661C132.756 147.691 132.822 147.719 132.892 147.745C134.16 148.211 135.59 147.694 136.305 146.548C137.06 145.336 138.289 143.925 139.72 144.43C142.109 145.273 144.615 145.191 144.615 145.191L145.036 142.241Z" fill="#DA975D"/>
<path d="M143.636 148.127C141.19 147.148 145.104 138.995 146.409 138.995C147.713 138.995 152.605 142.908 152.605 142.908C152.605 142.908 151.455 143.558 147.55 142.256C146.572 141.93 145.756 147.475 144.615 148.127C143.473 148.779 143.636 148.127 143.636 148.127Z" fill="#E3A672"/>
<path d="M180.144 61.6022C179.917 70.5811 182.976 72.0995 185.116 73.3187C187.256 74.5378 196.474 72.5238 197.827 70.3031C201.289 64.6219 198.375 59.3242 199.149 59.4043C199.924 59.4845 200.631 61.6961 202.651 64.5665C202.839 64.8338 204.15 66.6077 204.219 66.0177C205.156 57.9773 209.343 55.4806 208.346 47.3484C207.611 41.3532 203.805 41.8291 203.805 41.8291C203.805 41.8291 201.351 36.8126 193.708 37.3822C188.588 37.7639 184.023 39.7586 178.746 41.1171C173.467 42.4756 184.99 54.4392 191.836 50.0683C198.683 45.6975 195.302 55.3251 196.382 56.0718C197.462 56.8185 196.902 56.1709 197.397 61.0975C197.892 66.0241 191.636 69.2406 189.843 69.6623C184.11 71.0108 183.151 70.0651 181.895 67.9059C180.806 66.0325 180.144 61.6022 180.144 61.6022Z" fill="#415B96"/>
<path d="M203.877 58.822C203.219 61.0849 201.612 62.5469 200.287 62.0873C198.962 61.6277 198.922 59.7889 199.078 57.1578C199.219 54.7859 201.343 53.433 202.668 53.8925C203.993 54.3521 204.534 56.5591 203.877 58.822Z" fill="#DA975D"/>
<path d="M87.6037 45.8979H43.6165C41.7138 45.8979 40.1713 47.4403 40.1713 49.3431V65.4454C40.1713 67.3482 41.7138 68.8907 43.6165 68.8907H87.6037C89.5064 68.8907 91.0489 67.3482 91.0489 65.4454V49.3431C91.0489 47.4403 89.5064 45.8979 87.6037 45.8979Z" fill="#A9C6FC"/>
<path d="M44.345 51.9387H86.8749C88.4108 51.9387 89.6578 53.1857 89.6578 54.7216V65.0285C89.6578 66.5645 88.4108 67.8115 86.8749 67.8115H44.3454C42.8095 67.8115 41.5625 66.5645 41.5625 65.0285V54.7213C41.5625 53.1855 42.8093 51.9387 44.345 51.9387Z" fill="white"/>
<path d="M43.1659 47.59H43.3654C43.8603 47.59 44.262 47.9917 44.262 48.4865C44.262 48.9816 43.8601 49.3839 43.365 49.3839H43.1659C42.6708 49.3839 42.2689 48.982 42.2689 48.4869C42.2689 47.9919 42.6708 47.59 43.1659 47.59Z" fill="white"/>
<path d="M46.989 47.59H46.7897C46.2943 47.59 45.8927 47.9915 45.8927 48.4869V48.4869C45.8927 48.9823 46.2943 49.3839 46.7897 49.3839H46.989C47.4844 49.3839 47.886 48.9823 47.886 48.4869V48.4869C47.886 47.9915 47.4844 47.59 46.989 47.59Z" fill="white"/>
<path d="M50.4131 47.59H50.6131C51.1082 47.59 51.5101 47.9919 51.5101 48.4869C51.5101 48.982 51.1082 49.3839 50.6131 49.3839H50.4136C49.9185 49.3839 49.5166 48.982 49.5166 48.4869C49.5166 47.9921 49.9183 47.59 50.4131 47.59Z" fill="white"/>
<path d="M87.7006 55.4176H62.2604C61.8421 55.4176 61.4994 55.0751 61.4994 54.6567C61.4994 54.2381 61.8421 53.8956 62.2604 53.8956H87.7006C88.119 53.8956 88.4615 54.2381 88.4615 54.6567C88.4615 55.0751 88.119 55.4176 87.7006 55.4176Z" fill="#A9C6FC"/>
<path d="M68.5665 67.1592H43.1265C42.7079 67.1592 42.3655 66.8167 42.3655 66.3982C42.3655 65.9796 42.7079 65.6371 43.1265 65.6371H68.5665C68.9851 65.6371 69.3276 65.9796 69.3276 66.3982C69.3276 66.8167 68.9851 67.1592 68.5665 67.1592Z" fill="#A9C6FC"/>
<path d="M72.7521 65.6371H71.1212C70.7009 65.6371 70.3602 65.9779 70.3602 66.3982C70.3602 66.8185 70.7009 67.1592 71.1212 67.1592H72.7521C73.1724 67.1592 73.5131 66.8185 73.5131 66.3982C73.5131 65.9779 73.1724 65.6371 72.7521 65.6371Z" fill="#A9C6FC"/>
<path d="M76.72 65.6371H75.0894C74.6691 65.6371 74.3284 65.9779 74.3284 66.3982C74.3284 66.8185 74.6691 67.1592 75.0894 67.1592H76.72C77.1403 67.1592 77.481 66.8185 77.481 66.3982C77.481 65.9779 77.1403 65.6371 76.72 65.6371Z" fill="#A9C6FC"/>
<path d="M87.9451 58.7335H45.8169C45.533 58.7335 45.3005 58.5011 45.3005 58.2172C45.3005 57.9332 45.533 57.7008 45.8169 57.7008H87.9451C88.2292 57.7008 88.4615 57.9332 88.4615 58.2172C88.4615 58.5011 88.2292 58.7335 87.9451 58.7335Z" fill="#A9C6FC"/>
<path d="M87.9451 60.9623H45.8169C45.533 60.9623 45.3005 60.7299 45.3005 60.4459C45.3005 60.1618 45.533 59.9295 45.8169 59.9295H87.9451C88.2292 59.9295 88.4615 60.1618 88.4615 60.4459C88.4615 60.7299 88.2292 60.9623 87.9451 60.9623Z" fill="#A9C6FC"/>
<path d="M109.149 63.2647C109.149 66.9122 106.193 69.8691 102.545 69.8691C98.8977 69.8691 95.941 66.9122 95.941 63.2647C95.941 59.6173 98.8977 56.6605 102.545 56.6605C106.193 56.6605 109.149 59.6173 109.149 63.2647Z" fill="#ACD29A"/>
<path d="M101.889 65.7051C101.883 65.7051 101.877 65.705 101.871 65.7048C101.733 65.6997 101.603 65.6381 101.512 65.5344L99.7181 63.496C99.5348 63.2875 99.5551 62.9698 99.7635 62.7863C99.9718 62.6029 100.29 62.6233 100.473 62.8317L101.917 64.4721L105.37 61.0922C105.568 60.8978 105.887 60.9013 106.081 61.0997C106.275 61.2983 106.272 61.6165 106.073 61.8109L102.241 65.5617C102.147 65.6538 102.021 65.7051 101.889 65.7051Z" fill="white"/>
<path d="M114.504 13.6698H146.432C150.289 13.6698 153.421 16.8015 153.421 20.6589V25.5976C153.421 29.455 150.289 32.5867 146.432 32.5867H114.504C110.647 32.5867 107.515 29.4553 107.515 25.5984V20.6589C107.515 16.8015 110.647 13.6698 114.504 13.6698Z" fill="#A9C6FC"/>
<path d="M113.06 29.7328V40.1698L125.087 28.1428C125.087 28.1428 113.305 29.7328 113.06 29.7328Z" fill="#A9C6FC"/>
<path d="M115.814 15.5452H145.122C148.392 15.5452 151.047 18.2002 151.047 21.4705V24.7864C151.047 28.0564 148.392 30.7113 145.122 30.7113H115.816C112.545 30.7113 109.89 28.0559 109.89 24.7852V21.4702C109.89 18.2001 112.544 15.5452 115.814 15.5452Z" fill="white"/>
<path d="M132.303 19.296H113.712C113.264 19.296 112.897 18.929 112.897 18.4806C112.897 18.0321 113.264 17.6651 113.712 17.6651H132.303C132.751 17.6651 133.118 18.0321 133.118 18.4806C133.118 18.929 132.751 19.296 132.303 19.296Z" fill="#A9C6FC"/>
<path d="M147.826 21.4974H113.355C113.102 21.4974 112.897 21.7024 112.897 21.9553V21.9554C112.897 22.2084 113.102 22.4134 113.355 22.4134H147.826C148.079 22.4134 148.284 22.2084 148.284 21.9554V21.9553C148.284 21.7024 148.079 21.4974 147.826 21.4974Z" fill="#A9C6FC"/>
<path d="M147.826 23.2722H113.355C113.102 23.2722 112.897 23.4772 112.897 23.7302V23.7302C112.897 23.9831 113.102 24.1882 113.355 24.1882H147.826C148.079 24.1882 148.284 23.9831 148.284 23.7302C148.284 23.4772 148.079 23.2722 147.826 23.2722Z" fill="#A9C6FC"/>
<path d="M140.239 28.2651H140.039C139.544 28.2651 139.143 28.6666 139.143 29.1618V29.1622C139.143 29.6575 139.544 30.059 140.039 30.059H140.239C140.735 30.059 141.136 29.6575 141.136 29.1622V29.1618C141.136 28.6666 140.735 28.2651 140.239 28.2651Z" fill="#A9C6FC"/>
<path d="M143.664 28.2651H143.863C144.358 28.2651 144.76 28.6668 144.76 29.1616V29.1624C144.76 29.6572 144.358 30.059 143.863 30.059H143.664C143.169 30.059 142.767 29.6571 142.767 29.162C142.767 28.667 143.169 28.2651 143.664 28.2651Z" fill="#A9C6FC"/>
<path d="M147.487 28.2651H147.287C146.792 28.2651 146.391 28.6667 146.391 29.162V29.162C146.391 29.6574 146.792 30.059 147.287 30.059H147.487C147.982 30.059 148.384 29.6574 148.384 29.162V29.162C148.384 28.6667 147.982 28.2651 147.487 28.2651Z" fill="#A9C6FC"/>
<path d="M298.47 152.128L1.14324 152.025C0.915849 152.025 0.729875 151.839 0.729981 151.612L0.730086 151.254C0.73018 151.027 0.91626 150.841 1.14366 150.841L298.47 150.943C298.697 150.944 298.883 151.13 298.883 151.357L298.883 151.715C298.883 151.942 298.697 152.128 298.47 152.128Z" fill="#333854"/>
</g>
<defs>
<clipPath id="clip0_394_2950">
<rect width="298.153" height="152" fill="white" transform="translate(0.72998 0.5)"/>
</clipPath>
</defs>
</svg>
