<svg width="286" height="153" viewBox="0 0 286 153" fill="none" xmlns="http://www.w3.org/2000/svg">
<g clip-path="url(#clip0_394_2801)">
<path d="M42.5901 151.216C42.5901 151.216 -18.933 112.664 23.113 71.3359C65.1589 30.0082 121.426 -12.2446 159.144 4.1013C196.861 20.4472 193.469 41.1113 234.897 71.0274C276.324 100.944 266.74 124.692 259.321 136.72C251.901 148.748 250.664 151.832 250.664 151.832L42.5901 151.216Z" fill="#E9F2FD"/>
<path d="M285.429 152.5L0.39617 152.402C0.178184 152.402 -0.000100799 152.224 4.27573e-08 152.007L0.000100956 151.665C0.000191756 151.447 0.178577 151.269 0.396574 151.269L285.43 151.367C285.648 151.367 285.826 151.545 285.826 151.763L285.826 152.105C285.826 152.322 285.647 152.5 285.429 152.5Z" fill="#333854"/>
<path d="M89.5821 40.9703C98.6923 32.8759 105.383 37.7043 110.365 43.1003C114.336 47.4017 114.891 48.3552 118.172 52.8117C118.659 53.4732 119.033 54.2082 119.048 55.0287C119.141 59.9554 121.667 80.786 118.859 87.974C115.585 96.3522 75.205 100.186 75.205 100.186L89.5821 40.9703Z" fill="#373E5F"/>
<path d="M115.442 92.744C115.222 92.744 115.038 92.5718 115.027 92.3497C115.015 92.121 115.192 91.9259 115.421 91.9142C116.619 91.8537 117.595 91.3163 118.403 90.2715C122.93 84.4199 120.385 64.8829 118.167 54.2614C118.12 54.0368 118.264 53.8172 118.489 53.7704C118.713 53.723 118.934 53.8673 118.981 54.0919C119.466 56.4115 121.085 64.646 121.591 73.2224C122.111 82.0313 121.26 87.9382 119.062 90.7785C118.109 92.0097 116.899 92.6708 115.463 92.7434C115.456 92.7439 115.449 92.744 115.442 92.744Z" fill="#373E5F"/>
<path d="M92.9985 38.5562C75.4898 48.2126 86.1658 80.8738 63.9593 92.5182C57.8072 95.7441 38.9061 112.115 51.2904 133.7C59.3912 147.819 83.6037 144.776 91.575 132.28C99.5467 119.783 92.9985 38.5562 92.9985 38.5562Z" fill="#373E5F"/>
<path d="M46.4038 112.814C46.3854 112.814 46.3671 112.813 46.3483 112.81C46.1204 112.78 45.9603 112.571 45.9908 112.344C46.0062 112.229 46.3873 109.48 48.1335 105.836C49.7423 102.477 52.8663 97.7086 58.6115 94.0614C68.8865 87.5385 75.7072 81.3912 83.7709 51.0882C83.8297 50.8665 84.0582 50.7347 84.2798 50.7935C84.5018 50.8524 84.6342 51.0795 84.5752 51.3012C80.6786 65.9444 76.8149 75.8433 72.4162 82.4542C68.3315 88.5929 64.1287 91.543 59.0583 94.7618C48.3845 101.538 46.8301 112.345 46.8157 112.454C46.7878 112.662 46.6091 112.814 46.4038 112.814Z" fill="#373E5F"/>
<path d="M46.7865 104.356C46.7104 104.356 46.6334 104.335 46.5646 104.292C46.3703 104.169 46.3122 103.913 46.435 103.719C48.974 99.7099 52.2079 96.4212 56.0466 93.9445C70.4761 84.6356 72.8637 79.284 84.7813 48.6304C84.8645 48.4166 85.1059 48.3105 85.3198 48.3935C85.5341 48.4765 85.6402 48.7169 85.5572 48.9307C79.5988 64.2564 76.0378 73.2374 72.1428 79.6026C67.9595 86.4383 63.2388 90.2933 56.4985 94.6416C52.7616 97.0524 49.6126 100.256 47.1386 104.162C47.0594 104.287 46.9243 104.356 46.7865 104.356Z" fill="#373E5F"/>
<path d="M92.3939 58.9382C86.3656 71.4282 87.2929 82.7618 87.2929 82.7618C87.2929 82.7618 87.9884 87.1564 90.7709 88.0817C93.553 89.007 97.4947 86.2312 97.2629 82.5305C97.031 78.8298 98.1904 69.8092 99.5813 66.571C100.973 63.3326 92.3939 58.9382 92.3939 58.9382Z" fill="#DA975D"/>
<path d="M60.5431 145.723C60.9227 149.131 60.0686 148.847 63.1055 149.415C66.1422 149.983 71.5513 147.9 71.5513 147.9L65.4779 136.634L60.5431 145.723Z" fill="#748FC5"/>
<path d="M88.0201 76.0542C86.3123 81.5921 73.5014 77.3322 69.0177 78.6102C64.5339 79.888 60.6905 98.632 60.05 115.459C59.4096 132.285 60.2635 145.704 61.9716 147.834C63.6798 149.964 91.8636 150.816 94.4255 149.964C96.9877 149.112 73.0744 138.462 73.0744 138.462C73.0744 138.462 71.5796 118.867 73.5014 108.856C75.4231 98.845 92.7175 85.6391 92.7175 85.6391L88.0201 76.0542Z" fill="#DA975D"/>
<path d="M93.9985 77.7583C98.4822 84.574 110.225 83.7222 114.282 89.2601C118.339 94.798 126.879 125.257 126.879 125.257L135.847 94.3721C135.847 94.3721 143.119 93.1533 140.758 98.2059C136.557 107.192 134.991 136.185 130.436 140.303C125.371 144.882 120.329 141.155 117.485 133.138C114.733 125.382 107.877 108.643 102.966 102.253C98.0552 95.8628 92.7174 85.639 92.7174 85.639L93.9985 77.7583Z" fill="#DA975D"/>
<path d="M74.569 78.6102C83.5364 89.0471 101.044 88.621 104.888 87.343L108.731 86.065C108.731 86.065 111.72 85 114.282 87.9821C116.844 90.9638 123.036 109.708 124.104 113.968C125.171 118.227 126.879 125.257 126.879 125.257C126.879 125.257 122.299 130.741 122.299 136.28C122.299 141.818 124.244 141.865 124.244 141.865C124.244 141.865 118.552 140.592 117.271 137.184C115.99 133.776 104.461 102.892 104.461 102.892L72.6472 103.531L73.0744 138.462C73.0744 138.462 70.2988 135.906 66.4555 138.462C62.6122 141.018 61.3311 146.982 61.9716 147.834C62.6122 148.686 60.6905 148.686 60.6905 148.047C60.6905 147.408 57.0609 131.86 59.6231 106.3C62.1853 80.74 67.0959 77.9713 69.8718 77.7583C72.6472 77.5451 74.569 78.6102 74.569 78.6102Z" fill="#819FDA"/>
<path d="M122.941 141.424C123.001 141.444 123.036 141.444 123.036 141.444C123.036 141.444 123.001 141.438 122.941 141.424Z" fill="#748FC5"/>
<path d="M124.173 126.032C122.322 126.599 119.191 133.132 119.191 133.132C119.191 133.132 112.073 117.653 109.938 96.2104L107.397 110.757C110.905 120.151 116.409 134.891 117.271 137.185C118.443 140.302 123.169 141.603 123.817 141.747C123.64 141.687 123.248 141.451 122.924 140.515C122.737 140.345 121.668 139.847 121.468 139.664C119.76 138.102 120.472 134.41 121.611 130.292C122.749 126.173 126.024 125.463 124.173 126.032Z" fill="#748FC5"/>
<path d="M74.1785 103.5L70.6498 87.4058C66.8063 92.8023 66.3794 111.263 67.9452 123.901C69.2295 134.266 71.1504 136.956 72.4702 138.036C72.8603 138.266 73.0744 138.463 73.0744 138.463L72.6472 103.531L74.1785 103.5Z" fill="#748FC5"/>
<path d="M63.9594 87.264C70.5074 104.873 67.2335 108.423 75.85 129.09C80.6625 140.634 89.9418 149.325 89.9418 149.325C89.9418 149.325 97.4148 151.242 106.809 150.603C116.204 149.964 123.082 149.32 123.082 149.32C123.082 149.32 113.215 143.361 112.788 139.314C112.361 135.267 110.507 119.215 112.927 107.855C114.817 98.9835 107.023 90.112 107.023 90.112L93.9985 89.4731L63.9594 87.264Z" fill="#819FDA"/>
<path opacity="0.5" d="M75.4897 114.245C74.3508 110.127 80.3295 115.523 90.1514 116.517C99.9736 117.511 110.934 115.949 105.525 117.653C100.116 119.357 85.3117 116.801 88.0164 122.197C91.1993 128.548 94.9579 134.694 100.401 138.386C103.959 140.8 112.5 143.072 104.244 141.794C95.988 140.516 87.1621 130.86 83.3188 124.611C79.4754 118.363 75.7436 115.163 75.4897 114.245Z" fill="#748FC5"/>
<path d="M97.2389 80.9091C97.3254 76.6581 98.3647 69.403 99.5813 66.571C100.578 64.2509 96.4575 61.3376 94.0402 59.8718L91.9961 59.7844C91.6847 60.4616 91.3924 61.1348 91.1199 61.8024C88.9615 75.9392 95.4206 81.7807 98.5027 82.9564C99.8329 83.4639 101.324 83.5202 102.597 83.4052C100.695 82.7304 98.8406 81.9627 97.2389 80.9091Z" fill="#CC8346"/>
<path d="M93.3281 87.1945C92.5874 87.1945 91.8185 87.1057 91.0552 86.92C89.2738 86.4868 85.0236 84.8403 84.0352 78.9245C84.0138 78.7962 84.1007 78.6749 84.2291 78.6535C84.3569 78.6327 84.4791 78.7188 84.5005 78.8469C85.4427 84.4863 89.4765 86.0515 91.167 86.4629C93.7936 87.1016 96.5801 86.5103 97.6496 85.0874C98.5075 83.9464 97.9927 81.516 97.9875 81.4917C97.9598 81.3646 98.0407 81.2394 98.1678 81.2118C98.2942 81.1841 98.4207 81.2646 98.4485 81.3919C98.4722 81.5 99.0143 84.0566 98.0271 85.3698C97.1522 86.5332 95.3476 87.1945 93.3281 87.1945Z" fill="#E9CC64"/>
<path d="M113.42 64.4948C111.972 72.1244 108.627 78.2791 102.966 77.1193C97.3054 75.9592 91.3546 67.9002 92.9209 60.294C94.487 52.6876 100.346 47.462 106.007 48.6221C111.667 49.7822 115.35 54.3285 113.42 64.4948Z" fill="#DA975D"/>
<path d="M133.568 102.174C133.568 102.174 123.105 130.22 122.607 133.132C122.109 136.043 123.105 137.889 123.39 137.889C123.675 137.889 132.571 122.694 132.571 122.694L133.568 102.174Z" fill="#DA975D"/>
<path d="M133.995 100.944C134.849 98.1038 133.52 94.5062 133.52 94.5062L137.316 94.9796L133.995 100.944Z" fill="#DA975D"/>
<path d="M138.166 96.0993H127.574C126.931 96.0993 126.47 95.4814 126.653 94.8668L133.339 72.5022C133.461 72.096 133.836 71.8177 134.26 71.8177H144.852C145.495 71.8177 145.957 72.4354 145.773 73.0502L139.087 95.4146C138.965 95.821 138.591 96.0993 138.166 96.0993Z" fill="#5B80D6"/>
<path d="M139.495 96.0993H128.903C128.26 96.0993 127.798 95.4814 127.982 94.8668L134.668 72.5022C134.79 72.096 135.164 71.8177 135.589 71.8177H146.181C146.824 71.8177 147.285 72.4354 147.102 73.0502L140.415 95.4146C140.294 95.821 139.919 96.0993 139.495 96.0993Z" fill="#415B96"/>
<path d="M131.826 79.8888C130.697 83.9476 129.937 87.281 130.128 87.334C130.32 87.387 131.391 84.1397 132.52 80.0809C133.649 76.0223 134.409 72.6889 134.217 72.6359C134.026 72.5831 132.955 75.8302 131.826 79.8888Z" fill="#A4BCEA"/>
<path d="M139.025 102.743C139.338 99.0546 142.54 95.5975 143.758 94.4944C144.129 94.1591 144.338 93.6835 144.333 93.1846C144.316 91.3463 144.234 87.0063 143.853 86.4993C143.368 85.8539 142.155 77.5445 141.588 77.8673C141.022 78.1899 141.75 85.4504 141.75 85.4504C141.75 85.4504 140.376 84.8051 139.648 84.4825C138.92 84.1597 135.928 87.4674 135.928 87.4674C135.928 87.4674 134.525 91.0033 138.36 89.4889C142.915 87.6899 139.499 92.7075 136.462 95.9263C133.96 98.5783 136.089 99.165 136.089 99.165L138.111 99.0846L139.025 102.743Z" fill="#DA975D"/>
<path d="M137.878 105.644C137.542 105.644 137.162 105.593 136.78 105.473C135.795 105.167 134.074 104.179 133.619 101.001C133.601 100.872 133.69 100.753 133.819 100.734C133.949 100.717 134.068 100.805 134.086 100.934C134.475 103.652 135.796 104.643 136.835 104.997C137.685 105.286 138.388 105.152 138.566 105.054C138.577 104.973 138.63 104.9 138.712 104.867C138.832 104.819 138.97 104.877 139.018 104.998C139.066 105.117 139.038 105.249 138.943 105.351C138.778 105.53 138.377 105.644 137.878 105.644Z" fill="#E9CC64"/>
<path d="M137.48 104.731C137.166 104.731 136.838 104.708 136.525 104.662C134.695 104.397 133.468 103.471 133.16 102.12C133.131 101.994 133.21 101.867 133.338 101.839C133.465 101.81 133.591 101.889 133.62 102.016C133.914 103.304 135.088 103.852 136.021 104.084C137.329 104.411 138.558 104.209 138.705 104.04C138.769 103.927 138.91 103.89 139.024 103.954C139.138 104.018 139.176 104.165 139.112 104.278C138.936 104.59 138.249 104.731 137.48 104.731Z" fill="#E9CC64"/>
<path d="M106.923 68.4651C106.807 68.4651 106.691 68.4563 106.575 68.4386C104.778 68.1641 103.693 65.8523 104.104 63.1755C104.295 61.9328 104.789 60.8066 105.494 60.0041C106.245 59.1505 107.149 58.755 108.04 58.8912C109.836 59.1655 110.922 61.4773 110.51 64.1544C110.126 66.6571 108.59 68.4651 106.923 68.4651ZM107.699 59.6954C107.164 59.6954 106.611 59.9935 106.12 60.5516C105.518 61.2365 105.094 62.2129 104.927 63.3013C104.598 65.4438 105.41 67.4208 106.701 67.618C107.991 67.8164 109.359 66.1713 109.688 64.0286C110.017 61.8858 109.205 59.909 107.914 59.7119C107.843 59.701 107.771 59.6954 107.699 59.6954Z" fill="white"/>
<path d="M112.844 68.4763C112.787 68.4763 112.73 68.4721 112.674 68.4634C111.497 68.2837 110.859 66.2963 111.221 63.9389C111.583 61.5811 112.791 59.8718 113.964 60.0548C114.57 60.1474 115.047 60.7006 115.307 61.6127C115.544 62.4421 115.583 63.4959 115.416 64.5797C115.072 66.8229 113.964 68.4763 112.844 68.4763ZM113.791 60.6694C113.098 60.6694 112.156 61.9994 111.843 64.0337C111.519 66.1459 112.071 67.7365 112.769 67.843C113.471 67.9462 114.47 66.5964 114.794 64.4846C114.947 63.488 114.915 62.5291 114.703 61.7843C114.516 61.1321 114.213 60.7278 113.869 60.6752C113.843 60.6712 113.817 60.6694 113.791 60.6694Z" fill="white"/>
<path d="M104.956 61.4081C104.918 61.4081 104.88 61.4029 104.842 61.3921L90.8914 57.416C90.6704 57.3528 90.5426 57.1232 90.6055 56.9028C90.6685 56.6823 90.8986 56.555 91.1198 56.6176L105.07 60.5939C105.291 60.6569 105.419 60.8867 105.356 61.107C105.304 61.2893 105.137 61.4081 104.956 61.4081Z" fill="white"/>
<path d="M114.92 52.7566C93.3308 65.4426 92.1445 56.9221 92.1445 56.9221L93.4256 44.8045L106.237 45.5143L114.92 52.7566Z" fill="#373E5F"/>
<path d="M93.8148 59.7376C94.3172 61.882 93.6313 63.8753 92.2829 64.1895C90.9345 64.5038 89.4341 63.0203 88.9319 60.8759C88.4294 58.7312 89.1155 56.738 90.4639 56.4236C91.8124 56.1093 93.3128 57.5932 93.8148 59.7376Z" fill="#DA975D"/>
<path d="M92.3357 62.5544C92.3357 63.0228 91.9553 63.4024 91.4856 63.4024C91.0161 63.4024 90.6354 63.0228 90.6354 62.5544C90.6354 62.0859 91.0161 61.7061 91.4856 61.7061C91.9553 61.7061 92.3357 62.0859 92.3357 62.5544Z" fill="#E9CC64"/>
<path d="M94.117 148.857C94.117 148.857 85.9758 148.96 85.8728 149.679C85.7698 150.399 86.1819 150.707 89.0675 151.221C91.9528 151.735 124.415 151.941 124.724 151.735C125.033 151.53 134.514 149.268 134.514 149.268L111.739 148.857H94.117Z" fill="#DCE3E9"/>
<path d="M98.5502 143.451C98.5502 143.451 104.386 140.895 106.095 142.031C107.803 143.167 112.738 148.374 112.738 148.374L98.5502 143.451Z" fill="#DA975D"/>
<path d="M112.416 148.837C112.305 148.976 112.139 149.034 112.046 148.965L100.037 140.046C99.3903 139.565 99.0826 138.831 99.3936 138.443C99.7047 138.055 100.491 138.193 101.103 138.717L112.459 148.45C112.547 148.525 112.527 148.699 112.416 148.837Z" fill="#415B96"/>
<path d="M80.8989 142.362C80.8989 142.362 90.5786 146.196 91.7175 146.196C92.8562 146.196 99.2144 141.936 101.35 142.504C103.485 143.072 113.924 148.326 113.639 148.752C113.354 149.178 110.365 150.172 101.539 149.888C92.7138 149.604 78.3367 148.326 78.3367 148.326L80.8989 142.362Z" fill="#DA975D"/>
<path d="M162.972 141.074H201.036C203.054 141.074 204.692 142.708 204.692 144.722V145.753C204.692 147.766 203.054 149.401 201.036 149.401H162.971C162.167 149.401 161.514 148.749 161.514 147.947V142.528C161.514 141.725 162.167 141.074 162.972 141.074Z" fill="#D67068"/>
<path d="M198.978 142.483H161.519C161.257 142.917 161.103 143.424 161.103 143.965V146.509C161.103 147.051 161.257 147.557 161.519 147.992H198.978C200.308 147.992 201.396 146.906 201.396 145.58V144.895C201.396 143.568 200.308 142.483 198.978 142.483Z" fill="#EDE3DC"/>
<path d="M170.87 136.036H200.293C201.514 136.036 202.505 137.025 202.505 138.243V138.867C202.505 140.085 201.514 141.073 200.293 141.073H170.87C170.384 141.073 169.989 140.679 169.989 140.194V136.916C169.989 136.43 170.384 136.036 170.87 136.036Z" fill="#96CCE5"/>
<path d="M198.202 136.889H169.993C169.795 137.152 169.679 137.458 169.679 137.785V139.324C169.679 139.652 169.795 139.958 169.993 140.221H198.202C199.203 140.221 200.023 139.565 200.023 138.762V138.348C200.023 137.545 199.203 136.889 198.202 136.889Z" fill="#EDE3DC"/>
<path d="M187.652 68.6682H186.066C185.731 68.6682 185.558 68.3975 185.68 68.0634L186.156 66.7607C186.278 66.4265 186.648 66.1557 186.983 66.1557H188.568C188.903 66.1557 189.076 66.4265 188.954 66.7607L188.479 68.0634C188.357 68.3975 187.987 68.6682 187.652 68.6682Z" fill="#A9C6FC"/>
<path d="M192.74 68.6682H191.154C190.819 68.6682 190.647 68.3975 190.768 68.0634L191.244 66.7607C191.366 66.4265 191.736 66.1557 192.071 66.1557H193.657C193.992 66.1557 194.164 66.4265 194.042 66.7607L193.567 68.0634C193.445 68.3975 193.075 68.6682 192.74 68.6682Z" fill="#A9C6FC"/>
<path d="M197.828 68.6682H196.243C195.907 68.6682 195.735 68.3975 195.857 68.0634L196.332 66.7607C196.454 66.4265 196.824 66.1557 197.159 66.1557H198.745C199.08 66.1557 199.252 66.4265 199.131 66.7607L198.655 68.0634C198.533 68.3975 198.163 68.6682 197.828 68.6682Z" fill="#A9C6FC"/>
<path d="M167.49 58.6453H135.492C134.472 58.6453 133.941 57.8126 134.312 56.7948L139.151 43.5329C139.522 42.5151 140.661 41.6824 141.681 41.6824H173.679C174.7 41.6824 175.231 42.5151 174.859 43.5329L170.021 56.7948C169.649 57.8126 168.511 58.6453 167.49 58.6453Z" fill="#A9C6FC"/>
<path d="M166.406 57.2573H137.59C136.706 57.2573 136.246 56.5361 136.568 55.6547L140.575 44.673C140.896 43.7914 141.882 43.0702 142.766 43.0702H171.582C172.466 43.0702 172.925 43.7914 172.604 44.673L168.597 55.6547C168.275 56.5361 167.289 57.2573 166.406 57.2573Z" fill="white"/>
<path d="M137.113 57.8741C134.666 64.865 137.176 67.024 137.176 67.024C137.176 67.024 137.196 63.0146 139.042 61.0611C140.888 59.1079 143.043 58.2853 143.043 58.2853L137.113 57.8741Z" fill="#A9C6FC"/>
<path d="M158.585 47.9021H142.91C142.63 47.9021 142.484 47.6731 142.586 47.3934L142.627 47.2802C142.729 47.0003 143.043 46.7713 143.323 46.7713H158.998C159.278 46.7713 159.424 47.0003 159.322 47.2802L159.281 47.3934C159.179 47.6731 158.866 47.9021 158.585 47.9021Z" fill="#A9C6FC"/>
<path d="M157.722 50.2667H142.048C141.767 50.2667 141.621 50.0377 141.723 49.7578L141.765 49.6446C141.867 49.3649 142.18 49.1357 142.461 49.1357H158.135C158.415 49.1357 158.562 49.3649 158.459 49.6446L158.418 49.7578C158.316 50.0377 158.003 50.2667 157.722 50.2667Z" fill="#A9C6FC"/>
<path d="M156.747 52.9396H141.073C140.792 52.9396 140.646 52.7106 140.748 52.4306L140.789 52.3175C140.892 52.0378 141.205 51.8086 141.485 51.8086H157.16C157.44 51.8086 157.586 52.0378 157.484 52.3175L157.443 52.4306C157.341 52.7106 157.028 52.9396 156.747 52.9396Z" fill="#A9C6FC"/>
<path d="M196.638 73.6548H165.754C165.201 73.6548 164.914 73.4258 165.115 73.1459L165.196 73.033C165.397 72.7528 166.014 72.524 166.567 72.524H197.451C198.004 72.524 198.291 72.7528 198.09 73.033L198.009 73.1459C197.808 73.4258 197.191 73.6548 196.638 73.6548Z" fill="#A9C6FC"/>
<path d="M194.938 77.5613H164.054C163.502 77.5613 163.214 77.3324 163.415 77.0524L163.496 76.9395C163.698 76.6596 164.315 76.4306 164.867 76.4306H195.751C196.304 76.4306 196.592 76.6596 196.39 76.9395L196.309 77.0524C196.108 77.3324 195.491 77.5613 194.938 77.5613Z" fill="#A9C6FC"/>
<path d="M164.03 53.8647H161.763C160.743 53.8647 160.212 53.0322 160.583 52.0143L162.271 47.3882C162.643 46.3703 163.781 45.5376 164.801 45.5376H167.068C168.089 45.5376 168.62 46.3703 168.248 47.3882L166.561 52.0143C166.189 53.0322 165.051 53.8647 164.03 53.8647Z" fill="#A9C6FC"/>
<path d="M243.124 143.271C247.24 120.742 246.339 112.683 235.315 94.2943C224.29 75.9055 223.238 41.6841 219.083 51.7211C214.928 61.7581 215.487 86.9635 228.51 99.1952C241.534 111.427 243.286 116.904 244.06 121.883C244.834 126.862 242.2 142.164 242.2 142.164L243.124 143.271Z" fill="#ACD29A"/>
<path d="M245.186 128.752C245.193 128.666 245.199 128.58 245.205 128.494C244.963 126.646 243.655 117.14 241.845 113.389C239.835 109.225 231.024 101.978 228.551 92.8795C226.077 83.7812 222.157 76.7293 219.585 70.9817C216.189 63.3934 218.045 53.3054 220.853 50.0286C220.785 49.9834 220.717 49.9531 220.648 49.9346L219.715 50.4967C219.512 50.7885 219.302 51.1926 219.083 51.7211C214.928 61.7581 215.487 86.9634 228.51 99.1952C241.534 111.427 243.286 116.904 244.06 121.883C244.269 123.226 244.229 125.32 244.061 127.663L245.186 128.752Z" fill="#88B373"/>
<path d="M237.498 139.296C240.561 112.82 239.54 103.656 233.619 82.4756C227.699 61.2954 266.283 13.0288 265.058 21.3788C263.833 29.7287 259.75 50.5015 249.135 63.5357C238.519 76.5696 237.702 87.1598 239.744 98.361C241.785 109.562 239.336 135.63 239.336 135.63L238.111 140.314L237.498 139.296Z" fill="#ACD29A"/>
<path d="M238.908 128.294H238.898C238.756 128.289 238.646 128.17 238.652 128.029C238.655 127.947 238.959 119.786 238.806 113.086C238.653 106.381 236.832 94.8906 235.724 90.9436C234.715 87.3497 233.446 75.2966 239.605 62.8499C242.673 56.6503 245.122 52.7306 248.511 47.3054C251.861 41.9436 256.03 35.2701 262.644 23.5149C262.713 23.3917 262.869 23.3479 262.993 23.4173C263.116 23.4864 263.16 23.6419 263.091 23.7651C256.471 35.5305 252.299 42.2094 248.946 47.5758C245.565 52.9885 243.122 56.8992 240.065 63.0762C233.977 75.3787 235.223 87.2644 236.217 90.8058C237.332 94.7772 239.165 106.334 239.318 113.075C239.471 119.79 239.167 127.966 239.164 128.048C239.158 128.186 239.045 128.294 238.908 128.294Z" fill="#88B373"/>
<path d="M238.519 148.807C240.356 131.089 240.664 139.827 233.033 115.753C224.3 88.2003 255.463 63.7393 260.567 73.7185C265.671 83.6977 271.591 115.061 269.345 114.042C267.1 113.024 252.197 83.9013 251.789 85.1231C251.38 86.3452 231.578 96.528 232.395 106.915C233.211 117.301 240.765 133.797 240.765 133.797L240.561 149.011L238.519 148.807Z" fill="#ACD29A"/>
<path d="M240.561 148.804C240.552 148.804 240.544 148.804 240.535 148.803L238.493 148.599C238.426 148.592 238.363 148.559 238.32 148.506C238.277 148.454 238.257 148.386 238.264 148.318C238.476 146.271 238.672 144.548 238.83 143.163C239.4 138.148 238.905 133.492 237.344 129.196C236.287 126.284 234.838 122.296 232.789 115.831C231.257 110.995 230.861 105.985 231.612 100.937C232.275 96.4876 233.806 92.1006 236.163 87.8985C240.205 80.692 246.566 74.5023 252.369 72.1295C256.402 70.4805 259.473 71.0171 260.795 73.6022C262.962 77.8382 265.552 86.5111 267.724 96.8027C268.978 102.742 270.82 113.086 269.773 114.178C269.631 114.326 269.432 114.362 269.24 114.275C268.014 113.719 263.958 106.579 258.361 96.5515C255.555 91.5243 252.66 86.3366 251.878 85.4421C251.563 85.7913 250.767 86.3379 249.12 87.453C243.573 91.2061 232.031 99.0161 232.65 106.895C233.454 117.116 240.922 133.526 240.998 133.691C241.013 133.725 241.021 133.763 241.021 133.801L240.817 148.552C240.816 148.623 240.785 148.691 240.731 148.739C240.684 148.781 240.623 148.804 240.561 148.804ZM238.8 148.116L240.308 148.266L240.508 133.851C240.037 132.811 232.927 116.955 232.139 106.935C231.496 98.7599 243.205 90.8374 248.832 87.03C250.169 86.1255 251.431 85.2712 251.548 85.0355C251.586 84.9234 251.684 84.8428 251.804 84.8315C252.299 84.7853 253.278 86.3936 258.809 96.3029C262.778 103.414 268.203 113.134 269.425 113.796C269.518 113.644 269.796 112.809 269.256 108.508C268.865 105.399 268.149 101.308 267.24 96.9892C265.073 86.7029 262.493 78.047 260.339 73.8345C259.153 71.5158 256.319 71.0666 252.563 72.6025C242.387 76.7634 226.795 95.2246 233.278 115.677C235.324 122.132 236.77 126.114 237.826 129.022C239.414 133.393 239.918 138.126 239.339 143.22C239.181 144.615 239.001 146.188 238.8 148.116Z" fill="#88B373"/>
<path d="M244.935 149.542H235.671C235.034 149.542 234.465 149.181 234.405 148.731L231.292 125.385C231.148 124.308 231.862 123.4 232.882 123.4H247.724C248.744 123.4 249.458 124.308 249.314 125.385L246.201 148.731C246.141 149.181 245.572 149.542 244.935 149.542Z" fill="#96CCE5"/>
<path d="M243.837 148.737H242.51C241.862 148.737 241.339 148.362 241.35 147.895L241.819 127.729C241.842 126.726 242.667 125.882 243.651 125.882H245.663C246.647 125.882 247.362 126.726 247.255 127.729L245.106 147.895C245.056 148.362 244.486 148.737 243.837 148.737Z" fill="#B4DDF0"/>
<path d="M233.961 116.062L234.125 115.778C233.525 113.616 233.023 111.464 232.703 109.452C233.034 113.256 233.961 116.062 233.961 116.062Z" fill="#88B373"/>
<path d="M233.961 98.9964C233.359 100.498 232.992 102.062 232.79 103.608C235.525 94.6521 250.753 86.5673 251.742 85.2038L251.918 84.8607C246.199 83.2672 237.052 91.2858 233.961 98.9964Z" fill="#88B373"/>
<path d="M269.36 113.49C269.245 113.49 269.14 113.412 269.111 113.296L266.344 102.066C264.184 93.2657 261.494 82.3138 258.476 77.4387C257.978 76.6349 255.805 75.548 252.726 75.7647C248.564 76.0586 240.543 78.9265 233.578 94.8321C233.521 94.9615 233.37 95.0204 233.24 94.9642C233.111 94.9076 233.051 94.7569 233.108 94.6275C240.182 78.4754 248.413 75.5569 252.69 75.2548C256.016 75.0214 258.332 76.2333 258.912 77.1702C261.973 82.1139 264.56 92.6492 266.842 101.944L269.609 113.174C269.643 113.311 269.559 113.449 269.421 113.483C269.401 113.488 269.38 113.49 269.36 113.49Z" fill="#88B373"/>
<path d="M261.245 98.8406C261.235 98.8406 261.225 98.8402 261.215 98.839C261.074 98.8225 260.974 98.6957 260.99 98.5555C261.001 98.4634 262.038 89.2327 259.605 79.5253C259.57 79.3884 259.654 79.2497 259.791 79.2154C259.93 79.1815 260.068 79.2645 260.102 79.4013C262.558 89.2025 261.51 98.5216 261.499 98.6148C261.484 98.7448 261.373 98.8406 261.245 98.8406Z" fill="#88B373"/>
<path d="M258.385 93.1351C258.375 93.1351 258.365 93.1344 258.355 93.1332C258.214 93.1167 258.114 92.9895 258.13 92.8495C258.14 92.7649 259.124 84.3128 258.439 77.3293C258.425 77.1887 258.528 77.0637 258.669 77.05C258.809 77.0346 258.935 77.139 258.949 77.2794C259.639 84.3191 258.649 92.8243 258.639 92.9094C258.624 93.0394 258.513 93.1351 258.385 93.1351Z" fill="#88B373"/>
<path d="M248.646 47.7979C248.551 47.7979 248.459 47.7444 248.415 47.6529C248.354 47.5256 248.408 47.373 248.535 47.3118C248.609 47.2769 255.933 43.7035 260.169 35.8556C260.236 35.7315 260.392 35.6851 260.516 35.7518C260.64 35.8186 260.687 35.9735 260.62 36.0979C256.302 44.0974 248.832 47.7369 248.757 47.7727C248.721 47.79 248.684 47.7979 248.646 47.7979Z" fill="#88B373"/>
<path d="M243.236 57.0504C243.117 57.0504 243.01 56.9672 242.985 56.8462C242.956 56.7081 243.046 56.5731 243.184 56.5444C243.244 56.5323 249.243 55.2498 256.369 49.5026C256.479 49.4138 256.64 49.4311 256.729 49.5405C256.818 49.6503 256.801 49.8113 256.691 49.8999C249.461 55.7315 243.348 57.0327 243.288 57.0452C243.27 57.0487 243.253 57.0504 243.236 57.0504Z" fill="#88B373"/>
<path d="M238.765 65.9989C238.66 65.9989 238.598 65.9951 238.579 65.9937C238.438 65.9833 238.332 65.8608 238.343 65.72C238.353 65.5792 238.478 65.4735 238.617 65.4839C238.659 65.487 242.793 65.7116 249.42 60.7538C249.533 60.6693 249.694 60.692 249.779 60.8049C249.863 60.9179 249.84 61.078 249.727 61.1629C243.642 65.7156 239.66 65.9989 238.765 65.9989Z" fill="#88B373"/>
</g>
<defs>
<clipPath id="clip0_394_2801">
<rect width="285.826" height="152" fill="white" transform="translate(0 0.5)"/>
</clipPath>
</defs>
</svg>
