<svg width="24" height="25" viewBox="0 0 24 25" fill="none" xmlns="http://www.w3.org/2000/svg">
<g id="Airplane">
<path id="Vector" opacity="0.2" d="M14.25 14.75V17.75L15.75 19.25V22.25L12 20.75L8.25 22.25V19.25L9.75 17.75V14.75L2.25 16.25V13.25L9.75 9.5V5C9.75 4.40326 9.98705 3.83097 10.409 3.40901C10.831 2.98705 11.4033 2.75 12 2.75C12.5967 2.75 13.169 2.98705 13.591 3.40901C14.0129 3.83097 14.25 4.40326 14.25 5V9.5L21.75 13.25V16.25L14.25 14.75Z" fill="#00B0CB"/>
<path id="Vector_2" d="M22.0856 12.5787L15 9.03687V5C15 4.20435 14.6839 3.44129 14.1213 2.87868C13.5587 2.31607 12.7956 2 12 2C11.2044 2 10.4413 2.31607 9.87868 2.87868C9.31607 3.44129 9 4.20435 9 5V9.03687L1.91438 12.5787C1.78977 12.6411 1.685 12.7369 1.61181 12.8555C1.53862 12.9741 1.4999 13.1107 1.5 13.25V16.25C1.50006 16.3609 1.52473 16.4705 1.57224 16.5707C1.61974 16.671 1.68889 16.7595 1.77471 16.8298C1.86053 16.9001 1.96087 16.9504 2.06851 16.9773C2.17615 17.0041 2.28841 17.0068 2.39719 16.985L9 15.665V17.4397L7.71937 18.7194C7.64975 18.7891 7.59454 18.8718 7.5569 18.9629C7.51926 19.0539 7.49992 19.1515 7.5 19.25V22.25C7.49979 22.3729 7.52979 22.494 7.58737 22.6026C7.64495 22.7112 7.72834 22.804 7.8302 22.8728C7.93206 22.9416 8.04927 22.9843 8.17152 22.9972C8.29377 23.01 8.4173 22.9927 8.53125 22.9466L12 21.5581L15.4688 22.9466C15.5827 22.9927 15.7062 23.01 15.8285 22.9972C15.9507 22.9843 16.0679 22.9416 16.1698 22.8728C16.2717 22.804 16.3551 22.7112 16.4126 22.6026C16.4702 22.494 16.5002 22.3729 16.5 22.25V19.25C16.5001 19.1515 16.4807 19.0539 16.4431 18.9629C16.4055 18.8718 16.3503 18.7891 16.2806 18.7194L15 17.4397V15.665L21.6028 16.985C21.7116 17.0068 21.8238 17.0041 21.9315 16.9773C22.0391 16.9504 22.1395 16.9001 22.2253 16.8298C22.3111 16.7595 22.3803 16.671 22.4278 16.5707C22.4753 16.4705 22.4999 16.3609 22.5 16.25V13.25C22.5001 13.1107 22.4614 12.9741 22.3882 12.8555C22.315 12.7369 22.2102 12.6411 22.0856 12.5787ZM21 15.335L14.3972 14.015C14.2884 13.9932 14.1762 13.9959 14.0685 14.0227C13.9609 14.0496 13.8605 14.0999 13.7747 14.1702C13.6889 14.2405 13.6197 14.329 13.5722 14.4293C13.5247 14.5295 13.5001 14.6391 13.5 14.75V17.75C13.4999 17.8485 13.5193 17.9461 13.5569 18.0371C13.5945 18.1282 13.6497 18.2109 13.7194 18.2806L15 19.5603V21.1419L12.2812 20.0534C12.1025 19.982 11.9031 19.982 11.7244 20.0534L9 21.1419V19.5603L10.2806 18.2806C10.3503 18.2109 10.4055 18.1282 10.4431 18.0371C10.4807 17.9461 10.5001 17.8485 10.5 17.75V14.75C10.4999 14.6391 10.4753 14.5295 10.4278 14.4293C10.3803 14.329 10.3111 14.2405 10.2253 14.1702C10.1395 14.0999 10.0391 14.0496 9.93149 14.0227C9.82385 13.9959 9.71159 13.9932 9.60281 14.015L3 15.335V13.7131L10.0856 10.1713C10.2102 10.1089 10.315 10.0131 10.3882 9.89451C10.4614 9.77594 10.5001 9.63933 10.5 9.5V5C10.5 4.60218 10.658 4.22064 10.9393 3.93934C11.2206 3.65804 11.6022 3.5 12 3.5C12.3978 3.5 12.7794 3.65804 13.0607 3.93934C13.342 4.22064 13.5 4.60218 13.5 5V9.5C13.4999 9.63933 13.5386 9.77594 13.6118 9.89451C13.685 10.0131 13.7898 10.1089 13.9144 10.1713L21 13.7131V15.335Z" fill="#0028A3"/>
</g>
</svg>
