<svg width="24" height="25" viewBox="0 0 24 25" fill="none" xmlns="http://www.w3.org/2000/svg">
<g id="House">
<path id="Vector" opacity="0.2" d="M20.25 11.3319V20C20.25 20.1989 20.171 20.3897 20.0303 20.5303C19.8897 20.671 19.6989 20.75 19.5 20.75H15C14.8011 20.75 14.6103 20.671 14.4697 20.5303C14.329 20.3897 14.25 20.1989 14.25 20V15.5C14.25 15.3011 14.171 15.1103 14.0303 14.9697C13.8897 14.829 13.6989 14.75 13.5 14.75H10.5C10.3011 14.75 10.1103 14.829 9.96967 14.9697C9.82902 15.1103 9.75 15.3011 9.75 15.5V20C9.75 20.1989 9.67098 20.3897 9.53033 20.5303C9.38968 20.671 9.19891 20.75 9 20.75H4.5C4.30109 20.75 4.11032 20.671 3.96967 20.5303C3.82902 20.3897 3.75 20.1989 3.75 20V11.3319C3.75001 11.2273 3.77187 11.124 3.81416 11.0284C3.85646 10.9328 3.91827 10.8472 3.99562 10.7769L11.4956 3.69499C11.6337 3.56929 11.8137 3.49963 12.0005 3.49963C12.1872 3.49963 12.3672 3.56929 12.5053 3.69499L20.0053 10.7769C20.0825 10.8472 20.1441 10.933 20.1863 11.0285C20.2284 11.1241 20.2501 11.2274 20.25 11.3319Z" fill="#00B0CB"/>
<path id="Vector_2" d="M20.5153 10.2284L13.0153 3.15218C13.0116 3.14898 13.0082 3.14554 13.005 3.14187C12.7289 2.89074 12.369 2.75159 11.9958 2.75159C11.6225 2.75159 11.2627 2.89074 10.9866 3.14187L10.9763 3.15218L3.48469 10.2284C3.33187 10.3689 3.20989 10.5397 3.12646 10.7298C3.04303 10.9199 2.99997 11.1252 3 11.3328V20C3 20.3978 3.15804 20.7793 3.43934 21.0607C3.72064 21.342 4.10218 21.5 4.5 21.5H9C9.39782 21.5 9.77936 21.342 10.0607 21.0607C10.342 20.7793 10.5 20.3978 10.5 20V15.5H13.5V20C13.5 20.3978 13.658 20.7793 13.9393 21.0607C14.2206 21.342 14.6022 21.5 15 21.5H19.5C19.8978 21.5 20.2794 21.342 20.5607 21.0607C20.842 20.7793 21 20.3978 21 20V11.3328C21 11.1252 20.957 10.9199 20.8735 10.7298C20.7901 10.5397 20.6681 10.3689 20.5153 10.2284ZM19.5 20H15V15.5C15 15.1022 14.842 14.7206 14.5607 14.4393C14.2794 14.158 13.8978 14 13.5 14H10.5C10.1022 14 9.72064 14.158 9.43934 14.4393C9.15804 14.7206 9 15.1022 9 15.5V20H4.5V11.3328L4.51031 11.3234L12 4.24999L19.4906 11.3216L19.5009 11.3309L19.5 20Z" fill="#0028A3"/>
</g>
</svg>
