<svg width="24" height="24" viewBox="0 0 24 24" fill="none" xmlns="http://www.w3.org/2000/svg">
<g id="Translate">
<path id="Vector" opacity="0.2" d="M20.25 17.25H12.75L16.5 9.75L20.25 17.25ZM8.25001 11.9587C9.19492 11.1153 9.95072 10.0816 10.4678 8.92534C10.9848 7.76911 11.2514 6.51657 11.25 5.25H5.25001C5.24863 6.51657 5.51521 7.76911 6.03225 8.92534C6.54929 10.0816 7.30509 11.1153 8.25001 11.9587Z" fill="#00B0CB"/>
<path id="Vector_2" d="M22.4203 19.9144L17.1703 9.41437C17.108 9.28982 17.0123 9.18506 16.8938 9.11185C16.7753 9.03864 16.6388 8.99986 16.4995 8.99986C16.3603 8.99986 16.2237 9.03864 16.1053 9.11185C15.9868 9.18506 15.891 9.28982 15.8287 9.41437L13.7934 13.4859C12.1981 13.3962 10.6631 12.8452 9.375 11.8997C10.8863 10.2857 11.802 8.20463 11.9709 6H14.25C14.4489 6 14.6397 5.92098 14.7803 5.78033C14.921 5.63968 15 5.44891 15 5.25C15 5.05109 14.921 4.86032 14.7803 4.71967C14.6397 4.57902 14.4489 4.5 14.25 4.5H9V3C9 2.80109 8.92098 2.61032 8.78033 2.46967C8.63968 2.32902 8.44891 2.25 8.25 2.25C8.05109 2.25 7.86032 2.32902 7.71967 2.46967C7.57902 2.61032 7.5 2.80109 7.5 3V4.5H2.25C2.05109 4.5 1.86032 4.57902 1.71967 4.71967C1.57902 4.86032 1.5 5.05109 1.5 5.25C1.5 5.44891 1.57902 5.63968 1.71967 5.78033C1.86032 5.92098 2.05109 6 2.25 6H10.4653C10.2987 7.83822 9.51839 9.56691 8.25 10.9078C7.45984 10.0741 6.85306 9.08406 6.46875 8.00156C6.43715 7.90712 6.38705 7.81991 6.32139 7.74503C6.25572 7.67015 6.1758 7.6091 6.08629 7.56544C5.99678 7.52178 5.89946 7.49639 5.80003 7.49074C5.7006 7.48509 5.60104 7.49931 5.50715 7.53255C5.41327 7.5658 5.32695 7.61741 5.25323 7.68437C5.17951 7.75133 5.11987 7.83231 5.07778 7.92257C5.03569 8.01283 5.01199 8.11057 5.00808 8.21009C5.00417 8.3096 5.02012 8.4089 5.055 8.50219C5.50244 9.76769 6.20726 10.9267 7.125 11.9062C5.71197 12.9446 4.00353 13.5031 2.25 13.5C2.05109 13.5 1.86032 13.579 1.71967 13.7197C1.57902 13.8603 1.5 14.0511 1.5 14.25C1.5 14.4489 1.57902 14.6397 1.71967 14.7803C1.86032 14.921 2.05109 15 2.25 15C4.42555 15.0024 6.53875 14.2734 8.25 12.93C9.64648 14.0211 11.3135 14.7117 13.0725 14.9278L10.5787 19.9144C10.4897 20.0923 10.475 20.2983 10.5379 20.487C10.6007 20.6757 10.736 20.8318 10.9139 20.9208C11.0918 21.0098 11.2978 21.0245 11.4865 20.9616C11.6753 20.8988 11.8313 20.7635 11.9203 20.5856L13.2131 18H19.7859L21.0788 20.5856C21.1411 20.7102 21.2369 20.815 21.3555 20.8882C21.4741 20.9614 21.6107 21.0001 21.75 21C21.8778 20.9999 22.0035 20.9672 22.1151 20.9049C22.2268 20.8426 22.3206 20.7528 22.3878 20.644C22.4549 20.5353 22.4932 20.4111 22.4989 20.2834C22.5046 20.1557 22.4775 20.0287 22.4203 19.9144ZM13.9631 16.5L16.5 11.4272L19.0359 16.5H13.9631Z" fill="#0028A3"/>
</g>
</svg>
