<svg width="24" height="24" viewBox="0 0 24 24" fill="none" xmlns="http://www.w3.org/2000/svg">
<g id="Lightbulb">
<path id="Vector" opacity="0.2" d="M19.5001 9.74999C19.5011 10.8864 19.2434 12.0081 18.7465 13.0301C18.2497 14.0521 17.5266 14.9476 16.6323 15.6487C16.3592 15.8604 16.1378 16.1315 15.985 16.4414C15.8321 16.7513 15.7518 17.0919 15.7501 17.4375V18C15.7501 18.1989 15.6711 18.3897 15.5304 18.5303C15.3898 18.671 15.199 18.75 15.0001 18.75H9.00012C8.8012 18.75 8.61044 18.671 8.46979 18.5303C8.32913 18.3897 8.25012 18.1989 8.25012 18V17.4375C8.24976 17.0938 8.17104 16.7548 8.01996 16.4461C7.86888 16.1375 7.64941 15.8673 7.37824 15.6562C6.48665 14.9597 5.76449 14.0703 5.266 13.0546C4.76751 12.039 4.50566 10.9235 4.50012 9.79217C4.47762 5.72717 7.75512 2.34374 11.8192 2.24999C12.8192 2.22585 13.814 2.40202 14.7449 2.76811C15.6758 3.1342 16.5241 3.68282 17.2398 4.38167C17.9556 5.08053 18.5242 5.9155 18.9124 6.83744C19.3006 7.75938 19.5004 8.74966 19.5001 9.74999Z" fill="#00B0CB"/>
<path id="Vector_2" d="M16.5001 21.75C16.5001 21.9489 16.4211 22.1396 16.2805 22.2803C16.1398 22.4209 15.949 22.5 15.7501 22.5H8.25012C8.05121 22.5 7.86045 22.4209 7.71979 22.2803C7.57914 22.1396 7.50012 21.9489 7.50012 21.75C7.50012 21.551 7.57914 21.3603 7.71979 21.2196C7.86045 21.079 8.05121 21 8.25012 21H15.7501C15.949 21 16.1398 21.079 16.2805 21.2196C16.4211 21.3603 16.5001 21.551 16.5001 21.75ZM20.2501 9.74995C20.2534 11.0002 19.9709 12.2347 19.4243 13.3592C18.8778 14.4837 18.0815 15.4685 17.0964 16.2384C16.9122 16.3796 16.7627 16.561 16.6593 16.7688C16.556 16.9767 16.5015 17.2054 16.5001 17.4375V18C16.5001 18.3978 16.3421 18.7793 16.0608 19.0606C15.7795 19.3419 15.3979 19.5 15.0001 19.5H9.00012C8.6023 19.5 8.22077 19.3419 7.93946 19.0606C7.65816 18.7793 7.50012 18.3978 7.50012 18V17.4375C7.49997 17.2081 7.44724 16.9819 7.34599 16.7762C7.24474 16.5704 7.09766 16.3906 6.91606 16.2506C5.93337 15.4852 5.13767 14.5064 4.58916 13.3881C4.04066 12.2698 3.75374 11.0414 3.75012 9.79589C3.72575 5.32777 7.337 1.60683 11.8014 1.49995C12.9014 1.47345 13.9956 1.66725 15.0196 2.06997C16.0436 2.47269 16.9767 3.07617 17.7639 3.84491C18.5512 4.61365 19.1767 5.53211 19.6037 6.54622C20.0306 7.56034 20.2504 8.64962 20.2501 9.74995ZM18.7501 9.74995C18.7504 8.84964 18.5705 7.95836 18.2212 7.1286C17.8718 6.29883 17.3599 5.54735 16.7158 4.91837C16.0716 4.2894 15.3081 3.79564 14.4702 3.46618C13.6324 3.13671 12.7371 2.9782 11.837 2.99995C8.18075 3.0862 5.23044 6.13027 5.25012 9.78652C5.25355 10.8052 5.48862 11.8097 5.93755 12.7242C6.38648 13.6386 7.0375 14.4389 7.84137 15.0646C8.20273 15.3456 8.49501 15.7054 8.69586 16.1167C8.8967 16.528 9.00078 16.9798 9.00012 17.4375V18H15.0001V17.4375C15.0012 16.9785 15.107 16.5258 15.3096 16.1139C15.5122 15.702 15.8062 15.3419 16.1692 15.0609C16.9755 14.4307 17.6272 13.6247 18.0745 12.7042C18.5218 11.7838 18.7529 10.7733 18.7501 9.74995ZM17.2398 8.87433C17.0453 7.78804 16.5227 6.78742 15.7423 6.00717C14.9619 5.22692 13.9611 4.70451 12.8748 4.51027C12.7777 4.49389 12.6783 4.49681 12.5823 4.51886C12.4862 4.5409 12.3955 4.58164 12.3153 4.63875C12.235 4.69586 12.1668 4.76821 12.1145 4.85169C12.0622 4.93517 12.0268 5.02813 12.0104 5.12527C11.9941 5.2224 11.997 5.32181 12.019 5.41782C12.0411 5.51383 12.0818 5.60456 12.1389 5.68482C12.196 5.76509 12.2684 5.83332 12.3519 5.88562C12.4353 5.93792 12.5283 5.97327 12.6254 5.98964C14.1789 6.2512 15.497 7.56933 15.7604 9.12558C15.7901 9.30026 15.8807 9.45879 16.0161 9.57307C16.1515 9.68736 16.3229 9.75002 16.5001 9.74995C16.5425 9.7497 16.5848 9.74625 16.6267 9.73964C16.8227 9.70617 16.9974 9.59621 17.1124 9.43394C17.2274 9.27167 17.2732 9.07038 17.2398 8.87433Z" fill="#0028A3"/>
</g>
</svg>
