<svg width="24" height="24" viewBox="0 0 24 24" fill="none" xmlns="http://www.w3.org/2000/svg">
<g id="ListChecks">
<path id="Vector" opacity="0.2" d="M20.25 6V18H12V6H20.25Z" fill="#00B0CB"/>
<path id="Vector_2" d="M20.9999 12.0001C20.9999 12.199 20.9209 12.3897 20.7803 12.5304C20.6396 12.671 20.4488 12.7501 20.2499 12.7501H11.9999C11.801 12.7501 11.6103 12.671 11.4696 12.5304C11.3289 12.3897 11.2499 12.199 11.2499 12.0001C11.2499 11.8011 11.3289 11.6104 11.4696 11.4697C11.6103 11.3291 11.801 11.2501 11.9999 11.2501H20.2499C20.4488 11.2501 20.6396 11.3291 20.7803 11.4697C20.9209 11.6104 20.9999 11.8011 20.9999 12.0001ZM11.9999 6.75005H20.2499C20.4488 6.75005 20.6396 6.67103 20.7803 6.53038C20.9209 6.38973 20.9999 6.19896 20.9999 6.00005C20.9999 5.80114 20.9209 5.61037 20.7803 5.46972C20.6396 5.32907 20.4488 5.25005 20.2499 5.25005H11.9999C11.801 5.25005 11.6103 5.32907 11.4696 5.46972C11.3289 5.61037 11.2499 5.80114 11.2499 6.00005C11.2499 6.19896 11.3289 6.38973 11.4696 6.53038C11.6103 6.67103 11.801 6.75005 11.9999 6.75005ZM20.2499 17.2501H11.9999C11.801 17.2501 11.6103 17.3291 11.4696 17.4697C11.3289 17.6104 11.2499 17.8011 11.2499 18.0001C11.2499 18.199 11.3289 18.3897 11.4696 18.5304C11.6103 18.671 11.801 18.7501 11.9999 18.7501H20.2499C20.4488 18.7501 20.6396 18.671 20.7803 18.5304C20.9209 18.3897 20.9999 18.199 20.9999 18.0001C20.9999 17.8011 20.9209 17.6104 20.7803 17.4697C20.6396 17.3291 20.4488 17.2501 20.2499 17.2501ZM7.7193 3.96943L5.24993 6.43974L4.28055 5.46943C4.13982 5.3287 3.94895 5.24963 3.74993 5.24963C3.55091 5.24963 3.36003 5.3287 3.2193 5.46943C3.07857 5.61016 2.99951 5.80103 2.99951 6.00005C2.99951 6.19907 3.07857 6.38995 3.2193 6.53068L4.7193 8.03068C4.78896 8.10041 4.87167 8.15573 4.96272 8.19347C5.05377 8.23121 5.15137 8.25064 5.24993 8.25064C5.34849 8.25064 5.44609 8.23121 5.53713 8.19347C5.62818 8.15573 5.7109 8.10041 5.78055 8.03068L8.78055 5.03068C8.92128 4.88995 9.00035 4.69907 9.00035 4.50005C9.00035 4.30103 8.92128 4.11016 8.78055 3.96943C8.63982 3.8287 8.44895 3.74963 8.24993 3.74963C8.05091 3.74963 7.86003 3.8287 7.7193 3.96943ZM7.7193 9.96943L5.24993 12.4397L4.28055 11.4694C4.13982 11.3287 3.94895 11.2496 3.74993 11.2496C3.55091 11.2496 3.36003 11.3287 3.2193 11.4694C3.07857 11.6102 2.99951 11.801 2.99951 12.0001C2.99951 12.0986 3.01892 12.1962 3.05663 12.2872C3.09435 12.3783 3.14962 12.461 3.2193 12.5307L4.7193 14.0307C4.78896 14.1004 4.87167 14.1557 4.96272 14.1935C5.05377 14.2312 5.15137 14.2506 5.24993 14.2506C5.34849 14.2506 5.44609 14.2312 5.53713 14.1935C5.62818 14.1557 5.7109 14.1004 5.78055 14.0307L8.78055 11.0307C8.92128 10.8899 9.00035 10.6991 9.00035 10.5001C9.00035 10.301 8.92128 10.1102 8.78055 9.96943C8.63982 9.82869 8.44895 9.74963 8.24993 9.74963C8.05091 9.74963 7.86003 9.82869 7.7193 9.96943ZM7.7193 15.9694L5.24993 18.4397L4.28055 17.4694C4.21087 17.3997 4.12815 17.3445 4.0371 17.3068C3.94606 17.269 3.84847 17.2496 3.74993 17.2496C3.65138 17.2496 3.5538 17.269 3.46276 17.3068C3.37171 17.3445 3.28899 17.3997 3.2193 17.4694C3.14962 17.5391 3.09435 17.6218 3.05663 17.7129C3.01892 17.8039 2.99951 17.9015 2.99951 18.0001C2.99951 18.0986 3.01892 18.1962 3.05663 18.2872C3.09435 18.3783 3.14962 18.461 3.2193 18.5307L4.7193 20.0307C4.78896 20.1004 4.87167 20.1557 4.96272 20.1935C5.05377 20.2312 5.15137 20.2506 5.24993 20.2506C5.34849 20.2506 5.44609 20.2312 5.53713 20.1935C5.62818 20.1557 5.7109 20.1004 5.78055 20.0307L8.78055 17.0307C8.92128 16.8899 9.00035 16.6991 9.00035 16.5001C9.00035 16.301 8.92128 16.1102 8.78055 15.9694C8.63982 15.8287 8.44895 15.7496 8.24993 15.7496C8.05091 15.7496 7.86003 15.8287 7.7193 15.9694Z" fill="#0028A3"/>
</g>
</svg>
