<svg width="298" height="180" viewBox="0 0 298 180" fill="none" xmlns="http://www.w3.org/2000/svg">
<g clip-path="url(#clip0_48_7925)">
<path d="M34.1425 179.817C34.1425 179.817 4.599 160.722 25.897 120.09C39.9741 93.2249 55.4757 96.2711 52.936 43.4777C50.763 -1.69925 129.704 -5.60289 154.653 7.50171C179.603 20.6063 177.268 30.6691 228.793 25.6109C264.651 22.0921 282.782 70.6606 269.384 92.8477C250.372 124.327 308.934 146.878 286.441 179.817H34.1425Z" fill="#EBF3FA"/>
<path d="M200.155 47.2714C200.155 47.2714 203.019 42.5882 209.867 43.1046C209.867 43.1046 219.81 35.2974 230.413 42.0629C230.413 42.0629 241.684 40.3874 250.03 43.5147C255.595 45.5981 257.434 47.7912 257.434 47.7912L200.155 47.2714Z" fill="#F8FCFF"/>
<g opacity="0.5">
<path d="M126.927 72.3371C126.927 72.3371 124.389 60.9969 117.458 54.6688C116.536 53.8278 114.99 54.5361 115.128 55.7324L115.135 55.7927C115.408 57.8323 123.26 65.8819 126.927 72.3371Z" fill="#C5DDFF"/>
</g>
<g opacity="0.5">
<path d="M128.002 75.5554C128.002 75.5554 120.392 61.7391 109.089 56.2795C108.756 56.1154 108.369 56.0767 108.008 56.1714C107.646 56.2661 107.337 56.487 107.145 56.7883C106.896 57.1995 106.824 57.8146 107.233 58.7335C108.319 61.1832 121.058 68.6911 128.002 75.5554Z" fill="#C5DDFF"/>
</g>
<g opacity="0.5">
<path d="M219.671 123.704C219.671 123.704 224.461 113.016 232.551 108.024C233.626 107.366 235.001 108.331 234.622 109.48C234.622 109.498 234.61 109.518 234.603 109.538C233.919 111.493 224.576 118.012 219.671 123.704Z" fill="#C5DDFF"/>
</g>
<g opacity="0.5">
<path d="M217.962 126.675C217.962 126.675 228.235 114.455 240.442 111.085C240.802 110.983 241.189 111.013 241.525 111.17C241.861 111.327 242.12 111.599 242.247 111.928C242.408 112.375 242.354 112.992 241.767 113.822C240.2 116.035 226.17 121.16 217.962 126.675Z" fill="#C5DDFF"/>
</g>
<path d="M263.908 127.058C261.079 119.55 247.412 122.891 247.412 122.891C247.412 122.891 239.062 136.949 236.35 137.456C233.637 137.964 240.976 124.14 240.976 124.14C235.635 124.031 222.599 131.019 222.599 131.019C222.599 131.019 224.689 146.601 221.927 146.47C219.165 146.338 220.832 132.585 220.832 132.585C215.812 134.374 211.464 140.289 211.464 140.289C206.195 149.797 219.553 155.619 219.553 155.619C219.553 155.619 220.152 161.034 217.051 167.505C217.051 167.505 216.33 168.711 215.661 170.719L217.06 170.623C217.146 170.265 217.246 169.918 217.36 169.584C217.359 169.579 217.359 169.573 217.36 169.568C217.44 169.36 217.555 169.064 217.698 168.702C218.064 167.893 218.307 167.296 218.457 166.868C219.544 164.329 221.137 161.009 222.315 160.254C222.173 160.077 222.056 159.882 221.968 159.676C222.079 159.861 222.194 160.053 222.315 160.254C225.087 164.878 237.123 164.86 243.695 163.118C250.267 161.377 247.221 159.829 243.402 157.226C239.584 154.623 232.12 155.891 229.806 154.923C227.492 153.955 230.656 152.62 235.129 152.632C239.602 152.644 242.152 156.642 249.388 156.787C256.624 156.932 261.102 143.948 261.102 143.948C256.254 145.725 247.157 143.782 246.69 142.21C246.222 140.637 259.406 139.892 261.42 139.272C263.435 138.653 266.736 134.567 263.908 127.058Z" fill="#DFEBF9"/>
<path d="M74.2477 65.6154C76.9696 58.3882 90.1242 61.6087 90.1242 61.6087C90.1242 61.6087 98.1606 75.1344 100.771 75.6223C103.381 76.1103 96.319 62.8061 96.319 62.8061C101.46 62.6965 114.005 69.427 114.005 69.427C114.005 69.427 111.995 84.4242 114.653 84.2981C117.311 84.172 115.711 70.9336 115.711 70.9336C120.54 72.6551 124.726 78.3483 124.726 78.3483C129.797 87.4999 116.94 93.1043 116.94 93.1043C116.94 93.1043 116.366 98.3106 119.346 104.543C119.346 104.543 120.038 105.703 120.683 107.638L119.336 107.546C119.253 107.201 119.158 106.867 119.048 106.546C119.049 106.543 119.049 106.541 119.048 106.539C119.048 106.535 119.048 106.53 119.048 106.526C118.971 106.325 118.86 106.04 118.722 105.691C118.369 104.912 118.134 104.337 117.991 103.925C116.945 101.482 115.405 98.2865 114.278 97.565C114.413 97.3892 114.523 97.1975 114.604 96.9948L114.27 97.5518C111.601 102.002 100.015 101.978 93.6911 100.308C87.3671 98.6385 90.2993 97.1406 93.9732 94.6361C97.647 92.1317 104.835 93.351 107.06 92.4233C109.284 91.4957 106.237 90.2051 101.937 90.2182C97.6364 90.2314 95.1766 94.078 88.2133 94.2173C81.2499 94.3565 76.939 81.8627 76.939 81.8627C81.6036 83.5733 90.3593 81.7037 90.807 80.1905C91.2548 78.6773 78.5703 77.959 76.6311 77.3669C74.692 76.7748 71.5258 72.8415 74.2477 65.6154Z" fill="#DFEBF9"/>
<path d="M190.378 74.7847L190.343 172.872C190.342 174.42 189.683 175.903 188.51 176.997C187.337 178.091 185.747 178.705 184.088 178.705L129.131 178.687C128.31 178.687 127.497 178.536 126.738 178.242C125.98 177.949 125.29 177.519 124.71 176.977C124.129 176.435 123.669 175.791 123.355 175.083C123.041 174.375 122.88 173.617 122.88 172.85L122.916 74.7627C122.917 73.9963 123.079 73.2374 123.394 72.5295C123.708 71.8216 124.17 71.1784 124.751 70.6369C125.332 70.0953 126.022 69.666 126.781 69.3734C127.541 69.0807 128.354 68.9305 129.176 68.9314L184.132 68.9489C185.789 68.9504 187.379 69.5659 188.55 70.6603C189.721 71.7546 190.379 73.2381 190.378 74.7847Z" fill="#739AF0"/>
<path d="M184.087 179.437L129.13 179.42C127.265 179.416 125.477 178.722 124.158 177.491C122.839 176.26 122.097 174.591 122.094 172.85L122.131 74.7625C122.135 73.0214 122.879 71.3529 124.199 70.1226C125.52 68.8923 127.309 68.2005 129.175 68.1987L184.131 68.2163C185.997 68.22 187.785 68.9134 189.103 70.1444C190.422 71.3755 191.164 73.0439 191.167 74.7845L191.131 172.873C191.127 174.614 190.383 176.283 189.062 177.513C187.742 178.744 185.953 179.435 184.087 179.437ZM129.175 69.6626C127.725 69.6638 126.335 70.2015 125.31 71.1578C124.284 72.1141 123.707 73.4109 123.706 74.7636L123.669 172.851C123.67 174.204 124.247 175.501 125.271 176.457C126.296 177.414 127.686 177.953 129.135 177.955L184.092 177.972C185.542 177.971 186.932 177.433 187.957 176.477C188.983 175.521 189.56 174.225 189.562 172.872L189.598 74.7845C189.598 73.4317 189.021 72.1346 187.997 71.1777C186.972 70.2207 185.582 69.6822 184.132 69.6801L129.175 69.6626Z" fill="#163560"/>
<path d="M181.252 102.744H133.003C131.25 102.744 129.829 104.07 129.829 105.706V120.568C129.829 122.204 131.25 123.53 133.003 123.53H181.252C183.005 123.53 184.426 122.204 184.426 120.568V105.706C184.426 104.07 183.005 102.744 181.252 102.744Z" fill="#EBF2FF"/>
<path d="M162.587 110.886H149.413C149.335 110.885 149.26 110.856 149.204 110.804C149.149 110.753 149.118 110.683 149.118 110.61C149.118 110.537 149.149 110.466 149.204 110.415C149.259 110.363 149.334 110.334 149.413 110.334H162.587C162.665 110.334 162.741 110.363 162.796 110.415C162.851 110.466 162.882 110.537 162.882 110.61C162.882 110.683 162.851 110.753 162.795 110.804C162.74 110.856 162.665 110.885 162.587 110.886Z" fill="#2B478B"/>
<path d="M171.4 112.873H149.413C149.334 112.873 149.259 112.844 149.204 112.793C149.149 112.741 149.118 112.671 149.118 112.598C149.118 112.525 149.149 112.455 149.204 112.403C149.26 112.352 149.335 112.323 149.413 112.323H171.4C171.439 112.323 171.477 112.33 171.513 112.344C171.549 112.357 171.582 112.378 171.609 112.403C171.636 112.429 171.658 112.459 171.673 112.492C171.688 112.526 171.695 112.562 171.695 112.598C171.695 112.671 171.664 112.741 171.609 112.793C171.554 112.844 171.479 112.873 171.4 112.873Z" fill="#2B478B"/>
<path d="M146.208 107.747H133.609V119.502H146.208V107.747Z" fill="#C2CFFF"/>
<path d="M135.946 116.423L138.698 111.796L140.721 114.369L141.731 113.34L143.872 116.423H135.946Z" fill="#AABDF2"/>
<path d="M140.009 111.131C140.009 111 140.051 110.871 140.129 110.762C140.207 110.653 140.318 110.567 140.448 110.517C140.578 110.466 140.721 110.453 140.86 110.478C140.998 110.504 141.125 110.567 141.225 110.66C141.324 110.753 141.392 110.871 141.42 111C141.447 111.129 141.433 111.263 141.38 111.384C141.326 111.506 141.234 111.61 141.117 111.683C141 111.756 140.862 111.795 140.721 111.795C140.533 111.795 140.352 111.725 140.218 111.601C140.085 111.476 140.01 111.307 140.009 111.131Z" fill="#AABDF2"/>
<path d="M170.986 107.747H149.374C149.211 107.747 149.079 107.871 149.079 108.023V108.677C149.079 108.829 149.211 108.952 149.374 108.952H170.986C171.149 108.952 171.281 108.829 171.281 108.677V108.023C171.281 107.871 171.149 107.747 170.986 107.747Z" fill="#2B478B"/>
<path d="M181.252 78.6597H133.003C131.25 78.6597 129.829 79.9857 129.829 81.6214V96.4837C129.829 98.1194 131.25 99.4454 133.003 99.4454H181.252C183.005 99.4454 184.426 98.1194 184.426 96.4837V81.6214C184.426 79.9857 183.005 78.6597 181.252 78.6597Z" fill="#EBF2FF"/>
<path d="M162.587 86.7983H149.413C149.335 86.7983 149.26 86.7694 149.204 86.7179C149.149 86.6664 149.118 86.5965 149.118 86.5236C149.118 86.4504 149.149 86.3803 149.204 86.3286C149.259 86.2769 149.334 86.2478 149.413 86.2478H162.587C162.665 86.2478 162.741 86.2769 162.796 86.3286C162.851 86.3803 162.882 86.4504 162.882 86.5236C162.882 86.5965 162.851 86.6664 162.795 86.7179C162.74 86.7694 162.665 86.7983 162.587 86.7983Z" fill="#2B478B"/>
<path d="M171.4 88.7895H149.413C149.334 88.7895 149.259 88.7604 149.204 88.7087C149.149 88.657 149.118 88.5868 149.118 88.5137C149.118 88.4407 149.149 88.3709 149.204 88.3194C149.26 88.2679 149.335 88.239 149.413 88.239H171.4C171.439 88.2389 171.477 88.2459 171.513 88.2596C171.549 88.2733 171.582 88.2936 171.609 88.3191C171.636 88.3446 171.658 88.3749 171.673 88.4083C171.688 88.4417 171.695 88.4775 171.695 88.5137C171.695 88.5868 171.664 88.657 171.609 88.7087C171.554 88.7604 171.479 88.7895 171.4 88.7895Z" fill="#2B478B"/>
<path d="M146.208 83.6631H133.609V95.4179H146.208V83.6631Z" fill="#C2CFFF"/>
<path d="M135.946 92.3389L138.698 87.7104L140.721 90.2851L141.731 89.2555L143.872 92.3389H135.946Z" fill="#AABDF2"/>
<path d="M140.009 87.0458C140.009 86.9144 140.051 86.7859 140.129 86.6767C140.208 86.5674 140.319 86.4822 140.449 86.4319C140.579 86.3816 140.722 86.3685 140.86 86.3941C140.999 86.4198 141.125 86.483 141.225 86.576C141.325 86.6689 141.393 86.7873 141.42 86.9162C141.447 87.0451 141.433 87.1787 141.379 87.3001C141.326 87.4216 141.234 87.5253 141.117 87.5984C141 87.6714 140.862 87.7103 140.721 87.7103C140.628 87.7105 140.535 87.6934 140.449 87.6601C140.362 87.6267 140.284 87.5778 140.218 87.516C140.151 87.4543 140.099 87.381 140.063 87.3003C140.027 87.2196 140.009 87.1332 140.009 87.0458Z" fill="#AABDF2"/>
<path d="M170.986 83.6631H149.374C149.211 83.6631 149.079 83.7863 149.079 83.9383V84.5929C149.079 84.745 149.211 84.8682 149.374 84.8682H170.986C171.149 84.8682 171.281 84.745 171.281 84.5929V83.9383C171.281 83.7863 171.149 83.6631 170.986 83.6631Z" fill="#2B478B"/>
<path d="M107.266 174.649H105.2V177.275H107.266V174.649Z" fill="#163560"/>
<path d="M118.955 174.649H116.889V177.275H118.955V174.649Z" fill="#163560"/>
<path d="M104.763 177.673C104.763 177.402 104.849 177.137 105.011 176.911C105.173 176.686 105.402 176.51 105.671 176.406C105.94 176.303 106.235 176.276 106.52 176.329C106.806 176.382 107.067 176.513 107.273 176.704C107.478 176.896 107.618 177.141 107.675 177.407C107.732 177.673 107.702 177.949 107.591 178.199C107.48 178.45 107.291 178.664 107.05 178.815C106.808 178.965 106.524 179.046 106.233 179.046C105.843 179.045 105.469 178.901 105.193 178.643C104.918 178.386 104.763 178.037 104.763 177.673Z" fill="#1F4777"/>
<path d="M105.34 177.673C105.34 177.508 105.392 177.347 105.49 177.21C105.589 177.073 105.728 176.966 105.891 176.903C106.054 176.84 106.234 176.823 106.407 176.855C106.581 176.888 106.74 176.967 106.865 177.083C106.99 177.2 107.075 177.348 107.109 177.51C107.144 177.672 107.126 177.839 107.058 177.992C106.991 178.144 106.876 178.274 106.729 178.366C106.582 178.457 106.41 178.506 106.233 178.506C105.996 178.506 105.769 178.418 105.601 178.262C105.434 178.106 105.34 177.894 105.34 177.673Z" fill="#163560"/>
<path d="M116.452 177.673C116.452 177.402 116.539 177.137 116.7 176.911C116.862 176.686 117.092 176.51 117.361 176.406C117.629 176.303 117.925 176.276 118.21 176.329C118.495 176.382 118.757 176.513 118.962 176.704C119.168 176.896 119.308 177.141 119.364 177.407C119.421 177.673 119.392 177.949 119.281 178.199C119.169 178.45 118.981 178.664 118.739 178.815C118.497 178.965 118.213 179.046 117.922 179.046C117.532 179.045 117.158 178.901 116.883 178.643C116.607 178.386 116.452 178.037 116.452 177.673Z" fill="#1F4777"/>
<path d="M117.031 177.673C117.031 177.508 117.083 177.347 117.181 177.21C117.279 177.073 117.419 176.966 117.582 176.903C117.745 176.84 117.925 176.823 118.098 176.855C118.271 176.888 118.431 176.967 118.556 177.083C118.68 177.2 118.766 177.348 118.8 177.51C118.834 177.672 118.817 177.839 118.749 177.992C118.682 178.144 118.567 178.274 118.42 178.366C118.273 178.457 118.101 178.506 117.924 178.506C117.687 178.506 117.46 178.418 117.292 178.262C117.125 178.106 117.031 177.894 117.031 177.673Z" fill="#163560"/>
<path d="M97.7754 172.201H126.326V172.915C126.326 173.765 125.964 174.58 125.32 175.181C124.675 175.782 123.802 176.12 122.891 176.12H101.49C100.505 176.12 99.5606 175.755 98.8639 175.105C98.1672 174.456 97.7757 173.574 97.7754 172.655V172.202V172.201Z" fill="#C65528"/>
<path d="M127.305 139.294V171.085C127.305 171.46 127.26 171.835 127.172 172.201H123.176C122.764 172.201 122.356 172.277 121.975 172.424C121.595 172.572 121.249 172.787 120.958 173.059C120.667 173.331 120.436 173.654 120.278 174.009C120.121 174.365 120.04 174.745 120.04 175.13V176.117H104.379V175.13C104.379 174.645 104.251 174.168 104.005 173.741C103.759 173.314 103.402 172.95 102.969 172.684C102.725 172.533 102.461 172.416 102.182 172.335C101.878 172.246 101.561 172.201 101.242 172.201H96.9277C96.8392 171.835 96.7947 171.46 96.7949 171.085V139.294C96.7945 138.633 96.9336 137.979 97.2043 137.368C97.4751 136.757 97.8722 136.202 98.3729 135.734C98.8736 135.267 99.4682 134.896 100.123 134.643C100.777 134.39 101.479 134.259 102.187 134.259H121.912C122.621 134.259 123.322 134.39 123.977 134.643C124.631 134.896 125.226 135.267 125.727 135.734C126.227 136.202 126.624 136.757 126.895 137.368C127.166 137.979 127.305 138.633 127.305 139.294Z" fill="#F99746"/>
<path d="M117.795 134.242C114.102 132.884 111.025 132.952 109.098 133.248C107.003 133.569 105.766 134.221 105.754 134.227L105.499 133.813C105.552 133.784 106.812 133.119 108.988 132.781C110.986 132.471 114.172 132.395 117.986 133.798L117.795 134.242Z" fill="#163560"/>
<path d="M102.968 134.259V172.684C102.725 172.533 102.46 172.416 102.182 172.335V134.259H102.968Z" fill="#ED7D2B"/>
<path d="M109.265 134.259H108.479V176.121H109.265V134.259Z" fill="#ED7D2B"/>
<path d="M115.136 134.259H114.35V176.121H115.136V134.259Z" fill="#ED7D2B"/>
<path d="M121.489 134.259V172.661C121.188 172.84 120.922 173.065 120.703 173.328V134.259H121.489Z" fill="#ED7D2B"/>
<path d="M79.7541 117.799C79.7541 117.744 80.6143 116.084 80.3417 115.957C80.069 115.83 79.5778 115.847 79.519 116.139C79.4602 116.43 79.7541 117.799 79.7541 117.799Z" fill="#FFB27D"/>
<path d="M80.078 118.79C80.078 118.627 79.877 116.142 79.4269 115.648C78.9768 115.153 78.0601 114.449 77.7721 114.471C77.4842 114.493 76.3548 115.891 76.6944 116.964C77.0341 118.036 78.4655 119.486 78.4655 119.486L80.078 118.79Z" fill="#FFB27D"/>
<path d="M81.7897 115.779L79.1748 116.513C79.133 116.525 79.0881 116.52 79.0497 116.501C79.0114 116.482 78.9828 116.449 78.9703 116.41L77.4754 111.756C77.4632 111.717 77.4679 111.676 77.4883 111.64C77.5087 111.604 77.5433 111.578 77.5847 111.565L80.2008 110.834C80.2426 110.822 80.2876 110.827 80.3259 110.846C80.3642 110.865 80.3928 110.898 80.4053 110.937L81.9002 115.591C81.9119 115.629 81.9069 115.671 81.8863 115.706C81.8656 115.741 81.8309 115.768 81.7897 115.779Z" fill="#F1A34F"/>
<path d="M79.516 111.029L77.1439 111.692C76.9897 111.735 76.9022 111.887 76.9484 112.031L78.3699 116.457C78.4161 116.601 78.5786 116.682 78.7328 116.639L81.1048 115.976C81.259 115.933 81.3466 115.781 81.3004 115.638L79.8789 111.211C79.8327 111.067 79.6702 110.986 79.516 111.029Z" fill="#D86713"/>
<path d="M77.502 114.649C77.502 114.649 78.5914 113.085 78.857 113.173C79.2378 113.297 77.8698 115.282 77.8698 115.282C77.8698 115.282 78.8829 113.798 79.0451 113.91C79.4059 114.164 78.8312 115.095 78.2623 115.81C78.2623 115.81 79.2813 114.939 79.3201 115.096C79.4376 115.645 78.2012 116.976 78.2012 116.976L77.5114 115.505L77.502 114.649Z" fill="#FFB27D"/>
<path d="M76.6846 116.103C76.7375 115.912 77.0031 112.177 77.1171 112.533C77.2311 112.888 77.5014 114.844 77.5014 114.844L76.6846 116.103Z" fill="#FFB27D"/>
<path d="M94.0678 115.076C94.0678 115.076 93.9503 119.133 92.6987 122.411C91.7079 124.999 90.0038 127.099 87.0833 126.323C86.7836 126.244 86.4957 126.159 86.2148 126.067C80.2797 124.138 78.3594 119.723 78.3594 119.723C78.8013 119.042 80.0823 118.792 80.0823 118.792C81.2775 118.852 86.5297 120.932 86.8647 120.996C88.0799 121.224 89.0612 114.994 89.851 112.836C90.6408 110.678 93.8669 109.715 93.8669 109.715L94.0678 115.076Z" fill="#739AF0"/>
<path d="M92.8128 119.487L92.6953 122.411C91.7046 124.999 90.0004 127.099 87.0799 126.322C86.7803 126.243 86.4923 126.159 86.2114 126.067C86.3043 126.078 88.0918 126.304 88.8405 125.605C89.6103 124.887 89.5292 122.507 90.9465 120.92C92.3639 119.333 92.8128 119.487 92.8128 119.487Z" fill="#5283DB"/>
<path d="M92.9781 172.984C92.9781 172.984 94.4389 174.229 94.1533 175.111C93.8677 175.994 92.5503 176.585 92.3716 177.665C92.193 178.745 91.4808 179.334 90.8438 179.334H87.7881C87.7881 179.334 87.318 178.574 88.4557 178.347C89.5933 178.12 90.0258 176.848 89.9553 175.671C89.8848 174.493 90.0623 172.921 90.0623 172.921L92.4845 172.397L92.9781 172.984Z" fill="#0B2442"/>
<path d="M76.8779 179.112H85.8804C86.0502 179.112 86.2135 179.05 86.3354 178.94C86.4573 178.829 86.528 178.679 86.5326 178.52C86.5467 178.029 86.5033 177.314 86.2106 176.709C85.7299 175.716 85.4267 175.541 87.4564 172.652C86.8464 173.238 85.2011 172.97 83.8131 172.796C83.6427 173.053 81.0665 176.767 80.4989 177.148C79.8748 177.565 77.0754 177.415 76.8779 179.112Z" fill="#0B2442"/>
<path d="M90.9099 132.532C90.9099 132.532 84.3825 144.024 82.6079 150.351C81.2317 155.263 89.6336 174.266 89.6336 174.266C89.6336 174.266 90.3199 174.223 91.4411 173.813C92.5411 173.41 92.9595 172.327 92.9595 172.327C92.9595 172.327 92.4612 158.74 90.7606 152.167C90.3787 150.691 92.6105 145.931 96.376 143.324C100.141 140.718 101.709 132.33 99.4681 131.763C97.2269 131.197 90.9099 132.532 90.9099 132.532Z" fill="#163560"/>
<path d="M96.4971 129.27C96.4971 129.27 89.6359 152.736 87.5546 158.009C85.4732 163.282 82.166 174.464 82.166 174.464C83.673 175.038 85.3222 175.204 86.9258 174.946C86.9258 174.946 96.9601 161.232 97.3961 155.17C97.5983 152.368 107.691 141.262 106.563 134.019L96.4971 129.27Z" fill="#1C468A"/>
<path d="M106.555 136.593C106.555 136.593 105.094 137.28 102.514 137.482C99.5578 137.712 95.1306 137.306 89.7398 134.506C89.7398 134.506 88.2354 133.35 90.0841 128.433C91.4791 124.712 92.1561 116.864 93.8672 109.715C93.8672 109.715 99.405 108.094 103.847 109.495C107.242 110.567 106.903 115.426 107.531 120.487C107.588 120.959 107.656 121.432 107.734 121.906C108.661 127.443 106.555 136.593 106.555 136.593Z" fill="#739AF0"/>
<path d="M91.9204 99.1243C91.9204 99.1243 95.6942 93.3851 98.6194 96.3369C98.6194 96.3369 100.533 96.7931 101.629 99.5728C102.747 102.408 101.005 104.912 99.8428 104.507C99.0965 104.247 98.7475 105.447 98.7475 105.447L91.9204 99.1243Z" fill="#233862"/>
<path d="M98.042 95.8862C98.042 95.8862 98.3017 93.5101 102.024 93.7403C102.024 93.7403 100.261 93.7699 99.886 94.4553C99.886 94.4553 101.166 93.6877 102.099 94.0594C103.032 94.4311 103.428 96.0639 103.378 96.5814C103.327 97.099 102.61 98.7219 101.983 98.8063C101.355 98.8907 100.534 98.4773 100.534 98.4773L98.042 95.8862Z" fill="#233862"/>
<path d="M99.9121 109.347C99.5596 108.478 99.0425 107.565 98.6194 104.789L98.3961 104.862L94.6353 106.097C94.6353 106.097 94.8985 107.22 95.0666 108.29C95.1347 108.729 95.1841 109.508 95.2158 110.189C95.2476 110.87 95.9833 110.957 96.7296 110.919C98.7287 110.833 99.824 110.142 99.9121 109.347Z" fill="#FFB27D"/>
<path d="M94.6489 106.096C94.6489 106.096 94.9122 107.219 95.0802 108.289C97.2357 107.942 98.0948 105.946 98.405 104.863L94.6489 106.096Z" fill="#E8945B"/>
<path d="M98.7442 104.416C98.7442 104.416 99.6198 102.591 99.6703 101.126C99.7068 100.079 98.5656 96.3719 94.5756 97.4641C93.7716 97.6809 93.0298 98.0631 92.4049 98.5825C91.6069 99.2591 90.5163 100.634 92.4531 103.744L92.9961 104.809L98.7442 104.416Z" fill="#233862"/>
<path d="M94.0826 107.207C94.0826 107.207 99.2149 106.597 98.7589 103.621C98.3029 100.645 98.6578 98.5615 95.3612 98.8258C92.0647 99.0901 91.6004 100.309 91.4982 101.337C91.3959 102.364 92.7357 107.289 94.0826 107.207Z" fill="#FFB27D"/>
<path d="M93.0186 99.066C93.0186 99.066 94.9589 102.369 97.1907 102.596C99.4225 102.823 100.271 102.157 100.271 102.157C99.0754 101.43 98.1876 100.338 97.7595 99.0682C97.7595 99.0682 93.8189 97.2622 93.0186 99.066Z" fill="#233862"/>
<path d="M93.4093 99.3028C93.4093 99.3028 92.482 100.223 92.3445 101.015C92.207 101.806 92.3316 103.382 91.8368 103.395C91.8368 103.395 90.4136 101.164 91.3938 99.6669C92.4327 98.0693 93.4093 99.3028 93.4093 99.3028Z" fill="#233862"/>
<path d="M93.2339 99.4466C93.2339 99.4466 94.797 102.969 97.6916 103.774C97.6916 103.774 94.636 101.893 94.0272 99.5113C93.4184 97.1297 93.2339 99.4466 93.2339 99.4466Z" fill="#233862"/>
<path d="M106.555 136.593C106.555 136.593 105.095 137.28 102.514 137.482C102.514 137.482 100.392 135.001 102.759 132.219C105.126 129.437 102.574 124.309 104.396 121.519C105.665 119.577 106.899 120.03 107.533 120.482C107.59 120.955 107.658 121.428 107.737 121.901C108.661 127.443 106.555 136.593 106.555 136.593Z" fill="#5283DB"/>
<path d="M115.864 132.47C115.864 132.47 116.179 133.153 116.619 133.199C117.336 133.273 118.702 133.834 118.917 133.953C119.499 134.276 119.459 135.717 118.879 135.853C118.298 135.988 118.005 134.778 116.189 134.454C115.573 134.345 114.675 134.742 114.308 133.364L115.864 132.47Z" fill="#FFB27D"/>
<path d="M103.847 109.495C109.136 111.309 109.326 120.043 111.682 123.889C114.112 127.857 116.477 133.078 116.477 133.078C116.477 133.078 116.435 133.234 115.529 133.476C115.103 133.579 114.662 133.613 114.224 133.575C114.224 133.575 109.232 129.361 107.878 127.699C106.524 126.036 103.32 118.321 103.32 118.321C103.32 118.321 101.749 108.773 103.847 109.495Z" fill="#739AF0"/>
<path d="M114.441 133.705C114.441 133.705 114.569 134.292 115.348 134.767C116.127 135.242 116.753 135.716 116.828 135.425C116.903 135.133 116.394 134.814 116.273 134.271C116.152 133.728 114.441 133.705 114.441 133.705Z" fill="#FFB27D"/>
<path d="M38.2209 179.299H49.8829C50.5081 178.804 49.4504 177.681 48.3457 177.605C47.8662 177.571 47.2597 177.665 46.5663 177.801C46.4053 175.813 45.4886 166.872 42.0346 167.232C38.1562 167.633 42.0346 171.168 43.1322 173.263C43.9455 174.813 44.8035 177.036 45.196 178.087C44.881 178.151 44.5543 178.213 44.2205 178.27C43.7058 176.797 41.7901 171.836 39.355 172.13C36.4944 172.469 37.6438 174.458 39.6711 175.639C41.159 176.507 42.9842 177.741 43.8527 178.337C43.0995 178.46 42.3359 178.517 41.5715 178.508C39.5736 178.454 38.5981 179.003 38.2209 179.299Z" fill="#A8D29F"/>
<path d="M278.316 179.125H269.528C269.058 178.752 269.854 177.905 270.686 177.848C271.048 177.823 271.509 177.893 272.028 177.996C272.146 176.498 272.839 169.761 275.442 170.032C278.369 170.335 275.442 172.999 274.62 174.576C274.006 175.744 273.36 177.419 273.065 178.209C273.3 178.257 273.548 178.304 273.799 178.348C274.187 177.236 275.63 173.499 277.466 173.716C279.62 173.972 278.759 175.471 277.231 176.36C276.11 177.018 274.735 177.944 274.08 178.393C274.648 178.485 275.223 178.528 275.799 178.521C277.294 178.485 278.03 178.905 278.316 179.125Z" fill="#A8D29F"/>
<path d="M185.119 108.252C185.532 109.287 186.246 110.489 187 110.787C187.85 111.126 188.205 111.604 188.205 111.604L188.893 111.232L189.716 110.787C189.716 110.787 189.696 110.703 189.656 110.568C189.616 110.433 189.555 110.239 189.471 110.019C189.397 109.922 189.35 109.809 189.333 109.69C189.316 109.571 189.33 109.451 189.374 109.338C189.529 108.959 189.491 108.373 189.234 108.016C188.976 107.659 188.717 106.78 188.558 106.81C188.175 106.871 188.747 108.08 188.583 108.304C188.549 108.364 188.492 108.41 188.424 108.432C188.355 108.453 188.28 108.45 188.215 108.422H188.208C187.131 107.983 185.825 105.599 185.247 105.921C185.03 106.036 184.946 107.811 185.119 108.252Z" fill="#FFB27D"/>
<path d="M188.847 109.694L187.497 110.578C187.451 110.607 187.395 110.619 187.339 110.61C187.284 110.601 187.235 110.572 187.202 110.529L183.748 105.943C183.716 105.9 183.704 105.847 183.713 105.795C183.722 105.744 183.753 105.698 183.799 105.667L185.148 104.784C185.194 104.754 185.251 104.742 185.306 104.751C185.362 104.76 185.411 104.789 185.443 104.832L188.898 109.419C188.93 109.462 188.943 109.515 188.933 109.566C188.924 109.618 188.892 109.664 188.847 109.694Z" fill="#2B478B"/>
<path d="M183.913 105.6L183.123 106.118C183.05 106.166 183.033 106.26 183.084 106.327L186.597 110.992C186.648 111.06 186.749 111.076 186.821 111.028L187.612 110.51C187.685 110.462 187.702 110.368 187.651 110.301L184.138 105.636C184.086 105.569 183.986 105.552 183.913 105.6Z" fill="#233862"/>
<path d="M208.196 103.111C208.196 103.111 201.333 114.279 198.844 116.335L189.714 109.984C189.714 109.984 188.39 110.364 187.809 111.604C187.809 111.604 194.825 122.154 198.812 122.589C204.253 123.184 211.931 109.958 211.931 109.958L208.196 103.111Z" fill="#233862"/>
<path d="M221.02 179.261H224.986C225.484 179.008 225.926 178.429 226.069 177.566C226.263 176.374 227.696 175.724 228.005 174.749C228.314 173.774 226.727 172.402 226.727 172.402L226.462 172.083L226.185 171.754L223.549 172.327C223.549 172.327 223.484 172.912 223.445 173.657C223.41 174.224 223.406 174.792 223.433 175.36C223.511 176.66 223.044 178.06 221.805 178.312C220.894 178.503 220.936 179.015 221.02 179.261Z" fill="#2D4C7F"/>
<path d="M200.713 179.073H209.781C210.217 178.577 210.057 176.744 209.992 176.147C209.977 176.026 209.968 175.956 209.968 175.956C209.968 175.956 206.871 173.644 206.442 175.414C206.429 175.47 206.414 175.524 206.396 175.578C205.861 177.232 203.458 177.984 202.069 178.194C201.17 178.331 200.836 178.768 200.713 179.073Z" fill="#2D4C7F"/>
<path d="M202.441 131.846C202.441 131.846 202.912 137.32 203.465 143.899C204.216 152.837 205.119 163.815 205.209 165.895C205.363 169.507 205.984 175.284 205.984 175.284C205.984 175.284 207.453 176.656 210.396 176.077C210.396 176.077 213.016 167.83 213.765 159.105L213.8 158.674C214.497 149.793 215.58 131.087 215.58 131.087L202.441 131.846Z" fill="#F99746"/>
<path d="M202.441 131.846C202.441 131.846 202.912 137.32 203.465 143.899L213.765 159.105L213.8 158.674C214.497 149.793 215.58 131.087 215.58 131.087L202.441 131.846Z" fill="#ED7D2B"/>
<path d="M204.738 130.952C204.738 130.952 211.847 151.18 216.746 160.767C221.644 170.354 223.197 173.039 223.197 173.039C223.197 173.039 226.395 172.013 226.723 171.216C226.723 171.216 225.026 154.391 221.634 149.822C219.718 147.241 218.429 138.45 218.471 135.849C218.513 133.248 218.197 128.077 218.197 128.077L204.738 130.952Z" fill="#F99746"/>
<path d="M206.698 103.597C210.01 104.572 215.741 101.94 215.741 101.94C215.741 101.94 212.685 99.8021 212.847 95.3557L210.286 97.2823L208.547 98.5894C208.57 99.2998 208.635 100.008 208.741 100.712C208.74 100.716 208.74 100.719 208.741 100.722C208.789 101.054 208.743 101.391 208.606 101.701C208.469 102.01 208.247 102.28 207.962 102.483C207.495 102.807 207.071 103.181 206.698 103.597Z" fill="#FFB27D"/>
<path d="M208.547 98.5893C208.57 99.2997 208.635 100.008 208.741 100.712C210.669 100.403 212.855 97.496 212.855 97.496C212.024 97.2534 211.147 97.1786 210.283 97.2767L208.547 98.5893Z" fill="#ED975D"/>
<path d="M207.534 98.5156C207.534 98.5156 213.005 99.3643 213.518 96.1767C214.032 92.9891 215.084 90.9539 211.612 90.2774C208.14 89.6008 207.264 90.716 206.816 91.7467C206.368 92.7775 206.124 98.213 207.534 98.5156Z" fill="#FFB27D"/>
<path d="M202.076 132.303C202.174 132.383 202.299 132.427 202.429 132.427C203.672 132.411 207.299 133.056 210.368 132.762C212.953 132.53 215.245 131.815 217.704 130.789C218.03 130.653 218.781 130.278 218.761 129.938C218.751 129.565 218.711 129.024 218.661 128.342C218.486 125.975 218.183 121.901 218.479 117.203C218.532 116.325 218.56 115.459 218.564 114.605C218.589 108.236 217.236 102.634 214.516 100.738C214.281 100.583 212.857 101.233 211.546 101.835C210.336 102.393 209.406 102.448 208.262 102.232L206.837 103.181C205.443 104.387 203.918 106.032 203.255 108.52C202.69 110.64 202.359 114.462 202.176 118.424C202.094 120.219 202.027 122.03 202.01 123.748V123.809C201.994 123.979 201.994 124.166 201.994 124.336C201.925 128.742 201.993 132.239 202.076 132.303Z" fill="#2B478B"/>
<path d="M218.661 128.338C218.486 125.97 218.182 121.897 218.479 117.198C218.532 116.321 218.56 115.455 218.563 114.601C217.43 112.036 216.504 110.176 216.504 110.176H213.648C213.648 110.176 211.554 123.52 218.661 128.338Z" fill="#233862"/>
<path d="M213.523 95.8709C213.523 95.8709 212.962 95.7832 213.053 95.0617C213.143 94.3402 213.142 93.3972 212.513 93.5726C211.884 93.748 211.853 94.2185 211.595 93.9443C211.338 93.6702 211.332 92.5188 209.461 92.4344C207.59 92.35 206.831 92.9607 205.96 92.6044C205.089 92.248 205.044 91.0188 205.044 91.0188C205.044 91.0188 205.292 91.4574 205.666 91.5967C205.666 91.5967 204.215 89.7446 205.894 88.4748C207.574 87.2051 209.288 88.0362 210.26 88.0911C212.403 88.2128 213.786 88.3323 214.491 89.6459C215.196 90.9596 214.898 94.6066 213.523 95.8709Z" fill="#2B478B"/>
<path d="M255.186 176.849C255.017 177.836 255.811 178.987 256.963 179.409C258.115 179.83 259.186 179.369 259.357 178.378C259.527 177.387 258.732 176.24 257.58 175.817C256.428 175.395 255.356 175.858 255.186 176.849Z" fill="#1C468A"/>
<path d="M240.563 176.876C240.392 177.863 241.188 179.014 242.34 179.436C243.491 179.858 244.563 179.396 244.734 178.404C244.904 177.413 244.108 176.266 242.957 175.845C241.805 175.424 240.733 175.885 240.563 176.876Z" fill="#1C468A"/>
<path d="M259.336 176.603L256.712 177.605C256.434 177.709 256.136 177.76 255.837 177.754L239.345 177.626L236.759 174.775L259.336 176.603Z" fill="#739AF0"/>
<path d="M242.45 143.627L236.139 135.006L236.131 134.989C236.091 134.913 235.085 133.067 229.743 132.566H229.719L225.32 132.011C224.75 131.915 223.109 131.742 222.382 132.095C222.057 132.251 221.935 132.504 222.008 132.862C222.151 133.578 226.344 139.169 229.127 142.753L228.305 142.947C227.59 142.026 221.313 133.924 221.106 132.893C220.998 132.355 221.224 131.944 221.781 131.677C222.975 131.1 225.275 131.458 225.519 131.498L229.858 132.046C235.61 132.589 236.877 134.621 237.005 134.854L243.294 143.445L242.45 143.627Z" fill="#1C468A"/>
<path d="M231.628 141.918L223.219 143.635C223.219 143.635 220.907 144.647 222.615 148.988C224.118 152.808 231.995 174.242 231.995 174.242C231.995 174.242 233.641 178.703 243.233 177.389L231.628 141.918Z" fill="#739AF0"/>
<path d="M228.329 147.824L237.321 171.828C237.694 172.802 238.283 173.691 239.049 174.439C240.459 175.825 242.386 176.721 244.278 176.729L252.524 176.762H252.727L257.893 176.781C258.381 176.786 258.867 176.725 259.336 176.598C259.44 176.57 259.54 176.539 259.639 176.504C261.268 175.934 262.259 174.541 262.297 172.829C262.305 172.033 262.138 171.244 261.805 170.511L251.747 147.545C250.674 145.096 248.075 143.221 245.431 142.99L243.94 142.859L243.587 142.828L243.289 142.802L238.306 142.364L237.695 142.311L232.886 141.891C232.193 141.823 231.492 141.888 230.827 142.081C230.787 142.093 230.745 142.105 230.709 142.119L230.462 142.208C228.368 143.049 227.377 145.283 228.329 147.824Z" fill="#83B0FF"/>
<g opacity="0.5">
<path d="M239.048 174.439C240.459 175.825 242.386 176.721 244.278 176.729L252.524 176.762H252.727L257.892 176.781C258.38 176.786 258.867 176.725 259.336 176.598C259.44 176.57 259.54 176.539 259.639 176.504C261.268 175.934 262.757 173.861 262.182 171.667C262.182 171.667 244.707 171.483 241.216 172.029C239.415 172.311 239.199 173.568 239.048 174.439Z" fill="#739AF0"/>
</g>
<path d="M243.286 142.806C243.328 142.828 247.759 145.047 248.799 147.003C249.868 149.013 259.764 172.443 259.864 172.685C259.872 172.704 260.589 174.969 259.092 176.66L259.336 176.6C259.441 176.571 259.541 176.54 259.639 176.505C261.001 174.751 260.198 172.732 260.16 172.643C259.752 171.676 250.157 148.958 249.082 146.932C248.142 145.159 244.959 143.395 243.94 142.863L243.588 142.832L243.286 142.806Z" fill="#739AF0"/>
<path d="M237.691 142.318C238.339 142.672 240.855 144.194 242.077 147.009C243.51 150.31 252.159 174.298 252.246 174.539L252.253 174.557L252.262 174.573C252.269 174.585 252.918 175.879 252.317 176.766H252.728C253.276 175.821 252.638 174.664 252.544 174.502C252.276 173.759 243.793 150.242 242.371 146.967C241.314 144.541 239.343 143.036 238.303 142.374L237.691 142.318Z" fill="#739AF0"/>
<path d="M230.457 142.216C231.11 142.539 231.72 142.934 232.273 143.392C233.43 144.354 234.335 145.55 234.919 146.889C236.352 150.188 244.556 174.097 244.636 174.337L244.643 174.356L244.654 174.373C244.661 174.386 245.134 175.848 244.536 176.73H245.057C245.481 175.925 245.041 174.472 244.939 174.299C244.677 173.531 236.64 150.117 235.219 146.842C233.881 143.762 231.356 142.354 230.828 142.086C230.788 142.098 230.747 142.11 230.71 142.125L230.457 142.216Z" fill="#739AF0"/>
<path d="M224.46 127.332C224.46 127.332 224.827 129.779 224.853 130.097C225.025 132.249 224.699 132.456 225.957 132.838C226.309 132.948 227.249 132.948 227.795 132.323C227.795 132.323 226.916 132.27 227.067 131.088C227.242 129.725 227.151 130.111 226.266 129.005L226.06 126.961L224.46 127.332Z" fill="#FFB27D"/>
<path d="M225.653 129.406C224.946 129.519 224.227 129.556 223.511 129.516C223.511 129.516 220.455 120.716 220.064 119.912C219.672 119.108 210.996 109.594 210.996 109.594L214.61 101.151C214.61 101.151 223.994 115.775 224.952 117.83C226.527 121.229 227.067 128.839 227.067 128.839C226.64 129.113 226.16 129.306 225.653 129.406Z" fill="#2B478B"/>
<path d="M224.853 130.097C224.853 130.097 224.631 130.634 224.624 130.885C224.599 131.693 224.358 132.068 224.506 132.139C224.826 132.287 225.143 131.655 225.264 131.107C225.385 130.559 224.853 130.097 224.853 130.097Z" fill="#FFB27D"/>
<path d="M59.5352 35.5072C59.5352 35.5072 61.224 32.6858 65.2645 32.9994C65.2645 32.9994 71.1302 28.2953 77.3837 32.3722C77.3837 32.3722 84.0322 31.3612 88.9565 33.2494C92.2389 34.5061 93.3237 35.8241 93.3237 35.8241L59.5352 35.5072Z" fill="#F8FCFF"/>
<path d="M87.1538 23.5592C87.1538 23.5592 90.9158 17.2772 99.9135 17.9724C99.9135 17.9724 112.976 7.49507 126.907 16.5754C126.907 16.5754 141.715 14.3253 152.68 18.5228C159.993 21.3223 162.406 24.2577 162.406 24.2577L87.1538 23.5592Z" fill="#F8FCFF"/>
<path d="M74.5503 47.2714C74.5503 47.2714 77.4144 42.5882 84.2626 43.1046C84.2626 43.1046 94.2052 35.2974 104.807 42.0629C104.807 42.0629 116.078 40.3874 124.425 43.5147C129.989 45.5981 131.829 47.7912 131.829 47.7912L74.5503 47.2714Z" fill="#F8FCFF"/>
<path d="M296.887 179.062H1.29757C1.10868 179.062 0.955566 179.205 0.955566 179.381V179.502C0.955566 179.678 1.10868 179.821 1.29757 179.821H296.887C297.076 179.821 297.229 179.678 297.229 179.502V179.381C297.229 179.205 297.076 179.062 296.887 179.062Z" fill="#2E3552"/>
</g>
<defs>
<clipPath id="clip0_48_7925">
<rect width="296.273" height="180" fill="white" transform="translate(0.957031)"/>
</clipPath>
</defs>
</svg>
