<svg width="28" height="28" viewBox="0 0 28 28" fill="none" xmlns="http://www.w3.org/2000/svg">
<g id="MedalMilitary">
<path id="Vector" opacity="0.2" d="M18.375 20.125C18.375 20.9903 18.1184 21.8362 17.6377 22.5556C17.1569 23.2751 16.4737 23.8358 15.6742 24.167C14.8748 24.4981 13.9951 24.5847 13.1465 24.4159C12.2978 24.2471 11.5183 23.8304 10.9064 23.2186C10.2946 22.6067 9.87787 21.8272 9.70906 20.9785C9.54025 20.1299 9.62689 19.2502 9.95803 18.4508C10.2892 17.6513 10.8499 16.9681 11.5694 16.4873C12.2888 16.0066 13.1347 15.75 14 15.75C15.1603 15.75 16.2731 16.2109 17.0936 17.0314C17.9141 17.8519 18.375 18.9647 18.375 20.125ZM22.6406 4.375H18.375V13.7616L23.0475 11.6375C23.2198 11.5593 23.3658 11.4331 23.4683 11.2741C23.5707 11.115 23.6251 10.9298 23.625 10.7406V5.35937C23.625 5.0983 23.5213 4.84792 23.3367 4.66332C23.1521 4.47871 22.9017 4.375 22.6406 4.375ZM9.625 4.375H5.35938C5.0983 4.375 4.84792 4.47871 4.66332 4.66332C4.47871 4.84792 4.375 5.0983 4.375 5.35937V10.7406C4.3749 10.9298 4.42931 11.115 4.53173 11.2741C4.63415 11.4331 4.78024 11.5593 4.9525 11.6375L9.625 13.7616V4.375Z" fill="#00B0CB"/>
<path id="Vector_2" d="M4.80062 11.9786L4.79963 11.9781C4.56158 11.8705 4.35956 11.6967 4.21775 11.4773C4.07599 11.258 4.00039 11.0025 4 10.7414V5.35938C4 4.99885 4.14322 4.65308 4.39815 4.39815C4.65308 4.14322 4.99885 4 5.35937 4H22.6406C23.0012 4 23.3469 4.14322 23.6018 4.39815C23.8568 4.65308 24 4.99885 24 5.35938V10.7411C23.9997 11.0023 23.9241 11.2579 23.7823 11.4773C23.6404 11.6967 23.4384 11.8705 23.2004 11.9781L23.1992 11.9787L16.361 15.0904L15.462 15.4995L16.324 15.9818C17.2412 16.4951 17.9623 17.2981 18.3743 18.2651C18.7863 19.2321 18.8659 20.3084 18.6007 21.3255C18.3354 22.3426 17.7404 23.243 16.9086 23.8856C16.0769 24.5283 15.0555 24.8769 14.0044 24.8769C12.9533 24.8769 11.9319 24.5283 11.1001 23.8856C10.2684 23.243 9.67331 22.3426 9.40808 21.3255C9.14286 20.3084 9.22247 19.2321 9.63446 18.2651C10.0465 17.2981 10.7675 16.4951 11.6848 15.9818L12.5472 15.4992L11.6475 15.0903L4.80062 11.9786ZM18 5.25V4.75H17.5H10.5H10V5.25V13.1983V13.5203L10.2932 13.6535L13.7932 15.2438L14 15.3378L14.2068 15.2438L17.7068 13.6535L18 13.5203V13.1983V5.25ZM4.75 10.7417L4.75 10.7428C4.75025 10.86 4.78429 10.9746 4.84806 11.073L4.84807 11.073C4.91156 11.1709 5.00185 11.2486 5.10817 11.2967C5.10862 11.2969 5.10907 11.2971 5.10953 11.2973L8.54319 12.8573L9.25 13.1784V12.402V5.25V4.75H8.75H5.35937C5.19776 4.75 5.04276 4.8142 4.92848 4.92848C4.8142 5.04276 4.75 5.19776 4.75 5.35938L4.75 10.7417ZM23.25 10.7428V10.7417V5.35938C23.25 5.19777 23.1858 5.04277 23.0715 4.92848C22.9572 4.8142 22.8022 4.75 22.6406 4.75H19.25H18.75V5.25V12.402V13.1784L19.4568 12.8573L22.8905 11.2973C22.8909 11.2971 22.8913 11.2969 22.8917 11.2968C22.9981 11.2486 23.0884 11.171 23.1519 11.073L23.152 11.073C23.2157 10.9746 23.2498 10.86 23.25 10.7428ZM11.7777 23.4509C12.4355 23.8904 13.2089 24.125 14 24.125C15.0609 24.125 16.0783 23.7036 16.8284 22.9534C17.5786 22.2033 18 21.1859 18 20.125C18 19.3339 17.7654 18.5605 17.3259 17.9027C16.8864 17.2449 16.2616 16.7322 15.5307 16.4295C14.7998 16.1267 13.9956 16.0475 13.2196 16.2019C12.4437 16.3562 11.731 16.7372 11.1716 17.2966C10.6122 17.856 10.2312 18.5687 10.0769 19.3446C9.92252 20.1206 10.0017 20.9248 10.3045 21.6557C10.6072 22.3866 11.1199 23.0114 11.7777 23.4509Z" fill="#0028A3" stroke="#0028A3"/>
</g>
</svg>
