<svg width="24" height="24" viewBox="0 0 24 24" fill="none" xmlns="http://www.w3.org/2000/svg">
<g id="NumberCircleOne">
<path id="Vector" opacity="0.2" d="M21 12C21 13.78 20.4722 15.5201 19.4832 17.0001C18.4943 18.4802 17.0887 19.6337 15.4442 20.3149C13.7996 20.9961 11.99 21.1743 10.2442 20.8271C8.49836 20.4798 6.89472 19.6226 5.63604 18.364C4.37737 17.1053 3.5202 15.5016 3.17294 13.7558C2.82567 12.01 3.0039 10.2004 3.68509 8.55585C4.36628 6.91131 5.51983 5.50571 6.99987 4.51677C8.47991 3.52784 10.22 3 12 3C14.387 3 16.6761 3.94821 18.364 5.63604C20.0518 7.32387 21 9.61305 21 12Z" fill="#00B0CB"/>
<path id="Vector_2" d="M12 2.25C10.0716 2.25 8.18657 2.82183 6.58319 3.89317C4.97982 4.96451 3.73013 6.48726 2.99218 8.26884C2.25422 10.0504 2.06114 12.0108 2.43735 13.9021C2.81355 15.7934 3.74215 17.5307 5.10571 18.8943C6.46928 20.2579 8.20656 21.1865 10.0979 21.5627C11.9892 21.9389 13.9496 21.7458 15.7312 21.0078C17.5127 20.2699 19.0355 19.0202 20.1068 17.4168C21.1782 15.8134 21.75 13.9284 21.75 12C21.7473 9.41498 20.7192 6.93661 18.8913 5.10872C17.0634 3.28084 14.585 2.25273 12 2.25ZM12 20.25C10.3683 20.25 8.77326 19.7661 7.41655 18.8596C6.05984 17.9531 5.00242 16.6646 4.378 15.1571C3.75358 13.6496 3.5902 11.9908 3.90853 10.3905C4.22685 8.79016 5.01259 7.32015 6.16637 6.16637C7.32016 5.01259 8.79017 4.22685 10.3905 3.90852C11.9909 3.59019 13.6497 3.75357 15.1571 4.37799C16.6646 5.00242 17.9531 6.05984 18.8596 7.41655C19.7661 8.77325 20.25 10.3683 20.25 12C20.2475 14.1873 19.3775 16.2843 17.8309 17.8309C16.2843 19.3775 14.1873 20.2475 12 20.25ZM13.125 7.5V16.5C13.125 16.6989 13.046 16.8897 12.9053 17.0303C12.7647 17.171 12.5739 17.25 12.375 17.25C12.1761 17.25 11.9853 17.171 11.8447 17.0303C11.704 16.8897 11.625 16.6989 11.625 16.5V8.90625L10.5413 9.62906C10.4593 9.68373 10.3673 9.7217 10.2706 9.74083C10.174 9.75995 10.0745 9.75985 9.97784 9.74052C9.88121 9.72119 9.78933 9.68302 9.70745 9.62819C9.62557 9.57336 9.55529 9.50293 9.50063 9.42094C9.44597 9.33894 9.40799 9.24699 9.38887 9.15031C9.36974 9.05364 9.36985 8.95415 9.38917 8.85752C9.4085 8.76089 9.44667 8.66901 9.5015 8.58713C9.55634 8.50525 9.62676 8.43498 9.70875 8.38031L11.9588 6.88031C12.0714 6.80515 12.2023 6.7619 12.3375 6.75513C12.4728 6.74836 12.6073 6.77834 12.7269 6.84188C12.8465 6.90542 12.9467 7.00016 13.0168 7.11603C13.0868 7.2319 13.1242 7.36458 13.125 7.5Z" fill="#0028A3"/>
</g>
</svg>
