<svg width="221" height="152" viewBox="0 0 221 152" fill="none" xmlns="http://www.w3.org/2000/svg">
<g clip-path="url(#clip0_390_1042)">
<path d="M189.115 28.4924C159.292 17.4554 128.98 27.2131 108.423 48.4658C87.8653 69.7185 44.7216 33.7969 21.8404 55.015C6.22515 69.4952 13.3776 106.725 34.7889 122.849C63.8917 144.767 152.397 133.646 171.542 129.916C193.599 125.619 209.724 112.581 216.276 96.7568C232.062 58.6285 202.295 33.3698 189.115 28.4924Z" fill="#E9F2FD"/>
<path d="M57.6434 108.549L119.52 108.549C120.181 108.549 120.718 108.014 120.718 107.355V107.355C120.718 106.696 120.181 106.161 119.52 106.161L57.6434 106.161C56.9821 106.161 56.446 106.696 56.446 107.355C56.446 108.014 56.9821 108.549 57.6434 108.549Z" fill="#415B96"/>
<path d="M40.9338 74.164C40.0815 77.1594 42.1631 80.2461 44.4562 80.8945C46.7493 81.543 48.3856 79.5076 49.238 76.5123C50.0903 73.5169 48.9223 70.563 46.6292 69.9145C44.336 69.266 41.7862 71.1686 40.9338 74.164Z" fill="#DA975D"/>
<path d="M53.7905 132.207C53.7905 132.207 47.9135 141.306 47.1198 141.702C46.326 142.097 44.3417 142.196 45.0858 143.68C45.83 145.163 46.1276 150.999 46.8221 151.295C47.5166 151.592 53.4696 152.284 52.5767 151.295C51.6837 150.306 51.1344 150.801 50.6839 149.02C50.2334 147.24 49.6002 143.877 50.4435 143.185C51.2868 142.493 56.446 136.262 56.446 136.262L53.7905 132.207Z" fill="#DA975D"/>
<path d="M83.3691 136.114C83.3691 136.114 90.513 147.852 91.8359 148.907C93.1588 149.962 97.5245 151.544 93.9526 151.808C90.3807 152.072 88.6609 150.621 86.4119 149.962C84.1629 149.302 81.3847 148.907 82.443 147.192C83.5014 145.478 83.0618 141.735 80.7803 139.361C78.4987 136.987 83.3691 136.114 83.3691 136.114Z" fill="#DA975D"/>
<path d="M46.913 108.897C46.913 108.897 64.5976 108.436 71.6091 114.172C75.7102 120.371 85.6315 138.659 86.4027 140.674C85.8736 141.202 82.8969 142.154 81.5739 142.022C77.6713 137.383 72.5128 133.373 70.4613 129.734C67.9331 125.25 67.154 123.008 63.0528 122.612C58.9517 122.217 49.6912 120.898 46.913 120.898C44.1348 120.898 46.913 108.897 46.913 108.897Z" fill="#748FC5"/>
<path d="M31.4915 151.84H32.4184L39.0659 124.192H37.0265L31.4915 151.84Z" fill="#415B96"/>
<path d="M59.2602 151.84H58.3332L50.7053 123.215H52.7446L59.2602 151.84Z" fill="#415B96"/>
<path d="M36.8379 107.69L47.1196 109.459C47.1196 109.459 60.7827 109.584 67.0281 110.744C72.7102 111.799 73.5475 118.235 67.0281 127.097C63.3248 132.131 60.1936 136.147 53.7903 140.675C52.1615 139.482 51.5383 139.031 51.0882 136.163C51.5517 135.53 52.7513 131.565 53.1236 130.789C56.6654 123.409 61.3928 120.725 61.4584 119.999C60.6646 118.713 40.4335 126.701 36.4109 122.002C32.5704 117.516 36.8379 107.69 36.8379 107.69Z" fill="#819FDA"/>
<path d="M36.4111 84.4855C39.119 84.1065 41.8768 84.6197 44.4561 86.4811C46.7101 88.7714 49.2603 92.5484 49.1041 98.7785C48.9056 106.691 50.3323 107.199 48.8441 109.375C42.6371 111.93 32.021 122.909 34.521 111.139C36.3312 102.617 30.5508 96.2643 35.2139 86.811C35.5934 86.0417 36.0677 85.2955 36.4111 84.4855Z" fill="#D67068"/>
<path d="M49.1058 101.756C49.2264 105.881 49.8108 107.096 49.364 108.389C46.8335 108.647 42.2047 109.656 41.048 111.271C39.7251 113.117 38.4021 113.381 39.0195 112.018C39.6369 110.655 41.2684 108.721 38.7549 102.083C36.2413 95.4452 35.0507 90.9612 37.5202 86.3455L49.1058 101.756Z" fill="#B84B43"/>
<path d="M36.4111 84.4858C38.0786 80.5508 38.4881 76.1296 38.4881 76.1296L42.8536 77.4154C42.8536 77.4154 40.3732 82.9541 42.7543 84.9322C43.2606 85.3527 43.8476 85.8631 44.4562 86.4815C41.8769 84.62 39.119 84.1068 36.4111 84.4858Z" fill="#DA975D"/>
<path d="M38.3564 77.1772C38.6149 76.9478 38.9385 76.6615 39.2785 76.3622L42.8392 77.4109C42.8417 77.4173 42.8442 77.4237 42.8467 77.4302C42.7607 77.6263 41.8538 79.7359 41.7343 81.7653C40.6732 81.1236 39.5114 80.0772 38.1831 78.2493C38.255 77.8438 38.3121 77.4821 38.3564 77.1772Z" fill="#CC8346"/>
<path d="M39.4802 85.7233C43.9764 87.2908 43.4777 92.0128 47.6158 98.9766C49.7574 102.58 51.7463 102.527 51.7463 102.527C51.7463 102.527 56.7689 102.567 62.8437 101.826C66.6477 101.363 66.8893 102.492 64.2435 103.435C58.9076 105.336 53.3703 107.383 48.9056 106.889C44.4409 106.394 36.8047 95.0385 36.411 92.0824C35.8665 87.9942 37.2158 84.9338 39.4802 85.7233Z" fill="#DA975D"/>
<path d="M41.7955 125.345C42.0751 125.345 42.3612 125.341 42.655 125.334C46.3194 125.244 48.8138 124.738 50.818 124.332C53.1582 123.858 54.4472 123.597 55.9475 124.312C56.5235 124.586 57.2134 124.343 57.4886 123.769C57.7638 123.195 57.5201 122.507 56.9441 122.233C54.7453 121.185 52.9048 121.558 50.3577 122.074C48.4424 122.462 46.0587 122.945 42.5979 123.03C38.7246 123.127 36.363 122.554 35.1661 121.231C34.0995 120.052 33.7876 118.071 34.184 114.996C34.3197 113.944 34.4555 113.069 34.5753 112.297C34.9131 110.119 35.1363 108.68 34.8599 106.456C34.6033 104.39 33.9169 101.638 32.3277 96.3029C32.1461 95.693 31.5031 95.3454 30.8908 95.5264C30.2789 95.7076 29.9301 96.3489 30.1118 96.9589C33.0733 106.901 32.9231 107.87 32.2909 111.945C32.169 112.731 32.0309 113.621 31.8914 114.703C31.4025 118.494 31.8975 121.058 33.4494 122.774C35.0475 124.54 37.6412 125.345 41.7955 125.345Z" fill="#415B96"/>
<path d="M82.8834 146.007C87.6235 148.318 90.1748 149.642 91.6944 149.516C92.0531 149.486 92.3504 149.45 92.5998 149.411C94.2902 150.407 96.9886 151.584 93.9525 151.808C90.3805 152.072 88.6608 150.621 86.4118 149.962C84.1628 149.303 81.3847 148.907 82.4429 147.192C82.6457 146.864 82.793 146.461 82.8834 146.007Z" fill="#B84B43"/>
<path d="M46.603 141.895C46.719 145.636 47.2348 149.343 49.5301 150.044C50.1386 150.229 50.6932 150.256 51.1839 150.191C51.5449 150.636 51.9854 150.641 52.5767 151.296C53.4696 152.285 47.5167 151.592 46.8222 151.296C46.1276 150.999 45.83 145.163 45.0859 143.68C44.4745 142.461 45.7045 142.177 46.603 141.895Z" fill="#B84B43"/>
<path d="M64.8613 106.488H79.9202C80.3699 106.488 80.7788 106.228 80.9683 105.822L87.0538 92.7656C87.3227 92.1886 87.0715 91.5034 86.4927 91.2353C85.9135 90.9673 85.2265 91.2176 84.9575 91.7946L79.1827 104.184H64.8613C64.223 104.184 63.7056 104.7 63.7056 105.336C63.7056 105.973 64.223 106.488 64.8613 106.488Z" fill="#819FDA"/>
<path d="M61.7108 101.957C64.7536 101.913 67.7713 100.105 69.2707 100.369C70.7699 100.633 75.6648 104.018 75.0475 104.15C74.4301 104.281 70.5494 102.276 70.4171 102.246C70.2848 102.215 69.447 103.634 67.3744 104.156C65.3018 104.677 67.3597 102.607 60.9351 104.542C56.7577 105.799 61.7108 101.957 61.7108 101.957Z" fill="#DA975D"/>
<path d="M36.8588 80.8947L36.4111 84.4856C36.4111 84.4856 40.3485 84.7191 42.3079 85.8182C44.2672 86.9172 47.1588 90.0924 47.1588 90.0924L44.7964 86.038L44.4562 83.4443L36.8588 80.8947Z" fill="#EDE3DC"/>
<path d="M38.5344 85.2907C41.459 84.7444 42.8118 87.3569 44.708 91.621C46.6043 95.8851 49.8413 101.064 50.4849 101.732C51.1285 102.4 61.333 101.732 61.333 101.732C61.333 101.732 61.6417 104.677 61.333 105.029C61.0243 105.38 59.2603 105.336 59.2603 105.336C59.2603 105.336 58.5548 105.898 57.8933 106.343C57.2319 106.787 51.6315 107.622 49.0297 107.491C46.4279 107.359 44.0466 107.139 43.6939 106.743C43.341 106.348 36.2413 95.4455 35.8003 91.533C35.3593 87.6206 37.0417 85.5696 38.5344 85.2907Z" fill="#EDE3DC"/>
<path d="M47.1587 67.3548C52.6899 67.6186 51.8224 75.9135 51.8224 75.9135C51.8224 75.9135 50.3857 76.3556 47.3761 75.8611C47.6076 74.9709 47.5084 72.6959 47.5084 72.6959C47.5084 72.6959 47.1587 74.5423 46.7146 75.6633C46.0784 75.954 45.3586 75.6962 44.1349 75.4015C43.5064 78.0371 41.7307 79.1507 40.515 79.5317C39.1715 79.9527 37.7496 80.4549 36.1621 79.6636C34.5746 78.8723 35.4476 70.7837 36.2905 69.1572C37.5558 66.7156 39.6589 64.5304 43.297 65.6843C45.1215 66.263 47.1587 67.3548 47.1587 67.3548Z" fill="#373E5F"/>
<path d="M37.5399 77.2062L35.2785 80.4989C35.2785 80.4989 37.7847 86.7412 30.4956 89.5694C24.7871 91.7843 25.4595 95.6868 28.0391 99.6116C30.6187 103.536 26.4957 106.964 26.4957 106.964C26.4957 106.964 25.8669 102.616 20.3204 101.795C12.7577 100.676 10.6162 90.5545 16.265 85.4934C20.9393 81.3052 22.3614 84.7736 25.5255 81.0152C28.6895 77.2568 34.6627 79.7955 34.6627 79.7955L36.852 76.6128L37.5399 77.2062Z" fill="#373E5F"/>
<path d="M13.6633 95.6897C13.696 95.6897 13.729 95.6819 13.7597 95.6652C13.8571 95.6119 13.8929 95.4901 13.8396 95.3929C11.938 91.9287 13.4898 87.7313 14.2701 86.5944C14.3528 86.4739 14.4314 86.3517 14.5144 86.2225C15.2812 85.0293 16.2355 83.5443 21.3277 82.6304C22.5542 82.4103 23.5471 81.6837 24.5984 80.9144C26.7698 79.3253 29.2309 77.524 34.5785 79.9776C34.6797 80.0241 34.7989 79.98 34.8453 79.8793C34.8917 79.7787 34.8476 79.6597 34.7467 79.6134C29.1843 77.0611 26.6213 78.9365 24.3603 80.5911C23.3477 81.3322 22.3912 82.0322 21.2564 82.2358C15.9915 83.1807 14.9847 84.7473 14.1757 86.0061C14.0943 86.1328 14.0175 86.2524 13.9381 86.3679C13.1205 87.5591 11.4948 91.9565 13.4867 95.5855C13.5233 95.6521 13.5922 95.6897 13.6633 95.6897Z" fill="#373E5F"/>
<path d="M38.7477 80.5801C39.1095 80.5801 39.501 80.5488 39.9223 80.4859C41.8574 80.1969 44.4535 79.1007 44.6571 72.9444C44.6608 72.8337 44.5737 72.7411 44.4627 72.7375C44.3497 72.7354 44.2587 72.8206 44.2551 72.9312C44.1712 75.4688 43.6662 77.3463 42.7542 78.5115C42.0612 79.3968 41.1424 79.8982 39.8626 80.0893C38.0719 80.3566 36.8847 80.0271 36.3348 79.1096C36.2776 79.0147 36.1541 78.9837 36.0589 79.0403C35.9636 79.0971 35.9325 79.2203 35.9894 79.3153C36.4937 80.1568 37.4192 80.5801 38.7477 80.5801Z" fill="#373E5F"/>
<path d="M50.2468 43.0753H35.4642C31.4409 43.0753 28.1794 46.3266 28.1794 50.3373V50.3374C28.1794 54.348 31.4409 57.5993 35.4642 57.5993H50.2468C54.2701 57.5993 57.5316 54.348 57.5316 50.3374V50.3373C57.5316 46.3266 54.2701 43.0753 50.2468 43.0753Z" fill="#B9DEFD"/>
<path d="M52.6867 55.2524V61.8048L45.9873 55.1263L52.6867 55.2524Z" fill="#B9DEFD"/>
<path d="M33.7942 51.7476C34.5006 51.7476 35.0732 51.1768 35.0732 50.4726C35.0732 49.7684 34.5006 49.1975 33.7942 49.1975C33.0878 49.1975 32.5151 49.7684 32.5151 50.4726C32.5151 51.1768 33.0878 51.7476 33.7942 51.7476Z" fill="white"/>
<path d="M39.3278 50.7642C39.4894 50.0787 39.063 49.3924 38.3753 49.2313C37.6877 49.0701 36.9992 49.4953 36.8376 50.1808C36.6759 50.8663 37.1024 51.5526 37.79 51.7137C38.4777 51.8748 39.1662 51.4497 39.3278 50.7642Z" fill="white"/>
<path d="M43.6164 50.7642C43.778 50.0787 43.3516 49.3924 42.6639 49.2313C41.9762 49.0701 41.2878 49.4953 41.1261 50.1808C40.9645 50.8663 41.391 51.5526 42.0786 51.7137C42.7663 51.8748 43.4548 51.4497 43.6164 50.7642Z" fill="white"/>
<path d="M47.9226 50.6768C48.0357 49.9817 47.5622 49.3267 46.8649 49.2139C46.1676 49.1011 45.5107 49.5732 45.3975 50.2683C45.2844 50.9634 45.7579 51.6183 46.4552 51.7311C47.1524 51.8439 47.8094 51.3718 47.9226 50.6768Z" fill="white"/>
<path d="M50.9485 51.7476C51.6549 51.7476 52.2275 51.1768 52.2275 50.4726C52.2275 49.7684 51.6549 49.1975 50.9485 49.1975C50.2421 49.1975 49.6694 49.7684 49.6694 50.4726C49.6694 51.1768 50.2421 51.7476 50.9485 51.7476Z" fill="white"/>
<path d="M76.3253 20.2856H72.3043C67.5375 20.2856 63.6733 24.1378 63.6733 28.8896V28.8896C63.6733 33.6414 67.5375 37.4935 72.3043 37.4935H76.3253C81.092 37.4935 84.9562 33.6414 84.9562 28.8896V28.8896C84.9562 24.1378 81.092 20.2856 76.3253 20.2856Z" fill="#B9DEFD"/>
<path d="M71.3726 36.9583L73.8109 41.2239L76.4961 36.9583H71.3726Z" fill="#B9DEFD"/>
<path d="M73.8545 28.4871L69.6064 25.2949H78.0815L73.8545 28.4871Z" fill="#456AC7"/>
<path d="M78.4374 26.1174V31.6575H69.251V26.1174L73.8546 29.5597L78.4374 26.1174Z" fill="#456AC7"/>
<path d="M219.042 152H0.248147C0.111793 152 0 151.855 0 151.68V151.57C0 151.395 0.111793 151.25 0.248147 151.25H219.042C219.18 151.25 219.291 151.395 219.291 151.57V151.68C219.291 151.855 219.18 152 219.042 152Z" fill="#343852"/>
<path d="M182.674 21.7607H104.326C100.431 21.7607 97.2742 24.9082 97.2742 28.7907V90.18C97.2742 94.0625 100.431 97.21 104.326 97.21H182.674C186.569 97.21 189.726 94.0625 189.726 90.18V28.7907C189.726 24.9082 186.569 21.7607 182.674 21.7607Z" fill="#87A9E6"/>
<path d="M143.618 0.406816C143.61 0.397552 143.6 0.388659 143.592 0.379395C140.011 4.2036 134.296 7.33773 128.181 8.67297C128.179 9.0801 128.169 11.3357 128.123 21.7325C128.06 35.6015 141.301 42.3789 143.357 43.4189C137.318 19.0497 142.048 4.31024 143.618 0.406816Z" fill="#F5F8FF"/>
<path d="M143.618 0.406982C142.048 4.31041 137.318 19.0498 143.357 43.4191C145.348 42.5052 158.756 35.7385 158.818 21.8694C158.865 11.4727 158.875 9.21706 158.877 8.80991C152.788 7.4235 147.167 4.2504 143.618 0.406982Z" fill="#E4ECFD"/>
<path d="M143.351 43.7056L143.239 43.6491C139.231 41.621 136.417 39.2232 134.762 37.5688C130.158 32.9666 127.837 27.638 127.864 21.7312L127.923 8.46488L128.126 8.42061C134.093 7.11765 139.804 4.04571 143.403 0.203097L143.593 0L143.809 0.231889C147.382 4.10238 153.037 7.21495 158.934 8.55799L159.137 8.60407L159.136 8.81093C159.134 9.16117 159.126 10.8794 159.095 17.9719L159.077 21.8703C159.013 36.1086 145.056 42.9232 143.465 43.6534L143.351 43.7056ZM128.439 8.88015L128.382 21.7336C128.326 34.0763 138.746 40.7739 143.362 43.1316C145.375 42.1861 158.498 35.4958 158.559 21.868L158.577 17.9696C158.604 11.7726 158.614 9.67835 158.617 9.01459C152.782 7.64535 147.198 4.57543 143.591 0.756105C139.956 4.53486 134.328 7.55411 128.439 8.88015Z" fill="white"/>
<path d="M143.377 40.9436L143.141 40.821C141.701 40.0743 138.885 38.4247 136.205 35.7658C132.094 31.6873 130.022 26.9753 130.045 21.7606L130.097 10.2787L130.484 10.1793C135.431 8.9069 139.945 6.57044 143.193 3.60039L143.549 3.2749L143.925 3.62877C147.144 6.61601 151.626 8.98351 156.546 10.2952L156.932 10.3981L156.88 21.8802C156.857 27.0948 154.742 31.7882 150.595 35.83C147.973 38.3849 145.219 39.9917 143.811 40.722L143.776 40.7402C143.72 40.7688 143.665 40.7973 143.615 40.8231L143.377 40.9436ZM131.129 11.0775L131.081 21.7652C131.059 26.6933 133.029 31.1574 136.936 35.0338C139.378 37.4569 141.938 39.0102 143.382 39.7802C144.753 39.0647 147.375 37.524 149.871 35.0914C153.812 31.25 155.822 26.8036 155.844 21.8756L155.892 11.1876C151.123 9.85802 146.767 7.56177 143.54 4.67753C140.287 7.53285 135.912 9.78957 131.129 11.0775Z" fill="#456AC7"/>
<path d="M137.369 19.8506V28.954C137.369 29.9674 149.784 29.9674 149.784 28.954V19.8506H137.369ZM144.205 24.6848V27.2649C144.205 27.6086 143.924 27.894 143.58 27.894C143.229 27.894 142.949 27.6086 142.949 27.2649V24.679C142.417 24.4402 142.043 23.9043 142.043 23.287C142.043 22.4424 142.732 21.761 143.58 21.761C144.427 21.761 145.11 22.4424 145.11 23.287C145.11 23.9101 144.742 24.446 144.205 24.6848Z" fill="#456AC7"/>
<path d="M148.698 19.2016H147.441V18.5887C147.441 16.4647 145.707 14.7367 143.577 14.7367C141.447 14.7367 139.713 16.4647 139.713 18.5887V19.2016H138.456V18.5887C138.456 15.7738 140.754 13.4839 143.577 13.4839C146.4 13.4839 148.698 15.7738 148.698 18.5887V19.2016Z" fill="#456AC7"/>
<path d="M165.772 50.1083H121.229V58.8848H165.772V50.1083Z" fill="white"/>
<path d="M130.133 56.7148C131.195 56.7148 132.056 55.8566 132.056 54.7981C132.056 53.7395 131.195 52.8813 130.133 52.8813C129.071 52.8813 128.21 53.7395 128.21 54.7981C128.21 55.8566 129.071 56.7148 130.133 56.7148Z" fill="#456AC7"/>
<path d="M136.725 56.7148C137.787 56.7148 138.648 55.8566 138.648 54.7981C138.648 53.7395 137.787 52.8813 136.725 52.8813C135.663 52.8813 134.802 53.7395 134.802 54.7981C134.802 55.8566 135.663 56.7148 136.725 56.7148Z" fill="#456AC7"/>
<path d="M143.317 56.7148C144.379 56.7148 145.24 55.8566 145.24 54.7981C145.24 53.7395 144.379 52.8813 143.317 52.8813C142.255 52.8813 141.395 53.7395 141.395 54.7981C141.395 55.8566 142.255 56.7148 143.317 56.7148Z" fill="#456AC7"/>
<path d="M149.909 56.7148C150.971 56.7148 151.832 55.8566 151.832 54.7981C151.832 53.7395 150.971 52.8813 149.909 52.8813C148.848 52.8813 147.987 53.7395 147.987 54.7981C147.987 55.8566 148.848 56.7148 149.909 56.7148Z" fill="#456AC7"/>
<path d="M156.502 56.7148C157.564 56.7148 158.424 55.8566 158.424 54.7981C158.424 53.7395 157.564 52.8813 156.502 52.8813C155.44 52.8813 154.579 53.7395 154.579 54.7981C154.579 55.8566 155.44 56.7148 156.502 56.7148Z" fill="#456AC7"/>
<path d="M149.28 71.2223H137.358C135.667 71.2223 134.297 69.8565 134.297 68.1717C134.297 66.4869 135.667 65.1211 137.358 65.1211H149.28C150.97 65.1211 152.34 66.4869 152.34 68.1717C152.34 69.8565 150.97 71.2223 149.28 71.2223Z" fill="#456AC7"/>
<path d="M158.094 76.1497H128.495V78.3626H158.094V76.1497Z" fill="white"/>
<path d="M168.043 81.0675H118.958V83.2805H168.043V81.0675Z" fill="white"/>
<path d="M165.987 85.9852H121.013V88.1982H165.987V85.9852Z" fill="white"/>
</g>
<defs>
<clipPath id="clip0_390_1042">
<rect width="220.778" height="152" fill="white"/>
</clipPath>
</defs>
</svg>
