<svg width="227" height="147" viewBox="0 0 227 147" fill="none" xmlns="http://www.w3.org/2000/svg">
<g id="Password changed successfully" clip-path="url(#clip0_1197_37212)">
<g id="Group">
<path id="Vector" d="M92.7833 0.764837C92.7833 0.764837 137.432 -5.39434 143.35 24.4075C146.481 40.1783 169.514 28.782 182.658 34.2554C192.016 38.152 187.18 51.3516 192.802 54.7941C220.505 71.7581 213.297 145.95 207.918 145.938L23.1859 145.636C23.1859 145.636 8.24522 123.392 21.7705 110.403C35.2957 97.4142 26.0092 91.4749 24.3654 86.4547C22.4782 80.6909 15.72 64.2347 34.9722 57.0302C44.8563 53.3315 47.9267 43.0933 48.6756 36.2584C49.9551 24.5799 56.5238 14.1861 66.4926 8.51023C72.805 4.9162 81.319 1.96551 92.7833 0.764837Z" fill="#ECF2F9"/>
<path id="Vector_2" d="M83.6521 44.9525L86.8629 48.6191C87.1009 48.7098 87.2947 48.5645 87.7783 48.209C88.6433 47.5731 89.5087 46.9369 90.3951 46.3318C90.5346 46.2366 90.8211 46.2333 90.9802 46.3103C91.9261 46.7683 92.8445 47.2835 93.7947 47.7317C94.0893 47.8706 94.2182 47.9884 94.2189 48.3315C94.2212 49.7032 94.262 51.0747 94.2883 52.4311C95.4714 52.8366 98.5509 53.0765 99.6056 52.8345C99.815 51.5445 100.049 50.2298 100.231 48.9079C100.288 48.4964 100.418 48.3498 100.842 48.2423C101.824 47.9929 102.786 47.6531 103.736 47.2959C104.12 47.1513 104.378 47.1074 104.703 47.4356C105.544 48.2859 106.437 49.085 107.293 49.9213C107.523 50.1461 107.721 50.1997 107.967 49.9877C109.125 48.9901 110.281 47.9909 111.438 46.993C111.723 46.7476 111.502 46.5442 111.37 46.3561C110.704 45.4043 110.043 44.4482 109.346 43.5196C109.084 43.1708 109.082 42.9218 109.305 42.5397C109.894 41.5286 110.418 40.4789 111.01 39.3652C112.363 39.3338 113.857 39.2992 115.392 39.2636C115.815 37.5285 115.913 35.7879 115.738 33.972C114.267 33.7274 112.797 33.4827 111.5 33.267C111.03 31.9506 110.621 30.7218 110.142 29.5208C110.004 29.1731 110.054 28.9998 110.291 28.7572C111.117 27.9151 111.916 27.0472 112.736 26.1994C112.913 26.0161 113.019 25.8661 112.855 25.6133C112.031 24.3356 111.11 23.1446 109.934 22.1609C109.672 21.9416 109.495 21.9737 109.249 22.1489C108.261 22.8543 107.259 23.5408 106.274 24.2501C106.035 24.422 105.876 24.4573 105.582 24.302C104.559 23.7634 103.513 23.2682 102.456 22.8009C102.186 22.6815 102.139 22.5425 102.133 22.2964C102.101 20.9246 102.059 19.5531 102.02 18.1463C100.29 17.7647 98.5745 17.5855 96.7911 17.7503C96.5415 19.2502 96.2935 20.7403 96.0562 22.1664C94.6688 22.6247 93.3256 23.0685 91.8883 23.5434C91.1246 22.8219 90.2509 21.9843 89.3634 21.1617C88.6349 20.4865 88.8178 20.436 87.9491 21.0486C87.8662 21.1071 87.7622 21.1354 87.6678 21.1778C86.9791 21.781 86.2903 22.3841 85.6016 22.9873C85.4731 23.1487 85.3663 23.3354 85.2121 23.4665C84.811 23.8076 84.7578 24.1077 85.1073 24.5624C85.8357 25.5099 86.5051 26.5035 87.1748 27.4943C87.2626 27.6241 87.2787 27.88 87.212 28.0238C86.7777 28.9623 86.261 29.8657 85.8775 30.8231C85.6898 31.2917 85.4638 31.3967 85.0056 31.399C83.7058 31.4056 82.4065 31.4655 80.9764 31.5084C80.8419 33.2795 80.7108 35.0072 80.5781 36.7544C80.9049 36.8151 81.0923 36.8531 81.281 36.8844C82.4439 37.0777 83.6053 37.2816 84.7715 37.4541C85.1025 37.503 85.2123 37.6524 85.3125 37.9627C85.6564 39.029 86.0688 40.0731 86.4201 41.1372C86.4745 41.3022 86.4086 41.5846 86.2907 41.716C85.6448 42.4358 84.9594 43.1198 84.2991 43.8268C83.7649 44.3989 83.5685 44.6132 83.6521 44.9525ZM92.3215 40.4387C89.4515 37.1614 89.7818 32.1781 93.0589 29.3081C96.3361 26.4382 101.32 26.7683 104.19 30.0455C107.059 33.3228 106.729 38.3061 103.452 41.1761C100.175 44.046 95.1915 43.7159 92.3215 40.4387Z" fill="#EBCB82"/>
<path id="Vector_3" d="M140.398 76.8552L134.293 83.0697C134.163 83.5058 134.448 83.8319 135.147 84.6462C136.396 86.1027 137.646 87.56 138.843 89.0588C139.032 89.2947 139.076 89.805 138.96 90.0988C138.271 91.8462 137.475 93.5523 136.804 95.306C136.596 95.8495 136.403 96.0952 135.792 96.1423C133.347 96.3304 130.908 96.587 128.494 96.8157C127.93 98.9789 127.915 104.5 128.488 106.347C130.815 106.548 133.19 106.789 135.57 106.936C136.311 106.982 136.59 107.195 136.838 107.935C137.415 109.652 138.149 111.321 138.913 112.966C139.223 113.633 139.335 114.087 138.794 114.709C137.391 116.323 136.087 118.021 134.711 119.659C134.341 120.099 134.272 120.46 134.683 120.87C136.616 122.799 138.552 124.726 140.486 126.655C140.961 127.129 141.294 126.708 141.612 126.448C143.219 125.134 144.834 123.827 146.396 122.46C146.983 121.946 147.426 121.909 148.137 122.255C150.019 123.17 151.96 123.963 154.024 124.869C154.261 127.276 154.523 129.934 154.793 132.665C157.942 133.188 161.057 133.128 164.271 132.573C164.51 129.919 164.748 127.265 164.959 124.925C167.242 123.91 169.378 123.017 171.454 122.003C172.055 121.709 172.371 121.775 172.835 122.166C174.447 123.525 176.101 124.833 177.722 126.181C178.073 126.472 178.354 126.639 178.783 126.315C180.949 124.674 182.949 122.872 184.545 120.645C184.9 120.149 184.819 119.836 184.474 119.422C183.084 117.755 181.727 116.062 180.33 114.4C179.992 113.998 179.908 113.72 180.145 113.174C180.968 111.28 181.71 109.348 182.401 107.401C182.578 106.904 182.819 106.802 183.257 106.758C185.698 106.518 188.137 106.259 190.639 106.001C191.088 102.866 191.177 99.7845 190.644 96.6276C187.937 96.3838 185.248 96.1416 182.675 95.9098C181.672 93.4984 180.701 91.1637 179.661 88.6654C180.845 87.2076 182.221 85.5381 183.568 83.8458C184.674 82.4569 184.788 82.7762 183.58 81.3099C183.465 81.17 183.4 80.9882 183.312 80.8259C182.145 79.6791 180.977 78.5323 179.81 77.3855C179.505 77.1783 179.158 77.0128 178.904 76.7556C178.242 76.0864 177.7 76.0317 176.936 76.7157C175.345 78.141 173.664 79.4672 171.988 80.794C171.768 80.9677 171.314 81.0306 171.049 80.9312C169.318 80.2829 167.638 79.4829 165.88 78.9276C165.02 78.6559 164.802 78.2672 164.737 77.4508C164.551 75.1351 164.27 72.8271 164.002 70.2839C160.827 70.2817 157.73 70.2795 154.598 70.2773C154.534 70.8678 154.491 71.207 154.461 71.5473C154.272 73.6461 154.064 75.7436 153.913 77.8451C153.87 78.4419 153.619 78.6577 153.079 78.8777C151.225 79.6336 149.419 80.5087 147.569 81.2773C147.283 81.3965 146.771 81.3169 146.52 81.1243C145.151 80.0698 143.84 78.9397 142.491 77.8576C141.4 76.9821 140.992 76.6608 140.398 76.8552ZM149.606 91.7025C155.062 86.1478 163.989 86.0683 169.543 91.5249C175.098 96.9816 175.178 105.908 169.721 111.463C164.264 117.018 155.338 117.097 149.783 111.64C144.229 106.184 144.149 97.2573 149.606 91.7025Z" fill="#A4BFF6"/>
<path id="Vector_4" d="M154.66 36.0278H78.9926C73.4253 36.0278 68.9121 40.541 68.9121 46.1084V102.212C68.9121 107.779 73.4253 112.293 78.9926 112.293H154.66C160.227 112.293 164.74 107.779 164.74 102.212V46.1084C164.74 40.541 160.227 36.0278 154.66 36.0278Z" fill="white"/>
<g id="Group_2">
<path id="Vector_5" d="M69.8652 70.1769L70.1568 70.4388C70.3069 70.5736 70.5327 70.568 70.6612 70.4263L75.8376 64.7164C75.9662 64.5747 75.9487 64.3504 75.7987 64.2157L75.507 63.9537C75.357 63.8189 75.1312 63.8245 75.0027 63.9663L69.8263 69.6762C69.6977 69.8179 69.7152 70.0421 69.8652 70.1769Z" fill="#263A5A"/>
<path id="Vector_6" d="M52.3157 65.538C53.0076 64.9736 58.3582 67.3294 58.2903 68.1494C58.2224 68.9696 62.0239 76.9196 62.0239 76.9196L68.5932 71.6639L68.5958 71.6655C68.6539 71.4753 69.2767 69.4312 69.307 69.0655C69.3387 68.682 70.4488 68.0108 70.9644 68.1096C71.4799 68.2085 70.5235 68.8574 70.4607 68.9765C70.2898 69.3007 70.9507 69.4224 70.9507 69.4224C70.9507 69.4224 72.8488 68.3771 72.8891 67.7624C72.9294 67.1477 73.3213 65.8592 73.7313 66.1287C73.9429 66.2679 73.941 67.182 73.8749 67.6157C73.9968 67.1234 74.1695 66.5674 74.3375 66.5123C74.6446 66.4116 74.7973 66.8035 74.7415 66.996C74.6858 67.1884 74.19 69.2789 74.0393 69.5141C73.8921 69.744 70.8268 72.222 70.3852 72.7599C70.3852 72.7599 61.8881 82.5066 61.283 82.7616C60.7522 82.9853 58.8595 79.6264 57.0713 77.3965C55.283 75.1666 50.1536 67.3019 52.3157 65.538Z" fill="#E3A291"/>
<path id="Vector_7" d="M35.1707 137.206C35.1707 137.206 34.003 138.349 33.9765 138.769C33.95 139.189 33.8731 143.683 34.3498 144.103C34.8264 144.522 36.2266 144.82 35.7764 145.292C35.4362 145.648 32.8188 145.572 31.0841 145.476C30.5778 145.448 29.9428 141.395 29.7422 140.799C29.4509 139.933 28.7426 137.984 29.0074 137.381C29.1364 137.087 29.7537 136.483 30.6236 135.919C31.5385 135.327 32.4138 134.006 32.4138 134.006L35.1707 137.206Z" fill="#DC8B7F"/>
<path id="Vector_8" d="M47.2657 139.868C47.2657 139.868 46.2208 142.83 46.2195 142.838C46.1419 143.307 45.8359 144.467 45.8359 144.893C45.8359 146.496 53.0388 143.533 51.4245 142.823C51.2784 142.758 50.82 142.245 50.7719 141.699C50.6979 140.859 51.3787 139.805 51.3787 139.805L47.2657 139.868Z" fill="#E2A290"/>
<g id="Group_3">
<path id="Vector_9" d="M58.5635 84.7144C58.5635 84.7144 59.0886 90.0241 59.0886 90.1032C59.0886 98.6925 60.7855 115.47 60.4627 117.085C59.6755 121.024 51.2025 141.117 51.2025 141.117L46.623 140.567L52.5906 116.511L50.3946 106.828L47.2872 87.6876L58.5635 84.7144Z" fill="#415485"/>
<path id="Vector_10" d="M43.1946 89.4108L42.3257 94.4433L39.9748 115.155L31.0215 135.398C31.0215 135.398 32.2809 138.343 34.1388 138.757L48.3886 117.974L57.2403 91.3802L56.9295 85.4719L43.1946 89.4108Z" fill="#263A5A"/>
</g>
<path id="Vector_11" d="M60.3913 72.0722L54.0413 72.7227C54.0413 72.7227 53.75 67.4991 53.75 65.0073C53.75 61.9843 54.0066 58.0907 54.3704 58.1744C55.3915 58.4097 56.7667 58.9753 57.5854 60.1041C60.4185 64.0099 60.3913 72.0722 60.3913 72.0722Z" fill="#D37C35"/>
<path id="Vector_12" d="M57.2707 64.4742C57.4037 65.3958 59.8448 90.4528 59.8448 90.4528C48.2826 96.056 41.9027 91.4508 41.9027 91.4508C41.9027 91.4508 42.281 73.8555 41.8275 71.4606C41.5275 69.8761 41.1535 59.3473 42.1768 59.0523C43.49 58.674 44.9956 58.272 46.6368 58.1012C48.0377 57.9552 53.4796 57.8707 54.4533 58.1988C54.4533 58.1988 56.7114 60.5982 57.2707 64.4742Z" fill="#E1954D"/>
<path id="Vector_13" d="M30.6794 135.891C30.6794 135.891 33.3705 143.494 34.4239 143.861C34.7035 143.958 36.0457 144.206 36.2989 144.801C36.3752 144.981 36.2989 145.58 36.2989 145.58H30.6897C30.6897 145.58 29.9802 142.23 29.6998 140.758C29.6998 140.758 28.215 137.162 28.38 136.835C28.5449 136.508 30.6794 135.891 30.6794 135.891Z" fill="#263A5A"/>
<path id="Vector_14" d="M45.4258 145.422L46.2507 142.807C46.2507 142.807 47.9829 143.543 48.849 143.42C49.7152 143.298 51.4062 142.807 51.4062 142.807C54.8634 143.949 57.6956 144.503 57.1804 145.422H45.4258Z" fill="#263A5A"/>
<path id="Vector_15" d="M61.2817 82.7615C61.3078 82.7506 61.4019 82.6764 61.4561 82.6315C61.2505 80.1767 61.2876 77.7981 62.0554 76.9938C62.037 76.9553 61.8691 76.5973 61.6939 76.2261C60.804 76.9167 60.3812 78.7513 60.5471 81.7296C60.5586 81.9344 60.6172 82.0908 60.6644 82.3463C60.9222 82.6308 61.1564 82.8144 61.2817 82.7615Z" fill="#E3A291"/>
<path id="Vector_16" d="M30.452 90.7182C30.4448 90.6644 30.4439 90.6107 30.4492 90.5568C30.6195 88.8216 32.0554 74.2502 32.2972 73.6309C32.5155 73.0717 38.9553 63.8298 38.9553 63.8298L42.1206 68.1568L35.9272 76.446C35.7884 76.9728 33.5539 86.809 33.5539 86.809C33.5539 86.809 33.0959 88.602 32.8907 89.6761C32.9842 89.9348 33.0761 90.1792 33.1575 90.3798C33.3627 90.8082 33.6048 91.16 33.8248 91.4559C34.1016 91.8282 34.5593 92.6415 34.6157 92.8592C34.6813 93.1123 34.7995 93.6382 34.8665 93.9556C34.9335 94.273 35.0251 94.6426 35.0405 94.8148C35.0498 94.9196 35.1576 95.1287 35.2406 95.2765C35.3641 95.4964 35.1532 95.7561 34.9144 95.6765C34.6894 95.6015 34.5142 95.3092 34.4063 95.1272C34.1015 94.6131 33.939 93.6745 33.8632 93.7242C33.7874 93.7738 33.5204 95.3662 33.4782 95.5463C33.4359 95.7264 33.1155 97.5754 32.9348 97.9133C32.754 98.2512 32.5148 98.1947 32.4513 97.983C32.3967 97.801 32.6509 95.2137 32.6509 95.2137C32.6509 95.2137 32.6826 94.8837 32.5386 94.9868C32.3945 95.09 32.159 97.4385 32.0588 97.7821C31.9586 98.1257 31.7304 98.308 31.5365 98.0318C31.3008 97.6958 31.7062 95.2047 31.7062 95.2047C31.7062 95.2047 31.7516 94.8916 31.6182 94.9207C31.4849 94.9499 31.3179 96.9515 31.2142 97.1246C31.1104 97.2976 30.8486 97.3598 30.7237 97.0712C30.5766 96.7313 30.9576 94.5106 30.9576 94.5106C30.9576 94.5106 30.9388 94.3338 30.8557 94.3925C30.7725 94.4512 30.5086 96.1473 30.3366 96.3044C30.1922 96.4362 30.0718 96.3082 30.0718 96.3082C29.7562 96.0922 30.2401 94.4788 30.2353 93.6766C30.2305 92.8745 30.6013 91.973 30.4907 91.0179C30.4838 90.9578 30.4643 90.8107 30.452 90.7182Z" fill="#E2A290"/>
<path id="Vector_17" d="M33.9238 69.683L39.4248 73.389C39.4248 73.389 42.5252 68.7596 44.1895 67.1115C46.2744 65.0469 43.43 58.7221 42.0868 59.08C39.0821 59.8804 33.9238 69.683 33.9238 69.683Z" fill="#E1954D"/>
<path id="Vector_18" d="M47.0416 52.684L46.2188 58.1257C46.2188 58.1257 49.2236 64.6048 51.0174 64.0429C52.5226 63.5714 51.5966 57.8385 51.5966 57.8385C51.5966 57.8385 50.7762 54.7598 51.0222 53.2191C51.2683 51.6784 47.0416 52.684 47.0416 52.684Z" fill="#E2A290"/>
<path id="Vector_19" d="M51.0234 53.2191C51.2695 51.6784 47.0428 52.684 47.0428 52.684L46.9746 53.1353C47.0983 53.4372 47.2494 53.6957 47.433 53.8937C48.3771 54.9132 49.8528 55.5256 51.1287 55.5719C51.001 54.7411 50.9226 53.8508 51.0234 53.2191Z" fill="#D7735A"/>
<g id="Group_4">
<path id="Vector_20" d="M46.3484 44.9854C46.229 44.9419 45.3909 51.1832 46.9814 52.9004C48.5718 54.6177 51.6705 55.1797 52.782 53.8272C54.0114 52.3312 53.9496 45.6233 51.4769 43.8568C49.0042 42.0903 46.3484 44.9854 46.3484 44.9854Z" fill="#E2A290"/>
<path id="Vector_21" d="M50.5352 40.5183C48.6239 40.9093 47.3858 42.0814 46.931 42.5808C46.0633 42.6836 44.8837 43.1649 43.6656 45.1885C42.168 47.6766 43.274 50.4333 45.0174 51.7858C46.7608 53.1383 46.7366 54.7007 46.7366 54.7007L47.0122 53.8926C47.2156 53.2803 47.2986 52.6313 47.2306 51.9892C47.1898 51.6039 47.1075 51.1873 46.9486 50.8448C46.5293 49.9416 47.8493 49.3414 48.2194 48.59C48.5044 48.0113 48.5183 46.6875 48.9673 45.731L49.5035 45.0009C49.5035 45.0009 50.7408 44.0348 51.9511 44.3074C53.1615 44.58 52.9874 40.0166 50.5352 40.5183Z" fill="#2F4855"/>
<path id="Vector_22" d="M48.1379 49.7007C48.1505 50.4621 47.8055 51.0855 47.3673 51.093C46.9291 51.1005 46.5637 50.4893 46.5511 49.7279C46.5385 48.9664 46.8835 48.343 47.3216 48.3355C47.7598 48.328 48.1252 48.9392 48.1379 49.7007Z" fill="#E2A290"/>
</g>
<path id="Vector_23" d="M50.7207 51.46L53.118 51.3354C53.118 51.3354 53.1099 52.2519 52.0572 52.3373C50.7737 52.4413 50.7207 51.46 50.7207 51.46Z" fill="white"/>
</g>
<g id="Group_5">
<g id="Group_6">
<path id="Vector_24" d="M26.1445 34.4371L27.1161 40.5187L30.3645 36.2428L41.1406 25.9458L31.5728 29.7857C31.5728 29.7857 26.9254 32.5004 26.7276 32.827C26.5297 33.1536 26.1445 34.4371 26.1445 34.4371Z" fill="#7CBDA4"/>
<path id="Vector_25" d="M20.7324 32.2063L41.1398 25.9458L26.1438 34.4371L20.7324 32.2063Z" fill="#ABD8C8"/>
<path id="Vector_26" d="M34.4771 38.3575L27.832 35.6542L41.1402 25.9458L34.4771 38.3575Z" fill="#ABD8C8"/>
</g>
<g id="Group_7">
<path id="Vector_27" d="M3.921 63.9806C3.84374 63.4966 3.79234 62.9997 3.76824 62.5037C3.74603 62.0471 3.74656 61.5804 3.76967 61.1167L4.27179 61.1418C4.24938 61.5891 4.24895 62.0391 4.27035 62.4794C4.29357 62.957 4.34306 63.4354 4.41751 63.9015C4.43929 64.0384 4.46335 64.1751 4.48952 64.3112L3.99577 64.4058C3.96822 64.2622 3.9431 64.1191 3.921 63.9806ZM4.28546 57.8669C4.55639 56.8441 4.93319 55.8055 5.4056 54.78L5.86209 54.9903C5.40188 55.9896 5.03493 57.0007 4.77136 57.9956L4.28546 57.8669ZM19.2713 52.3422C19.238 52.333 19.2049 52.3232 19.1719 52.313L19.3196 51.8325C19.3484 51.8414 19.3774 51.85 19.4016 51.8569C19.4017 51.8569 19.417 51.8595 19.4546 51.8577C19.7351 51.844 20.4248 51.6375 20.7426 51.2915C21.0096 51.0006 21.183 50.6251 21.2578 50.1752L21.7536 50.2575C21.664 50.7976 21.4423 51.2727 21.1127 51.6315C20.672 52.1114 19.8312 52.3426 19.479 52.3597C19.3957 52.3638 19.3276 52.358 19.2713 52.3422ZM6.99287 51.9114C7.57591 51.0124 8.23329 50.1279 8.94684 49.2825L9.33101 49.6068C8.63093 50.4361 7.98621 51.3035 7.41467 52.1849L6.99287 51.9114ZM16.225 49.1595C16.0858 48.6977 16.0025 48.2043 15.9777 47.6928C15.9643 47.4178 15.9677 47.1327 15.9875 46.8455L16.489 46.8802C16.4705 47.1478 16.4674 47.413 16.4798 47.6684C16.5027 48.139 16.5789 48.5918 16.7063 49.0143C16.7968 49.3142 16.9191 49.6073 17.07 49.8855L16.6281 50.1251C16.4609 49.817 16.3253 49.4921 16.225 49.1595ZM17.8056 46.0153L17.7358 46.0044L17.8103 45.5072L17.8861 45.5191C19.0236 45.7035 20.0825 46.258 20.7916 47.0403L20.4192 47.3779C19.7853 46.6785 18.8326 46.1819 17.8056 46.0153ZM11.5052 47.1872C11.9911 46.8641 12.8816 46.2957 13.3864 46.1183C13.7783 45.9805 14.1416 45.8675 14.4966 45.773L14.6258 46.2588C14.2836 46.3499 13.9326 46.4591 13.553 46.5925C13.222 46.7089 12.5771 47.0782 11.7835 47.6058L11.5052 47.1872ZM16.8214 43.6363C17.2683 42.6254 17.8635 41.6853 18.5903 40.842L18.9711 41.1703C18.2766 41.976 17.7081 42.874 17.2811 43.8395L16.8214 43.6363Z" fill="#A5C0F7"/>
<path id="Vector_28" d="M21.366 39.1111C21.831 38.8204 22.3137 38.571 22.801 38.3699L22.6092 37.9053C22.0962 38.117 21.5882 38.3793 21.0996 38.6848L21.366 39.1111Z" fill="#A5C0F7"/>
</g>
</g>
<path id="Vector_29" d="M137.686 94.8258H96.0099C93.3142 94.8258 91.1289 92.6404 91.1289 89.9448C91.1289 87.2491 93.3142 85.0637 96.0099 85.0637H137.686C140.382 85.0637 142.567 87.2491 142.567 89.9448C142.567 92.6404 140.382 94.8258 137.686 94.8258Z" fill="#E1954D"/>
<g id="Group_8">
<path id="Vector_30" d="M175.418 41.7566H160.977C160.277 41.7566 159.709 42.3242 159.709 43.0245V52.2689C159.709 52.9691 160.277 53.5367 160.977 53.5367H175.418C176.119 53.5367 176.686 52.9691 176.686 52.2689V43.0245C176.686 42.3242 176.119 41.7566 175.418 41.7566Z" fill="#7CBDA4"/>
<path id="Vector_31" d="M160.229 47.5884L155.205 52.7851L161.442 51.5729L160.229 47.5884Z" fill="#7CBDA4"/>
<path id="Vector_32" d="M164.792 46.8274L166.316 46.7888C166.316 46.7888 168.225 45.3409 168.28 44.8337C168.335 44.3266 168.012 43.2566 168.309 43.1198C168.606 42.983 169.236 42.8719 169.639 43.5398C169.932 44.0247 169.704 45.8042 169.884 45.9218C169.997 45.9954 170.873 45.9978 171.513 45.9894C171.934 45.9838 172.322 46.2124 172.523 46.5828L172.523 46.5839C172.658 46.8342 172.6 47.1451 172.383 47.3292L172.045 47.6159L172.316 47.9691C172.517 48.2322 172.468 48.6082 172.206 48.811L171.939 49.0176L172.124 49.2255C172.363 49.4932 172.316 49.9088 172.024 50.1167L171.787 50.2856L171.823 50.3513C171.974 50.6245 171.891 50.9678 171.632 51.1421L171.394 51.3024L167.336 51.4046C166.956 51.4143 166.578 51.346 166.225 51.2042L164.793 51.0042C164.639 50.9827 164.524 50.8519 164.522 50.6964L164.486 47.1446C164.485 46.9729 164.621 46.8318 164.792 46.8274Z" fill="white"/>
</g>
<path id="Vector_33" d="M226.143 145.236H0.542969V146.238H226.143V145.236Z" fill="#343852"/>
<path id="Vector_34" d="M145.268 68.7219H88.4279C85.5661 68.7219 83.2461 71.0419 83.2461 73.9037V73.9037C83.2461 76.7656 85.5661 79.0855 88.4279 79.0855H145.268C148.13 79.0855 150.45 76.7656 150.45 73.9037C150.45 71.0419 148.13 68.7219 145.268 68.7219Z" fill="#ECF2F9"/>
<path id="Vector_35" d="M145.268 52.8391H88.4279C85.5661 52.8391 83.2461 55.1591 83.2461 58.0209V58.0209C83.2461 60.8827 85.5661 63.2027 88.4279 63.2027H145.268C148.13 63.2027 150.45 60.8827 150.45 58.0209C150.45 55.1591 148.13 52.8391 145.268 52.8391Z" fill="#ECF2F9"/>
<path id="Vector_36" d="M89.2847 75.4971C90.1646 75.4971 90.878 74.7838 90.878 73.9038C90.878 73.0239 90.1646 72.3105 89.2847 72.3105C88.4047 72.3105 87.6914 73.0239 87.6914 73.9038C87.6914 74.7838 88.4047 75.4971 89.2847 75.4971Z" fill="white"/>
<path id="Vector_37" d="M94.2046 75.4971C95.0845 75.4971 95.7979 74.7838 95.7979 73.9038C95.7979 73.0239 95.0845 72.3105 94.2046 72.3105C93.3247 72.3105 92.6113 73.0239 92.6113 73.9038C92.6113 74.7838 93.3247 75.4971 94.2046 75.4971Z" fill="white"/>
<path id="Vector_38" d="M99.1929 75.4971C100.073 75.4971 100.786 74.7838 100.786 73.9038C100.786 73.0239 100.073 72.3105 99.1929 72.3105C98.313 72.3105 97.5996 73.0239 97.5996 73.9038C97.5996 74.7838 98.313 75.4971 99.1929 75.4971Z" fill="white"/>
<path id="Vector_39" d="M104.113 75.4971C104.993 75.4971 105.706 74.7838 105.706 73.9038C105.706 73.0239 104.993 72.3105 104.113 72.3105C103.233 72.3105 102.52 73.0239 102.52 73.9038C102.52 74.7838 103.233 75.4971 104.113 75.4971Z" fill="white"/>
<path id="Vector_40" d="M108.959 75.4971C109.838 75.4971 110.552 74.7838 110.552 73.9038C110.552 73.0239 109.838 72.3105 108.959 72.3105C108.079 72.3105 107.365 73.0239 107.365 73.9038C107.365 74.7838 108.079 75.4971 108.959 75.4971Z" fill="white"/>
<path id="Vector_41" d="M113.878 75.4971C114.758 75.4971 115.472 74.7838 115.472 73.9038C115.472 73.0239 114.758 72.3105 113.878 72.3105C112.998 72.3105 112.285 73.0239 112.285 73.9038C112.285 74.7838 112.998 75.4971 113.878 75.4971Z" fill="white"/>
<path id="Vector_42" d="M118.867 75.4971C119.747 75.4971 120.46 74.7838 120.46 73.9038C120.46 73.0239 119.747 72.3105 118.867 72.3105C117.987 72.3105 117.273 73.0239 117.273 73.9038C117.273 74.7838 117.987 75.4971 118.867 75.4971Z" fill="white"/>
<path id="Vector_43" d="M123.787 75.4971C124.667 75.4971 125.38 74.7838 125.38 73.9038C125.38 73.0239 124.667 72.3105 123.787 72.3105C122.907 72.3105 122.193 73.0239 122.193 73.9038C122.193 74.7838 122.907 75.4971 123.787 75.4971Z" fill="white"/>
<path id="Vector_44" d="M89.2847 59.3257C90.1646 59.3257 90.878 58.6124 90.878 57.7324C90.878 56.8525 90.1646 56.1392 89.2847 56.1392C88.4047 56.1392 87.6914 56.8525 87.6914 57.7324C87.6914 58.6124 88.4047 59.3257 89.2847 59.3257Z" fill="white"/>
<path id="Vector_45" d="M94.2046 59.3257C95.0845 59.3257 95.7979 58.6124 95.7979 57.7324C95.7979 56.8525 95.0845 56.1392 94.2046 56.1392C93.3247 56.1392 92.6113 56.8525 92.6113 57.7324C92.6113 58.6124 93.3247 59.3257 94.2046 59.3257Z" fill="white"/>
<path id="Vector_46" d="M99.1929 59.3257C100.073 59.3257 100.786 58.6124 100.786 57.7324C100.786 56.8525 100.073 56.1392 99.1929 56.1392C98.313 56.1392 97.5996 56.8525 97.5996 57.7324C97.5996 58.6124 98.313 59.3257 99.1929 59.3257Z" fill="white"/>
<path id="Vector_47" d="M104.113 59.3257C104.993 59.3257 105.706 58.6124 105.706 57.7324C105.706 56.8525 104.993 56.1392 104.113 56.1392C103.233 56.1392 102.52 56.8525 102.52 57.7324C102.52 58.6124 103.233 59.3257 104.113 59.3257Z" fill="white"/>
<path id="Vector_48" d="M108.959 59.3257C109.838 59.3257 110.552 58.6124 110.552 57.7324C110.552 56.8525 109.838 56.1392 108.959 56.1392C108.079 56.1392 107.365 56.8525 107.365 57.7324C107.365 58.6124 108.079 59.3257 108.959 59.3257Z" fill="white"/>
<path id="Vector_49" d="M113.878 59.3257C114.758 59.3257 115.472 58.6124 115.472 57.7324C115.472 56.8525 114.758 56.1392 113.878 56.1392C112.998 56.1392 112.285 56.8525 112.285 57.7324C112.285 58.6124 112.998 59.3257 113.878 59.3257Z" fill="white"/>
<path id="Vector_50" d="M118.867 59.3257C119.747 59.3257 120.46 58.6124 120.46 57.7324C120.46 56.8525 119.747 56.1392 118.867 56.1392C117.987 56.1392 117.273 56.8525 117.273 57.7324C117.273 58.6124 117.987 59.3257 118.867 59.3257Z" fill="white"/>
<path id="Vector_51" d="M123.787 59.3257C124.667 59.3257 125.38 58.6124 125.38 57.7324C125.38 56.8525 124.667 56.1392 123.787 56.1392C122.907 56.1392 122.193 56.8525 122.193 57.7324C122.193 58.6124 122.907 59.3257 123.787 59.3257Z" fill="white"/>
</g>
<g id="Group_9">
<g id="Group_10">
<path id="Vector_52" d="M101.305 132.589C101.305 132.589 99.2936 130.242 101.181 128.752C101.181 128.752 102.559 127.917 103.683 127.985C103.683 127.985 102.091 130.656 102.606 130.922C103.121 131.187 104.166 127.818 104.166 127.818C104.166 127.818 107.303 127.513 108.312 127.999C108.312 127.999 105.63 130.193 106.195 130.324C106.76 130.454 109.657 128.3 109.657 128.3C109.657 128.3 112.577 128.797 112.421 130.578C112.265 132.36 111.259 132.909 110.817 132.862C110.375 132.815 107.788 131.827 107.732 132.19C107.675 132.552 109.232 133.736 110.323 133.791C110.323 133.791 108.264 136.062 106.896 135.406C105.528 134.751 105.411 133.713 104.559 133.323C103.706 132.934 102.978 132.935 103.33 133.332C103.682 133.729 105.225 134.115 105.713 134.978C106.201 135.841 106.638 136.422 105.223 136.209C103.807 135.996 101.507 134.961 101.406 133.775L101.305 132.589Z" fill="#759E54"/>
<g id="Group_11">
<path id="Vector_53" d="M110.987 130.627C110.987 130.627 103.057 130.321 101.306 132.589C101.306 132.589 100.919 133.749 99.7267 134.805L99.541 135.311C99.541 135.311 100.915 133.862 101.407 133.775C101.407 133.775 100.638 130.965 110.987 130.627Z" fill="#759E54"/>
<path id="Vector_54" d="M99.7267 134.805C99.7267 134.805 98.0245 136.064 97.9062 138.313L98.2152 138.341C98.2152 138.341 98.7589 136.015 99.7414 135.106C100.724 134.196 99.7267 134.805 99.7267 134.805Z" fill="#759E54"/>
</g>
</g>
<g id="Group_12">
<path id="Vector_55" d="M94.2747 129.638C94.2747 129.638 97.4741 127.846 95.981 125.415C95.981 125.415 94.7865 123.922 93.5068 123.538C93.5068 123.538 94.1893 127.164 93.5068 127.249C92.8242 127.334 93.0375 123.154 93.0375 123.154C93.0375 123.154 89.6675 121.533 88.3451 121.661C88.3451 121.661 90.4353 125.201 89.7529 125.116C89.0702 125.031 86.724 121.447 86.724 121.447C86.724 121.447 83.2686 120.808 82.7141 122.855C82.1594 124.903 83.0554 125.927 83.5672 126.055C84.0792 126.183 87.3638 126.14 87.2786 126.567C87.1933 126.993 84.975 127.676 83.738 127.292C83.738 127.292 85.103 130.662 86.8947 130.491C88.6863 130.321 89.241 129.211 90.3501 129.126C91.4592 129.041 92.2698 129.339 91.7152 129.638C91.1606 129.937 89.2836 129.736 88.3878 130.497C87.492 131.259 86.7667 131.728 88.4305 132.07C90.0943 132.411 93.0803 132.198 93.6776 130.918L94.2747 129.638Z" fill="#90B07A"/>
<g id="Group_13">
<path id="Vector_56" d="M84.293 123.495C84.293 123.495 93.2514 126.396 94.2752 129.638C94.2752 129.638 94.2324 131.088 95.1283 132.752V133.392C95.1283 133.392 94.1898 131.216 93.678 130.918C93.678 130.918 95.6829 128.102 84.293 123.495Z" fill="#759E54"/>
<path id="Vector_57" d="M95.1292 132.752C95.1292 132.752 96.5108 134.85 95.7231 137.404L95.3677 137.308C95.3677 137.308 95.7127 134.495 94.9899 133.081C94.2671 131.666 95.1292 132.752 95.1292 132.752Z" fill="#759E54"/>
</g>
</g>
<g id="Group_14">
<path id="Vector_58" d="M99.3643 127.167C99.3643 127.167 95.147 124.805 97.1151 121.6C97.1151 121.6 98.6896 119.632 100.377 119.126C100.377 119.126 99.4768 123.905 100.377 124.018C101.276 124.13 100.995 118.619 100.995 118.619C100.995 118.619 105.438 116.483 107.181 116.651C107.181 116.651 104.425 121.319 105.325 121.206C106.225 121.094 109.318 116.37 109.318 116.37C109.318 116.37 113.872 115.527 114.603 118.226C115.334 120.925 114.154 122.275 113.479 122.443C112.804 122.612 108.474 122.556 108.587 123.118C108.699 123.68 111.623 124.58 113.254 124.074C113.254 124.074 111.454 128.516 109.093 128.291C106.731 128.067 106 126.604 104.538 126.492C103.076 126.38 102.007 126.773 102.738 127.167C103.469 127.56 105.944 127.296 107.125 128.3C108.305 129.304 109.261 129.922 107.068 130.372C104.875 130.822 100.939 130.541 100.152 128.854L99.3643 127.167Z" fill="#759E54"/>
<g id="Group_15">
<path id="Vector_59" d="M112.523 119.069C112.523 119.069 100.715 122.893 99.3649 127.167C99.3649 127.167 99.4212 129.079 98.2402 131.272V132.115C98.2402 132.115 99.4774 129.247 100.152 128.854C100.152 128.854 97.5093 125.142 112.523 119.069Z" fill="#759E54"/>
<path id="Vector_60" d="M98.2395 131.272C98.2395 131.272 96.4183 134.037 97.4567 137.404L97.9252 137.278C97.9252 137.278 97.4704 133.57 98.4233 131.705C99.376 129.84 98.2395 131.272 98.2395 131.272Z" fill="#759E54"/>
</g>
</g>
<path id="Vector_61" d="M107.484 136.442C107.484 141.005 103.785 144.704 99.2219 144.704C98.6651 144.704 98.1202 144.649 97.5935 144.543C93.8111 143.787 90.9609 140.447 90.9609 136.442H107.484Z" fill="#CD823D"/>
<path id="Vector_62" d="M104.225 136.442C104.225 140.447 101.376 143.786 97.5935 144.543C93.8111 143.787 90.9609 140.447 90.9609 136.442H104.225Z" fill="#DCA155"/>
<path id="Vector_63" d="M107.597 145.124H90.8457C90.8457 144.842 90.9602 144.587 91.1443 144.403C91.3293 144.219 91.5838 144.105 91.8652 144.105H106.577C107.141 144.105 107.597 144.561 107.597 145.124Z" fill="#CD823D"/>
<path id="Vector_64" d="M97.1376 144.105H98.2577C95.2272 142.881 94.0212 139.911 94.0212 136.442H91.9688C91.9687 139.911 94.1072 142.881 97.1376 144.105Z" fill="#ECB776"/>
<path id="Vector_65" d="M99.7515 145.124H90.8457C90.8457 144.842 90.9602 144.587 91.1443 144.403C91.3293 144.219 91.5838 144.105 91.8652 144.105H99.056C99.6184 144.105 99.7515 144.561 99.7515 145.124Z" fill="#DCA155"/>
<path id="Vector_66" d="M107.545 136.696H90.8162C90.7462 136.696 90.6895 136.639 90.6895 136.569C90.6895 136.499 90.7462 136.442 90.8162 136.442H107.545C107.615 136.442 107.672 136.499 107.672 136.569C107.672 136.639 107.615 136.696 107.545 136.696Z" fill="#BE6722"/>
</g>
</g>
<defs>
<clipPath id="clip0_1197_37212">
<rect width="225.6" height="146" fill="white" transform="translate(0.542969 0.238037)"/>
</clipPath>
</defs>
</svg>
