<svg width="46" height="37" viewBox="0 0 46 37" fill="none" xmlns="http://www.w3.org/2000/svg">
<path opacity="0.1" d="M25.856 36.608V25.6C25.856 18.688 27.4773 13.056 30.72 8.704C34.048 4.26666 38.9547 1.36533 45.44 0V8.32C42.5387 9.00267 40.2347 10.2827 38.528 12.16C36.8213 13.952 35.712 16.128 35.2 18.688H42.88V36.608H25.856ZM0 36.608V25.6C0 18.688 1.62133 13.056 4.864 8.704C8.192 4.26666 13.056 1.36533 19.456 0V8.32C16.5547 9.00267 14.2507 10.2827 12.544 12.16C10.8373 13.952 9.728 16.128 9.216 18.688H16.896V36.608H0Z" fill="#7356BF"/>
</svg>
