<svg width="341" height="169" viewBox="0 0 341 169" fill="none" xmlns="http://www.w3.org/2000/svg">
<g clip-path="url(#clip0_390_1500)">
<path d="M42.036 167.434C42.036 167.434 2.21355 71.4309 42.6547 32.7673C98.7473 -20.8597 134.079 47.9994 164.781 36.2374C180.822 30.0918 203.617 7.54186 235.546 1.01595C253.756 -2.70618 301.829 0.297476 274.733 70.7621C256.176 119.021 345.684 105.321 301.829 168.417L42.036 167.434Z" fill="#ECF2F9"/>
<path d="M236.793 23.4601H155.741V166.956H236.793V23.4601Z" fill="#ECF2F9"/>
<path d="M210.037 23.4601H157.059V166.956H210.037V23.4601Z" fill="#D7E4F9"/>
<path d="M117.026 8.19104L59.3154 168.587H118.613L117.026 8.19104Z" fill="#D7E4F9"/>
<path d="M120.504 8.19104V167.681H155.741V21.8994L120.504 8.19104Z" fill="#92AEEE"/>
<path d="M120.504 8.19104H117.026V167.681H120.504V8.19104Z" fill="#384987"/>
<path d="M233.508 155.887H159.025V168.133H233.508V155.887Z" fill="#92AEEE"/>
<path d="M187.017 168.133H159.025V155.887H179.591L187.017 168.133Z" fill="#728ECE"/>
<path d="M233.509 143.641H175.015V155.887H233.509V143.641Z" fill="#9CBBEF"/>
<path d="M233.509 131.395H190.06V143.641H233.509V131.395Z" fill="#AECBF4"/>
<path d="M233.509 119.149H205.117V131.395H233.509V119.149Z" fill="#D7E4F9"/>
<path d="M155.741 22.1001V167.681H236.793V22.1001H155.741ZM233.508 164.239H159.026V25.5416H233.508V164.239Z" fill="#556EB1"/>
<path d="M87.6004 146.118C87.6004 146.118 84.1704 142.116 87.3886 139.575C87.3886 139.575 89.7395 138.152 91.6563 138.267C91.6563 138.267 88.9401 142.822 89.819 143.275C90.6977 143.728 92.4795 137.981 92.4795 137.981C92.4795 137.981 97.8291 137.463 99.5501 138.29C99.5501 138.29 94.9766 142.032 95.94 142.255C96.9032 142.478 101.843 138.805 101.843 138.805C101.843 138.805 106.822 139.652 106.556 142.689C106.291 145.727 104.575 146.665 103.821 146.584C103.067 146.503 98.6562 144.819 98.5601 145.437C98.464 146.055 101.119 148.074 102.978 148.168C102.978 148.168 99.4682 152.04 97.1351 150.923C94.8023 149.805 94.603 148.034 93.1488 147.37C91.6945 146.706 90.4531 146.707 91.0535 147.385C91.6539 148.062 94.2859 148.721 95.1176 150.192C95.9493 151.663 96.6954 152.655 94.2816 152.292C91.8678 151.929 87.9444 150.163 87.7722 148.14L87.6004 146.118Z" fill="#759E54"/>
<path d="M104.11 142.771C104.11 142.771 90.5864 142.25 87.6001 146.118C87.6001 146.118 86.9395 148.096 84.9071 149.897L84.5903 150.76C84.5903 150.76 86.9336 148.289 87.7722 148.14C87.7722 148.14 86.4609 143.349 104.11 142.771Z" fill="#759E54"/>
<path d="M84.9071 149.897C84.9071 149.897 82.0044 152.044 81.8027 155.879L82.3296 155.927C82.3296 155.927 83.2567 151.96 84.9323 150.409C86.608 148.859 84.9071 149.897 84.9071 149.897Z" fill="#759E54"/>
<path d="M75.608 141.086C75.608 141.086 81.0639 138.03 78.5178 133.884C78.5178 133.884 76.4808 131.338 74.2985 130.683C74.2985 130.683 75.4623 136.866 74.2985 137.012C73.1345 137.157 73.4982 130.028 73.4982 130.028C73.4982 130.028 67.7513 127.264 65.4963 127.482C65.4963 127.482 69.0607 133.52 67.897 133.375C66.7328 133.229 62.7317 127.118 62.7317 127.118C62.7317 127.118 56.8392 126.027 55.8936 129.519C54.9478 133.011 56.4757 134.757 57.3485 134.975C58.2216 135.193 63.8229 135.121 63.6776 135.848C63.5321 136.575 59.7492 137.739 57.6397 137.085C57.6397 137.085 59.9675 142.832 63.0229 142.541C66.0781 142.25 67.024 140.358 68.9154 140.213C70.8067 140.067 72.1891 140.577 71.2432 141.086C70.2975 141.595 67.0968 141.253 65.569 142.551C64.0414 143.85 62.8046 144.65 65.6418 145.232C68.4791 145.814 73.5712 145.451 74.5898 143.268L75.608 141.086Z" fill="#90B07A"/>
<path d="M58.585 130.61C58.585 130.61 73.8618 135.557 75.6077 141.086C75.6077 141.086 75.5348 143.559 77.0625 146.396V147.487C77.0625 147.487 75.462 143.777 74.5892 143.268C74.5893 143.268 78.0082 138.467 58.585 130.61Z" fill="#759E54"/>
<path d="M77.0629 146.396C77.0629 146.396 79.4189 149.974 78.0757 154.329L77.4697 154.166C77.4697 154.166 78.0579 149.369 76.8254 146.957C75.5928 144.544 77.0629 146.396 77.0629 146.396Z" fill="#759E54"/>
<path d="M84.2876 136.872C84.2876 136.872 77.0957 132.844 80.452 127.378C80.452 127.378 83.1369 124.022 86.0137 123.159C86.0137 123.159 84.4794 131.31 86.0137 131.502C87.5481 131.694 87.0686 122.296 87.0686 122.296C87.0686 122.296 94.6443 118.652 97.6168 118.94C97.6168 118.94 92.9181 126.899 94.4523 126.707C95.9867 126.515 101.261 118.46 101.261 118.46C101.261 118.46 109.028 117.022 110.275 121.625C111.521 126.228 109.508 128.529 108.357 128.817C107.206 129.105 99.8224 129.009 100.014 129.968C100.206 130.926 105.192 132.461 107.973 131.598C107.973 131.598 104.905 139.173 100.877 138.79C96.8499 138.406 95.6032 135.913 93.1098 135.721C90.6164 135.529 88.7946 136.201 90.0413 136.872C91.2879 137.543 95.5072 137.092 97.521 138.804C99.5348 140.516 101.165 141.571 97.4252 142.338C93.6854 143.105 86.9727 142.626 85.6303 139.749L84.2876 136.872Z" fill="#759E54"/>
<path d="M106.727 123.063C106.727 123.063 86.5891 129.584 84.2876 136.872C84.2876 136.872 84.3836 140.132 82.3696 143.872V145.31C82.3696 145.31 84.4794 140.42 85.6302 139.749C85.6302 139.749 81.1232 133.419 106.727 123.063Z" fill="#759E54"/>
<path d="M82.3698 143.872C82.3698 143.872 79.2642 148.588 81.0349 154.329L81.8338 154.114C81.8338 154.114 81.0583 147.791 82.6833 144.611C84.3078 141.431 82.3698 143.872 82.3698 143.872Z" fill="#759E54"/>
<path d="M98.1339 152.689C98.1339 160.47 91.8257 166.778 84.0449 166.778C83.0954 166.778 82.1661 166.684 81.2681 166.503C74.8179 165.214 69.9575 159.519 69.9575 152.689H98.1339Z" fill="#CD823D"/>
<path d="M92.5769 152.689C92.5769 159.519 87.7183 165.213 81.2681 166.503C74.8179 165.214 69.9575 159.519 69.9575 152.689H92.5769Z" fill="#DCA155"/>
<path d="M98.3279 167.495H69.7627C69.7627 167.014 69.9579 166.579 70.2719 166.265C70.5874 165.952 71.0214 165.756 71.5012 165.756H96.5897C97.5502 165.756 98.3279 166.534 98.3279 167.495Z" fill="#CD823D"/>
<path d="M80.4893 165.756H82.3993C77.2314 163.669 75.1748 158.605 75.1748 152.689H71.6748C71.6748 158.605 75.3215 163.669 80.4893 165.756Z" fill="#ECB776"/>
<path d="M84.9492 167.495H69.7622C69.7622 167.014 69.9575 166.579 70.2715 166.265C70.5869 165.952 71.0209 165.756 71.5007 165.756H83.7633C84.7223 165.756 84.9492 166.534 84.9492 167.495Z" fill="#DCA155"/>
<path d="M98.2377 153.121H69.7103C69.591 153.121 69.4941 153.025 69.4941 152.905C69.4941 152.786 69.591 152.689 69.7103 152.689H98.2377C98.357 152.689 98.4538 152.786 98.4538 152.905C98.4538 153.025 98.357 153.121 98.2377 153.121Z" fill="#BE6722"/>
<path d="M339.724 168.995H1.44606C1.17303 168.995 0.949707 168.771 0.949707 168.498V167.991C0.949707 167.718 1.17303 167.494 1.44606 167.494H339.724C339.997 167.494 340.22 167.718 340.22 167.991V168.498C340.22 168.771 339.997 168.995 339.724 168.995Z" fill="#384987"/>
<path d="M223.479 131.395H205.117V119.149H209.881L223.479 131.395Z" fill="#C2D5EF"/>
<path d="M213.451 143.641H190.06V131.395H201.534L213.451 143.641Z" fill="#93B3E2"/>
<path d="M194.458 155.887H175.015V143.641H185.201L194.458 155.887Z" fill="#82A3D8"/>
<path d="M140.865 116.313L155.209 118.832C156.125 118.993 157.006 118.375 157.167 117.458L158.532 109.685C158.693 108.769 158.075 107.887 157.159 107.726L142.815 105.208C141.898 105.047 141.017 105.665 140.856 106.581L139.491 114.355C139.33 115.271 139.949 116.152 140.865 116.313Z" fill="#384987"/>
<path d="M150.437 111.319L147.911 110.875C146.336 110.598 145.28 109.092 145.556 107.517L146.034 104.795C146.311 103.22 147.817 102.164 149.392 102.44L151.918 102.884C153.493 103.16 154.549 104.667 154.273 106.241L153.795 108.964C153.518 110.539 152.012 111.595 150.437 111.319ZM149.193 103.573C148.243 103.406 147.334 104.043 147.167 104.994L146.689 107.716C146.522 108.667 147.159 109.576 148.11 109.743L150.636 110.186C151.587 110.353 152.496 109.716 152.662 108.765L153.141 106.043C153.307 105.092 152.67 104.183 151.719 104.017L149.193 103.573Z" fill="#384987"/>
<path d="M154.352 167.494H149.29C148.661 167.145 148.101 166.358 147.923 165.188C147.676 163.564 145.855 162.676 145.461 161.346C145.067 160.017 147.086 158.145 147.086 158.145L147.424 157.712L147.776 157.259L151.124 158.047C151.124 158.047 151.207 158.844 151.258 159.86C151.295 160.593 151.314 161.441 151.272 162.184C151.174 163.958 151.768 165.867 153.343 166.212C154.501 166.464 154.456 167.149 154.352 167.494Z" fill="#2E3B61"/>
<path d="M183.631 167.494H172.089C171.54 166.807 171.745 164.318 171.828 163.507C171.846 163.344 171.857 163.249 171.857 163.249C171.857 163.249 175.798 160.096 176.34 162.509C176.357 162.584 176.377 162.658 176.399 162.732C177.081 164.99 180.14 166.015 181.905 166.302C183.047 166.487 183.473 167.079 183.631 167.494Z" fill="#2E3B61"/>
<path d="M181.436 103.085C181.436 103.085 180.838 110.551 180.135 119.525C179.179 131.716 178.029 146.69 177.916 149.527C177.719 154.452 176.93 162.332 176.93 162.332C176.93 162.332 175.06 164.204 171.316 163.415C171.316 163.415 167.98 152.167 167.027 140.266C167.012 140.071 166.997 139.874 166.982 139.678C166.096 127.563 164.717 102.051 164.717 102.051L181.436 103.085Z" fill="#384987"/>
<path d="M181.436 103.085C181.436 103.085 180.838 110.551 180.135 119.525L167.027 140.266C167.012 140.071 166.997 139.874 166.982 139.678C166.096 127.563 164.717 102.051 164.717 102.051L181.436 103.085Z" fill="#2E3B61"/>
<path d="M178.704 103.972C178.704 103.972 167.918 131.009 160.827 143.716C153.735 156.422 151.518 159.968 151.518 159.968C151.518 159.968 147.455 158.343 147.086 157.234C147.086 157.234 149.798 132.704 154.547 126.725C157.231 123.346 160.383 113.206 160.531 109.66C160.679 106.114 161.491 99.0961 161.491 99.0961L178.704 103.972Z" fill="#384987"/>
<path d="M189.611 96.5074L190.228 97.7361C190.228 97.7361 193.362 98.1743 192.5 101.442C192.5 101.442 192.035 102.787 191.17 102.361C190.306 101.936 190.732 101.972 189.493 101.4C188.254 100.827 187.537 99.7268 187.814 98.7176L187.615 97.6478L189.611 96.5074Z" fill="#EBAF7F"/>
<path d="M176.019 64.5565C171.803 65.8856 164.511 62.2966 164.511 62.2966C164.511 62.2966 168.397 59.3807 168.194 53.3163L171.408 55.9058L173.667 57.7269C173.667 57.7269 173.656 58.9701 173.347 61.1206C173.296 61.469 173.239 61.8405 173.172 62.2357C174.982 63.2306 176.019 64.5565 176.019 64.5565Z" fill="#EBAF7F"/>
<path d="M188.881 98.2156C189.811 97.2607 190.502 96.0174 190.502 96.0174C190.502 96.0174 182.592 86.19 181.949 85.171C181.306 84.1518 176.503 67.8055 176.503 67.8055L164.354 65.3445C164.354 65.3445 174.494 86.2641 176.174 88.8144C178.95 93.0286 187.255 99.3011 187.255 99.3011C187.255 99.3011 188.15 98.9655 188.881 98.2156Z" fill="#CD823D"/>
<path d="M181.902 103.707C181.775 103.812 181.627 103.876 181.458 103.876C179.876 103.854 175.26 104.733 171.355 104.332C168.063 104.016 165.149 103.041 162.02 101.638C161.604 101.452 160.648 100.942 160.669 100.477C160.683 99.9685 160.734 99.231 160.797 98.3019C161.019 95.072 161.405 89.5165 161.029 83.1071C160.961 81.9137 160.925 80.7299 160.921 79.5643C160.889 70.8777 162.611 63.2373 166.072 60.6514C166.368 60.4395 168.183 61.3268 169.851 62.1492C171.391 62.9094 172.932 62.9932 174.388 62.6987L175.844 63.9855C177.617 65.6317 179.559 67.8692 180.403 71.2669C181.121 74.1581 181.542 79.3717 181.775 84.7747C181.88 87.2231 181.965 89.6929 181.986 92.0357V92.1195C182.007 92.3518 182.007 92.6055 182.007 92.8377C182.092 98.8524 182.007 103.622 181.902 103.707Z" fill="#DCA155"/>
<path d="M160.797 98.302C161.019 95.072 161.405 89.5166 161.029 83.1071C160.961 81.9137 160.925 80.7299 160.921 79.5643C162.363 76.0667 163.541 73.5304 163.541 73.5304H167.175C167.175 73.5302 169.84 91.729 160.797 98.302Z" fill="#CD823D"/>
<path d="M153.727 99.4333L153.037 100.622C153.037 100.622 154.389 103.484 151.183 104.554C151.183 104.554 149.803 104.902 149.685 103.946C149.567 102.989 149.771 103.365 149.57 102.015C149.37 100.665 149.897 99.4626 150.893 99.1412L151.679 98.3889L153.727 99.4333Z" fill="#EBAF7F"/>
<path d="M151.898 99.7585C153.207 100.013 154.625 99.9102 154.625 99.9102C154.625 99.9102 158.51 87.9082 159.011 86.8119C159.511 85.7158 170.551 72.7391 170.551 72.7391L165.952 61.2291C165.952 61.2291 154.011 81.1754 152.798 83.9783C150.795 88.6097 150.099 98.9934 150.099 98.9934C150.099 98.9934 150.87 99.5582 151.898 99.7585Z" fill="#DCA155"/>
<path d="M173.666 57.7268C173.666 57.7268 173.655 58.97 173.346 61.1204C170.063 60.3505 168.188 56.2428 168.188 56.2428L171.408 55.9056L173.666 57.7268Z" fill="#D2925E"/>
<path d="M174.956 57.6267C174.956 57.6267 167.994 58.783 167.34 54.4366C166.687 50.09 165.348 47.3121 169.765 46.3899C174.183 45.4675 175.298 46.996 175.869 48.3937C176.44 49.7916 176.749 57.2137 174.956 57.6267Z" fill="#EBAF7F"/>
<path d="M175.869 48.3938C175.869 48.3938 172.928 49.1884 171.355 49.2276C169.783 49.2664 170.196 51.6446 169.805 51.7616C169.415 51.8788 168.592 50.594 167.869 51.4333C167.534 51.8226 168.065 53.2489 168.728 53.6786C169.392 54.108 167.795 56.9566 167.795 56.9566C167.795 56.9566 164.394 53.9517 165.136 48.6027C165.878 43.2537 171.071 43.4488 173.179 44.0345C175.288 44.6201 178.096 44.1328 177.865 45.8695C177.709 47.0407 177.236 48.1202 175.869 48.3938Z" fill="#2E3B61"/>
<path d="M127.58 85.4902H126.716C125.766 85.4902 124.989 86.2678 124.989 87.2178V98.2309C124.989 99.1812 125.766 99.9586 126.716 99.9586H127.58C128.53 99.9586 129.308 99.1812 129.308 98.2309V87.2178C129.308 86.2676 128.53 85.4902 127.58 85.4902Z" fill="#384987"/>
</g>
<defs>
<clipPath id="clip0_390_1500">
<rect width="339.271" height="169" fill="white" transform="translate(0.949707 -0.00537109)"/>
</clipPath>
</defs>
</svg>
