<svg width="40" height="40" viewBox="0 0 40 40" fill="none" xmlns="http://www.w3.org/2000/svg">
<g id="ArrowCircleRight">
<path id="Vector" d="M20 3.75C16.7861 3.75 13.6443 4.70305 10.972 6.48862C8.29969 8.27419 6.21689 10.8121 4.98696 13.7814C3.75704 16.7507 3.43524 20.018 4.06225 23.1702C4.68926 26.3224 6.23692 29.2179 8.50952 31.4905C10.7821 33.7631 13.6776 35.3107 16.8298 35.9378C19.982 36.5648 23.2493 36.243 26.2186 35.013C29.1879 33.7831 31.7258 31.7003 33.5114 29.028C35.297 26.3557 36.25 23.2139 36.25 20C36.2455 15.6916 34.5319 11.561 31.4855 8.51454C28.439 5.46806 24.3084 3.75455 20 3.75ZM20 33.75C17.2805 33.75 14.6221 32.9436 12.3609 31.4327C10.0997 29.9218 8.33737 27.7744 7.29666 25.2619C6.25596 22.7494 5.98366 19.9847 6.51421 17.3175C7.04476 14.6503 8.35432 12.2003 10.2773 10.2773C12.2003 8.35431 14.6503 7.04475 17.3175 6.5142C19.9848 5.98366 22.7494 6.25595 25.2619 7.29666C27.7744 8.33736 29.9218 10.0997 31.4327 12.3609C32.9436 14.6221 33.75 17.2805 33.75 20C33.7459 23.6455 32.2959 27.1404 29.7182 29.7182C27.1404 32.2959 23.6455 33.7459 20 33.75ZM27.1344 19.1156C27.2506 19.2317 27.3428 19.3696 27.4057 19.5213C27.4686 19.6731 27.501 19.8357 27.501 20C27.501 20.1643 27.4686 20.3269 27.4057 20.4787C27.3428 20.6304 27.2506 20.7683 27.1344 20.8844L22.1344 25.8844C21.8998 26.1189 21.5817 26.2507 21.25 26.2507C20.9183 26.2507 20.6002 26.1189 20.3656 25.8844C20.1311 25.6498 19.9993 25.3317 19.9993 25C19.9993 24.6683 20.1311 24.3502 20.3656 24.1156L23.2328 21.25H13.75C13.4185 21.25 13.1005 21.1183 12.8661 20.8839C12.6317 20.6495 12.5 20.3315 12.5 20C12.5 19.6685 12.6317 19.3505 12.8661 19.1161C13.1005 18.8817 13.4185 18.75 13.75 18.75H23.2328L20.3656 15.8844C20.1311 15.6498 19.9993 15.3317 19.9993 15C19.9993 14.6683 20.1311 14.3502 20.3656 14.1156C20.6002 13.8811 20.9183 13.7493 21.25 13.7493C21.5817 13.7493 21.8998 13.8811 22.1344 14.1156L27.1344 19.1156Z" fill="url(#paint0_linear_1197_22959)"/>
</g>
<defs>
<linearGradient id="paint0_linear_1197_22959" x1="3.75" y1="19.7336" x2="36.25" y2="19.7336" gradientUnits="userSpaceOnUse">
<stop stop-color="#00B6CB"/>
<stop offset="1" stop-color="#253B95"/>
</linearGradient>
</defs>
</svg>
