<svg width="178" height="122" viewBox="0 0 178 122" fill="none" xmlns="http://www.w3.org/2000/svg">
<g id="Saving money" opacity="0.7" clip-path="url(#clip0_1_941)">
<g id="Group">
<path id="Vector" d="M149.164 0.108887H115.25V44.3449H149.164V0.108887Z" fill="#F4F4F4"/>
<path id="Vector_2" d="M149.164 44.3467H150.264V0.11068H149.164V44.3467Z" fill="#F4F4F4"/>
<path id="Vector_3" opacity="0.05" d="M149.164 44.3467H150.264V0.11068H149.164V44.3467Z" fill="#292A2E"/>
<path id="Vector_4" opacity="0.05" d="M142.986 8.16748H121.428V36.2873H142.986V8.16748Z" fill="#292A2E"/>
<path id="Vector_5" opacity="0.03" d="M142.986 8.16748H141.862V36.2873H142.986V8.16748Z" fill="#292A2E"/>
<path id="Vector_6" d="M176.9 55.2227H149.164V83.2724H176.9V55.2227Z" fill="#F4F4F4"/>
<path id="Vector_7" opacity="0.05" d="M171.847 60.334H154.216V78.1645H171.847V60.334Z" fill="#292A2E"/>
<path id="Vector_8" d="M176.9 83.2739H178V55.2242H176.9V83.2739Z" fill="#F4F4F4"/>
<path id="Vector_9" opacity="0.05" d="M176.9 83.2739H178V55.2242H176.9V83.2739Z" fill="#292A2E"/>
<path id="Vector_10" opacity="0.03" d="M171.847 60.334H170.724V78.1645H171.847V60.334Z" fill="#292A2E"/>
</g>
<g id="Group_2">
<path id="c_3_c" d="M97.2241 0H14.479V82.9195H97.2241V0Z" fill="#F4F4F4"/>
<path id="c_3_c_2" d="M98.1725 0H97.2241V82.9195H98.1725V0Z" fill="#F4F4F4"/>
<path id="c_3_c_3" opacity="0.05" d="M98.1725 0H97.2241V82.9195H98.1725V0Z" fill="#292A2E"/>
<path id="c_3_c_4" opacity="0.05" d="M77.1789 57.1372V35.4429H59.4454V48.0469H31.9761V70.3639H20.3013V82.9184H31.9761H34.2252H93.244V57.1372H77.1789Z" fill="#292A2E"/>
<g id="c_3_wh">
<path id="c_3_wh_2" opacity="0.34" d="M74.6355 37.7979H61.7217V40.1533H74.6355V37.7979Z" fill="#FFFFFA"/>
<path id="c_3_wh_3" opacity="0.34" d="M74.6355 42.6807H61.7217V45.0361H74.6355V42.6807Z" fill="#FFFFFA"/>
<path id="c_3_wh_4" opacity="0.34" d="M74.6355 47.5601H61.7217V49.9155H74.6355V47.5601Z" fill="#FFFFFA"/>
</g>
<g id="c_3_wh_5">
<path id="c_3_wh_6" opacity="0.34" d="M90.954 59.4248H88.5737V61.7803H90.954V59.4248Z" fill="#FFFFFA"/>
<path id="c_3_wh_7" opacity="0.34" d="M90.954 64.3076H88.5737V66.6631H90.954V64.3076Z" fill="#FFFFFA"/>
<path id="c_3_wh_8" opacity="0.34" d="M90.954 69.187H88.5737V71.5425H90.954V69.187Z" fill="#FFFFFA"/>
<path id="c_3_wh_9" opacity="0.34" d="M86.5506 59.4248H84.1704V61.7803H86.5506V59.4248Z" fill="#FFFFFA"/>
<path id="c_3_wh_10" opacity="0.34" d="M86.5506 64.3076H84.1704V66.6631H86.5506V64.3076Z" fill="#FFFFFA"/>
<path id="c_3_wh_11" opacity="0.34" d="M86.5506 69.187H84.1704V71.5425H86.5506V69.187Z" fill="#FFFFFA"/>
<path id="c_3_wh_12" opacity="0.34" d="M82.2665 59.4248H79.8862V61.7803H82.2665V59.4248Z" fill="#FFFFFA"/>
<path id="c_3_wh_13" opacity="0.34" d="M82.2665 64.3076H79.8862V66.6631H82.2665V64.3076Z" fill="#FFFFFA"/>
<path id="c_3_wh_14" opacity="0.34" d="M82.2665 69.187H79.8862V71.5425H82.2665V69.187Z" fill="#FFFFFA"/>
</g>
<path id="Vector_11" d="M97.2241 40.9947H80.5745V0H79.1975V40.9947H34.225V0H32.848V40.9947H14.479V42.3744H32.848V82.9195H34.225V42.3744H79.1975V82.9195H80.5745V42.3744H97.2241V40.9947Z" fill="white"/>
<path id="c_3_c_5" d="M100.52 82.8193H11.1826V85.5769H100.52V82.8193Z" fill="#F4F4F4"/>
<path id="c_3_c_6" opacity="0.1" d="M100.52 82.8193H11.1826V85.5769H100.52V82.8193Z" fill="#292A2E"/>
<path id="c_3_c_7" opacity="0.1" d="M101.81 82.8193H100.521V85.5769H101.81V82.8193Z" fill="#292A2E"/>
<path id="c_3_c_8" opacity="0.1" d="M101.81 82.8193H100.521V85.5769H101.81V82.8193Z" fill="#292A2E"/>
<g id="Group_3">
<path id="Vector_12" d="M98.1725 1.48096H14.479V3.53115H98.1725V1.48096Z" fill="white"/>
<path id="Vector_13" d="M98.1725 5.31152H14.479V7.36172H98.1725V5.31152Z" fill="white"/>
<path id="Vector_14" d="M98.1725 9.13818H14.479V11.1884H98.1725V9.13818Z" fill="white"/>
<path id="Vector_15" d="M98.1725 12.9702H14.479V15.0204H98.1725V12.9702Z" fill="white"/>
<path id="Vector_16" d="M98.1725 16.7988H14.479V18.849H98.1725V16.7988Z" fill="white"/>
</g>
<path id="Vector_17" d="M89.2834 0H88.0293V21.1609H89.2834V0Z" fill="white"/>
<path id="Vector_18" d="M88.7627 24.1991C89.7143 24.1991 90.4858 23.426 90.4858 22.4724C90.4858 21.5187 89.7143 20.7456 88.7627 20.7456C87.811 20.7456 87.0396 21.5187 87.0396 22.4724C87.0396 23.426 87.811 24.1991 88.7627 24.1991Z" fill="white"/>
</g>
<g id="Group_4">
<g id="tail">
<path id="Vector_19" d="M75.1482 99.3371C74.9211 99.337 74.6944 99.3168 74.4708 99.2766C73.8571 99.1662 73.2765 98.9174 72.7729 98.5489C72.2694 98.1804 71.8561 97.702 71.5643 97.1498C71.283 96.5915 71.1356 95.9751 71.1341 95.3497C71.1325 94.7243 71.2768 94.1072 71.5554 93.5476C71.8577 92.8652 72.3042 92.2566 72.8639 91.7639C71.4916 91.4511 70.0829 91.3289 68.6773 91.401C68.3857 91.4228 68.0974 91.3277 67.8758 91.1365C67.6542 90.9452 67.5175 90.6736 67.4957 90.3814C67.474 90.0892 67.5689 89.8002 67.7598 89.5782C67.9506 89.3561 68.2216 89.2191 68.5132 89.1973C68.713 89.1822 72.9155 88.8907 75.8971 90.5989C78.1893 90.4609 80.3751 91.5405 80.4863 91.5975C80.7477 91.7288 80.9463 91.9589 81.0384 92.237C81.1305 92.5151 81.1086 92.8185 80.9775 93.0805C80.9126 93.2102 80.8229 93.3258 80.7134 93.4207C80.6039 93.5157 80.4768 93.588 80.3393 93.6338C80.0618 93.7261 79.759 93.7041 79.4977 93.5728C79.1182 93.3922 78.725 93.2421 78.3217 93.1241C78.6343 93.7957 78.8125 94.5222 78.8462 95.2625C78.8974 95.8472 78.8134 96.4359 78.6007 96.9828C78.3881 97.5297 78.0525 98.0201 77.62 98.416C76.935 99.0134 76.0564 99.3408 75.1482 99.3371ZM75.3742 92.9018C75.2815 92.9245 75.1906 92.9516 75.1015 92.983C74.7546 93.1091 74.438 93.3069 74.1722 93.5634C73.9065 93.8199 73.6974 94.1295 73.5586 94.4722C73.2785 95.0814 73.2656 95.6385 73.5202 96.128C73.6584 96.379 73.8502 96.5965 74.0819 96.7647C74.3136 96.933 74.5795 97.0479 74.8607 97.1014C75.0887 97.1457 75.3238 97.1382 75.5486 97.0795C75.7733 97.0208 75.9821 96.9124 76.1596 96.7621C76.3409 96.5856 76.479 96.3694 76.5631 96.1305C76.6472 95.8916 76.675 95.6364 76.6443 95.3849C76.6329 94.937 76.5281 94.4965 76.3367 94.0916C76.1452 93.6867 75.8713 93.3265 75.5326 93.034C75.4811 92.9889 75.4283 92.9448 75.3742 92.9018Z" fill="#367CFF"/>
<g id="Group_5" opacity="0.6">
<path id="Vector_20" d="M75.1482 99.3366C74.9211 99.3365 74.6944 99.3163 74.4708 99.2761C73.8571 99.1657 73.2765 98.9169 72.7729 98.5484C72.2694 98.1799 71.8561 97.7015 71.5643 97.1493C71.283 96.591 71.1356 95.9747 71.1341 95.3493C71.1325 94.7238 71.2768 94.1067 71.5554 93.5471C71.8577 92.8647 72.3042 92.2562 72.8639 91.7634C71.4916 91.4506 70.0829 91.3285 68.6773 91.4005C68.3857 91.4223 68.0974 91.3272 67.8758 91.136C67.6542 90.9447 67.5175 90.6731 67.4957 90.3809C67.474 90.0887 67.5689 89.7998 67.7598 89.5777C67.9506 89.3556 68.2216 89.2186 68.5132 89.1968C68.713 89.1817 72.9155 88.8902 75.8971 90.5984C78.1893 90.4604 80.3751 91.54 80.4863 91.597C80.7477 91.7284 80.9463 91.9584 81.0384 92.2365C81.1305 92.5146 81.1086 92.818 80.9775 93.08C80.9126 93.2097 80.8229 93.3253 80.7134 93.4202C80.6039 93.5152 80.4768 93.5876 80.3393 93.6333C80.0618 93.7256 79.759 93.7037 79.4977 93.5723C79.1182 93.3917 78.725 93.2416 78.3217 93.1236C78.6343 93.7952 78.8125 94.5217 78.8462 95.262C78.8974 95.8467 78.8134 96.4354 78.6007 96.9823C78.3881 97.5292 78.0525 98.0196 77.62 98.4155C76.935 99.0129 76.0564 99.3403 75.1482 99.3366ZM75.3742 92.9013C75.2815 92.9241 75.1906 92.9511 75.1015 92.9825C74.7546 93.1086 74.438 93.3064 74.1722 93.5629C73.9065 93.8194 73.6974 94.129 73.5586 94.4717C73.2785 95.0809 73.2656 95.638 73.5202 96.1275C73.6584 96.3785 73.8502 96.596 74.0819 96.7642C74.3136 96.9325 74.5795 97.0474 74.8607 97.1009C75.0887 97.1452 75.3238 97.1377 75.5486 97.079C75.7733 97.0203 75.9821 96.9119 76.1596 96.7617C76.3409 96.5851 76.479 96.3689 76.5631 96.13C76.6472 95.8911 76.675 95.6359 76.6443 95.3844C76.6329 94.9365 76.5281 94.496 76.3367 94.0911C76.1452 93.6863 75.8713 93.326 75.5326 93.0336C75.4811 92.9884 75.4283 92.9444 75.3742 92.9013Z" fill="white"/>
</g>
<g id="Group_6" opacity="0.5">
<path id="Vector_21" d="M72.5564 95.1171C72.3715 95.1169 72.1896 95.0701 72.0275 94.981C71.8654 94.8919 71.7282 94.7634 71.6285 94.6073C71.5289 94.4512 71.47 94.2725 71.4572 94.0877C71.4445 93.9028 71.4783 93.7177 71.5556 93.5494C71.8162 92.9351 72.2018 92.382 72.6877 91.9253C73.1736 91.4687 73.7492 91.1186 74.3777 90.8974C77.1187 89.9338 80.3505 91.5325 80.4869 91.6004C80.7483 91.7317 80.9469 91.9618 81.039 92.2399C81.1312 92.518 81.1093 92.8214 80.9782 93.0834C80.8471 93.3453 80.6175 93.5443 80.34 93.6366C80.0624 93.729 79.7597 93.707 79.4983 93.5757C78.799 93.2277 76.639 92.4411 75.1012 92.9844C74.7543 93.1105 74.4378 93.3082 74.172 93.5647C73.9062 93.8213 73.6972 94.1309 73.5584 94.4735C73.4703 94.6656 73.3291 94.8283 73.1515 94.9424C72.9739 95.0564 72.7674 95.1171 72.5564 95.1171Z" fill="white"/>
</g>
</g>
<path id="Vector_22" d="M28.014 78.9577C28.014 78.9577 21.2072 73.9003 18.7854 75.8892C16.5933 77.6893 19.132 84.8737 19.132 84.8737C19.132 84.8737 24.9834 85.403 28.014 78.9577Z" fill="#367CFF"/>
<g id="Group_7" opacity="0.2">
<path id="Vector_23" d="M28.014 78.9581C28.014 78.9581 21.2072 73.9008 18.7854 75.8896C16.5933 77.6897 19.132 84.8742 19.132 84.8742C19.132 84.8742 24.9834 85.4035 28.014 78.9581Z" fill="white"/>
</g>
<path id="Vector_24" d="M72.2516 95.4254C72.2516 82.6812 61.7906 72.3501 45.3378 72.3501C30.561 72.3501 18.2724 80.5375 15.9273 91.468H12.4946V106.243H18.9273C20.8239 109.028 23.4815 111.409 26.6167 113.373V120.116C26.6166 120.335 26.6594 120.551 26.7427 120.753C26.826 120.955 26.9482 121.138 27.1023 121.293C27.2565 121.448 27.4395 121.57 27.6409 121.654C27.8423 121.738 28.0582 121.781 28.2763 121.781H30.5053C30.5564 121.781 30.6067 121.777 30.6569 121.773C30.707 121.777 30.7572 121.781 30.8086 121.781H33.0376C33.2556 121.781 33.4715 121.738 33.673 121.654C33.8744 121.57 34.0574 121.448 34.2115 121.293C34.3656 121.138 34.4879 120.955 34.5712 120.753C34.6545 120.551 34.6973 120.335 34.6971 120.116V116.984C38.1529 117.998 41.7362 118.509 45.3372 118.501C47.6012 118.508 49.8608 118.298 52.0852 117.875V120.117C52.085 120.335 52.1278 120.552 52.2111 120.754C52.2945 120.955 52.4167 121.139 52.5709 121.294C52.725 121.448 52.908 121.571 53.1095 121.654C53.3109 121.738 53.5269 121.781 53.7449 121.781H55.9739C56.0251 121.781 56.0753 121.778 56.1256 121.773C56.1756 121.778 56.2259 121.781 56.2772 121.781H58.5063C58.7243 121.781 58.9402 121.738 59.1416 121.654C59.3431 121.571 59.5261 121.448 59.6802 121.293C59.8343 121.139 59.9565 120.955 60.0398 120.753C60.1232 120.552 60.1659 120.335 60.1658 120.117V115.07C67.8106 111.005 72.2516 103.728 72.2516 95.4254Z" fill="#367CFF"/>
<path id="Vector_25" d="M72.2516 95.4254C72.2516 82.6812 61.7906 72.3501 45.3378 72.3501C30.561 72.3501 18.2724 80.5375 15.9273 91.468H12.4946V106.243H18.9273C20.8239 109.028 23.4815 111.409 26.6167 113.373V120.116C26.6166 120.335 26.6594 120.551 26.7427 120.753C26.826 120.955 26.9482 121.138 27.1023 121.293C27.2565 121.448 27.4395 121.57 27.6409 121.654C27.8423 121.738 28.0582 121.781 28.2763 121.781H30.5053C30.5564 121.781 30.6067 121.777 30.6569 121.773C30.707 121.777 30.7572 121.781 30.8086 121.781H33.0376C33.2556 121.781 33.4715 121.738 33.673 121.654C33.8744 121.57 34.0574 121.448 34.2115 121.293C34.3656 121.138 34.4879 120.955 34.5712 120.753C34.6545 120.551 34.6973 120.335 34.6971 120.116V116.984C38.1529 117.998 41.7362 118.509 45.3372 118.501C47.6012 118.508 49.8608 118.298 52.0852 117.875V120.117C52.085 120.335 52.1278 120.552 52.2111 120.754C52.2945 120.955 52.4167 121.139 52.5709 121.294C52.725 121.448 52.908 121.571 53.1095 121.654C53.3109 121.738 53.5269 121.781 53.7449 121.781H55.9739C56.0251 121.781 56.0753 121.778 56.1256 121.773C56.1756 121.778 56.2259 121.781 56.2772 121.781H58.5063C58.7243 121.781 58.9402 121.738 59.1416 121.654C59.3431 121.571 59.5261 121.448 59.6802 121.293C59.8343 121.139 59.9565 120.955 60.0398 120.753C60.1232 120.552 60.1659 120.335 60.1658 120.117V115.07C67.8106 111.005 72.2516 103.728 72.2516 95.4254Z" fill="#9EAAC1"/>
<path id="Vector_26" d="M21.0266 87.9055C21.5639 87.9055 21.9995 87.469 21.9995 86.9305C21.9995 86.3921 21.5639 85.9556 21.0266 85.9556C20.4893 85.9556 20.0537 86.3921 20.0537 86.9305C20.0537 87.469 20.4893 87.9055 21.0266 87.9055Z" fill="#262626"/>
<path id="Vector_27" d="M25.9096 81.3636C25.667 81.1294 25.5147 80.8169 25.4795 80.4812C25.4443 80.1455 25.5284 79.8081 25.7171 79.5285C27.0123 77.6213 29.9784 73.7066 32.0215 74.5074C33.8912 75.2402 34.3397 79.9334 34.4472 82.0486C34.4714 82.3493 34.393 82.6494 34.2248 82.8996C34.0567 83.1499 33.8087 83.3355 33.5215 83.4261C32.0215 83.8345 28.9743 84.1441 25.9096 81.3636Z" fill="#367CFF"/>
<g id="Group_8" opacity="0.2">
<path id="Vector_28" d="M25.9096 81.3626C25.667 81.1284 25.5147 80.8159 25.4795 80.4802C25.4443 80.1445 25.5284 79.8071 25.7171 79.5275C27.0123 77.6203 29.9784 73.7056 32.0215 74.5065C33.8912 75.2392 34.3397 79.9324 34.4472 82.0476C34.4714 82.3484 34.393 82.6484 34.2248 82.8987C34.0567 83.1489 33.8087 83.3345 33.5215 83.4251C32.0215 83.8335 28.9743 84.1432 25.9096 81.3626Z" fill="white"/>
</g>
<path id="Vector_29" d="M52.5208 74.2988H37.8709C37.2845 74.2988 36.8091 74.7752 36.8091 75.3629V75.3631C36.8091 75.9508 37.2845 76.4272 37.8709 76.4272H52.5208C53.1072 76.4272 53.5826 75.9508 53.5826 75.3631V75.3629C53.5826 74.7752 53.1072 74.2988 52.5208 74.2988Z" fill="#262626"/>
<path id="Vector_30" opacity="0.2" d="M53.4919 75.7922C53.4085 75.9806 53.2724 76.1407 53.0999 76.2531C52.9275 76.3654 52.7262 76.4252 52.5205 76.425H37.8707C37.665 76.4252 37.4637 76.3653 37.2914 76.2527C37.1191 76.1401 36.9833 75.9797 36.9004 75.7911C36.9526 75.6703 37.0275 75.5606 37.1209 75.468C37.2189 75.3687 37.3357 75.2899 37.4644 75.2363C37.5931 75.1826 37.7313 75.1553 37.8707 75.1558H52.5205C52.7267 75.1557 52.9283 75.2159 53.1009 75.3289C53.2734 75.4419 53.4093 75.6029 53.4919 75.7922Z" fill="white"/>
<path id="Vector_31" d="M12.4945 106.242C14.3165 106.242 15.7936 102.935 15.7936 98.8545C15.7936 94.7744 14.3165 91.4668 12.4945 91.4668C10.6724 91.4668 9.19531 94.7744 9.19531 98.8545C9.19531 102.935 10.6724 106.242 12.4945 106.242Z" fill="#367CFF"/>
<g id="Group_9" opacity="0.7">
<path id="Vector_32" d="M12.4945 106.242C14.3165 106.242 15.7936 102.935 15.7936 98.8545C15.7936 94.7744 14.3165 91.4668 12.4945 91.4668C10.6724 91.4668 9.19531 94.7744 9.19531 98.8545C9.19531 102.935 10.6724 106.242 12.4945 106.242Z" fill="white"/>
</g>
</g>
<path id="Vector_33" d="M174.197 122H0.218531C0.160573 122 0.104989 121.977 0.0640061 121.936C0.0230237 121.895 0 121.84 0 121.781C0 121.723 0.0230237 121.668 0.0640061 121.627C0.104989 121.586 0.160573 121.562 0.218531 121.562H174.197C174.255 121.562 174.311 121.586 174.352 121.627C174.393 121.668 174.416 121.723 174.416 121.781C174.416 121.84 174.393 121.895 174.352 121.936C174.311 121.977 174.255 122 174.197 122Z" fill="#292A2E"/>
<g id="Group_10">
<g id="Group_11">
<path id="Vector_34" d="M146.777 30.5718C146.777 30.5718 148.15 37.507 150.05 39.8404C155.521 46.5579 157.898 54.6074 153.927 59.4922C149.957 64.377 121.082 68.2024 117.613 58.6097C114.691 50.5337 118.528 49.1241 118.599 42.1385C118.632 38.9775 118.984 32.3125 118.984 32.3125" fill="#0A0A0A"/>
<path id="sk" d="M123.559 54.7743C123.609 54.7677 124.167 64.0442 134.921 63.2355C142.366 62.6766 145.02 54.7605 145.192 54.7605C144.389 54.5897 143.038 54.3409 142.681 54.1504C141.509 53.519 140.059 52.8623 139.68 50.5808C139.462 49.2669 139.832 42.539 139.718 41.208L128.29 43.7641C128.45 46.5737 129.568 53.0876 125.651 54.2404C124.998 54.4324 124.296 54.6079 123.559 54.7743Z" fill="white"/>
<path id="sh" opacity="0.5" d="M128.129 51.5803C128.308 51.0022 128.424 50.4062 128.473 49.803C128.599 48.4263 128.574 47.0401 128.398 45.6689C130.721 45.3547 132.909 44.3941 134.714 42.896C134.926 43.6813 136.093 47.1129 135.77 47.8592C135.16 49.27 132.29 51.5803 128.129 51.5803Z" fill="#0C0C0C"/>
<path id="Vector_35" d="M130.115 49.3722C134.638 49.2231 140.187 46.6786 140.611 40.5598L140.993 35.0392C141.416 28.9206 138.553 23.7378 132.804 23.3383C127.055 22.9389 122.415 27.6003 121.991 33.7185L121.822 36.1627C121.66 38.5103 122.043 49.6387 130.115 49.3722Z" fill="white"/>
<path id="Vector_36" d="M123.421 36.6335C123.813 36.6335 124.131 36.3151 124.131 35.9222C124.131 35.5294 123.813 35.2109 123.421 35.2109C123.029 35.2109 122.711 35.5294 122.711 35.9222C122.711 36.3151 123.029 36.6335 123.421 36.6335Z" fill="#0C0C0C"/>
<path id="Vector_37" d="M130.706 36.6335C131.098 36.6335 131.416 36.3151 131.416 35.9222C131.416 35.5294 131.098 35.2109 130.706 35.2109C130.314 35.2109 129.997 35.5294 129.997 35.9222C129.997 36.3151 130.314 36.6335 130.706 36.6335Z" fill="#0C0C0C"/>
<path id="Vector_38" opacity="0.5" d="M127.357 41.2841C127.353 41.2843 127.349 41.2843 127.345 41.2841C127.112 41.2664 126.88 41.2357 126.651 41.1921C126.308 41.1247 125.854 40.9996 125.875 40.6937C125.899 40.3451 127.112 36.6498 127.251 36.2296C127.257 36.2107 127.266 36.1931 127.278 36.1779C127.291 36.1627 127.306 36.1501 127.323 36.1409C127.341 36.1317 127.36 36.1262 127.379 36.1245C127.399 36.1229 127.418 36.1252 127.437 36.1314C127.456 36.1375 127.473 36.1474 127.487 36.1603C127.502 36.1733 127.514 36.1891 127.523 36.2068C127.531 36.2245 127.536 36.2437 127.537 36.2633C127.538 36.2829 127.535 36.3025 127.528 36.3209C127.01 37.8948 126.182 40.4793 126.166 40.7138C126.216 40.8159 126.789 40.953 127.367 40.9933C127.404 40.9961 127.439 41.0133 127.464 41.0412C127.489 41.0692 127.502 41.1057 127.501 41.1432C127.5 41.1807 127.484 41.2163 127.458 41.2427C127.431 41.269 127.395 41.284 127.358 41.2845L127.357 41.2841Z" fill="#0C0C0C"/>
<path id="Vector_39" opacity="0.5" d="M128.494 43.7683C127.563 43.7578 126.647 43.5281 125.821 43.0977C125.804 43.0892 125.788 43.0775 125.776 43.0631C125.763 43.0487 125.754 43.0319 125.747 43.0138C125.741 42.9957 125.739 42.9765 125.74 42.9575C125.741 42.9384 125.746 42.9197 125.755 42.9026C125.763 42.8855 125.775 42.8702 125.789 42.8576C125.804 42.845 125.82 42.8354 125.839 42.8292C125.857 42.8231 125.876 42.8206 125.895 42.8219C125.914 42.8232 125.932 42.8282 125.95 42.8367C127.733 43.721 129.398 43.7008 130.766 42.7782C130.793 42.7586 130.822 42.7405 130.851 42.7241C130.886 42.7067 130.926 42.7037 130.963 42.7158C130.999 42.7279 131.03 42.7542 131.047 42.7887C131.064 42.8233 131.067 42.8633 131.055 42.9001C131.043 42.9369 131.017 42.9673 130.983 42.9847C130.972 42.9909 130.954 43.0031 130.929 43.02C130.21 43.5068 129.362 43.7673 128.494 43.7683Z" fill="#0C0C0C"/>
<path id="Vector_40" d="M145.714 36.3857L140.564 36.0573C136.564 34.9623 134.627 28.4764 134.627 28.4764C134.627 28.4764 130.525 33.5553 118.984 32.3121C118.984 32.3121 119.382 16.341 136.523 18.9385C142.049 19.7759 146.529 24.726 146.904 32.0072C147.166 37.1099 145.714 36.3857 145.714 36.3857Z" fill="#0A0A0A"/>
<path id="Vector_41" d="M140.125 42.3969C141.872 42.5185 143.418 40.7438 143.539 38.9931C143.66 37.2425 142.311 36.1785 140.564 36.0571L139.582 37.1676L138.623 42.292L140.125 42.3969Z" fill="white"/>
<path id="Vector_42" d="M125.683 33.6152C125.218 33.3687 124.696 33.2502 124.17 33.2718C123.906 33.2807 123.644 33.3296 123.394 33.4168C123.142 33.5031 122.902 33.6208 122.68 33.7671L122.673 33.7715C122.66 33.7794 122.647 33.7848 122.632 33.7873C122.618 33.7899 122.603 33.7896 122.589 33.7864C122.574 33.7833 122.561 33.7773 122.549 33.769C122.537 33.7606 122.527 33.7499 122.519 33.7376C122.511 33.7252 122.506 33.7115 122.503 33.6971C122.501 33.6826 122.501 33.6679 122.504 33.6536C122.507 33.6393 122.513 33.6257 122.522 33.6137C122.53 33.6017 122.541 33.5915 122.553 33.5836C122.787 33.4176 123.042 33.2818 123.31 33.1794C123.581 33.0751 123.865 33.012 124.154 32.9923C124.739 32.949 125.324 33.0636 125.85 33.3243C125.869 33.3343 125.887 33.3479 125.901 33.3646C125.915 33.3813 125.926 33.4006 125.933 33.4215C125.94 33.4424 125.943 33.4644 125.941 33.4863C125.939 33.5083 125.933 33.5296 125.923 33.5492C125.914 33.5689 125.9 33.5863 125.883 33.6006C125.867 33.615 125.847 33.6259 125.826 33.6327C125.806 33.6396 125.784 33.6422 125.762 33.6406C125.74 33.6389 125.719 33.633 125.699 33.623L125.695 33.6209L125.683 33.6152Z" fill="#0C0C0C"/>
<path id="Vector_43" d="M130.354 33.6526C130.909 33.4646 131.505 33.4294 132.079 33.5508C132.363 33.6089 132.636 33.7095 132.89 33.8491C133.142 33.9865 133.376 34.1552 133.587 34.3512C133.608 34.3706 133.621 34.3976 133.623 34.4265C133.625 34.4554 133.616 34.484 133.597 34.5061C133.579 34.5282 133.552 34.5422 133.523 34.545C133.494 34.5479 133.466 34.5394 133.443 34.5214L133.437 34.5159C133.235 34.3409 133.013 34.1918 132.775 34.0722C132.539 33.9523 132.287 33.8688 132.026 33.8245C131.508 33.7327 130.975 33.7803 130.481 33.9623L130.469 33.9669C130.448 33.9748 130.426 33.9786 130.404 33.978C130.383 33.9774 130.361 33.9726 130.341 33.9637C130.321 33.9547 130.303 33.9419 130.288 33.926C130.273 33.9101 130.261 33.8914 130.253 33.8709C130.245 33.8503 130.241 33.8285 130.242 33.8065C130.242 33.7846 130.247 33.7629 130.256 33.7428C130.265 33.7228 130.278 33.7046 130.294 33.6895C130.31 33.6743 130.328 33.6625 130.349 33.6546L130.354 33.6526Z" fill="#0C0C0C"/>
<path id="Vector_44" opacity="0.52" d="M128.46 45.1515C128.292 45.1522 128.123 45.1386 127.957 45.1108C127.938 45.1077 127.92 45.1009 127.904 45.0908C127.888 45.0807 127.874 45.0675 127.863 45.052C127.852 45.0365 127.844 45.0189 127.839 45.0003C127.835 44.9816 127.834 44.9623 127.837 44.9435C127.84 44.9246 127.847 44.9065 127.857 44.8902C127.867 44.874 127.88 44.8599 127.896 44.8487C127.911 44.8375 127.929 44.8295 127.948 44.8252C127.966 44.8208 127.985 44.8201 128.004 44.8232C129.004 44.9873 129.51 44.5528 129.531 44.5342C129.545 44.5214 129.562 44.5116 129.58 44.5053C129.598 44.4989 129.617 44.4962 129.636 44.4973C129.655 44.4984 129.674 44.5032 129.691 44.5115C129.708 44.5198 129.724 44.5314 129.736 44.5457C129.749 44.5599 129.759 44.5766 129.765 44.5946C129.771 44.6127 129.774 44.6318 129.773 44.6509C129.772 44.67 129.767 44.6887 129.759 44.706C129.751 44.7232 129.739 44.7386 129.725 44.7514C129.362 45.0271 128.915 45.1685 128.46 45.1515Z" fill="#0C0C0C"/>
<path id="Vector_45" d="M134.676 27.7676C134.676 27.7676 133.758 34.3476 140.562 35.9217" stroke="#0C0C0C" stroke-width="0.0880453" stroke-miterlimit="10"/>
<path id="Vector_46" opacity="0.1" d="M131.94 41.1855C132.687 41.1775 133.288 40.7262 133.282 40.1774C133.276 39.6286 132.666 39.1901 131.919 39.198C131.173 39.206 130.572 39.6573 130.578 40.2061C130.584 40.755 131.194 41.1934 131.94 41.1855Z" fill="#0C0C0C"/>
<path id="Vector_47" opacity="0.1" d="M123.891 40.0404C123.895 40.5879 123.295 41.0396 122.548 41.0477C122.419 41.0491 122.29 41.037 122.163 41.0116C122.046 40.3726 121.963 39.7539 121.908 39.1784C122.105 39.1006 122.316 39.0604 122.528 39.0602C123.274 39.0519 123.885 39.4903 123.891 40.0404Z" fill="#0C0C0C"/>
</g>
<path id="Vector_48" d="M159.525 109.892L161.471 121.78H112.936L114.75 109.82L159.525 109.892Z" fill="#262626"/>
<path id="b_1_b" d="M135.168 60.932C142.618 60.5801 142.931 54.2432 142.931 54.2432C142.931 54.2432 146.623 54.4823 149.077 54.8149C153.094 55.3596 155.745 56.7248 157.854 58.8385C159.816 60.8046 161.01 62.9319 159.746 76.5133C158.831 86.3473 159.525 109.893 159.525 109.893L114.751 109.821C114.751 109.821 110.573 79.626 110.197 75.1993C109.479 66.7487 111.008 59.6047 112.759 57.8502C116.358 54.2432 122.555 54.2432 125.65 54.2436C125.699 54.2436 125.022 61.4112 135.168 60.932Z" fill="#9EAAC1"/>
<g id="Group_12">
<path id="Vector_49" d="M59.557 49.7398C59.4199 49.6555 59.267 49.6 59.1078 49.5768C58.9485 49.5536 58.7863 49.5632 58.6308 49.6049C58.4754 49.6467 58.3301 49.7197 58.2038 49.8196C58.0775 49.9195 57.9728 50.0441 57.8962 50.1859C57.7573 50.4654 57.7295 50.7873 57.8185 51.0866C57.9074 51.3858 58.1064 51.6401 58.3752 51.7979L59.7384 52.636L54.2248 51.97C53.613 51.8851 52.8085 52.1733 52.7587 52.8679C52.7222 53.1337 52.7767 53.404 52.9133 53.6347C53.05 53.8654 53.2606 54.0428 53.5109 54.1381C53.5083 54.1439 53.5065 54.1501 53.5054 54.1564C53.5051 54.161 53.5051 54.1657 53.5054 54.1702L52.562 54.0389C52.3883 54.0149 52.2115 54.0298 52.0442 54.0826C51.877 54.1354 51.7235 54.2247 51.5948 54.3441C51.4662 54.4635 51.3656 54.61 51.3002 54.7731C51.2349 54.9361 51.2065 55.1117 51.217 55.2871C51.2397 55.5665 51.3581 55.8294 51.552 56.0313C51.7459 56.2333 52.0035 56.3619 52.2812 56.3954L52.6827 56.451C52.6864 56.4638 52.6925 56.4758 52.7006 56.4863C52.4234 56.5113 52.1639 56.6334 51.9677 56.831C51.7714 57.0287 51.6509 57.2894 51.6274 57.5672C51.6121 57.8791 51.7156 58.1852 51.9169 58.4235C52.1182 58.6618 52.4023 58.8147 52.7117 58.8512L53.6984 58.9881C53.6829 58.996 53.6696 59.0076 53.6595 59.0217C53.6494 59.0359 53.6428 59.0523 53.6403 59.0695C53.6383 59.0902 53.6424 59.111 53.6521 59.1293C53.4153 59.2187 53.2133 59.3818 53.0756 59.5946C52.938 59.8074 52.872 60.0587 52.8872 60.3119C52.9099 60.5912 53.0283 60.8541 53.2222 61.0561C53.4162 61.258 53.6738 61.3867 53.9515 61.4202L62.3638 62.5859C63.5407 62.749 64.7393 62.5561 65.8061 62.0321C66.873 61.5081 67.7593 60.6767 68.3515 59.6446L70.258 56.3214L59.557 49.7398Z" fill="white"/>
<g id="Group_13" opacity="0.2">
<path id="Vector_50" d="M58.9648 54.8252C58.9606 54.8535 58.9456 54.879 58.9229 54.8964C58.9002 54.9138 58.8716 54.9215 58.8433 54.918L53.6009 54.2777C53.5863 54.2764 53.5721 54.2722 53.5591 54.2653C53.5461 54.2585 53.5347 54.249 53.5254 54.2376C53.5162 54.2262 53.5093 54.213 53.5052 54.1989C53.5012 54.1847 53.5 54.1699 53.5018 54.1553C53.5036 54.1407 53.5083 54.1266 53.5156 54.1139C53.5229 54.1011 53.5327 54.09 53.5445 54.0811C53.5562 54.0723 53.5696 54.0659 53.5838 54.0623C53.5981 54.0588 53.6129 54.0581 53.6274 54.0604L58.8699 54.7005C58.8987 54.7041 58.9248 54.719 58.9426 54.7418C58.9605 54.7647 58.9685 54.7937 58.965 54.8225L58.9648 54.8252Z" fill="#0C0C0C"/>
</g>
<g id="Group_14" opacity="0.2">
<path id="Vector_51" d="M58.7469 57.1504C58.7428 57.1787 58.7279 57.2043 58.7052 57.2217C58.6825 57.2391 58.654 57.2469 58.6256 57.2435L52.7756 56.5289C52.7468 56.5254 52.7207 56.5105 52.7028 56.4877C52.685 56.4648 52.677 56.4358 52.6805 56.4069C52.6849 56.3785 52.7 56.3529 52.7226 56.3352C52.7452 56.3174 52.7736 56.309 52.8022 56.3115L58.6527 57.026C58.667 57.0278 58.6807 57.0323 58.6932 57.0394C58.7057 57.0464 58.7167 57.0559 58.7256 57.0672C58.7344 57.0786 58.741 57.0915 58.7448 57.1054C58.7487 57.1193 58.7497 57.1337 58.748 57.148L58.7469 57.1504Z" fill="#0C0C0C"/>
</g>
<g id="Group_15" opacity="0.2">
<path id="Vector_52" d="M58.5254 59.6702C58.5213 59.6985 58.5064 59.7241 58.4837 59.7415C58.461 59.7589 58.4325 59.7667 58.4041 59.7632L53.7372 59.1938C53.7084 59.1903 53.6822 59.1755 53.6643 59.1526C53.6465 59.1298 53.6384 59.1007 53.6419 59.0719C53.6454 59.043 53.6602 59.0168 53.683 58.9989C53.7059 58.981 53.7349 58.9729 53.7636 58.9764L58.4306 59.5458C58.4448 59.5475 58.4586 59.552 58.4711 59.5591C58.4836 59.5662 58.4946 59.5756 58.5034 59.587C58.5123 59.5983 58.5188 59.6113 58.5227 59.6251C58.5265 59.639 58.5276 59.6535 58.5259 59.6677L58.5254 59.6702Z" fill="#0C0C0C"/>
</g>
</g>
<g id="Group_16">
<g id="Group_17">
<path id="Vector_53" d="M45.8365 67.2206C53.4967 67.2206 59.7066 60.9977 59.7066 53.3212C59.7066 45.6448 53.4967 39.4219 45.8365 39.4219C38.1762 39.4219 31.9663 45.6448 31.9663 53.3212C31.9663 60.9977 38.1762 67.2206 45.8365 67.2206Z" fill="#596584"/>
<g id="Group_18" opacity="0.1">
<path id="Vector_54" d="M45.8364 64.3373C51.9091 64.3373 56.832 59.4041 56.832 53.3186C56.832 47.2331 51.9091 42.2998 45.8364 42.2998C39.7637 42.2998 34.8408 47.2331 34.8408 53.3186C34.8408 59.4041 39.7637 64.3373 45.8364 64.3373Z" fill="#66718C"/>
</g>
</g>
<path id="Vector_55" d="M45.1015 58.6118L45.0436 56.716C46.0665 56.7677 46.8323 56.6255 47.4551 56.1954C48.2014 55.6799 48.3163 55.143 47.9033 54.5425C46.9697 53.1847 43.5108 55.6098 41.8718 53.2285C40.819 51.6976 41.2066 49.9916 42.8753 48.8393C43.3446 48.505 43.881 48.277 44.447 48.1714C45.0131 48.0657 45.5954 48.0848 46.1533 48.2274L45.9492 50.0085C45.1706 49.9027 44.6068 49.9533 44.0567 50.333C43.423 50.771 43.2556 51.264 43.6634 51.8568C44.5287 53.1153 47.9295 50.6048 49.6642 53.1269C50.7064 54.6423 50.4594 56.4297 48.5318 57.7608C47.5185 58.4278 46.3083 58.728 45.1015 58.6118ZM41.2554 48.0509L42.5401 47.1636L43.8471 49.0642L42.5624 49.9513L41.2554 48.0509ZM47.5812 57.2486L48.8657 56.3614L50.2999 58.4469L49.0152 59.334L47.5812 57.2486Z" fill="white"/>
</g>
<path id="Vector_56" d="M60.2283 52.9623L58.3754 51.7979C58.1066 51.6401 57.9076 51.3858 57.8187 51.0866C57.7298 50.7873 57.7576 50.4654 57.8964 50.1859C57.973 50.0441 58.0777 49.9195 58.204 49.8196C58.3303 49.7197 58.4756 49.6467 58.6311 49.6049C58.7865 49.5632 58.9488 49.5536 59.108 49.5768C59.2673 49.6 59.4201 49.6555 59.5572 49.7398" fill="#E98862"/>
<path id="Vector_57" d="M130.853 82.5506L125.09 77.7648C124.966 77.6619 124.823 77.5854 124.668 77.5399C124.514 77.4944 124.352 77.4809 124.192 77.5003C124.032 77.5196 123.878 77.5713 123.739 77.6523C123.6 77.7333 123.479 77.8418 123.383 77.9713C123.206 78.2284 123.133 78.5433 123.179 78.8523C123.225 79.1613 123.386 79.4413 123.63 79.6356L124.862 80.6583L130.657 83.6664L130.853 82.5506Z" fill="white"/>
<g id="Group_19">
<path id="Vector_58" d="M124.861 80.6594L119.497 79.2198C118.903 79.0492 118.066 79.2198 117.919 79.9004C117.846 80.1583 117.861 80.4336 117.964 80.6814C118.067 80.9291 118.25 81.1348 118.484 81.2647C118.481 81.2698 118.479 81.2752 118.477 81.2809C118.477 81.2855 118.477 81.2901 118.477 81.2947L117.561 81.0319C117.393 80.9835 117.215 80.9732 117.042 81.0018C116.869 81.0303 116.705 81.0971 116.56 81.1971C116.416 81.2972 116.296 81.4281 116.208 81.5804C116.121 81.7327 116.068 81.9026 116.054 82.0778C116.037 82.3576 116.117 82.6348 116.28 82.8622C116.444 83.0897 116.681 83.2536 116.951 83.3261L117.34 83.438C117.343 83.4507 117.347 83.463 117.353 83.4743C117.075 83.4601 116.801 83.5446 116.579 83.7128C116.357 83.881 116.201 84.1222 116.139 84.3941C116.08 84.7005 116.139 85.0179 116.305 85.2821C116.47 85.5463 116.73 85.7377 117.031 85.8175L117.989 86.0926C117.972 86.0983 117.957 86.1078 117.945 86.1204C117.933 86.133 117.924 86.1483 117.92 86.1651C117.915 86.1852 117.916 86.2064 117.923 86.2259C117.676 86.2811 117.453 86.4139 117.287 86.605C117.121 86.796 117.021 87.0352 117 87.2876C116.983 87.5674 117.063 87.8446 117.227 88.072C117.39 88.2995 117.627 88.4634 117.897 88.5359L126.061 90.8804C127.203 91.2084 128.417 91.1872 129.547 90.8194C130.677 90.4516 131.671 89.7539 132.403 88.816L134.759 85.7961L124.861 80.6594Z" fill="white"/>
<g id="Group_20" opacity="0.2">
<path id="Vector_59" d="M123.787 82.7154C123.779 82.7429 123.761 82.7661 123.736 82.7801C123.711 82.7941 123.681 82.7978 123.654 82.7903L118.553 81.4144C118.539 81.411 118.525 81.4049 118.514 81.3962C118.502 81.3875 118.492 81.3766 118.484 81.364C118.477 81.3514 118.472 81.3374 118.47 81.3228C118.468 81.3083 118.469 81.2934 118.473 81.2792C118.476 81.2651 118.483 81.2518 118.492 81.2402C118.501 81.2287 118.512 81.219 118.525 81.2119C118.538 81.2048 118.552 81.2004 118.567 81.1988C118.581 81.1973 118.596 81.1987 118.61 81.203L123.71 82.5788C123.724 82.5825 123.737 82.5889 123.748 82.5977C123.759 82.6065 123.769 82.6174 123.776 82.6299C123.783 82.6423 123.788 82.6561 123.79 82.6703C123.792 82.6846 123.791 82.6991 123.787 82.713L123.787 82.7154Z" fill="#0C0C0C"/>
</g>
<g id="Group_21" opacity="0.2">
<path id="Vector_60" d="M123.243 84.9847C123.235 85.0121 123.217 85.0352 123.192 85.0492C123.167 85.0631 123.138 85.0668 123.11 85.0594L117.419 83.524C117.405 83.5203 117.392 83.5139 117.381 83.5051C117.369 83.4963 117.36 83.4854 117.352 83.4729C117.345 83.4605 117.341 83.4467 117.339 83.4325C117.337 83.4182 117.338 83.4037 117.342 83.3898C117.35 83.3623 117.369 83.3391 117.394 83.3247C117.418 83.3104 117.448 83.306 117.476 83.3125L123.167 84.8478C123.181 84.8516 123.194 84.858 123.205 84.8668C123.217 84.8756 123.226 84.8865 123.233 84.899C123.241 84.9114 123.245 84.9252 123.247 84.9394C123.249 84.9537 123.248 84.9682 123.244 84.9821L123.243 84.9847Z" fill="#0C0C0C"/>
</g>
<g id="Group_22" opacity="0.2">
<path id="Vector_61" d="M122.669 87.4478C122.661 87.4752 122.642 87.4984 122.618 87.5124C122.593 87.5264 122.563 87.5301 122.536 87.5226L117.996 86.2978C117.982 86.2941 117.969 86.2877 117.958 86.2789C117.946 86.2701 117.937 86.2592 117.93 86.2467C117.915 86.2215 117.911 86.1916 117.919 86.1636C117.926 86.1355 117.945 86.1116 117.97 86.0971C117.995 86.0826 118.025 86.0787 118.053 86.0863L122.593 87.3111C122.606 87.3148 122.619 87.3213 122.631 87.33C122.642 87.3388 122.652 87.3497 122.659 87.3622C122.666 87.3747 122.671 87.3884 122.672 87.4027C122.674 87.417 122.673 87.4315 122.67 87.4453L122.669 87.4478Z" fill="#0C0C0C"/>
</g>
</g>
<path id="Vector_62" d="M126.684 93.0024L163.761 103.728C165.255 104.125 166.83 104.091 168.305 103.63C169.78 103.169 171.094 102.299 172.097 101.121C173.1 99.943 173.751 98.505 173.973 96.9727C174.195 95.4404 173.981 93.8763 173.355 92.4609L160.714 62.2839C158.878 58.138 152.023 53.8834 147.886 55.7229C143.749 57.5624 143.896 64.7981 145.732 68.9439L153.332 84.8131L130.216 79.4574L126.684 93.0024Z" fill="#9EAAC1"/>
<path id="Vector_63" d="M159.362 102.565C159.352 102.565 159.342 102.564 159.332 102.561L126.654 93.1084C126.626 93.1005 126.603 93.0822 126.589 93.0573C126.575 93.0325 126.571 93.0031 126.578 92.9755L130.11 79.4302C130.118 79.4025 130.135 79.3787 130.16 79.3639C130.184 79.3491 130.214 79.3445 130.241 79.3512L153.138 84.6556L145.635 68.9918C145.624 68.9659 145.624 68.9368 145.634 68.9106C145.644 68.8843 145.663 68.8628 145.689 68.8507C145.714 68.8385 145.743 68.8365 145.769 68.8451C145.796 68.8537 145.819 68.8723 145.832 68.897L153.433 84.7662C153.442 84.7848 153.445 84.8055 153.443 84.826C153.44 84.8465 153.432 84.8659 153.419 84.882C153.406 84.8979 153.389 84.9099 153.37 84.9167C153.351 84.9234 153.33 84.9247 153.31 84.9204L130.295 79.5886L126.817 92.9275L159.393 102.351C159.418 102.358 159.44 102.374 159.454 102.396C159.468 102.419 159.474 102.445 159.47 102.471C159.467 102.497 159.454 102.521 159.434 102.538C159.414 102.556 159.389 102.565 159.362 102.565Z" fill="#0C0C0C"/>
<path id="Vector_64" d="M157.151 85.7554C157.143 85.7554 157.135 85.7546 157.127 85.753L153.311 84.9208C153.297 84.9179 153.283 84.9122 153.271 84.904C153.259 84.8958 153.249 84.8854 153.241 84.8732C153.233 84.8611 153.228 84.8475 153.225 84.8333C153.223 84.819 153.223 84.8044 153.226 84.7903C153.229 84.7761 153.235 84.7627 153.243 84.7509C153.252 84.739 153.262 84.7289 153.274 84.7212C153.287 84.7134 153.3 84.7081 153.314 84.7057C153.329 84.7032 153.343 84.7036 153.357 84.7069L157.174 85.539C157.2 85.5449 157.223 85.5602 157.239 85.5821C157.255 85.6039 157.262 85.6308 157.259 85.6576C157.256 85.6843 157.243 85.7091 157.223 85.7271C157.203 85.7452 157.178 85.7552 157.151 85.7554Z" fill="#0C0C0C"/>
<path id="Vector_65" d="M109.78 70.2406L109.293 63.9253" stroke="#0C0C0C" stroke-width="0.176091" stroke-linecap="round" stroke-linejoin="round"/>
<path id="Vector_66" d="M90.9394 96.2331C89.836 96.2346 88.7438 96.0122 87.7284 95.5794C86.7131 95.1466 85.7956 94.5123 85.0314 93.7147L57.4966 65.0288L69.3086 53.6426L91.4099 76.6682L113.061 57.5838L123.885 69.9154L96.3502 94.1875C94.8559 95.5078 92.9316 96.2353 90.9394 96.2331Z" fill="#9EAAC1"/>
<path id="Vector_67" d="M110.117 74.08L109.9 74.1074L110.808 81.3237L111.025 81.2963L110.117 74.08Z" fill="#0C0C0C"/>
</g>
</g>
<defs>
<clipPath id="clip0_1_941">
<rect width="178" height="122" fill="white"/>
</clipPath>
</defs>
</svg>
