<svg width="228" height="146" viewBox="0 0 228 146" fill="none" xmlns="http://www.w3.org/2000/svg">
<g id="Password changed successfully" clip-path="url(#clip0_989_1993)">
<g id="Group">
<path id="Vector" d="M93.2224 0.5268C93.2224 0.5268 138.346 -5.63237 144.327 24.1695C147.491 39.9402 170.77 28.544 184.053 34.0173C193.511 37.914 188.624 51.1136 194.305 54.5561C222.302 71.5201 215.018 145.711 209.582 145.7L22.8846 145.398C22.8846 145.398 7.78505 123.154 21.4542 110.165C35.1233 97.1761 25.738 91.2368 24.0767 86.2166C22.1694 80.4528 15.3393 63.9966 34.7963 56.7922C44.7856 53.0934 47.8886 42.8553 48.6455 36.0204C49.9386 24.3419 56.5772 13.9481 66.652 8.27219C73.0315 4.67816 81.6361 1.72747 93.2224 0.5268Z" fill="#ECF2F9"/>
<path id="Vector_2" d="M83.9932 44.7144L87.2381 48.3809C87.4786 48.4717 87.6745 48.3264 88.1632 47.9709C89.0374 47.3349 89.912 46.6988 90.8078 46.0937C90.9489 45.9985 91.2384 45.9952 91.3992 46.0722C92.3552 46.5302 93.2834 47.0454 94.2437 47.4936C94.5413 47.6325 94.6717 47.7503 94.6723 48.0934C94.6747 49.465 94.7159 50.8366 94.7425 52.193C95.9382 52.5985 99.0504 52.8384 100.116 52.5964C100.328 51.3064 100.564 49.9917 100.748 48.6697C100.806 48.2583 100.938 48.1117 101.365 48.0041C102.358 47.7548 103.33 47.415 104.29 47.0578C104.679 46.9132 104.94 46.8693 105.268 47.1974C106.118 48.0478 107.021 48.8469 107.886 49.6832C108.118 49.908 108.318 49.9616 108.567 49.7495C109.737 48.752 110.905 47.7528 112.075 46.7549C112.362 46.5095 112.139 46.3061 112.006 46.118C111.333 45.1661 110.665 44.2101 109.96 43.2814C109.696 42.9327 109.693 42.6837 109.919 42.3016C110.515 41.2904 111.044 40.2408 111.642 39.127C113.009 39.0957 114.519 39.0611 116.07 39.0255C116.499 37.2903 116.597 35.5498 116.42 33.7339C114.934 33.4893 113.448 33.2445 112.138 33.0289C111.662 31.7125 111.249 30.4836 110.765 29.2826C110.625 28.935 110.675 28.7617 110.916 28.5191C111.75 27.677 112.558 26.8091 113.386 25.9612C113.566 25.778 113.672 25.628 113.507 25.3751C112.674 24.0975 111.743 22.9065 110.555 21.9228C110.29 21.7035 110.111 21.7356 109.862 21.9108C108.864 22.6162 107.851 23.3026 106.855 24.012C106.614 24.1838 106.454 24.2192 106.156 24.0639C105.123 23.5253 104.065 23.0301 102.997 22.5628C102.724 22.4434 102.676 22.3044 102.671 22.0582C102.638 20.6865 102.596 19.315 102.556 17.9081C100.808 17.5266 99.0743 17.3474 97.2718 17.5121C97.0196 19.0121 96.769 20.5022 96.5292 21.9283C95.1271 22.3866 93.7695 22.8304 92.3169 23.3053C91.5451 22.5838 90.6622 21.7462 89.7652 20.9235C89.0289 20.2483 89.2138 20.1979 88.3358 20.8105C88.2521 20.869 88.1469 20.8973 88.0516 20.9397C87.3555 21.5429 86.6594 22.146 85.9634 22.7492C85.8335 22.9106 85.7256 23.0973 85.5697 23.2284C85.1644 23.5695 85.1106 23.8696 85.4638 24.3243C86.1999 25.2718 86.8764 26.2654 87.5533 27.2562C87.642 27.386 87.6583 27.6418 87.5909 27.7857C87.152 28.7242 86.6298 29.6276 86.2422 30.585C86.0525 31.0535 85.8241 31.1586 85.361 31.1609C84.0475 31.1675 82.7342 31.2274 81.289 31.2703C81.153 33.0414 81.0206 34.7691 80.8865 36.5162C81.2167 36.577 81.4061 36.615 81.5968 36.6463C82.772 36.8396 83.9458 37.0435 85.1244 37.216C85.459 37.2649 85.57 37.4143 85.6712 37.7246C86.0187 38.7909 86.4356 39.8349 86.7905 40.8991C86.8456 41.0641 86.779 41.3464 86.6598 41.4778C86.0071 42.1977 85.3143 42.8816 84.647 43.5887C84.1071 44.1607 83.9087 44.3751 83.9932 44.7144ZM92.7548 40.2006C89.8543 36.9233 90.188 31.9399 93.5 29.07C96.8121 26.2001 101.849 26.5301 104.749 29.8074C107.65 33.0847 107.316 38.068 104.004 40.9379C100.692 43.8079 95.6553 43.4778 92.7548 40.2006Z" fill="#EBCB82"/>
<path id="Vector_3" d="M141.343 76.6173L135.173 82.8318C135.042 83.2679 135.33 83.594 136.036 84.4082C137.299 85.8648 138.562 87.3221 139.772 88.8209C139.962 89.0568 140.007 89.567 139.89 89.8609C139.193 91.6083 138.389 93.3144 137.711 95.0681C137.501 95.6116 137.306 95.8573 136.688 95.9044C134.217 96.0925 131.752 96.3491 129.312 96.5778C128.742 98.741 128.727 104.262 129.306 106.109C131.658 106.31 134.058 106.551 136.464 106.698C137.213 106.744 137.495 106.957 137.746 107.697C138.328 109.414 139.07 111.083 139.843 112.728C140.155 113.395 140.269 113.849 139.722 114.471C138.304 116.085 136.986 117.783 135.595 119.421C135.221 119.861 135.152 120.222 135.567 120.632C137.521 122.561 139.477 124.488 141.432 126.417C141.912 126.891 142.249 126.47 142.57 126.21C144.194 124.896 145.827 123.589 147.405 122.222C147.998 121.708 148.446 121.671 149.165 122.017C151.066 122.933 153.028 123.725 155.114 124.631C155.354 127.038 155.619 129.696 155.891 132.427C159.074 132.95 162.222 132.891 165.47 132.335C165.711 129.681 165.953 127.027 166.165 124.687C168.473 123.672 170.631 122.779 172.73 121.765C173.337 121.471 173.656 121.537 174.125 121.928C175.754 123.287 177.426 124.595 179.064 125.943C179.418 126.234 179.703 126.401 180.136 126.077C182.326 124.436 184.347 122.634 185.959 120.407C186.319 119.911 186.237 119.599 185.888 119.184C184.484 117.517 183.111 115.824 181.7 114.162C181.358 113.76 181.273 113.482 181.513 112.936C182.345 111.042 183.095 109.11 183.793 107.164C183.972 106.666 184.216 106.564 184.658 106.521C187.125 106.28 189.59 106.021 192.119 105.763C192.572 102.628 192.662 99.5466 192.124 96.3896C189.388 96.1459 186.67 95.9037 184.069 95.6719C183.056 93.2605 182.074 90.9258 181.024 88.4275C182.22 86.9697 183.611 85.3002 184.972 83.6078C186.09 82.2189 186.206 82.5383 184.985 81.0719C184.868 80.9321 184.803 80.7503 184.714 80.588C183.534 79.4412 182.354 78.2944 181.174 77.1476C180.866 76.9403 180.515 76.7749 180.258 76.5177C179.589 75.8485 179.042 75.7938 178.27 76.4778C176.662 77.9031 174.963 79.2293 173.269 80.556C173.047 80.7298 172.588 80.7927 172.32 80.6933C170.571 80.045 168.873 79.2449 167.096 78.6897C166.227 78.4179 166.007 78.0293 165.941 77.2129C165.753 74.8972 165.469 72.5892 165.198 70.046C161.99 70.0438 158.86 70.0416 155.694 70.0394C155.629 70.6299 155.586 70.9691 155.555 71.3094C155.365 73.4082 155.155 75.5057 155.002 77.6072C154.959 78.204 154.704 78.4197 154.159 78.6398C152.285 79.3957 150.46 80.2708 148.591 81.0394C148.301 81.1586 147.783 81.079 147.531 80.8864C146.146 79.8319 144.822 78.7017 143.458 77.6197C142.356 76.7442 141.943 76.4229 141.343 76.6173ZM150.649 91.4646C156.163 85.9099 165.185 85.8304 170.799 91.287C176.412 96.7436 176.493 105.67 170.978 111.225C165.463 116.78 156.442 116.859 150.828 111.403C145.214 105.946 145.134 97.0194 150.649 91.4646Z" fill="#A4BFF6"/>
<path id="Vector_4" d="M155.756 35.7897H79.2839C73.6573 35.7897 69.0961 40.3029 69.0961 45.8703V101.974C69.0961 107.541 73.6573 112.055 79.2839 112.055H155.756C161.382 112.055 165.943 107.541 165.943 101.974V45.8703C165.943 40.3029 161.382 35.7897 155.756 35.7897Z" fill="white"/>
<g id="Group_2">
<path id="Vector_5" d="M70.0599 69.9388L70.3546 70.2007C70.5063 70.3355 70.7345 70.3299 70.8644 70.1882L76.0958 64.4782C76.2258 64.3366 76.2081 64.1123 76.0565 63.9776L75.7617 63.7156C75.6101 63.5808 75.3819 63.5864 75.252 63.7282L70.0206 69.4381C69.8906 69.5798 69.9083 69.804 70.0599 69.9388Z" fill="#263A5A"/>
<path id="Vector_6" d="M52.3232 65.3C53.0224 64.7356 58.43 67.0914 58.3614 67.9114C58.2928 68.7316 62.1347 76.6816 62.1347 76.6816L68.7738 71.4258L68.7765 71.4274C68.8352 71.2373 69.4646 69.1932 69.4953 68.8275C69.5273 68.444 70.6492 67.7728 71.1703 67.8716C71.6913 67.9704 70.7247 68.6193 70.6612 68.7385C70.4885 69.0626 71.1564 69.1844 71.1564 69.1844C71.1564 69.1844 73.0747 68.139 73.1154 67.5244C73.1562 66.9097 73.5522 65.6212 73.9666 65.8907C74.1804 66.0299 74.1785 66.9439 74.1117 67.3777C74.2349 66.8853 74.4094 66.3294 74.5792 66.2743C74.8896 66.1736 75.044 66.5655 74.9876 66.7579C74.9312 66.9504 74.4301 69.0409 74.2778 69.2761C74.1291 69.506 71.0312 71.9839 70.5849 72.5219C70.5849 72.5219 61.9974 82.2686 61.3859 82.5235C60.8495 82.7473 58.9366 79.3884 57.1293 77.1585C55.322 74.9286 50.1381 67.0639 52.3232 65.3Z" fill="#E3A291"/>
<path id="Vector_7" d="M34.9958 136.968C34.9958 136.968 33.8157 138.111 33.7889 138.531C33.7622 138.951 33.6844 143.445 34.1661 143.865C34.6478 144.284 36.0629 144.582 35.6079 145.054C35.2642 145.41 32.6189 145.334 30.8658 145.238C30.354 145.21 29.7123 141.156 29.5096 140.561C29.2152 139.695 28.4993 137.746 28.7669 137.143C28.8973 136.849 29.5212 136.245 30.4003 135.681C31.3249 135.089 32.2096 133.768 32.2096 133.768L34.9958 136.968Z" fill="#DC8B7F"/>
<path id="Vector_8" d="M47.2199 139.63C47.2199 139.63 46.1638 142.592 46.1625 142.6C46.084 143.069 45.7749 144.228 45.7749 144.655C45.7749 146.258 53.0543 143.295 51.4229 142.584C51.2752 142.52 50.8119 142.007 50.7634 141.461C50.6885 140.621 51.3766 139.567 51.3766 139.567L47.2199 139.63Z" fill="#E2A290"/>
<g id="Group_3">
<path id="Vector_9" d="M58.6396 84.4764C58.6396 84.4764 59.1703 89.7861 59.1703 89.8653C59.1703 98.4546 60.8852 115.232 60.5591 116.847C59.7635 120.786 51.2004 140.879 51.2004 140.879L46.5722 140.329L52.6032 116.273L50.3838 106.59L47.2434 87.4496L58.6396 84.4764Z" fill="#415485"/>
<path id="Vector_10" d="M43.1067 89.1729L42.2285 94.2054L39.8526 114.917L30.8041 135.16C30.8041 135.16 32.0768 138.105 33.9546 138.519L48.3559 117.736L57.3017 91.1423L56.9877 85.234L43.1067 89.1729Z" fill="#263A5A"/>
</g>
<path id="Vector_11" d="M60.4853 71.8341L54.0677 72.4846C54.0677 72.4846 53.7733 67.261 53.7733 64.7693C53.7733 61.7462 54.0326 57.8526 54.4003 57.9363C55.4323 58.1716 56.8221 58.7372 57.6495 59.866C60.5127 63.7718 60.4853 71.8341 60.4853 71.8341Z" fill="#D37C35"/>
<path id="Vector_12" d="M57.3325 64.2361C57.4669 65.1578 59.934 90.2147 59.934 90.2147C48.2488 95.818 41.801 91.2128 41.801 91.2128C41.801 91.2128 42.1833 73.6175 41.7251 71.2226C41.4219 69.638 41.0438 59.1092 42.078 58.8143C43.4052 58.4359 44.9268 58.0339 46.5855 57.8631C48.0013 57.7172 53.5011 57.6326 54.4851 57.9607C54.4851 57.9607 56.7673 60.3602 57.3325 64.2361Z" fill="#E1954D"/>
<path id="Vector_13" d="M30.4576 135.653C30.4576 135.653 33.1773 143.256 34.2418 143.623C34.5244 143.72 35.8809 143.968 36.1368 144.563C36.2139 144.743 36.1368 145.342 36.1368 145.342H30.4679C30.4679 145.342 29.7509 141.992 29.4675 140.52C29.4675 140.52 27.9669 136.924 28.1337 136.597C28.3004 136.27 30.4576 135.653 30.4576 135.653Z" fill="#263A5A"/>
<path id="Vector_14" d="M45.3605 145.184L46.1941 142.569C46.1941 142.569 47.9448 143.305 48.8201 143.182C49.6955 143.06 51.4045 142.569 51.4045 142.569C54.8985 143.711 57.7608 144.265 57.2402 145.184H45.3605Z" fill="#263A5A"/>
<path id="Vector_15" d="M61.3862 82.5235C61.4126 82.5126 61.5077 82.4384 61.5625 82.3935C61.3547 79.9387 61.3922 77.5601 62.1682 76.7558C62.1496 76.7173 61.9799 76.3593 61.8028 75.9881C60.9034 76.6787 60.4762 78.5133 60.6438 81.4916C60.6554 81.6964 60.7147 81.8528 60.7624 82.1083C61.0229 82.3928 61.2596 82.5764 61.3862 82.5235Z" fill="#E3A291"/>
<path id="Vector_16" d="M30.2278 90.4802C30.2206 90.4264 30.2196 90.3727 30.225 90.3188C30.3971 88.5836 31.8483 74.0122 32.0927 73.3929C32.3133 72.8337 38.8216 63.5918 38.8216 63.5918L42.0205 67.9188L35.7613 76.208C35.621 76.7348 33.3628 86.5711 33.3628 86.5711C33.3628 86.5711 32.8999 88.364 32.6925 89.4381C32.787 89.6968 32.8798 89.9412 32.9621 90.1418C33.1696 90.5702 33.4142 90.922 33.6365 91.2179C33.9163 91.5902 34.3788 92.4036 34.4359 92.6212C34.5022 92.8743 34.6216 93.4002 34.6893 93.7176C34.757 94.035 34.8496 94.4046 34.8652 94.5768C34.8746 94.6817 34.9835 94.8907 35.0674 95.0385C35.1922 95.2584 34.9791 95.5181 34.7378 95.4386C34.5103 95.3635 34.3333 95.0712 34.2242 94.8892C33.9162 94.3751 33.7519 93.4365 33.6754 93.4862C33.5987 93.5358 33.3289 95.1283 33.2862 95.3083C33.2435 95.4884 32.9197 97.3374 32.737 97.6753C32.5544 98.0132 32.3126 97.9567 32.2485 97.7451C32.1933 97.563 32.4501 94.9757 32.4501 94.9757C32.4501 94.9757 32.4822 94.6457 32.3366 94.7488C32.1911 94.852 31.9531 97.2005 31.8518 97.5441C31.7505 97.8877 31.5198 98.07 31.3239 97.7938C31.0857 97.4579 31.4954 94.9667 31.4954 94.9667C31.4954 94.9667 31.5412 94.6536 31.4065 94.6827C31.2718 94.7119 31.103 96.7135 30.9982 96.8866C30.8933 97.0596 30.6287 97.1218 30.5024 96.8332C30.3538 96.4934 30.7388 94.2726 30.7388 94.2726C30.7388 94.2726 30.7199 94.0958 30.6358 94.1545C30.5518 94.2132 30.2851 95.9093 30.1112 96.0664C29.9652 96.1982 29.8436 96.0702 29.8436 96.0702C29.5246 95.8542 30.0137 94.2408 30.0088 93.4386C30.004 92.6365 30.3788 91.735 30.267 90.7799C30.2599 90.7198 30.2403 90.5727 30.2278 90.4802Z" fill="#E2A290"/>
<path id="Vector_17" d="M33.737 69.445L39.2964 73.151C39.2964 73.151 42.4298 68.5216 44.1119 66.8735C46.2189 64.8089 43.3443 58.4841 41.9868 58.842C38.9501 59.6424 33.737 69.445 33.737 69.445Z" fill="#E1954D"/>
<path id="Vector_18" d="M46.9943 52.4459L46.1627 57.8876C46.1627 57.8876 49.1995 64.3668 51.0124 63.8049C52.5336 63.3334 51.5978 57.6004 51.5978 57.6004C51.5978 57.6004 50.7687 54.5217 51.0173 52.981C51.266 51.4403 46.9943 52.4459 46.9943 52.4459Z" fill="#E2A290"/>
<path id="Vector_19" d="M51.017 52.981C51.2657 51.4403 46.9941 52.4459 46.9941 52.4459L46.9251 52.8972C47.0501 53.1991 47.2029 53.4576 47.3884 53.6557C48.3425 54.6752 49.8339 55.2875 51.1234 55.3338C50.9944 54.5031 50.9151 53.6127 51.017 52.981Z" fill="#D7735A"/>
<g id="Group_4">
<path id="Vector_20" d="M46.2932 44.7475C46.1726 44.7039 45.3255 50.9452 46.9329 52.6625C48.5402 54.3797 51.6719 54.9417 52.7952 53.5892C54.0377 52.0932 53.9753 45.3854 51.4763 43.6188C48.9772 41.8523 46.2932 44.7475 46.2932 44.7475Z" fill="#E2A290"/>
<path id="Vector_21" d="M50.525 40.2803C48.5933 40.6713 47.3421 41.8433 46.8825 42.3427C46.0055 42.4456 44.8134 42.9268 43.5823 44.9504C42.0687 47.4386 43.1865 50.1953 44.9485 51.5478C46.7105 52.9003 46.686 54.4626 46.686 54.4626L46.9645 53.6545C47.1701 53.0423 47.254 52.3933 47.1852 51.7512C47.144 51.3658 47.0609 50.9492 46.9002 50.6067C46.4764 49.7035 47.8105 49.1034 48.1846 48.3519C48.4726 47.7732 48.4866 46.4495 48.9404 45.4929L49.4824 44.7628C49.4824 44.7628 50.7327 43.7968 51.9559 44.0694C53.1793 44.342 53.0033 39.7785 50.525 40.2803Z" fill="#2F4855"/>
<path id="Vector_22" d="M48.1024 49.4626C48.1151 50.224 47.7665 50.8474 47.3236 50.8549C46.8808 50.8624 46.5115 50.2512 46.4988 49.4897C46.486 48.7283 46.8346 48.1049 47.2775 48.0974C47.7203 48.0899 48.0896 48.7011 48.1024 49.4626Z" fill="#E2A290"/>
</g>
<path id="Vector_23" d="M50.7126 51.222L53.1353 51.0975C53.1353 51.0975 53.1271 52.014 52.0633 52.0993C50.7661 52.2033 50.7126 51.222 50.7126 51.222Z" fill="white"/>
</g>
<g id="Group_5">
<g id="Group_6">
<path id="Vector_24" d="M25.8722 34.1991L26.8542 40.2807L30.1371 36.0047L41.0278 25.7077L31.3583 29.5476C31.3583 29.5476 26.6614 32.2624 26.4615 32.5889C26.2615 32.9155 25.8722 34.1991 25.8722 34.1991Z" fill="#7CBDA4"/>
<path id="Vector_25" d="M20.4033 31.9683L41.0278 25.7077L25.8722 34.1991L20.4033 31.9683Z" fill="#ABD8C8"/>
<path id="Vector_26" d="M34.2942 38.1194L27.5785 35.4162L41.0281 25.7077L34.2942 38.1194Z" fill="#ABD8C8"/>
</g>
<g id="Group_7">
<path id="Vector_27" d="M3.414 63.7426C3.33592 63.2586 3.28397 62.7617 3.25961 62.2657C3.23717 61.8091 3.23771 61.3424 3.26106 60.8788L3.76852 60.9038C3.74587 61.3511 3.74544 61.8011 3.76707 62.2414C3.79053 62.719 3.84055 63.1974 3.91579 63.6635C3.9378 63.8005 3.96212 63.9371 3.98857 64.0732L3.48957 64.1678C3.46172 64.0242 3.43633 63.8811 3.414 63.7426ZM3.78234 57.6289C4.05615 56.6061 4.43696 55.5675 4.91439 54.542L5.37574 54.7523C4.91064 55.7516 4.53978 56.7627 4.27341 57.7576L3.78234 57.6289ZM18.9276 52.1043C18.894 52.095 18.8605 52.0852 18.8271 52.0751L18.9764 51.5946C19.0055 51.6034 19.0348 51.612 19.0592 51.6189C19.0594 51.6189 19.0749 51.6215 19.1129 51.6197C19.3964 51.606 20.0933 51.3995 20.4145 51.0535C20.6844 50.7626 20.8596 50.3871 20.9352 49.9372L21.4363 50.0196C21.3457 50.5596 21.1217 51.0347 20.7886 51.3935C20.3432 51.8734 19.4935 52.1046 19.1375 52.1217C19.0534 52.1258 18.9845 52.12 18.9276 52.1043ZM6.51855 51.6734C7.1078 50.7744 7.77217 49.8899 8.49331 49.0446L8.88156 49.3688C8.17403 50.1981 7.52246 51.0655 6.94484 51.9469L6.51855 51.6734ZM15.8489 48.9215C15.7082 48.4597 15.6241 47.9663 15.5989 47.4548C15.5854 47.1798 15.5888 46.8947 15.6089 46.6075L16.1157 46.6422C16.097 46.9098 16.0938 47.175 16.1064 47.4304C16.1295 47.901 16.2065 48.3538 16.3353 48.7763C16.4268 49.0762 16.5504 49.3693 16.7029 49.6475L16.2563 49.8871C16.0873 49.579 15.9503 49.2541 15.8489 48.9215ZM17.4463 45.7773L17.3757 45.7664L17.451 45.2693L17.5276 45.2811C18.6773 45.4655 19.7474 46.0201 20.4641 46.8023L20.0877 47.1399C19.447 46.4405 18.4842 45.9439 17.4463 45.7773ZM11.0789 46.9492C11.57 46.6261 12.4699 46.0577 12.9801 45.8803C13.3762 45.7425 13.7433 45.6295 14.1021 45.535L14.2327 46.0209C13.8868 46.1119 13.5321 46.2211 13.1485 46.3545C12.8139 46.4709 12.1621 46.8402 11.3601 47.3678L11.0789 46.9492ZM16.4517 43.3983C16.9033 42.3874 17.5048 41.4473 18.2394 40.604L18.6242 40.9323C17.9223 41.738 17.3478 42.636 16.9162 43.6015L16.4517 43.3983Z" fill="#A5C0F7"/>
<path id="Vector_28" d="M21.044 38.8731C21.5139 38.5824 22.0018 38.333 22.4943 38.1319L22.3004 37.6672C21.7819 37.879 21.2685 38.1413 20.7747 38.4468L21.044 38.8731Z" fill="#A5C0F7"/>
</g>
</g>
<path id="Vector_29" d="M138.603 94.5878H96.483C93.7586 94.5878 91.5501 92.4024 91.5501 89.7068C91.5501 87.0111 93.7586 84.8257 96.483 84.8257H138.603C141.327 84.8257 143.535 87.0111 143.535 89.7068C143.535 92.4024 141.327 94.5878 138.603 94.5878Z" fill="#E1954D"/>
<g id="Group_8">
<path id="Vector_30" d="M176.737 41.5186H162.142C161.435 41.5186 160.861 42.0862 160.861 42.7864V52.0308C160.861 52.7311 161.435 53.2987 162.142 53.2987H176.737C177.445 53.2987 178.019 52.7311 178.019 52.0308V42.7864C178.019 42.0862 177.445 41.5186 176.737 41.5186Z" fill="#7CBDA4"/>
<path id="Vector_31" d="M161.386 47.3504L156.308 52.5471L162.611 51.3349L161.386 47.3504Z" fill="#7CBDA4"/>
<path id="Vector_32" d="M165.997 46.5893L167.536 46.5507C167.536 46.5507 169.466 45.1028 169.521 44.5956C169.577 44.0885 169.251 43.0185 169.551 42.8817C169.851 42.7449 170.487 42.6338 170.895 43.3018C171.191 43.7866 170.961 45.5662 171.143 45.6837C171.257 45.7573 172.142 45.7598 172.789 45.7513C173.214 45.7457 173.607 45.9743 173.809 46.3447L173.81 46.3458C173.947 46.5961 173.888 46.907 173.668 47.0911L173.327 47.3778L173.6 47.731C173.803 47.9941 173.754 48.3701 173.489 48.5729L173.22 48.7795L173.407 48.9874C173.648 49.2551 173.601 49.6707 173.305 49.8786L173.065 50.0475L173.102 50.1132C173.255 50.3865 173.171 50.7297 172.909 50.904L172.668 51.0643L168.568 51.1665C168.184 51.1762 167.802 51.1079 167.445 50.9661L165.997 50.7661C165.841 50.7446 165.725 50.6138 165.724 50.4583L165.688 46.9065C165.686 46.7349 165.824 46.5937 165.997 46.5893Z" fill="white"/>
</g>
<path id="Vector_33" d="M228 144.998H0V146H228V144.998Z" fill="#343852"/>
<path id="Vector_34" d="M146.265 68.4839H88.8205C85.9282 68.4839 83.5836 70.8039 83.5836 73.6657V73.6657C83.5836 76.5275 85.9282 78.8475 88.8205 78.8475H146.265C149.158 78.8475 151.502 76.5275 151.502 73.6657C151.502 70.8039 149.158 68.4839 146.265 68.4839Z" fill="#ECF2F9"/>
<path id="Vector_35" d="M146.265 52.601H88.8205C85.9282 52.601 83.5836 54.921 83.5836 57.7828V57.7828C83.5836 60.6447 85.9282 62.9646 88.8205 62.9646H146.265C149.158 62.9646 151.502 60.6447 151.502 57.7828C151.502 54.921 149.158 52.601 146.265 52.601Z" fill="#ECF2F9"/>
<path id="Vector_36" d="M89.6856 75.259C90.5749 75.259 91.2958 74.5456 91.2958 73.6657C91.2958 72.7858 90.5749 72.0724 89.6856 72.0724C88.7963 72.0724 88.0754 72.7858 88.0754 73.6657C88.0754 74.5456 88.7963 75.259 89.6856 75.259Z" fill="white"/>
<path id="Vector_37" d="M94.6579 75.259C95.5472 75.259 96.2681 74.5456 96.2681 73.6657C96.2681 72.7858 95.5472 72.0724 94.6579 72.0724C93.7686 72.0724 93.0477 72.7858 93.0477 73.6657C93.0477 74.5456 93.7686 75.259 94.6579 75.259Z" fill="white"/>
<path id="Vector_38" d="M99.6994 75.259C100.589 75.259 101.31 74.5456 101.31 73.6657C101.31 72.7858 100.589 72.0724 99.6994 72.0724C98.8101 72.0724 98.0892 72.7858 98.0892 73.6657C98.0892 74.5456 98.8101 75.259 99.6994 75.259Z" fill="white"/>
<path id="Vector_39" d="M104.672 75.259C105.561 75.259 106.282 74.5456 106.282 73.6657C106.282 72.7858 105.561 72.0724 104.672 72.0724C103.782 72.0724 103.062 72.7858 103.062 73.6657C103.062 74.5456 103.782 75.259 104.672 75.259Z" fill="white"/>
<path id="Vector_40" d="M109.569 75.259C110.458 75.259 111.179 74.5456 111.179 73.6657C111.179 72.7858 110.458 72.0724 109.569 72.0724C108.679 72.0724 107.958 72.7858 107.958 73.6657C107.958 74.5456 108.679 75.259 109.569 75.259Z" fill="white"/>
<path id="Vector_41" d="M114.541 75.259C115.43 75.259 116.151 74.5456 116.151 73.6657C116.151 72.7858 115.43 72.0724 114.541 72.0724C113.652 72.0724 112.931 72.7858 112.931 73.6657C112.931 74.5456 113.652 75.259 114.541 75.259Z" fill="white"/>
<path id="Vector_42" d="M119.583 75.259C120.472 75.259 121.193 74.5456 121.193 73.6657C121.193 72.7858 120.472 72.0724 119.583 72.0724C118.693 72.0724 117.972 72.7858 117.972 73.6657C117.972 74.5456 118.693 75.259 119.583 75.259Z" fill="white"/>
<path id="Vector_43" d="M124.555 75.259C125.444 75.259 126.165 74.5456 126.165 73.6657C126.165 72.7858 125.444 72.0724 124.555 72.0724C123.666 72.0724 122.945 72.7858 122.945 73.6657C122.945 74.5456 123.666 75.259 124.555 75.259Z" fill="white"/>
<path id="Vector_44" d="M89.6856 59.0878C90.5749 59.0878 91.2958 58.3744 91.2958 57.4945C91.2958 56.6145 90.5749 55.9012 89.6856 55.9012C88.7963 55.9012 88.0754 56.6145 88.0754 57.4945C88.0754 58.3744 88.7963 59.0878 89.6856 59.0878Z" fill="white"/>
<path id="Vector_45" d="M94.6579 59.0878C95.5472 59.0878 96.2681 58.3744 96.2681 57.4945C96.2681 56.6145 95.5472 55.9012 94.6579 55.9012C93.7686 55.9012 93.0477 56.6145 93.0477 57.4945C93.0477 58.3744 93.7686 59.0878 94.6579 59.0878Z" fill="white"/>
<path id="Vector_46" d="M99.6994 59.0878C100.589 59.0878 101.31 58.3744 101.31 57.4945C101.31 56.6145 100.589 55.9012 99.6994 55.9012C98.8101 55.9012 98.0892 56.6145 98.0892 57.4945C98.0892 58.3744 98.8101 59.0878 99.6994 59.0878Z" fill="white"/>
<path id="Vector_47" d="M104.672 59.0878C105.561 59.0878 106.282 58.3744 106.282 57.4945C106.282 56.6145 105.561 55.9012 104.672 55.9012C103.782 55.9012 103.062 56.6145 103.062 57.4945C103.062 58.3744 103.782 59.0878 104.672 59.0878Z" fill="white"/>
<path id="Vector_48" d="M109.569 59.0878C110.458 59.0878 111.179 58.3744 111.179 57.4945C111.179 56.6145 110.458 55.9012 109.569 55.9012C108.679 55.9012 107.958 56.6145 107.958 57.4945C107.958 58.3744 108.679 59.0878 109.569 59.0878Z" fill="white"/>
<path id="Vector_49" d="M114.541 59.0878C115.43 59.0878 116.151 58.3744 116.151 57.4945C116.151 56.6145 115.43 55.9012 114.541 55.9012C113.652 55.9012 112.931 56.6145 112.931 57.4945C112.931 58.3744 113.652 59.0878 114.541 59.0878Z" fill="white"/>
<path id="Vector_50" d="M119.583 59.0878C120.472 59.0878 121.193 58.3744 121.193 57.4945C121.193 56.6145 120.472 55.9012 119.583 55.9012C118.693 55.9012 117.972 56.6145 117.972 57.4945C117.972 58.3744 118.693 59.0878 119.583 59.0878Z" fill="white"/>
<path id="Vector_51" d="M124.555 59.0878C125.444 59.0878 126.165 58.3744 126.165 57.4945C126.165 56.6145 125.444 55.9012 124.555 55.9012C123.666 55.9012 122.945 56.6145 122.945 57.4945C122.945 58.3744 123.666 59.0878 124.555 59.0878Z" fill="white"/>
</g>
<g id="Group_9">
<g id="Group_10">
<path id="Vector_52" d="M101.836 132.351C101.836 132.351 99.8031 130.004 101.71 128.514C101.71 128.514 103.104 127.679 104.24 127.747C104.24 127.747 102.63 130.418 103.151 130.683C103.671 130.949 104.727 127.579 104.727 127.579C104.727 127.579 107.898 127.275 108.918 127.76C108.918 127.76 106.207 129.955 106.778 130.086C107.349 130.216 110.277 128.062 110.277 128.062C110.277 128.062 113.227 128.559 113.07 130.34C112.913 132.121 111.896 132.671 111.449 132.624C111.002 132.577 108.388 131.589 108.331 131.951C108.274 132.314 109.848 133.498 110.95 133.553C110.95 133.553 108.869 135.823 107.487 135.168C106.104 134.513 105.986 133.475 105.124 133.085C104.262 132.695 103.527 132.696 103.882 133.094C104.238 133.491 105.798 133.877 106.291 134.74C106.784 135.602 107.226 136.184 105.795 135.971C104.365 135.758 102.04 134.723 101.938 133.537L101.836 132.351Z" fill="#759E54"/>
<g id="Group_11">
<path id="Vector_53" d="M111.621 130.388C111.621 130.388 103.606 130.083 101.836 132.351C101.836 132.351 101.445 133.511 100.24 134.567L100.053 135.073C100.053 135.073 101.441 133.624 101.938 133.537C101.938 133.537 101.161 130.727 111.621 130.388Z" fill="#759E54"/>
<path id="Vector_54" d="M100.24 134.567C100.24 134.567 98.5198 135.826 98.4002 138.075L98.7125 138.103C98.7125 138.103 99.2619 135.777 100.255 134.867C101.248 133.958 100.24 134.567 100.24 134.567Z" fill="#759E54"/>
</g>
</g>
<g id="Group_12">
<path id="Vector_55" d="M94.7296 129.4C94.7296 129.4 97.963 127.608 96.4541 125.176C96.4541 125.176 95.2469 123.683 93.9536 123.299C93.9536 123.299 94.6433 126.925 93.9536 127.011C93.2637 127.096 93.4792 122.916 93.4792 122.916C93.4792 122.916 90.0733 121.294 88.7369 121.422C88.7369 121.422 90.8494 124.963 90.1597 124.878C89.4697 124.793 87.0985 121.209 87.0985 121.209C87.0985 121.209 83.6064 120.569 83.046 122.617C82.4854 124.665 83.3909 125.688 83.9082 125.816C84.4256 125.944 87.7452 125.902 87.6591 126.328C87.5728 126.755 85.3309 127.437 84.0808 127.054C84.0808 127.054 85.4603 130.424 87.2711 130.253C89.0818 130.082 89.6423 128.973 90.7633 128.888C91.8842 128.803 92.7034 129.101 92.1428 129.4C91.5824 129.698 89.6854 129.498 88.78 130.259C87.8747 131.021 87.1417 131.49 88.8232 131.831C90.5047 132.173 93.5225 131.959 94.1262 130.68L94.7296 129.4Z" fill="#90B07A"/>
<g id="Group_13">
<path id="Vector_56" d="M84.6412 123.257C84.6412 123.257 93.6949 126.158 94.7296 129.4C94.7296 129.4 94.6864 130.85 95.5918 132.514V133.154C95.5918 133.154 94.6433 130.978 94.126 130.679C94.1261 130.679 96.1523 127.864 84.6412 123.257Z" fill="#759E54"/>
<path id="Vector_57" d="M95.5922 132.514C95.5922 132.514 96.9885 134.612 96.1924 137.165L95.8333 137.07C95.8333 137.07 96.1819 134.257 95.4515 132.842C94.721 131.428 95.5922 132.514 95.5922 132.514Z" fill="#759E54"/>
</g>
</g>
<g id="Group_14">
<path id="Vector_58" d="M99.8737 126.929C99.8737 126.929 95.6114 124.567 97.6005 121.362C97.6005 121.362 99.1917 119.393 100.897 118.888C100.897 118.888 99.9873 123.667 100.897 123.78C101.806 123.892 101.522 118.381 101.522 118.381C101.522 118.381 106.012 116.245 107.773 116.413C107.773 116.413 104.989 121.08 105.898 120.968C106.807 120.856 109.933 116.132 109.933 116.132C109.933 116.132 114.536 115.289 115.275 117.988C116.014 120.687 114.82 122.037 114.138 122.205C113.456 122.374 109.08 122.318 109.194 122.88C109.308 123.442 112.263 124.342 113.911 123.836C113.911 123.836 112.092 128.278 109.705 128.053C107.319 127.828 106.58 126.366 105.102 126.254C103.624 126.141 102.545 126.535 103.284 126.929C104.022 127.322 106.523 127.058 107.716 128.062C108.91 129.066 109.876 129.684 107.66 130.134C105.443 130.584 101.465 130.303 100.669 128.616L99.8737 126.929Z" fill="#759E54"/>
<g id="Group_15">
<path id="Vector_59" d="M113.172 118.831C113.172 118.831 101.238 122.655 99.8737 126.929C99.8737 126.929 99.9306 128.841 98.737 131.034V131.877C98.737 131.877 99.9873 129.009 100.669 128.616C100.669 128.616 97.9983 124.904 113.172 118.831Z" fill="#759E54"/>
<path id="Vector_60" d="M98.7371 131.034C98.7371 131.034 96.8966 133.799 97.946 137.165L98.4194 137.04C98.4194 137.04 97.9598 133.332 98.9229 131.467C99.8857 129.602 98.7371 131.034 98.7371 131.034Z" fill="#759E54"/>
</g>
</g>
<path id="Vector_61" d="M108.079 136.204C108.079 140.767 104.341 144.466 99.7295 144.466C99.1667 144.466 98.616 144.411 98.0838 144.305C94.2612 143.549 91.3807 140.209 91.3807 136.204H108.079Z" fill="#CD823D"/>
<path id="Vector_62" d="M104.786 136.204C104.786 140.209 101.906 143.548 98.0838 144.305C94.2612 143.549 91.3807 140.209 91.3807 136.204H104.786Z" fill="#DCA155"/>
<path id="Vector_63" d="M108.194 144.886H91.2649C91.2649 144.604 91.3806 144.349 91.5667 144.165C91.7537 143.981 92.0109 143.867 92.2952 143.867H107.164C107.733 143.867 108.194 144.323 108.194 144.886Z" fill="#CD823D"/>
<path id="Vector_64" d="M97.6221 143.867H98.754C95.6913 142.643 94.4725 139.674 94.4725 136.204H92.3982C92.3982 139.673 94.5594 142.643 97.6221 143.867Z" fill="#ECB776"/>
<path id="Vector_65" d="M100.266 144.886H91.265C91.265 144.604 91.3808 144.349 91.5668 144.165C91.7538 143.981 92.011 143.867 92.2953 143.867H99.5627C100.131 143.867 100.266 144.323 100.266 144.886Z" fill="#DCA155"/>
<path id="Vector_66" d="M108.141 136.458H91.2342C91.1635 136.458 91.1061 136.401 91.1061 136.331C91.1061 136.261 91.1635 136.204 91.2342 136.204H108.141C108.212 136.204 108.269 136.261 108.269 136.331C108.269 136.401 108.212 136.458 108.141 136.458Z" fill="#BE6722"/>
</g>
</g>
<defs>
<clipPath id="clip0_989_1993">
<rect width="228" height="146" fill="white"/>
</clipPath>
</defs>
</svg>
