<svg width="25" height="24" viewBox="0 0 25 24" fill="none" xmlns="http://www.w3.org/2000/svg">
<g id="SignOut">
<path id="Vector" opacity="0.2" d="M20.75 12L17 15.75V8.25L20.75 12Z" fill="#00B0CB"/>
<path id="Vector_2" d="M11 20.25C11 20.4489 10.921 20.6397 10.7803 20.7803C10.6397 20.921 10.4489 21 10.25 21H5C4.60218 21 4.22064 20.842 3.93934 20.5607C3.65804 20.2794 3.5 19.8978 3.5 19.5V4.5C3.5 4.10218 3.65804 3.72064 3.93934 3.43934C4.22064 3.15804 4.60218 3 5 3H10.25C10.4489 3 10.6397 3.07902 10.7803 3.21967C10.921 3.36032 11 3.55109 11 3.75C11 3.94891 10.921 4.13968 10.7803 4.28033C10.6397 4.42098 10.4489 4.5 10.25 4.5H5V19.5H10.25C10.4489 19.5 10.6397 19.579 10.7803 19.7197C10.921 19.8603 11 20.0511 11 20.25ZM21.2806 12.5306L17.5306 16.2806C17.4257 16.3856 17.292 16.4572 17.1465 16.4861C17.0009 16.5151 16.85 16.5003 16.7129 16.4435C16.5758 16.3867 16.4586 16.2904 16.3762 16.167C16.2938 16.0435 16.2499 15.8984 16.25 15.75V12.75H10.25C10.0511 12.75 9.86032 12.671 9.71967 12.5303C9.57902 12.3897 9.5 12.1989 9.5 12C9.5 11.8011 9.57902 11.6103 9.71967 11.4697C9.86032 11.329 10.0511 11.25 10.25 11.25H16.25V8.25C16.2499 8.10158 16.2938 7.95646 16.3762 7.83301C16.4586 7.70957 16.5758 7.61335 16.7129 7.55653C16.85 7.49972 17.0009 7.48487 17.1465 7.51385C17.292 7.54284 17.4257 7.61437 17.5306 7.71937L21.2806 11.4694C21.3504 11.539 21.4057 11.6217 21.4434 11.7128C21.4812 11.8038 21.5006 11.9014 21.5006 12C21.5006 12.0986 21.4812 12.1962 21.4434 12.2872C21.4057 12.3783 21.3504 12.461 21.2806 12.5306ZM19.6869 12L17.75 10.0603V13.9397L19.6869 12Z" fill="#0028A3"/>
</g>
</svg>
