<svg width="28" height="28" viewBox="0 0 28 28" fill="none" xmlns="http://www.w3.org/2000/svg">
<g id="Star">
<path id="Vector" opacity="0.2" d="M20.1392 16.1547C20.0193 16.26 19.9301 16.3959 19.8812 16.5478C19.8323 16.6998 19.8255 16.8621 19.8614 17.0177L21.3401 23.4205C21.3792 23.5877 21.3682 23.7627 21.3085 23.9238C21.2488 24.0848 21.1431 24.2247 21.0044 24.326C20.8658 24.4273 20.7004 24.4856 20.5288 24.4936C20.3573 24.5016 20.1871 24.459 20.0397 24.3709L14.4506 20.9803C14.3148 20.8977 14.1589 20.8541 14 20.8541C13.8411 20.8541 13.6852 20.8977 13.5494 20.9803L7.9603 24.3709C7.81283 24.459 7.64273 24.5016 7.47118 24.4936C7.29963 24.4856 7.13422 24.4273 6.99557 24.326C6.85692 24.2247 6.75115 24.0848 6.69145 23.9238C6.63175 23.7627 6.62075 23.5877 6.65983 23.4205L8.13858 17.0177C8.17453 16.8621 8.16768 16.6998 8.11876 16.5478C8.06985 16.3959 7.9807 16.26 7.86077 16.1547L2.92686 11.8508C2.79496 11.7387 2.69927 11.59 2.65191 11.4234C2.60455 11.2569 2.60765 11.0801 2.66081 10.9154C2.71397 10.7506 2.8148 10.6053 2.95055 10.4979C3.0863 10.3905 3.25087 10.3257 3.42343 10.3119L9.92686 9.74969C10.0855 9.73555 10.2373 9.67837 10.3659 9.58431C10.4945 9.49026 10.5949 9.36288 10.6564 9.21594L13.1972 3.16094C13.265 3.00439 13.3772 2.8711 13.5198 2.77747C13.6625 2.68384 13.8294 2.63396 14 2.63396C14.1706 2.63396 14.3375 2.68384 14.4802 2.77747C14.6228 2.8711 14.7349 3.00439 14.8028 3.16094L17.3436 9.21594C17.4051 9.36288 17.5055 9.49026 17.6341 9.58431C17.7626 9.67837 17.9144 9.73555 18.0731 9.74969L24.5766 10.3119C24.7491 10.3257 24.9137 10.3905 25.0494 10.4979C25.1852 10.6053 25.286 10.7506 25.3392 10.9154C25.3923 11.0801 25.3954 11.2569 25.3481 11.4234C25.3007 11.59 25.205 11.7387 25.0731 11.8508L20.1392 16.1547Z" fill="#00B0CB"/>
<path id="Vector_2" d="M26.1625 10.6411C26.0565 10.3145 25.8568 10.0263 25.5882 9.81233C25.3197 9.59839 24.9941 9.4682 24.652 9.43796L18.1562 8.87796L15.61 2.82296C15.4774 2.50525 15.2538 2.23386 14.9673 2.04296C14.6808 1.85207 14.3443 1.75021 14 1.75021C13.6557 1.75021 13.3192 1.85207 13.0327 2.04296C12.7462 2.23386 12.5226 2.50525 12.39 2.82296L9.85141 8.87796L3.34797 9.44125C3.00457 9.4701 2.67733 9.5997 2.4073 9.81379C2.13726 10.0279 1.93645 10.3169 1.83003 10.6447C1.72362 10.9725 1.71634 11.3244 1.80912 11.6562C1.9019 11.9881 2.0906 12.2852 2.35156 12.5103L7.28547 16.8219L5.80672 23.2247C5.72853 23.5597 5.75084 23.9104 5.87086 24.2329C5.99089 24.5553 6.20331 24.8352 6.48156 25.0376C6.7598 25.24 7.09154 25.3559 7.43528 25.3708C7.77903 25.3856 8.11953 25.2988 8.41422 25.1212L13.9923 21.7306L19.5825 25.1212C19.8772 25.2988 20.2177 25.3856 20.5614 25.3708C20.9052 25.3559 21.2369 25.24 21.5152 25.0376C21.7934 24.8352 22.0058 24.5553 22.1259 24.2329C22.2459 23.9104 22.2682 23.5597 22.19 23.2247L20.7123 16.8153L25.6452 12.5103C25.9061 12.2845 26.0944 11.9865 26.1865 11.6539C26.2785 11.3213 26.2702 10.969 26.1625 10.6411ZM24.4978 11.188L19.565 15.493C19.3249 15.7018 19.1463 15.9721 19.0484 16.2749C18.9505 16.5777 18.937 16.9014 19.0094 17.2112L20.4914 23.625L14.9056 20.2344C14.6331 20.0684 14.3202 19.9806 14.0011 19.9806C13.682 19.9806 13.3691 20.0684 13.0966 20.2344L7.51844 23.625L8.99062 17.2156C9.06298 16.9058 9.04947 16.582 8.95157 16.2793C8.85367 15.9765 8.67508 15.7062 8.435 15.4973L3.5 11.1945C3.4996 11.1913 3.4996 11.188 3.5 11.1847L10.0013 10.6225C10.3187 10.5945 10.6224 10.4804 10.8797 10.2925C11.137 10.1046 11.3382 9.84993 11.4614 9.55609L14 3.50875L16.5375 9.55609C16.6607 9.84993 16.8619 10.1046 17.1192 10.2925C17.3765 10.4804 17.6802 10.5945 17.9977 10.6225L24.5 11.1847C24.5 11.1847 24.5 11.1912 24.5 11.1923L24.4978 11.188Z" fill="#0028A3"/>
</g>
</svg>
