<svg width="244" height="146" viewBox="0 0 244 146" fill="none" xmlns="http://www.w3.org/2000/svg">
<g id="&#208;&#161;&#208;&#187;&#208;&#190;&#208;&#185;_1" clip-path="url(#clip0_1332_1378)">
<path id="Vector" d="M15.1218 146L90.4025 145.605L110.469 145.599H117.117L137.222 145.593L229.072 145.567C229.072 145.567 250.081 118.393 227.64 92.5845C204.373 65.8256 193.058 87.6182 185.906 49.9519C167.904 -44.8619 -10.0863 10.3211 36.5994 91.0023C53.4092 120.053 3.50974 104.612 15.1218 146Z" fill="#EBF3FA"/>
<path id="Vector_2" d="M102.207 141.431C102.207 141.431 102.492 144.738 101.794 145.082L92.8433 145.061C92.8433 145.061 92.8433 144.028 94.2805 143.798C95.7178 143.568 98.2442 142.728 98.6709 140.854C99.0976 138.981 102.207 141.431 102.207 141.431Z" fill="#233862"/>
<path id="Vector_3" d="M127.882 140.152C127.882 140.152 128.147 144.738 127.453 145.082L118.503 145.064C118.503 145.064 118.503 144.031 119.94 143.802C121.377 143.572 123.903 142.732 124.33 140.858C124.758 138.985 127.882 140.152 127.882 140.152Z" fill="#233862"/>
<path id="Vector_4" d="M128.188 140.716C128.188 140.716 126.411 141.631 125.651 141.797C124.806 141.984 123.218 141.865 123.218 141.865C120.174 133.708 110.733 100.553 110.733 100.553C110.323 109.722 108.668 118.865 106.948 126.215C106.902 126.411 106.855 126.607 106.809 126.8C106.768 126.977 106.725 127.154 106.684 127.33C106.682 127.338 106.68 127.345 106.679 127.353C104.59 136.027 102.497 141.933 102.497 141.933C102.497 141.933 101.956 142.618 100.451 142.305C98.7265 141.947 98.1541 141.189 98.1541 141.189C99.2706 105.862 99.8934 85.9407 99.8934 85.9407C99.8934 85.9407 114.836 77.8719 118.895 84.7691C122.954 91.6663 128.188 140.716 128.188 140.716Z" fill="#2A4E96"/>
<path id="Vector_5" d="M122.171 89.5314C120.234 82.6095 119.915 76.0372 119.93 70.5967C119.951 62.8519 120.647 57.3974 118.316 56.4774C118.316 56.4774 111.11 54.384 106.151 53.4623C105.395 53.0344 104.616 52.6471 103.818 52.3021C102.253 51.6673 96.148 42.7977 95.1135 40.6743C94.0791 38.551 92.3654 29.2982 92.3654 29.2982L89.9864 30.0566C89.9864 30.0566 89.2718 40.4412 89.6145 43.1482C89.9573 45.8552 97.5155 57.4945 98.1427 58.5107C100.833 68.3409 98.1427 84.3391 99.3723 87.906C100.005 89.7407 111.74 93.1027 118.159 92.6798C118.479 92.6586 118.786 92.6286 119.077 92.5915C120.596 92.3805 121.701 91.8958 122.106 91.0447C122.303 90.6289 122.334 90.1291 122.171 89.5314Z" fill="#AEC3FF"/>
<path id="Vector_6" d="M92.3608 29.2982C92.3608 29.2982 93.7044 25.3949 92.7212 25.2819C91.738 25.1688 89.2707 25.1803 88.9669 25.839C88.663 26.4976 89.9819 30.0566 89.9819 30.0566L92.3608 29.2982Z" fill="#FFB27D"/>
<path id="Vector_7" d="M88.967 25.839C88.967 25.839 88.8398 27.1828 89.2709 27.437C89.702 27.6913 89.8548 25.839 89.8548 25.839C89.8548 25.839 89.8804 27.3576 90.2081 27.4609C90.5359 27.5642 90.7382 25.7127 90.7382 25.7127C90.7382 25.7127 90.7735 27.1828 90.997 27.1324C91.2205 27.0821 91.3724 25.7127 91.3724 25.7127C91.3724 25.7127 91.474 26.7802 91.7788 26.5886C92.0835 26.397 92.3724 25.251 92.3724 25.251L88.967 25.839Z" fill="#FFB27D"/>
<path id="Vector_8" d="M92.3608 29.2982C92.3608 29.2982 93.2796 28.5777 93.4827 27.9182C93.6859 27.2587 94.2778 26.1524 93.9642 26.0164C93.6506 25.8805 92.7213 27.3099 92.7213 27.3099L92.3608 29.2982Z" fill="#FFB27D"/>
<path id="Vector_9" d="M108.295 52.4001L108.18 53.0005C108.18 53.0005 107.649 54.8449 109.902 55.575C112.155 56.3052 114.063 56.646 114.286 55.1857C114.3 54.0229 114.271 52.2094 114.439 51.2789C114.509 50.9015 114.611 50.5308 114.744 50.1708L110.282 49.1996L108.921 49.1511L108.295 52.4001Z" fill="#FFB27D"/>
<path id="Vector_10" d="M108.921 49.1511L108.505 51.3407C112.746 52.4628 114.601 50.5716 114.745 50.1708L110.283 49.1996L108.921 49.1511Z" fill="#E2915A"/>
<path id="Vector_11" d="M115.398 49.2658C114.083 51.9366 110.472 50.8242 108.949 50.2061C108.52 50.0296 108.257 49.898 108.257 49.898C107.796 49.6252 107.739 48.7617 107.898 47.6969C108.213 45.5894 109.376 42.6926 109.929 42.0252C110.77 41.0204 112.095 40.0501 115.506 41.9749C118.917 43.8996 117.084 45.8411 115.398 49.2658Z" fill="#FFB27D"/>
<path id="Vector_12" d="M109.564 39.0242C110.815 39.2263 112.09 39.2382 113.345 39.0595C115.077 38.822 116.817 40.1067 117.355 40.617C117.371 40.474 117.355 40.3293 117.308 40.1932C117.308 40.1932 117.535 40.474 117.498 40.7671C117.521 40.7962 117.53 40.8148 117.521 40.8183C117.512 40.8218 117.86 40.8492 118.041 41.0002C118.041 41.0002 117.901 40.9392 117.823 41.0178C117.815 41.026 117.804 41.0323 117.793 41.0364C119.875 42.8746 119.03 46.7399 118.007 47.403C116.777 48.1976 114.666 50.3951 114.666 50.3951C114.742 49.8095 114.913 49.2403 115.172 48.7097C115.603 47.8268 114.798 47.599 113.9 46.8909C113.003 46.1828 114.182 45.2337 113.495 44.2642C112.808 43.2948 109.425 42.803 109.622 42.2645C108.535 41.484 109.529 39.1478 109.564 39.0242Z" fill="#233862"/>
<path id="Vector_13" d="M110.106 48.2788C110.106 48.2788 109.886 48.609 109.006 48.2187C109.006 48.2187 108.267 47.8912 108.437 47.5018C108.437 47.5 109.274 47.4912 110.106 48.2788Z" fill="white"/>
<path id="Vector_14" d="M109.115 57.3065C109.115 57.3065 107.083 70.8034 91.8592 80.1736L90.4387 84.2976H95.9351C95.9351 84.2976 109.568 72.8711 110.483 57.6914L109.115 57.3065Z" fill="#ED7D2B"/>
<path id="Vector_15" d="M109.115 57.3065V55.2599L111.625 55.9697L110.48 57.694L109.115 57.3065Z" fill="#DB6516"/>
<path id="Vector_16" d="M108.295 52.4001L106.826 53.6539C106.826 53.6539 106.421 55.4055 107.41 57.3064L110.369 55.6148C110.369 55.6148 108.622 54.7716 108.295 52.4001Z" fill="#9DB0F4"/>
<path id="Vector_17" d="M110.369 55.6148C110.369 55.6148 110.664 57.204 111.429 57.9898C111.429 57.9898 114.764 57.4062 115.689 55.809L114.292 53.6292C114.292 53.6292 113.964 55.1168 110.369 55.6148Z" fill="#9DB0F4"/>
<path id="Vector_18" d="M130.346 90.598C130.346 90.598 130.352 93.6192 130.074 94.2179C129.796 94.8165 128.549 96.7783 127.973 97.195C127.398 97.6117 128.097 94.775 127.917 94.2558C127.737 93.7367 127.515 95.28 127.248 95.3436C126.981 95.4071 126.91 94.0466 126.849 93.5548C126.788 93.063 127.982 91.7087 128.338 90.6112C128.694 89.5138 130.346 90.598 130.346 90.598Z" fill="#FFB27D"/>
<path id="Vector_19" d="M118.263 56.4774C118.263 56.4774 121.195 57.272 123.182 61.645C125.265 66.2264 130.841 76.4036 131.044 77.8083C131.247 79.213 130.675 92.3311 130.675 92.3311C130.675 92.3311 128.235 92.4256 127.481 91.2717C127.481 91.2717 126.632 79.756 126.256 79.13C125.88 78.504 116.274 67.059 117.087 64.1551C117.901 61.2513 118.263 56.4774 118.263 56.4774Z" fill="#AEC3FF"/>
<path id="Vector_20" d="M122.105 91.043C121.378 91.661 120.397 92.2084 119.076 92.5898C118.779 92.6784 118.467 92.7084 118.158 92.6781C112.792 92.1254 113.617 71.2898 116.215 69.7501C118.953 68.1273 119.925 70.5923 119.925 70.5923C119.91 76.0328 120.229 82.6051 122.166 89.527C122.334 90.1292 122.303 90.6289 122.105 91.043Z" fill="#9DB0F4"/>
<path id="Vector_21" d="M106.684 127.329C106.719 127.167 106.761 126.991 106.81 126.8C106.768 126.981 106.726 127.156 106.684 127.329Z" fill="#233862"/>
<path id="Vector_22" d="M106.948 126.215C108.589 118.446 106.82 97.6356 107.611 97.24C108.422 96.8339 110.733 100.553 110.733 100.553C110.323 109.722 108.668 118.865 106.948 126.215Z" fill="#233862"/>
<path id="Vector_23" d="M66.8002 142.077L66.3267 138.671L68.3151 137.01L68.9415 141.521L66.8002 142.077Z" fill="#FFB27D"/>
<path id="Vector_24" d="M73.4018 145.121H65.2977C65.2977 145.121 65.1034 143.885 65.5265 142.95C65.932 142.051 66.5636 141.496 66.621 140.808C67.136 141.337 67.7694 141.678 68.9417 141.521C69.0848 141.753 69.8683 142.998 70.348 143.342C70.8771 143.723 73.2393 143.588 73.4018 145.121Z" fill="#233862"/>
<path id="Vector_25" d="M71.7738 96.0755C71.2437 100.337 70.81 104.354 70.4575 108.099C68.5706 128.052 68.9416 140.243 68.9416 140.243C68.9416 140.243 68.8047 140.604 67.6351 140.609C67.1955 140.606 66.7572 140.559 66.3268 140.469C66.3268 140.469 62.1043 127.441 62.4302 120.027C62.4541 119.218 62.5646 118.414 62.7597 117.628C63.773 113.831 59.0107 99.3289 64.1873 93.9265C69.3639 88.524 72.0176 94.1172 71.7738 96.0755Z" fill="#F99746"/>
<path id="Vector_26" d="M71.7738 96.0755C71.2437 100.337 70.81 104.354 70.4575 108.099L62.4302 120.027C62.4541 119.218 62.5646 118.414 62.7597 117.628C63.773 113.831 59.0107 99.3289 64.1873 93.9265C69.3639 88.524 72.0176 94.1172 71.7738 96.0755Z" fill="#ED7D2B"/>
<path id="Vector_27" d="M78.1525 55.4285C78.1525 55.4285 77.9573 54.4573 77.7373 53.7122C77.6393 53.3828 78.3177 51.2241 78.7877 50.9584C79.2576 50.6926 80.4802 52.1468 80.1339 53.2628C79.9573 53.8367 79.664 55.7031 79.664 55.7031L78.1525 55.4285Z" fill="#FFB27D"/>
<path id="Vector_28" d="M78.1525 55.4285C78.1525 55.4285 77.8972 54.8643 77.6667 54.7725C77.4361 54.6807 77.1887 53.758 77.02 53.3916C77.02 53.3916 77.1834 53.1524 77.4688 53.4605C77.6455 53.6486 78.0324 54.1995 78.0324 54.1995L78.1525 55.4285Z" fill="#FFB27D"/>
<path id="Vector_29" d="M44.699 58.7032C44.6486 58.8056 44.5797 58.9893 44.5223 59.1614C44.5223 59.1146 44.5223 59.0679 44.5223 59.0219C44.5223 58.6794 43.2379 56.8147 42.7114 56.6964C42.1849 56.5781 41.4411 58.328 42.0992 59.2939C42.4367 59.791 43.2626 61.4897 43.2626 61.4897L44.6274 60.7833C44.6274 60.7833 44.7069 60.1653 44.9004 60.0143C45.0939 59.8633 45.0594 58.9045 45.1142 58.5046C45.1045 58.5063 44.8757 58.3253 44.699 58.7032Z" fill="#FFB27D"/>
<path id="Vector_30" d="M53.2085 141.057C53.0937 139.965 53.0654 137.092 53.0654 137.092C53.0654 137.092 55.9938 136.156 55.8861 136.798C55.356 139.957 55.5 141.521 55.5 141.521L54.3154 142.227L53.2085 141.057Z" fill="#FFB27D"/>
<path id="Vector_31" d="M69.3275 95.8724C69.3275 95.8724 58.0123 126.873 55.7853 140.318C55.7853 140.318 55.2694 140.671 54.3065 140.555C53.2147 140.422 52.9161 139.663 52.9161 139.663C52.9161 139.663 50.872 123.548 54.9346 117.956C57.7261 114.111 53.7306 97.2295 60.2349 95.876C66.7392 94.5225 69.3275 95.8724 69.3275 95.8724Z" fill="#F99746"/>
<path id="Vector_32" d="M67.3178 66.0534C67.3154 66.0399 67.3122 66.0267 67.3081 66.0136C67.2419 65.7408 67.1694 65.4724 67.0917 65.2058C66.8685 64.4294 66.5937 63.6687 66.2693 62.9288C66.0926 62.5359 65.9159 62.1721 65.7277 61.8472C65.6995 61.7978 65.6712 61.751 65.6447 61.7033C65.203 60.9687 64.7613 60.4611 64.3523 60.3048C63.612 60.0187 62.7896 60.0982 62.2225 60.2165C62.3471 60.0399 62.6288 59.9446 62.6288 59.9446C62.2667 59.9446 61.5282 60.4125 61.5282 60.4125C56.3162 59.2427 56.6245 66.6114 56.9779 68.2818C57.3312 69.9523 55.6528 70.7628 53.2871 72.4721C48.7713 75.7326 48.8472 79.1883 48.8472 79.1883C48.8879 79.2059 48.9356 79.2254 48.9789 79.2483C49.16 78.8016 49.546 77.9549 49.9506 77.7765C49.9391 77.8163 49.6105 78.9128 49.5168 79.5264C50.205 79.9052 51.1573 80.4914 52.1908 81.1536C53.5742 82.0365 55.1007 83.0572 56.3242 83.8836C56.2659 83.5472 56.2084 83.0678 56.2941 82.7967L56.6837 84.0027L56.7349 84.1608C57.515 84.6905 58.1307 85.1125 58.4443 85.3289L58.5326 85.388L58.6731 85.4842C58.5688 85.0578 59.0264 83.9462 59.7897 82.5451C59.8418 82.4471 59.8974 82.3473 59.954 82.2467C60.2004 81.8052 60.4769 81.3373 60.7729 80.8561C60.8798 80.6795 60.9884 80.5073 61.1006 80.3308C61.1889 80.1886 61.2773 80.0473 61.3745 79.9025C61.5962 79.56 61.8259 79.2157 62.0591 78.8704C62.6651 77.9761 63.3064 77.0879 63.9407 76.2738C64.8603 75.0881 65.764 74.0577 66.5201 73.3832C66.5449 73.332 66.5678 73.2799 66.589 73.2278C66.7089 72.94 66.8024 72.6418 66.8682 72.337C66.8903 72.2434 66.9097 72.1489 66.9274 72.0553C67.0572 71.3268 67.1205 70.588 67.1164 69.8481C67.1738 70.5896 67.1647 71.3348 67.089 72.0748C67.0749 72.1948 67.059 72.3052 67.0404 72.4085C67.008 72.6067 66.9626 72.8025 66.9044 72.9947C67.0302 72.8372 67.1403 72.6678 67.233 72.4888C67.2973 72.366 67.3542 72.2396 67.4035 72.1101C68.0104 70.5517 67.8434 68.2306 67.3178 66.0534Z" fill="#163560"/>
<path id="Vector_33" d="M66.3418 73.5174C66.3586 73.5218 64.8825 74.5901 63.6298 74.44C62.4523 74.2996 61.4938 72.9391 61.5097 72.9391C61.9753 72.7722 62.0159 72.0933 61.5839 69.2653L61.8074 69.2759L65.5591 69.4525C65.5591 69.4525 65.6475 70.6117 65.8047 71.6915C65.9337 72.5992 66.1165 73.4511 66.3418 73.5174Z" fill="#FFB27D"/>
<path id="Vector_34" d="M65.5557 69.4534C65.5557 69.4534 65.644 70.6126 65.8012 71.6924C63.7536 71.9379 62.3985 70.2392 61.804 69.2742L65.5557 69.4534Z" fill="#ED975D"/>
<path id="Vector_35" d="M61.3683 68.9343C61.3683 68.9343 60.0486 67.4051 59.5768 66.0004C59.2412 64.9974 59.1979 61.1003 63.1192 61.0791C63.9082 61.0716 64.6889 61.2411 65.4036 61.5753C66.3215 62.0167 67.7057 63.0497 66.8559 66.5822L66.6739 67.76L61.3683 68.9343Z" fill="#163560"/>
<path id="Vector_36" d="M72.2463 95.2774C72.2463 95.2774 67.3647 98.1768 61.235 96.6856C61.1634 96.6688 56.1882 95.8751 56.1882 95.8751C56.2766 95.6411 56.917 91.8005 57.0009 91.5851C58.0884 88.781 60.076 73.5598 61.7359 72.8084C62.1599 73.2702 63.3719 73.5863 64.409 73.4936C65.6033 73.3885 65.999 72.8755 65.9036 72.3184C67.2287 72.9426 68.2411 73.5236 68.2411 73.5236C69.4486 75.3318 72.2463 95.2774 72.2463 95.2774Z" fill="white"/>
<path id="Vector_37" d="M66.3887 70.3751C66.3887 70.3751 61.5752 71.1697 61.1255 68.1679C60.6759 65.166 59.7501 63.2448 62.804 62.6056C65.8578 61.9664 66.6281 63.0258 67.023 63.9917C67.4178 64.9576 67.629 70.0899 66.3887 70.3751Z" fill="#FFB27D"/>
<path id="Vector_38" d="M64.991 62.2092C64.991 62.2092 64.196 65.9297 62.2446 66.7526C60.2932 67.5755 59.3347 67.1623 59.3347 67.1623C59.3347 67.1623 60.7057 65.6966 60.7075 63.4938C60.7075 63.4938 63.7445 60.6809 64.991 62.2092Z" fill="#163560"/>
<path id="Vector_39" d="M64.7058 62.5447C64.7058 62.5447 65.8118 63.1848 66.1652 63.9132C66.5185 64.6416 66.8613 66.2016 67.3135 66.0798C67.3135 66.0798 67.9522 63.5362 66.6325 62.3478C65.2305 61.087 64.7058 62.5447 64.7058 62.5447Z" fill="#163560"/>
<path id="Vector_40" d="M79.6967 55.4982C79.5014 55.4294 79.2126 55.266 78.8362 55.2334C78.5817 55.2236 78.3271 55.25 78.0801 55.3119C78.0801 55.3119 76.7223 63.7454 76.6216 64.1948C76.5209 64.6442 70.7975 71.0814 69.2542 71.0594C67.8611 71.0364 66.2101 72.1118 65.9036 72.3184C65.9036 72.3184 69.1482 79.1759 69.3108 80.4649C69.4874 81.8661 71.1659 103.453 71.1659 103.453C71.1659 103.453 71.066 104.457 72.9432 103.917C74.8204 103.378 75.2895 102.93 75.2895 102.93C75.2895 102.93 73.5651 85.9362 73.2038 80.6512C73.1609 79.9846 73.052 79.3239 72.8787 78.6788C72.8021 78.3897 72.7913 78.0871 72.8471 77.7933C72.9029 77.4995 73.0239 77.2219 73.2012 76.981C75.5748 73.7248 79.323 68.4486 79.5323 67.3273C79.8353 65.6798 79.6967 55.4982 79.6967 55.4982Z" fill="#2B478B"/>
<path id="Vector_41" d="M59.961 145.121H51.8543C51.8543 145.121 51.6599 143.885 52.0839 142.95C52.4894 142.051 53.1201 141.496 53.1776 140.808C53.6926 141.337 54.326 141.678 55.4982 141.521C55.6422 141.753 56.4249 142.998 56.9045 143.342C57.4363 143.723 59.7976 143.588 59.961 145.121Z" fill="#233862"/>
<path id="Vector_42" d="M65.5283 81.1306C65.2554 79.4531 61.7678 72.7051 61.7678 72.7051C61.7678 72.7051 59.5593 72.0465 58.1123 72.5718C56.6654 73.0971 49.154 68.8636 48.9137 68.4707C48.6734 68.0778 44.6514 60.5917 44.6514 60.5917C44.6514 60.5917 44.3184 60.3984 43.7839 60.68C43.6325 60.7575 43.5039 60.8733 43.4109 61.0157C43.3179 61.1582 43.2638 61.3225 43.2539 61.4923C43.2539 61.4923 46.3572 70.9216 47.1832 72.3802C47.6805 73.2631 51.8651 76.3215 55.1124 78.6144C55.4163 78.8293 55.6554 79.1233 55.804 79.4645C55.9526 79.8056 56.0048 80.1809 55.9551 80.5497C55.5187 83.774 55.4083 85.5893 54.9057 91.1224C54.4896 95.7135 54.3306 104.597 54.3306 104.597C54.3306 104.597 57.9622 105.854 60.4683 106.02C62.9745 106.187 63.5213 103.548 63.5213 103.548C63.5213 103.548 65.8119 82.8576 65.5283 81.1306Z" fill="#2B478B"/>
<path id="Vector_43" d="M64.8108 68.8901C65.201 69.0999 65.6465 69.1841 66.0864 69.1311C66.559 69.0596 66.6668 68.499 66.6668 68.499C66.6668 68.499 66.3382 68.3957 65.8134 68.499C65.4618 68.5793 65.1239 68.7111 64.8108 68.8901Z" fill="white"/>
<path id="Vector_44" d="M158.567 68.2606C158.567 68.2606 160.061 70.723 157.25 72.2734C157.25 72.2734 159.411 73.0521 160.166 72.759C160.068 72.861 159.957 72.9501 159.837 73.0238C159.837 73.0238 161.869 73.6675 162.88 73.3161C163.892 72.9647 166.072 63.1371 160.078 62.6188C160.078 62.6188 155.35 60.9272 154.351 66.1999C153.352 71.4726 151.531 70.9614 151.531 70.9614C151.531 70.9614 151.972 71.334 152.216 71.4028C152.216 71.4028 152.609 71.3781 152.731 71.2157C152.731 71.2157 152.58 71.4805 152.466 71.5467C152.466 71.5467 154.383 72.2716 155.558 71.8628C156.733 71.454 158.545 69.4013 158.567 68.2606Z" fill="#163560"/>
<path id="Vector_45" d="M152.546 145.839H160.193C160.193 145.839 160.377 144.674 159.977 143.79C159.594 142.943 158.999 142.419 158.945 141.769C158.459 142.27 157.861 142.591 156.755 142.443C156.62 142.662 155.881 143.837 155.43 144.162C154.929 144.52 152.7 144.392 152.546 145.839Z" fill="#233862"/>
<path id="Vector_46" d="M158.865 142.92C158.431 143.054 157.985 143.145 157.532 143.191C156.327 143.299 156.152 142.941 156.152 142.941C156.152 142.941 154.955 132.291 151.081 111.936C150.522 108.996 150.301 107.369 150.1 104.755C150.039 103.973 149.98 103.102 149.915 102.082C149.738 99.3387 150.156 94.7211 152.212 93.508C153.148 92.9553 154.425 93.1072 156.14 94.4571C156.274 94.564 156.413 94.6779 156.553 94.7997C161.575 99.14 159.516 111.606 159.719 117.466C159.753 118.437 159.849 119.231 160.049 119.769C160.308 120.469 160.864 121.439 160.991 122.354C162.049 129.955 158.865 142.92 158.865 142.92Z" fill="#2B478B"/>
<path id="Vector_47" d="M159.723 117.466L150.1 104.752C150.039 103.97 149.98 103.099 149.915 102.078C149.738 99.3352 150.156 94.7176 152.212 93.5045L156.14 94.4536C156.274 94.5605 156.413 94.6743 156.553 94.7962C161.579 99.1401 159.521 111.606 159.723 117.466Z" fill="#233862"/>
<path id="Vector_48" d="M186.923 129.755L183.743 122.805C183.743 122.805 182.607 123.124 181.969 123.854C181.357 124.555 180.914 124.431 179.52 123.464C180.044 124.274 180.116 124.751 180.44 125.818C180.696 125.85 182.155 127.26 183.648 127.648C184.244 127.803 185.547 130.217 186.923 129.755Z" fill="#233862"/>
<path id="Vector_49" d="M153.56 96.5576C153.56 96.5576 160.411 120.365 162.923 121.897C165.436 123.429 178.634 125.537 181.318 126.687C181.318 126.687 181.644 126.218 181.452 125.217C181.41 124.995 181.032 124.196 181.032 124.196C181.032 124.196 172.834 118.037 167.439 117.415C166.1 117.261 170.165 96.8251 161.117 96.0093C152.85 95.265 153.56 96.5576 153.56 96.5576Z" fill="#2B478B"/>
<path id="Vector_50" d="M143.783 57.498C143.783 57.498 143.968 56.5798 144.175 55.8788C144.264 55.568 143.627 53.5311 143.184 53.2804C142.742 53.0296 141.587 54.4017 141.914 55.455C142.082 55.9962 142.356 57.7576 142.356 57.7576L143.783 57.498Z" fill="#FFB27D"/>
<path id="Vector_51" d="M143.783 57.498C143.783 57.498 144.024 56.9683 144.242 56.88C144.459 56.7917 144.692 55.9229 144.852 55.5777C144.852 55.5777 144.697 55.3517 144.428 55.6422C144.263 55.8188 143.898 56.3397 143.898 56.3397L143.783 57.498Z" fill="#FFB27D"/>
<path id="Vector_52" d="M175.351 60.5882C175.398 60.6844 175.463 60.8531 175.521 61.0199C175.521 60.9758 175.521 60.9316 175.521 60.8893C175.521 60.5652 176.733 58.8047 177.23 58.6944C177.726 58.584 178.428 60.2333 177.807 61.1453C177.488 61.6141 176.709 63.2175 176.709 63.2175L175.421 62.5518C175.421 62.5518 175.347 61.9726 175.164 61.826C174.981 61.6794 175.014 60.7789 174.963 60.4019C174.964 60.4019 175.174 60.2315 175.351 60.5882Z" fill="#FFB27D"/>
<path id="Vector_53" d="M154.93 74.5645C154.913 74.5689 156.306 75.5772 157.492 75.435C158.603 75.3035 159.507 74.0224 159.492 74.0171C159.051 73.8608 159.015 73.2225 159.422 70.5517L159.212 70.5614L155.672 70.7309C155.672 70.7309 155.59 71.824 155.44 72.8428C155.311 73.6984 155.139 74.5027 154.93 74.5645Z" fill="#FFB27D"/>
<path id="Vector_54" d="M155.668 70.7309C155.668 70.7309 155.586 71.8239 155.437 72.8428C157.369 73.075 158.647 71.4717 159.208 70.5614L155.668 70.7309Z" fill="#ED975D"/>
<path id="Vector_55" d="M159.619 70.2401C159.619 70.2401 160.864 68.7983 161.309 67.4722C161.626 66.5257 161.667 62.8493 157.968 62.8299C157.223 62.8225 156.486 62.9824 155.811 63.2978C154.946 63.7119 153.64 64.6893 154.441 68.0214L154.613 69.1329L159.619 70.2401Z" fill="#163560"/>
<path id="Vector_56" d="M150.49 95.6411C150.49 95.6411 153.961 97.8307 159.744 96.4242C159.812 96.4074 163.032 95.8945 163.032 95.8945C162.952 95.6737 159.568 90.0859 159.489 89.8837C158.463 87.235 160.839 74.6042 159.272 73.8961C158.872 74.3314 157.729 74.6298 156.75 74.5424C155.624 74.4426 155.249 73.9561 155.337 73.4335C154.09 74.0224 153.128 74.5698 153.128 74.5698C151.995 76.2764 150.49 95.6411 150.49 95.6411Z" fill="#FFB27D"/>
<path id="Vector_57" d="M154.883 71.6033C154.883 71.6033 159.424 72.3555 159.848 69.5214C160.273 66.6873 161.145 64.8773 158.265 64.277C155.384 63.6766 154.656 64.6743 154.284 65.5854C153.912 66.4966 153.713 71.3313 154.883 71.6033Z" fill="#FFB27D"/>
<path id="Vector_58" d="M156.201 63.8964C156.201 63.8964 156.953 67.406 158.793 68.182C160.633 68.9581 161.538 68.5696 161.538 68.5696C161.538 68.5696 160.245 67.1888 160.245 65.1078C160.245 65.1078 157.377 62.4538 156.201 63.8964Z" fill="#163560"/>
<path id="Vector_59" d="M156.47 64.2116C156.47 64.2116 155.429 64.8155 155.095 65.5033C154.761 66.1911 154.437 67.662 154.011 67.5472C154.011 67.5472 153.408 65.1475 154.654 64.0262C155.975 62.8369 156.47 64.2116 156.47 64.2116Z" fill="#163560"/>
<path id="Vector_60" d="M176.415 63.2157C176.415 63.2157 173.488 72.1118 172.705 73.4882C172.236 74.3182 166.963 77.6008 163.899 79.7639C163.852 79.8035 163.812 79.851 163.781 79.9043V79.9087C163.017 81.09 160.642 88.4004 161.21 89.7089C163.595 95.2235 165.234 97.3566 165.83 98.9034C165.9 99.0868 165.933 99.2824 165.927 99.4787C165.92 99.675 165.874 99.8681 165.792 100.046C165.71 100.225 165.592 100.385 165.447 100.517C165.302 100.649 165.132 100.751 164.946 100.817C163.602 101.293 162.219 101.655 160.814 101.897C160.489 101.953 160.155 102.002 159.811 102.047C155.105 102.644 151.919 101.541 150.302 100.722C149.927 100.533 149.616 100.239 149.407 99.876C149.197 99.513 149.099 99.0967 149.122 98.6783C149.219 96.9337 150.094 95.2076 150.486 91.0112C150.785 87.8274 148.037 82.983 148.152 81.2887C148.198 80.6185 148.726 79.8169 149.011 79.2968C149.516 78.3777 149.794 77.5469 149.453 77.0852C147.213 74.0127 142.378 69.7774 142.18 68.7197C141.891 67.1649 142.022 57.5581 142.022 57.5581C142.206 57.4936 142.478 57.3391 142.834 57.3073C143.073 57.2985 143.313 57.3235 143.546 57.3815C143.546 57.3815 144.828 65.3417 144.924 65.7637C145.019 66.1858 150.418 72.2654 151.874 72.2407C153.189 72.2186 155.043 73.2331 155.331 73.4282C154.54 74.9607 154.04 76.6263 153.856 78.3407C153.651 80.3157 154.971 79.4381 155.8 78.0855C156.922 76.2553 159.18 73.6489 159.18 73.6489C159.18 73.6489 161.018 73.1713 162.386 73.6675C163.755 74.1637 170.839 70.165 171.065 69.7977C171.292 69.4304 175.087 62.3646 175.087 62.3646C175.087 62.3646 175.401 62.1827 175.905 62.4449C176.051 62.5173 176.174 62.6266 176.264 62.7619C176.353 62.8973 176.406 63.0538 176.415 63.2157Z" fill="#F99746"/>
<path id="Vector_61" d="M156.201 70.0617C156.201 70.0617 156.006 70.4528 155.746 70.4599C155.485 70.4669 154.821 70.4043 154.774 70.3372C154.711 70.1817 154.66 70.0221 154.619 69.8595C154.619 69.8595 155.718 69.8162 156.201 70.0617Z" fill="white"/>
<path id="Vector_62" d="M164.95 100.821C163.606 101.297 162.223 101.659 160.817 101.902C159.194 99.6636 156.447 96.8489 157.153 91.6716C157.884 86.3194 163.149 80.6865 163.779 79.9095C163.014 81.0909 160.64 88.4013 161.207 89.7097C163.592 95.2243 165.232 97.3574 165.827 98.9043C165.898 99.0874 165.932 99.283 165.926 99.4794C165.92 99.6759 165.875 99.8691 165.794 100.048C165.712 100.227 165.595 100.387 165.45 100.52C165.305 100.653 165.135 100.755 164.95 100.821Z" fill="#ED7D2B"/>
<path id="Vector_63" d="M149.015 79.3021C149.521 78.383 149.798 77.5522 149.457 77.0905C147.218 74.018 142.382 69.7827 142.184 68.725C142.664 69.8727 148.521 73.3081 150.167 74.7843C151.8 76.242 149.082 79.2306 149.015 79.3021Z" fill="#ED7D2B"/>
<path id="Vector_64" d="M50.7184 36.9388C50.7184 36.9388 51.8156 38.4397 51.6981 40.1552C51.6097 41.4274 50.4764 42.7156 50.4004 42.765L52.191 43.7195C52.191 43.7195 53.5161 41.363 53.0744 39.3932C52.9375 38.7893 52.3023 37.8243 51.8377 37.3944C51.5321 37.112 51.1344 36.9502 50.7184 36.9388Z" fill="#6BB7BF"/>
<path id="Vector_65" d="M47.0576 37.0977L45.9233 34.592C45.9233 34.592 51.2157 34.7686 52.9692 39.0816C52.9692 39.0816 49.266 36.4417 47.0576 37.0977Z" fill="#86D1CD"/>
<path id="Vector_66" d="M27.0677 100.84C27.0677 100.84 25.8062 99.887 25.4776 98.4646C25.2364 97.4052 25.8424 96.0808 25.8919 96.0243L24.2046 95.6879C24.2046 95.6879 23.7046 97.9296 24.5518 99.42C24.8115 99.8773 25.565 100.506 26.0536 100.744C26.3692 100.897 26.7291 100.931 27.0677 100.84Z" fill="#6BB7BF"/>
<path id="Vector_67" d="M30.0039 99.8111L31.5419 101.57C31.5419 101.57 27.1956 102.724 24.7107 99.6504C24.7107 99.6504 28.3705 100.887 30.0039 99.8111Z" fill="#86D1CD"/>
<path id="Vector_68" d="M220.506 109.028C220.506 109.028 220.395 107.375 223.498 106.576C224.889 106.217 227.985 106.855 226.022 109.899C223.98 113.067 222.159 111.924 222.159 111.924C222.159 111.924 226.419 108.591 224.714 107.068C222.833 105.39 222.111 108.718 222.111 108.718C221.56 108.712 221.014 108.818 220.506 109.028Z" fill="#F1A34F"/>
<path id="Vector_69" d="M221.606 112.114C221.606 112.114 220.446 111.486 220.906 110.092L222.574 110.381C222.574 110.381 221.932 111.891 223.501 112.073C223.501 112.073 221.993 112.431 221.606 112.114Z" fill="#DB7714"/>
<path id="Vector_70" d="M112.781 23.5037C112.781 23.5037 114.515 21.0078 117.174 22.7753L118.793 21.2276C118.793 21.2276 117.281 20.0798 113.791 22.1379C111.507 23.4852 112.781 23.5037 112.781 23.5037Z" fill="#5685D8"/>
<path id="Vector_71" d="M111.07 25.9502C111.07 25.9502 110.727 23.0852 115.525 21.2982C115.525 21.2982 113.791 22.1379 113.256 24.9932L111.07 25.9502Z" fill="#739AF0"/>
<path id="Vector_72" d="M130.346 10.7564C130.346 10.7564 131.76 9.86109 131.913 8.77954C131.913 8.77954 133.294 8.85459 133.592 9.30133C133.592 9.30133 132.957 11.0919 132.211 11.4274C132.212 11.4274 130.533 11.5395 130.346 10.7564Z" fill="#F99746"/>
<path id="Vector_73" d="M84.7162 112.876C84.7162 112.876 83.2029 111.921 83.0439 110.768C83.0439 110.768 81.5713 110.847 81.2524 111.324C81.2524 111.324 81.9291 113.234 82.7259 113.592C82.7277 113.592 84.5183 113.711 84.7162 112.876Z" fill="#F99746"/>
<path id="Vector_74" d="M146.805 38.9545C146.805 38.9545 148.325 37.9956 148.484 36.8355C148.484 36.8355 149.963 36.915 150.283 37.3944C150.283 37.3944 149.603 39.3129 148.803 39.6723C148.804 39.674 147.005 39.7941 146.805 38.9545Z" fill="#86D1CD"/>
<path id="Vector_75" d="M176.374 82.9221C176.374 82.9221 175.495 81.8564 175.023 81.7072C174.551 81.558 173.636 80.8499 173.521 81.1421C173.407 81.4344 174.14 81.8829 174.097 82.2157C174.055 82.5486 171.765 83.0836 171.779 83.4359C171.793 83.7882 172.318 84.6402 173.193 84.5422C174.067 84.4442 176.285 83.9189 176.741 84.1458C177.198 84.3727 176.374 82.9221 176.374 82.9221Z" fill="#FFB27D"/>
<path id="Vector_76" d="M200.028 77.7394C198.808 79.3647 197.333 80.7811 195.659 81.9332C190.707 85.3765 185.333 85.8904 185.333 85.8904C184.046 85.4789 180.091 85.0481 177.754 84.672C176.736 84.5086 176.025 84.355 175.977 84.2182L176.035 82.1875C176.035 82.1875 184.612 81.7337 186.033 81.0759C188.272 79.1476 190.251 76.6437 191.54 74.6872C192.629 73.0344 193.848 71.8143 195.857 71.0991C198.765 70.0599 204.049 72.3414 200.028 77.7394Z" fill="#AEC3FF"/>
<path id="Vector_77" d="M196.096 80.6548L195.654 81.9341C190.707 85.3765 185.333 85.8904 185.333 85.8904C184.298 85.8904 180.091 85.0481 177.754 84.672C177.843 84.6799 184.115 85.1699 185.503 85.0251C186.89 84.8803 193.397 79.2518 193.397 79.2518L196.096 80.6548Z" fill="#9DB0F4"/>
<path id="Vector_78" d="M190.496 145.121H199.975C200.654 144.661 199.791 140.161 199.791 140.161C199.791 140.161 197.205 139.18 196.758 141.174C196.311 143.169 193.46 143.802 191.958 144.045C190.926 144.213 190.6 144.779 190.496 145.121Z" fill="#233862"/>
<path id="Vector_79" d="M204.553 145.121H214.032C214.711 144.661 213.848 140.161 213.848 140.161C213.848 140.161 211.262 139.18 210.815 141.174C210.368 143.169 207.52 143.802 206.014 144.045C204.983 144.213 204.657 144.779 204.553 145.121Z" fill="#233862"/>
<path id="Vector_80" d="M193.047 99.2125C193.047 99.2125 193.472 104.525 193.973 110.911C194.654 119.585 196.49 141.093 196.49 141.093C196.49 141.093 197.693 142.119 200.358 141.557C200.358 141.557 202.628 134.141 203.306 125.665C203.317 125.526 203.327 125.386 203.337 125.247C203.969 116.626 204.95 98.4726 204.95 98.4726L193.047 99.2125Z" fill="#2B478B"/>
<path id="Vector_81" d="M192.902 97.3769C192.902 97.3769 193.473 104.528 193.973 110.911L203.306 125.669C203.317 125.531 203.328 125.39 203.337 125.251C203.969 116.63 204.95 98.477 204.95 98.477L192.902 97.3769Z" fill="#233862"/>
<path id="Vector_82" d="M195.622 97.3769C195.622 97.3769 202.39 114.216 204.554 120.597C206.095 125.144 210.442 141.094 210.442 141.094C210.442 141.094 212.332 141.669 213.921 140.558C213.921 140.558 215.538 124.262 212.271 119.668C210.539 117.229 211.841 94.3283 204.813 94.1296C197.786 93.931 195.622 97.3769 195.622 97.3769Z" fill="#2B478B"/>
<path id="Vector_83" d="M198.645 72.5533C199.538 73.0288 200.572 73.1682 201.56 72.9462C202.263 72.7877 202.931 72.5055 203.535 72.1127C203.817 71.9355 204.083 71.7347 204.33 71.5123C204.33 71.5123 204.295 71.462 204.236 71.3622C203.931 70.8404 203.005 68.9643 203.417 65.9501C203.423 65.9103 203.123 65.9668 202.672 66.0737C201.329 66.3915 198.63 67.1561 198.51 67.1905C198.51 67.1905 198.477 67.8245 198.366 68.9608C198.356 69.0614 198.346 69.1656 198.335 69.2742C198.321 69.4075 198.307 69.5488 198.29 69.6944C198.165 70.8758 198.645 72.5533 198.645 72.5533Z" fill="#FFB27D"/>
<path id="Vector_84" d="M198.365 68.9607C200.369 69.4207 203.362 66.4621 203.362 66.4621C203.15 66.3044 202.92 66.1739 202.675 66.0736C201.333 66.3915 198.633 67.156 198.513 67.1905C198.513 67.1905 198.476 67.8244 198.365 68.9607Z" fill="#ED975D"/>
<path id="Vector_85" d="M197.683 67.0307C198.293 67.2347 198.921 67.3807 199.559 67.4669C201.096 67.6744 203.117 67.5552 203.752 65.694C204.821 62.565 206.188 60.6897 203.04 59.4122C201.356 58.7279 200.278 58.6917 199.546 58.9531C198.91 59.1782 198.535 59.6276 198.251 60.0735C197.639 61.0305 196.41 66.4825 197.683 67.0307Z" fill="#FFB27D"/>
<path id="Vector_86" d="M195.774 60.3197C197.596 61.6291 200.116 60.3418 200.897 60.6906C201.678 61.0393 201.821 62.3504 201.835 62.7671C201.85 63.1839 201.904 63.5362 202.967 63.2863C203.144 63.2457 203.267 63.2572 203.353 63.3092C203.795 63.5741 203.23 64.8384 203.061 65.1121C203.061 65.1121 202.816 66.0198 203.358 66.4621C203.425 66.5151 204.491 66.9803 207.06 63.0506C207.464 62.4325 207.849 61.0437 207.226 59.7061C206.602 58.3685 203.999 57.0742 201.79 56.3891C200.963 56.1321 200.35 56.1419 199.869 56.3176C199.069 56.6098 198.642 57.3664 198.219 58.1257C197.51 59.4015 195.774 60.3197 195.774 60.3197Z" fill="#A9453D"/>
<path id="Vector_87" d="M207.499 98.5538C207.499 98.5538 206.615 98.7445 205.501 98.9335C204.41 99.1162 203.096 99.2963 202.167 99.2866C197.414 99.2495 193.436 97.851 193.436 97.851C192.543 97.851 192.135 96.4684 191.988 94.5384C191.889 93.2317 191.911 91.6742 191.981 90.1239C192.005 89.6215 192.033 89.1191 192.064 88.6274C192.127 87.6517 192.2 86.7159 192.267 85.8904C192.329 85.1125 192.386 84.4318 192.419 83.903C192.419 83.903 192.293 80.2062 192.343 76.9536C192.379 74.6192 193.689 72.4941 194.021 72.148C194.972 71.1424 197.731 70.5067 198.28 70.4184C198.322 70.4131 198.344 70.4087 198.344 70.4087C200.611 71.681 203.663 69.9628 203.663 69.9628C203.733 69.9743 203.8 69.9902 203.867 70.0052C204.092 69.9567 206.382 70.2966 206.916 70.587C208.234 71.3048 209 79.2713 209 79.2713C209.219 84.6817 208.942 93.3473 209.371 96.6547C209.508 97.7442 208.454 98.334 207.499 98.5538Z" fill="#AEC3FF"/>
<path id="Vector_88" d="M203.849 70.0087C203.849 70.0087 200.471 73.49 198.057 72.7766C198.057 72.7766 197.736 72.306 198.823 72.1586C199.91 72.0111 201.084 72.0668 203.849 70.0087Z" fill="#9DB0F4"/>
<path id="Vector_89" d="M197.66 65.0106C197.66 65.0106 197.593 65.4159 198.536 65.739C198.536 65.739 199.327 66.0101 199.472 65.5951C199.472 65.5995 198.843 64.9965 197.66 65.0106Z" fill="white"/>
<path id="Vector_90" d="M205.7 83.179C205.7 83.179 200.796 91.3776 198.015 92.8211C196.133 93.7923 193.499 94.3106 191.99 94.541C191.891 93.2343 191.912 91.6769 191.983 90.1265C193.977 89.8846 197.012 89.4996 197.012 89.4996L205.7 83.179Z" fill="#9DB0F4"/>
<path id="Vector_91" d="M199.24 79.0593L196.625 88.4905C196.625 88.4905 193.549 88.6847 192.064 88.6309C192.127 87.6552 192.129 87.6226 192.195 86.7944C192.195 86.7944 195.727 84.9545 199.24 79.0593Z" fill="#9DB0F4"/>
<path id="Vector_92" d="M183.498 89.1889C183.498 89.1889 182.62 88.1232 182.147 87.974C181.675 87.8248 180.761 87.1167 180.646 87.409C180.531 87.7012 181.26 88.1497 181.221 88.4826C181.182 88.8154 178.884 89.3496 178.899 89.7027C178.914 90.0559 179.439 90.907 180.313 90.809C181.186 90.711 183.404 90.1857 183.862 90.4126C184.32 90.6395 183.498 89.1889 183.498 89.1889Z" fill="#FFB27D"/>
<path id="Vector_93" d="M209.272 76.106C209.272 76.106 209.427 81.1006 198.036 91.1233L195.748 87.0275C195.327 86.783 203.107 70.0573 205.343 70.1906C209.672 70.4475 209.272 76.106 209.272 76.106Z" fill="#AEC3FF"/>
<path id="Vector_94" d="M197.106 86.5375C197.106 86.5375 184.151 88.0182 183.671 88.2751C183.192 88.532 182.163 89.5341 182.505 90.7913C182.505 90.7913 189.212 91.6336 192.902 91.6177C196.082 91.6045 198.143 91.0942 198.143 91.0942L197.106 86.5375Z" fill="#AEC3FF"/>
<path id="Vector_95" d="M0.298584 145.082H243.701C243.78 145.082 243.856 145.113 243.912 145.169C243.968 145.226 244 145.302 244 145.381V145.54C244 145.619 243.968 145.696 243.912 145.752C243.856 145.808 243.78 145.839 243.701 145.839H0.298584C0.259299 145.839 0.2204 145.832 0.184117 145.817C0.147833 145.801 0.114879 145.779 0.0871411 145.752C0.0594036 145.724 0.0374286 145.691 0.0224755 145.654C0.00752237 145.618 -0.00011492 145.579 1.30689e-06 145.54V145.381C1.30689e-06 145.302 0.031459 145.226 0.087454 145.17C0.143449 145.114 0.219395 145.083 0.298584 145.083V145.082Z" fill="#2E3552"/>
</g>
<defs>
<clipPath id="clip0_1332_1378">
<rect width="244" height="146" fill="white"/>
</clipPath>
</defs>
</svg>
