<svg width="28" height="28" viewBox="0 0 28 28" fill="none" xmlns="http://www.w3.org/2000/svg">
<g id="Target">
<path id="Vector" opacity="0.2" d="M19.25 14C19.25 15.0384 18.9421 16.0534 18.3652 16.9167C17.7883 17.7801 16.9684 18.453 16.0091 18.8504C15.0498 19.2477 13.9942 19.3517 12.9758 19.1491C11.9574 18.9466 11.0219 18.4465 10.2877 17.7123C9.55347 16.9781 9.05345 16.0426 8.85088 15.0242C8.64831 14.0058 8.75227 12.9502 9.14963 11.9909C9.54699 11.0316 10.2199 10.2117 11.0833 9.63478C11.9466 9.05791 12.9616 8.75 14 8.75C15.3924 8.75 16.7277 9.30312 17.7123 10.2877C18.6969 11.2723 19.25 12.6076 19.25 14Z" fill="#00B0CB"/>
<path id="Vector_2" d="M24.267 9.09562C25.4812 11.6351 25.7117 14.5343 24.914 17.2337C24.1163 19.9332 22.347 22.2414 19.9475 23.713C17.548 25.1846 14.6884 25.7153 11.9207 25.2025C9.153 24.6897 6.67332 23.1699 4.96025 20.9364C3.24719 18.7029 2.42218 15.914 2.64446 13.108C2.86674 10.3019 4.12055 7.6777 6.16389 5.74174C8.20724 3.80578 10.8953 2.69534 13.7092 2.62473C16.5231 2.55411 19.2635 3.52833 21.4014 5.35937L23.8809 2.87874C24.0451 2.71456 24.2678 2.62232 24.5 2.62232C24.7322 2.62232 24.9548 2.71456 25.119 2.87874C25.2832 3.04293 25.3755 3.26561 25.3755 3.49781C25.3755 3.73 25.2832 3.95268 25.119 4.11687L14.619 14.6169C14.4548 14.7811 14.2322 14.8733 14 14.8733C13.7678 14.8733 13.5451 14.7811 13.3809 14.6169C13.2167 14.4527 13.1245 14.23 13.1245 13.9978C13.1245 13.7656 13.2167 13.5429 13.3809 13.3787L16.4128 10.3469C15.5911 9.80344 14.6101 9.55323 13.6285 9.63675C12.6469 9.72026 11.7223 10.1326 11.0042 10.807C10.2861 11.4815 9.81671 12.3785 9.6719 13.3529C9.5271 14.3273 9.71539 15.3221 10.2063 16.1762C10.6972 17.0303 11.462 17.6937 12.3769 18.059C13.2918 18.4244 14.3032 18.4702 15.2474 18.1892C16.1915 17.9082 17.0133 17.3168 17.5795 16.5106C18.1457 15.7045 18.4233 14.7309 18.3673 13.7473C18.3608 13.6324 18.3771 13.5174 18.4151 13.4087C18.4531 13.3001 18.5121 13.2 18.5888 13.1142C18.6655 13.0284 18.7583 12.9585 18.862 12.9086C18.9657 12.8586 19.0782 12.8296 19.1931 12.8231C19.4252 12.8101 19.6529 12.8897 19.8262 13.0446C19.912 13.1213 19.9819 13.2141 20.0319 13.3178C20.0818 13.4215 20.1108 13.534 20.1173 13.6489C20.1971 15.041 19.7995 16.4187 18.9902 17.5542C18.1809 18.6897 17.0084 19.5151 15.6665 19.8939C14.3245 20.2727 12.8935 20.1824 11.6099 19.6377C10.3263 19.0931 9.26692 18.1267 8.60692 16.8985C7.94691 15.6702 7.72577 14.2534 7.98003 12.8824C8.23429 11.5114 8.94874 10.2682 10.0053 9.35826C11.0619 8.44831 12.3973 7.92611 13.7908 7.87796C15.1844 7.8298 16.5527 8.25858 17.6695 9.09343L20.1578 6.60515C18.3343 5.09118 16.0157 4.3043 13.6474 4.39564C11.2791 4.48698 9.02801 5.45011 7.32654 7.10003C5.62507 8.74996 4.59317 10.9703 4.42904 13.3347C4.26491 15.6991 4.98012 18.0408 6.43729 19.91C7.89447 21.7792 9.99087 23.0441 12.3239 23.4618C14.6568 23.8795 17.0619 23.4205 19.0771 22.173C21.0923 20.9255 22.5755 18.9775 23.2419 16.703C23.9083 14.4286 23.7109 11.9881 22.6876 9.85031C22.5875 9.64087 22.5748 9.40025 22.6521 9.18139C22.7294 8.96253 22.8905 8.78335 23.1 8.68327C23.3094 8.5832 23.55 8.57042 23.7689 8.64775C23.9877 8.72508 24.1669 8.88618 24.267 9.09562Z" fill="#0028A3"/>
</g>
</svg>
