<svg width="232" height="147" viewBox="0 0 232 147" fill="none" xmlns="http://www.w3.org/2000/svg">
<g clip-path="url(#clip0_390_1398)">
<path d="M15.6547 145.87C8.49506 137.203 3.79917 126.052 1.76774 115.069C-2.28857 93.1399 5.50781 69.3617 20.5249 53.0368C33.0191 39.4545 51.4368 34.6711 69.3094 34.1389C77.0326 33.909 84.751 34.4175 92.4321 35.1916C97.3829 35.6905 102.472 36.6348 107.462 36.4737C112.186 36.3212 115.179 32.5478 117.799 29.056C122.036 23.4119 126.19 17.8492 131.758 13.4165C146.879 1.37796 170.155 -3.87115 188.073 4.79075C196.402 8.81669 202.834 15.858 206.051 24.5429C210.148 35.6029 209.051 47.8793 206.033 59.0556C203.828 67.2481 202.161 76.0429 205.044 84.3024C208.042 92.8934 215.544 98.1657 220.991 105.061C230.581 117.202 227.966 132.629 223.344 146.324L15.6547 145.87Z" fill="#ECF2F9"/>
<path d="M49.7774 91.0157C49.7774 91.0157 61.9104 97.326 60.5979 99.5131C59.2853 101.7 47.5847 91.506 47.5847 91.506C47.5847 91.506 35.1497 97.6291 32.4978 101.781C32.4978 101.781 47.6021 103.788 45.7921 105.585C43.9821 107.381 28.1678 106.024 28.1678 106.024C28.1678 106.024 18.3983 114.642 23.0996 120.949C27.801 127.255 32.8351 126.985 34.3792 125.784C35.9232 124.583 43.3126 114.9 44.3611 116.126C45.4097 117.351 42.3255 125.388 38.3763 128.119C38.3763 128.119 51.3243 131.851 54.9252 126.232C58.5261 120.613 56.561 116.455 58.8493 113.023C61.1376 109.591 63.8623 107.909 63.4643 110.211C63.0664 112.513 58.1875 117.531 58.3588 121.889C58.53 126.247 58.2393 129.438 63.0399 125.364C67.8405 121.291 74.0493 112.088 71.6842 107.415C71.5811 107.211 71.4828 107.017 71.3885 106.831C71.6142 107.178 71.6842 107.415 71.6842 107.415C72.9083 106.929 76.4503 107.541 79.0908 108.109C79.5197 108.231 80.1343 108.374 80.9897 108.541C81.3649 108.632 81.6703 108.708 81.8827 108.762C87.5023 110.41 94.1792 117.118 94.1792 117.118L95.2706 116.299C89.6267 108.154 80.35 107.382 80.35 107.382C73.4503 106.187 69.3192 102.742 69.3192 102.742C69.3192 102.742 71.414 89.303 60.9095 88.0929C60.9095 88.0929 53.8242 88.1601 49.7774 91.0157Z" fill="#E1E9FB"/>
<path d="M182.655 33.5293C180.104 24.1008 164.208 27.0472 164.208 27.0472C164.208 27.0472 153.415 43.5471 150.275 43.9399C147.135 44.3327 156.751 28.0293 156.751 28.0293C150.667 27.44 135.164 34.9043 135.164 34.9043C135.164 34.9043 136.145 54.1541 133.005 53.7613C129.865 53.3684 133.005 36.6721 133.005 36.6721C127.118 38.44 121.623 45.3149 121.623 45.3149C114.755 56.5112 129.473 64.7612 129.473 64.7612C129.473 64.7612 129.669 71.4396 125.548 79.1003C125.548 79.1003 124.618 80.5149 123.672 82.9191H125.277C125.408 82.4882 125.553 82.0718 125.713 81.672C125.713 81.6689 125.714 81.6668 125.716 81.6648C125.718 81.6589 125.721 81.6533 125.723 81.6475C125.833 81.3993 125.991 81.046 126.188 80.6157C126.188 80.6151 126.188 80.6146 126.189 80.6141C126.189 80.613 126.19 80.613 126.19 80.612C126.68 79.6512 127.011 78.9414 127.221 78.4289C127.222 78.4273 127.222 78.4257 127.223 78.4242C128.692 75.4081 130.809 71.4782 132.22 70.654C132.22 70.654 132.043 70.4039 131.877 69.9171C131.986 70.1521 132.1 70.3971 132.22 70.654C134.968 76.5468 148.705 77.5289 156.358 75.9575C164.012 74.3861 160.676 72.2254 156.554 68.7186C152.433 65.2117 143.799 66.1362 141.247 64.7612C138.696 63.3861 142.425 62.0112 147.527 62.404C152.63 62.7969 155.181 67.904 163.423 68.6897C171.665 69.4754 177.945 53.9577 177.945 53.9577C172.254 55.7255 162.049 52.5827 161.657 50.6184C161.264 48.6541 176.375 48.8506 178.73 48.2613C181.085 47.672 185.206 42.9578 182.655 33.5293Z" fill="#E1E9FB"/>
<path d="M204.041 71.135H181.809C180.036 71.135 178.586 72.5864 178.586 74.3603V84.1231C178.586 85.7524 179.918 87.0855 181.546 87.0855H182.117L181.046 91.6139L187.771 87.0855H204.233C206.003 87.0855 207.452 85.6354 207.452 83.8629V74.5496C207.452 72.6716 205.917 71.135 204.041 71.135Z" fill="#D5E0F7"/>
<path d="M204.637 78.2215H181.456C181.14 78.2215 180.882 77.9629 180.882 77.6469C180.882 77.3308 181.14 77.0723 181.456 77.0723H204.637C204.953 77.0723 205.212 77.3308 205.212 77.6469C205.212 77.9629 204.953 78.2215 204.637 78.2215Z" fill="#BACDF9"/>
<path d="M204.637 80.7935H181.456C181.14 80.7935 180.882 80.5349 180.882 80.2189C180.882 79.9028 181.14 79.6443 181.456 79.6443H204.637C204.953 79.6443 205.212 79.9028 205.212 80.2189C205.212 80.5349 204.953 80.7935 204.637 80.7935Z" fill="#BACDF9"/>
<path d="M204.637 83.3655H181.456C181.14 83.3655 180.882 83.1069 180.882 82.7909C180.882 82.4748 181.14 82.2163 181.456 82.2163H204.637C204.953 82.2163 205.212 82.4748 205.212 82.7909C205.212 83.1069 204.953 83.3655 204.637 83.3655Z" fill="#BACDF9"/>
<path d="M192.008 74.2266H182.167C181.791 74.2266 181.483 73.9188 181.483 73.5425C181.483 73.1663 181.791 72.8585 182.167 72.8585H192.008C192.384 72.8585 192.691 73.1663 192.691 73.5425C192.691 73.9188 192.384 74.2266 192.008 74.2266Z" fill="#BACDF9"/>
<path d="M200.322 72.8585H194.687C194.31 72.8585 194.004 73.1648 194.004 73.5426C194.004 73.9204 194.31 74.2266 194.687 74.2266H200.322C200.7 74.2266 201.006 73.9204 201.006 73.5426C201.006 73.1648 200.7 72.8585 200.322 72.8585Z" fill="#BACDF9"/>
<path d="M69.0729 20.272H132.829C135.635 20.272 137.913 22.5519 137.913 25.3601V139.355C137.913 142.162 135.636 144.442 132.831 144.442H69.0729C66.2673 144.442 63.9895 142.162 63.9895 139.354V25.3601C63.9895 22.5519 66.2673 20.272 69.0729 20.272Z" fill="#C5D6F9"/>
<path d="M93.4079 130.091H114.805C118.398 130.091 121.312 127.175 121.312 123.578V123.578C121.312 119.981 118.398 117.065 114.805 117.065H93.4079C89.8143 117.065 86.9011 119.981 86.9011 123.578C86.9011 127.175 89.8143 130.091 93.4079 130.091Z" fill="white"/>
<path d="M107.657 111.33H84.7849C81.6007 111.33 79.0156 108.743 79.0156 105.555C79.0156 102.368 81.6006 99.781 84.7846 99.781H107.657C110.841 99.781 113.426 102.368 113.426 105.555C113.426 108.742 110.841 111.33 107.657 111.33Z" fill="#E1954D"/>
<path d="M109.971 26.4763H91.9311C89.2609 26.4763 87.0962 24.3096 87.0962 21.6368H114.806C114.806 24.3096 112.642 26.4763 109.971 26.4763Z" fill="#384987"/>
<path d="M132.96 145.807H68.9423C65.4977 145.807 62.6953 142.852 62.6953 139.221V25.4937C62.6953 21.8621 65.4977 18.9076 68.9423 18.9076H132.96C136.405 18.9076 139.207 21.8621 139.207 25.4937V139.221C139.207 142.852 136.405 145.807 132.96 145.807ZM68.9423 21.6369C66.9251 21.6369 65.2841 23.3671 65.2841 25.4937V139.221C65.2841 141.347 66.9251 143.078 68.9423 143.078H132.96C134.977 143.078 136.619 141.347 136.619 139.221V25.4937C136.619 23.3671 134.977 21.6369 132.96 21.6369H68.9423Z" fill="#384987"/>
<path d="M63.9092 136.431H137.993C137.993 140.829 134.426 144.4 130.032 144.4H68.9218C66.1553 144.4 63.9092 142.152 63.9092 139.382V136.431Z" fill="#384987"/>
<path d="M143.988 82.5946C146.78 81.9976 149.692 82.8429 151.759 84.8151C152.67 85.6848 153.67 86.7716 154.589 88.0559C156.866 91.2386 152.506 94.3888 153.085 95.4672C153.665 96.5456 155.009 97.3971 154.421 99.6483C153.833 101.9 149.955 104.821 148.691 104.951C135.879 106.268 130.319 99.1984 134.602 95.3871C138.885 91.5759 137.137 86.0473 140.614 83.8994C141.688 83.2363 142.869 82.8339 143.988 82.5946Z" fill="#2E3B61"/>
<path d="M150.504 102.309C150.504 102.309 162.57 107.57 164.76 107.475C166.95 107.379 180.446 103.36 180.446 103.36L180.102 105.684C180.102 105.684 169.687 111.68 166.046 112.02C162.461 112.355 150.203 108.799 149.02 108.049C147.837 107.298 147.065 103.068 150.504 102.309Z" fill="#D79662"/>
<path d="M151.971 108.055C150.911 108.791 149.582 109.398 147.914 109.783C141.662 111.229 139.265 105.939 138.365 102.309C139.218 101.82 140.02 101.713 140.484 101.657C140.936 101.604 141.411 101.568 141.805 101.549C142.507 101.011 143.553 98.8077 143.784 95.3872L144.078 95.4662L149.006 96.8162C149.006 96.8162 148.78 98.3841 148.67 99.866C148.584 101.026 148.571 102.134 148.79 102.405C149.175 102.489 149.406 102.543 149.406 102.543C149.406 102.543 149.406 102.545 149.408 102.548C149.474 102.656 150.904 105.01 151.971 108.055Z" fill="#EBAF7F"/>
<path d="M149.007 96.8172C149.007 96.8172 148.78 98.3838 148.67 99.867C145.879 99.5872 144.583 96.9266 144.079 95.4674L149.007 96.8172Z" fill="#D79662"/>
<path d="M149.84 98.2888C149.84 98.2888 143.214 97.9228 143.505 93.7958C143.796 89.6688 143.137 86.8421 147.38 86.9013C151.623 86.9605 152.333 88.5933 152.571 89.9945C152.808 91.3957 151.571 98.2776 149.84 98.2888Z" fill="#EBAF7F"/>
<path d="M152.538 87.6859C151.604 86.3712 150.811 86.5881 150.352 86.9301C146.877 84.6796 144.334 87.4555 144.334 87.4555C143.68 90.3847 141.425 91.9277 141.425 91.9277C141.425 91.9277 142.599 92.8677 145.41 92.2441C149.006 91.4462 150.241 88.3248 150.409 87.8454C150.787 88.2375 151.275 88.4872 151.65 89.3378C152.094 90.3485 152.374 90.9348 152.382 92.5946C152.382 92.5946 153.939 89.6576 152.538 87.6859Z" fill="#2E3B61"/>
<path d="M136.478 121.54C135.88 118.478 133.929 106.245 135.88 102.308C136.581 100.894 139.33 100.766 142.347 100.891C143.286 101.497 146.863 103.789 148.332 103.503C148.348 103.5 148.377 103.494 148.415 103.484C149.106 103.311 149.368 102.824 148.791 102.405C148.789 102.404 150.285 102.261 152.14 102.61C153.188 102.808 156.015 104.272 156.015 104.272C156.015 104.272 154.592 106.846 152.492 107.735C152.849 110.931 152.319 112.34 149.006 119.722C146.207 125.962 149.384 131.58 149.384 131.58C149.384 131.58 132.907 144.84 132.815 138.088C132.746 133.005 137.243 125.454 136.478 121.54Z" fill="white"/>
<path d="M150.2 145.998C151.097 145.897 151.903 145.406 152.404 144.656C152.484 144.537 152.569 144.409 152.659 144.272C154.535 141.43 155.264 132.726 159.483 123.454C160.511 121.197 164.199 120.791 165.205 118.239C165.205 118.239 167.68 109.968 160.467 109.724C153.253 109.48 141.147 132.738 140.956 135.177C140.771 137.54 136.187 147.581 150.2 145.998Z" fill="#D37C35"/>
<path d="M178.872 145.808H168.605C168.605 145.808 168.221 144.169 168.895 143.054C169.492 142.067 169.263 141.505 168.821 140.688C169.286 140.879 169.888 141.052 170.55 141.014C171.062 140.985 171.603 140.752 172.077 140.477C172.519 140.981 174.411 143.127 175.003 143.553C175.674 144.035 178.665 143.863 178.872 145.808Z" fill="#2E3B61"/>
<path d="M165.44 112.115C166.058 116.755 168.472 131.398 172.731 138.542C174.104 140.845 169.272 142.136 169.246 142.129C168.598 141.96 167.518 140.925 167.02 140.477C163.563 137.357 156.544 128.525 156.544 121.445C156.544 117.992 156.483 111.398 158.991 109.723C160.536 108.69 165.194 110.273 165.44 112.115Z" fill="#D37C35"/>
<path d="M144.078 145.808C144.078 145.808 144.458 145.278 145.122 144.272C145.912 143.075 146.785 140.719 147.846 137.699C148.959 134.529 150.28 130.629 151.931 126.571C152.441 125.318 152.982 124.05 153.557 122.784C154.585 120.527 157.412 120.839 158.418 118.287C158.418 118.287 162.342 109.441 155.128 109.197C147.914 108.953 134.207 132.861 133.419 135.177C132.557 137.711 128.35 148.237 144.078 145.808Z" fill="#E1954D"/>
<path d="M171.335 145.808H161.068C161.068 145.808 160.684 144.169 161.358 143.054C161.954 142.067 161.726 141.505 161.284 140.688C161.749 140.879 162.351 141.052 163.013 141.014C163.525 140.985 164.066 140.752 164.54 140.477C164.982 140.981 166.874 143.127 167.465 143.553C168.136 144.035 171.128 143.863 171.335 145.808Z" fill="#384987"/>
<path d="M147.845 137.699C148.959 134.529 150.28 130.629 151.931 126.571C151.5 123.496 150.57 120.806 149.006 119.722C149.006 119.722 145.212 131.488 147.845 137.699Z" fill="#DC8D46"/>
<path d="M159.446 111.786C160.064 116.426 160.935 131.398 165.194 138.542C166.567 140.845 161.735 142.136 161.709 142.129C161.06 141.96 159.981 140.925 159.483 140.477C156.025 137.357 149.006 128.525 149.006 121.445C149.006 117.992 153.054 111.675 155.562 109.999C157.107 108.967 159.201 109.944 159.446 111.786Z" fill="#E1954D"/>
<path d="M181.672 97.3812L171.157 96.2633C170.851 96.2308 170.561 96.4089 170.451 96.6973L166.689 106.592C166.524 107.026 166.833 107.494 167.296 107.512L177.73 107.934C178.013 107.945 178.274 107.779 178.383 107.517L182.226 98.3189C182.402 97.8993 182.124 97.4292 181.672 97.3812Z" fill="#2E3B61"/>
<path d="M182.585 97.4771L172.07 96.3592C171.764 96.3266 171.474 96.5048 171.364 96.7931L167.602 106.688C167.437 107.122 167.746 107.59 168.209 107.608L178.643 108.03C178.926 108.041 179.187 107.875 179.296 107.613L183.14 98.4147C183.315 97.9952 183.037 97.525 182.585 97.4771Z" fill="#384987"/>
<path d="M176.757 102.097C176.886 101.744 176.703 101.458 176.351 101.458C175.998 101.458 175.608 101.744 175.479 102.097C175.351 102.45 175.533 102.737 175.886 102.737C176.238 102.737 176.629 102.45 176.757 102.097Z" fill="#ECF2F9"/>
<path d="M182.271 98.4119C182.334 98.2384 182.245 98.0978 182.071 98.0978C181.898 98.0978 181.706 98.2384 181.643 98.4119C181.58 98.5855 181.669 98.7262 181.843 98.7262C182.016 98.7262 182.208 98.5855 182.271 98.4119Z" fill="#ECF2F9"/>
<path d="M138.366 102.309C138.366 102.309 152.939 107.68 155.128 107.57C156.544 107.499 168.307 103.36 168.307 103.36L169.364 105.36C169.364 105.36 157.914 112.726 154.766 112.69C148.551 112.618 138.065 108.799 136.882 108.049C135.698 107.298 134.927 103.068 138.366 102.309Z" fill="#EBAF7F"/>
<path d="M168.307 103.36C168.307 103.36 169.363 101.733 170.415 101.686C171.467 101.638 173.283 102.403 173.904 102.523C174.526 102.642 176.294 103.216 175.768 104.078C175.243 104.939 172.805 105.13 171.753 104.939C170.702 104.747 169.363 105.36 169.363 105.36L168.307 103.36Z" fill="#EBAF7F"/>
<path d="M170.129 101.736C170.129 101.736 171.801 100.968 172.279 100.824C172.757 100.681 172.661 100.827 172.518 101.28C172.375 101.733 171.514 102.166 171.514 102.309C171.514 102.451 170.129 101.736 170.129 101.736Z" fill="#EBAF7F"/>
<path d="M181.502 102.499C181.502 102.499 180.448 100.829 180.102 100.761C179.05 100.553 179.05 101.94 179.273 102.834C179.513 103.793 180.323 104.698 180.547 104.619C180.771 104.54 181.75 103.381 181.502 102.499Z" fill="#EBAF7F"/>
<path d="M181.542 102.834C181.542 102.834 181.879 104.707 180.102 105.684L180.628 104.395L181.542 102.834Z" fill="#EBAF7F"/>
<path d="M151.081 95.9154C151.081 95.9154 150.454 95.6675 148.691 95.8104C148.691 95.8104 148.785 96.4987 150.085 96.5667C150.822 96.6053 151.081 95.9154 151.081 95.9154Z" fill="white"/>
<path d="M145.874 104.958C145.874 104.958 144.57 109.088 140.094 110.028C140.094 110.028 132.702 107.748 136.383 102.708C136.383 102.708 140.022 100.001 145.874 104.958Z" fill="white"/>
<path d="M83.2159 122.79C83.2159 124.216 82.8182 125.547 82.1293 126.682C82.1293 126.684 82.1276 126.684 82.1276 126.686C81.9373 126.998 81.7248 127.297 81.4917 127.576C81.3426 127.755 81.1867 127.928 81.0221 128.093C80.6245 128.491 80.1841 128.844 79.7042 129.144C78.6793 129.789 77.4865 130.191 76.2062 130.273C76.0485 130.283 75.8875 130.288 75.7263 130.288C74.1993 130.288 72.7802 129.83 71.596 129.045C71.2395 128.81 70.9053 128.544 70.5951 128.252C70.0312 127.72 69.5496 127.105 69.1726 126.422C68.5762 125.346 68.2368 124.108 68.2368 122.79C68.2368 120.721 69.0749 118.846 70.4305 117.489C71.7862 116.134 73.6577 115.295 75.7263 115.295C77.7949 115.295 79.6665 116.134 81.0221 117.489C82.3777 118.846 83.2159 120.721 83.2159 122.79Z" fill="white"/>
<path d="M75.7419 124.324C77.0484 124.324 78.1075 123.264 78.1075 121.957C78.1075 120.649 77.0484 119.589 75.7419 119.589C74.4354 119.589 73.3762 120.649 73.3762 121.957C73.3762 123.264 74.4354 124.324 75.7419 124.324Z" fill="#E1E9FB"/>
<path d="M79.5145 129.267C78.9465 129.612 77.6322 130.306 75.8261 130.329C73.8081 130.354 72.3557 129.528 71.8017 129.172C71.4545 126.487 73.573 124.286 75.7416 124.324C77.8963 124.363 79.927 126.609 79.5145 129.267Z" fill="#E1E9FB"/>
<path d="M116.958 105.833C116.958 107.986 117.865 109.927 119.317 111.294C120.657 112.557 122.462 113.33 124.448 113.33C124.609 113.33 124.769 113.325 124.928 113.315C126.805 113.196 128.494 112.386 129.744 111.135C129.908 110.97 130.065 110.798 130.214 110.619C130.447 110.337 130.66 110.038 130.851 109.724C131.54 108.59 131.937 107.258 131.937 105.833C131.937 103.764 131.099 101.889 129.744 100.532C128.388 99.1757 126.516 98.3367 124.448 98.3367C122.38 98.3367 120.507 99.1757 119.152 100.532C117.796 101.889 116.958 103.764 116.958 105.833Z" fill="white"/>
<path d="M120.098 109.228C120.23 109.32 120.377 109.397 120.541 109.457C121.707 110.474 123.563 112.114 124.928 113.315C126.805 113.196 128.494 112.386 129.744 111.135C129.908 110.97 130.065 110.798 130.214 110.619C130.447 110.337 130.66 110.038 130.851 109.724C130.69 109.439 130.497 109.149 130.27 108.855C129.065 107.295 128.082 106.766 128.352 104.751C128.497 103.658 127.796 99.7922 125.287 99.5929C125.077 99.5761 123.81 99.3628 122.892 99.6179C120.666 100.236 117.536 107.461 120.098 109.228Z" fill="#2E3B61"/>
<path d="M122.694 108.798C122.682 108.802 123.736 109.437 124.569 109.265C125.353 109.103 126.15 108.042 126.14 108.039C125.817 107.954 125.522 107.591 125.65 105.662L125.501 105.682L122.989 106.017C122.989 106.017 122.996 106.802 122.951 107.539C122.914 108.157 122.839 108.741 122.694 108.798Z" fill="#EBAF7F"/>
<path d="M122.989 106.017C122.989 106.017 122.996 106.802 122.951 107.538C124.342 107.587 125.156 106.366 125.501 105.682L122.989 106.017Z" fill="#D79560"/>
<path d="M122.481 106.685C122.481 106.685 125.762 106.947 125.894 104.899C126.026 102.851 126.538 101.505 124.448 101.251C122.358 100.998 121.901 101.753 121.691 102.426C121.481 103.099 121.631 106.564 122.481 106.685Z" fill="#EBAF7F"/>
<path d="M122.042 101.364C122.042 101.364 123.703 103.567 125.061 104.009C126.419 104.452 127.041 104.12 127.041 104.12C127.041 104.12 126.369 103.262 126.114 102.058C126.039 101.703 125.78 101.414 125.434 101.307C124.461 101.007 122.589 100.561 122.042 101.364Z" fill="#2E3B61"/>
<path d="M123.352 101.482C123.352 101.482 122.526 101.995 122.205 102.439C121.895 102.867 121.589 103.985 121.657 104.47C121.657 104.47 121.04 102.169 121.86 101.293C122.73 100.365 123.352 101.482 123.352 101.482Z" fill="#2E3B61"/>
<path d="M119.317 111.294C120.657 112.557 122.462 113.33 124.448 113.33H124.945C124.94 113.326 124.934 113.32 124.929 113.315C126.805 113.196 128.494 112.386 129.744 111.135C129.908 110.97 130.065 110.798 130.214 110.619C129.954 110.054 129.705 109.594 129.49 109.294C128.561 107.998 125.879 107.833 125.879 107.833V107.834C125.879 107.835 125.878 107.834 125.877 107.835C125.872 107.838 125.867 107.841 125.862 107.844C124.841 108.447 124.169 108.638 123.729 108.638C123.078 108.638 122.929 108.225 122.901 108.12L122.9 108.119V108.117C122.897 108.103 122.896 108.096 122.896 108.096V108.095C122.896 108.095 120.96 108.423 120.098 109.228C119.916 109.397 119.782 109.587 119.724 109.8C119.652 110.064 119.504 110.606 119.317 111.294Z" fill="#E1954D"/>
<path d="M64.9174 95.8267H109.466C115.964 95.8267 121.231 90.5543 121.231 84.0505C121.231 77.5468 115.964 72.2744 109.466 72.2744H64.9174C58.4197 72.2744 53.1523 77.5468 53.1523 84.0505C53.1523 90.5543 58.4197 95.8267 64.9174 95.8267Z" fill="white"/>
<path d="M75.2092 84.0487C75.2092 85.7252 74.7415 87.2909 73.9312 88.6265C73.9312 88.6285 73.9292 88.6285 73.9292 88.6305C73.7055 88.9978 73.4556 89.3488 73.1814 89.6776C73.0061 89.8875 72.8226 90.0913 72.6291 90.2849C72.1615 90.753 71.6434 91.1687 71.0791 91.5217C69.8737 92.2803 68.4708 92.7524 66.9651 92.8492C66.7797 92.8613 66.5902 92.8674 66.4007 92.8674C64.6048 92.8674 62.9358 92.3287 61.543 91.4047C61.1237 91.1283 60.7307 90.8155 60.3658 90.4726C59.7027 89.8471 59.1363 89.1228 58.6928 88.3198C57.9914 87.0548 57.5923 85.5981 57.5923 84.0487C57.5923 81.6155 58.5779 79.4103 60.1723 77.8144C61.7667 76.2206 63.9678 75.234 66.4007 75.234C68.8336 75.234 71.0348 76.2206 72.6291 77.8144C74.2235 79.4103 75.2092 81.6155 75.2092 84.0487Z" fill="#E1E9FB"/>
<path d="M66.4142 85.4108C68.0295 85.4108 69.339 84.1001 69.339 82.4832C69.339 80.8663 68.0295 79.5555 66.4142 79.5555C64.7988 79.5555 63.4893 80.8663 63.4893 82.4832C63.4893 84.1001 64.7988 85.4108 66.4142 85.4108Z" fill="white"/>
<path d="M71.0791 91.5217C70.3768 91.9486 68.7518 92.8061 66.5188 92.8344C64.0237 92.866 62.2279 91.8438 61.543 91.4046C61.1137 88.084 63.7331 85.3629 66.4143 85.4108C69.0784 85.4583 71.5891 88.2357 71.0791 91.5217Z" fill="white"/>
<path d="M88.9842 82.4124H80.4458V83.5206H88.9842V82.4124Z" fill="#CFDFFB"/>
<path d="M91.088 84.6288H80.4458V85.7369H91.088V84.6288Z" fill="#CFDFFB"/>
<path d="M99.7739 84.6288H91.9368V85.7369H99.7739V84.6288Z" fill="#CFDFFB"/>
<path d="M88.2829 86.7974H80.4458V87.9055H88.2829V86.7974Z" fill="#CFDFFB"/>
<path d="M95.5945 82.4124H89.9026V83.5206H95.5945V82.4124Z" fill="#CFDFFB"/>
<path d="M108.335 82.4124H96.8223V83.5206H108.335V82.4124Z" fill="#CFDFFB"/>
<path d="M92.6208 76.9261H80.532V78.4952H92.6208V76.9261Z" fill="#CFDFFB"/>
<path d="M110.658 76.926H93.9561V78.495H110.658V76.926Z" fill="#CFDFFB"/>
<path d="M87.1921 105.551H81.5779V106.28H87.1921V105.551Z" fill="white"/>
<path d="M88.5752 107.008H81.5776V107.737H88.5752V107.008Z" fill="white"/>
<path d="M94.2864 107.008H89.1333V107.737H94.2864V107.008Z" fill="white"/>
<path d="M86.731 108.434H81.5779V109.163H86.731V108.434Z" fill="white"/>
<path d="M91.5387 105.551H87.7961V106.28H91.5387V105.551Z" fill="white"/>
<path d="M99.9158 105.551H92.3457V106.28H99.9158V105.551Z" fill="white"/>
<path d="M89.5835 101.944H81.6348V102.976H89.5835V101.944Z" fill="white"/>
<path d="M101.443 101.944H90.4612V102.976H101.443V101.944Z" fill="white"/>
<path d="M95.1706 123.152H89.5564V123.88H95.1706V123.152Z" fill="#CFDFFB"/>
<path d="M96.5536 124.609H89.5562V125.338H96.5536V124.609Z" fill="#CFDFFB"/>
<path d="M102.265 124.609H97.1118V125.338H102.265V124.609Z" fill="#CFDFFB"/>
<path d="M94.7095 126.035H89.5564V126.764H94.7095V126.035Z" fill="#CFDFFB"/>
<path d="M99.5172 123.152H95.7747V123.88H99.5172V123.152Z" fill="#CFDFFB"/>
<path d="M107.894 123.152H100.324V123.881H107.894V123.152Z" fill="#CFDFFB"/>
<path d="M97.5612 119.545H89.6125V120.576H97.5612V119.545Z" fill="#CFDFFB"/>
<path d="M109.421 119.545H98.4392V120.576H109.421V119.545Z" fill="#CFDFFB"/>
<path d="M231.496 145.741H1.02877C0.819526 145.741 0.649902 145.911 0.649902 146.121V146.121C0.649902 146.33 0.819526 146.5 1.02877 146.5H231.496C231.705 146.5 231.875 146.33 231.875 146.121V146.121C231.875 145.911 231.705 145.741 231.496 145.741Z" fill="#343852"/>
<path d="M111.762 53.1025L83.342 57.1603L102.202 44.2936L103.161 48.4184L110.072 49.6712L111.762 53.1025Z" fill="#A7C1F3"/>
<path d="M83.342 57.1603L106.992 44.9554L130.171 43.7885L83.342 57.1603Z" fill="white"/>
<path d="M102.202 44.2935L83.342 57.1603L97.9421 37.0513L102.202 44.2935Z" fill="white"/>
</g>
<defs>
<clipPath id="clip0_390_1398">
<rect width="231.225" height="146" fill="white" transform="translate(0.649902 0.5)"/>
</clipPath>
</defs>
</svg>
