<svg width="28" height="28" viewBox="0 0 28 28" fill="none" xmlns="http://www.w3.org/2000/svg">
<g id="Timer">
<path id="Vector" opacity="0.2" d="M23.625 14.875C23.625 16.7786 23.0605 18.6395 22.0029 20.2224C20.9453 21.8052 19.4421 23.0388 17.6833 23.7673C15.9246 24.4958 13.9893 24.6864 12.1223 24.3151C10.2552 23.9437 8.54018 23.027 7.1941 21.6809C5.84802 20.3348 4.93133 18.6198 4.55995 16.7527C4.18856 14.8857 4.37917 12.9504 5.10766 11.1917C5.83616 9.43293 7.06982 7.92971 8.65264 6.8721C10.2355 5.8145 12.0964 5.25 14 5.25C16.5527 5.25 19.0009 6.26406 20.8059 8.0691C22.6109 9.87414 23.625 12.3223 23.625 14.875Z" fill="#00B0CB"/>
<path id="Vector_2" d="M14 4.375C11.9233 4.375 9.89323 4.99081 8.16652 6.14457C6.4398 7.29832 5.09399 8.9382 4.29927 10.8568C3.50455 12.7754 3.29661 14.8866 3.70176 16.9234C4.1069 18.9602 5.10693 20.8312 6.57538 22.2996C8.04383 23.7681 9.91476 24.7681 11.9516 25.1732C13.9884 25.5784 16.0996 25.3705 18.0182 24.5757C19.9368 23.781 21.5767 22.4352 22.7304 20.7085C23.8842 18.9818 24.5 16.9517 24.5 14.875C24.4968 12.0912 23.3895 9.42234 21.4211 7.45389C19.4527 5.48545 16.7838 4.37818 14 4.375ZM14 23.625C12.2694 23.625 10.5777 23.1118 9.13877 22.1504C7.69984 21.1889 6.57833 19.8223 5.91606 18.2235C5.25379 16.6246 5.08051 14.8653 5.41813 13.168C5.75575 11.4706 6.58911 9.91152 7.81282 8.68781C9.03653 7.46411 10.5956 6.63075 12.293 6.29313C13.9903 5.95551 15.7496 6.12879 17.3485 6.79105C18.9473 7.45332 20.3139 8.57483 21.2754 10.0138C22.2368 11.4527 22.75 13.1444 22.75 14.875C22.7474 17.1948 21.8247 19.4189 20.1843 21.0593C18.5439 22.6997 16.3198 23.6224 14 23.625ZM18.9941 9.88094C19.0754 9.9622 19.14 10.0587 19.184 10.1649C19.228 10.2711 19.2507 10.385 19.2507 10.5C19.2507 10.615 19.228 10.7288 19.184 10.8351C19.14 10.9413 19.0754 11.0378 18.9941 11.1191L14.6191 15.4941C14.5378 15.5754 14.4413 15.6398 14.335 15.6838C14.2288 15.7278 14.115 15.7505 14 15.7505C13.885 15.7505 13.7712 15.7278 13.665 15.6838C13.5588 15.6398 13.4622 15.5754 13.3809 15.4941C13.2996 15.4128 13.2352 15.3163 13.1912 15.21C13.1472 15.1038 13.1245 14.99 13.1245 14.875C13.1245 14.76 13.1472 14.6462 13.1912 14.54C13.2352 14.4337 13.2996 14.3372 13.3809 14.2559L17.7559 9.88094C17.8372 9.79958 17.9337 9.73504 18.0399 9.69101C18.1462 9.64698 18.26 9.62431 18.375 9.62431C18.49 9.62431 18.6039 9.64698 18.7101 9.69101C18.8163 9.73504 18.9128 9.79958 18.9941 9.88094ZM10.5 1.75C10.5 1.51794 10.5922 1.29538 10.7563 1.13128C10.9204 0.967187 11.1429 0.875 11.375 0.875H16.625C16.8571 0.875 17.0796 0.967187 17.2437 1.13128C17.4078 1.29538 17.5 1.51794 17.5 1.75C17.5 1.98206 17.4078 2.20462 17.2437 2.36872C17.0796 2.53281 16.8571 2.625 16.625 2.625H11.375C11.1429 2.625 10.9204 2.53281 10.7563 2.36872C10.5922 2.20462 10.5 1.98206 10.5 1.75Z" fill="#0028A3"/>
</g>
</svg>
