<svg width="24" height="24" viewBox="0 0 24 24" fill="none" xmlns="http://www.w3.org/2000/svg">
<g id="Timer">
<path id="Vector" opacity="0.2" d="M20.25 12.75C20.25 14.3817 19.7661 15.9767 18.8596 17.3335C17.9531 18.6902 16.6646 19.7476 15.1571 20.372C13.6497 20.9964 11.9909 21.1598 10.3905 20.8415C8.79017 20.5231 7.32016 19.7374 6.16637 18.5836C5.01259 17.4298 4.22685 15.9598 3.90853 14.3595C3.5902 12.7592 3.75357 11.1004 4.378 9.59286C5.00242 8.08537 6.05984 6.7969 7.41655 5.89038C8.77325 4.98385 10.3683 4.5 12 4.5C14.188 4.5 16.2865 5.36919 17.8336 6.91637C19.3808 8.46354 20.25 10.562 20.25 12.75Z" fill="#00B0CB"/>
<path id="Vector_2" d="M12 3.75C10.22 3.75 8.47991 4.27784 6.99987 5.26677C5.51983 6.25571 4.36628 7.66131 3.68509 9.30585C3.0039 10.9504 2.82567 12.76 3.17294 14.5058C3.5202 16.2516 4.37737 17.8553 5.63604 19.114C6.89472 20.3726 8.49836 21.2298 10.2442 21.5771C11.99 21.9243 13.7996 21.7461 15.4442 21.0649C17.0887 20.3837 18.4943 19.2302 19.4832 17.7501C20.4722 16.2701 21 14.53 21 12.75C20.9973 10.3639 20.0482 8.07629 18.361 6.38905C16.6737 4.70182 14.3861 3.75273 12 3.75ZM12 20.25C10.5166 20.25 9.0666 19.8101 7.83323 18.986C6.59986 18.1619 5.63856 16.9906 5.07091 15.6201C4.50325 14.2497 4.35473 12.7417 4.64411 11.2868C4.9335 9.83196 5.64781 8.49559 6.6967 7.4467C7.7456 6.3978 9.08197 5.6835 10.5368 5.39411C11.9917 5.10472 13.4997 5.25325 14.8701 5.8209C16.2406 6.38856 17.4119 7.34985 18.236 8.58322C19.0601 9.81659 19.5 11.2666 19.5 12.75C19.4978 14.7384 18.7069 16.6448 17.3008 18.0508C15.8948 19.4569 13.9884 20.2478 12 20.25ZM16.2806 8.46937C16.3504 8.53903 16.4057 8.62175 16.4434 8.71279C16.4812 8.80384 16.5006 8.90144 16.5006 9C16.5006 9.09856 16.4812 9.19616 16.4434 9.2872C16.4057 9.37825 16.3504 9.46097 16.2806 9.53062L12.5306 13.2806C12.4609 13.3503 12.3782 13.4056 12.2872 13.4433C12.1961 13.481 12.0986 13.5004 12 13.5004C11.9015 13.5004 11.8039 13.481 11.7128 13.4433C11.6218 13.4056 11.5391 13.3503 11.4694 13.2806C11.3997 13.2109 11.3444 13.1282 11.3067 13.0372C11.269 12.9461 11.2496 12.8485 11.2496 12.75C11.2496 12.6515 11.269 12.5539 11.3067 12.4628C11.3444 12.3718 11.3997 12.2891 11.4694 12.2194L15.2194 8.46937C15.289 8.39964 15.3718 8.34432 15.4628 8.30658C15.5538 8.26884 15.6514 8.24941 15.75 8.24941C15.8486 8.24941 15.9462 8.26884 16.0372 8.30658C16.1283 8.34432 16.211 8.39964 16.2806 8.46937ZM9 1.5C9 1.30109 9.07902 1.11032 9.21967 0.96967C9.36033 0.829018 9.55109 0.75 9.75 0.75H14.25C14.4489 0.75 14.6397 0.829018 14.7803 0.96967C14.921 1.11032 15 1.30109 15 1.5C15 1.69891 14.921 1.88968 14.7803 2.03033C14.6397 2.17098 14.4489 2.25 14.25 2.25H9.75C9.55109 2.25 9.36033 2.17098 9.21967 2.03033C9.07902 1.88968 9 1.69891 9 1.5Z" fill="#0028A3"/>
</g>
</svg>
