<svg width="24" height="24" viewBox="0 0 24 24" fill="none" xmlns="http://www.w3.org/2000/svg">
<g id="Exam">
<path id="Vector" opacity="0.2" d="M21 5.25V20.25L18 18.75L15 20.25L12 18.75L9 20.25L6 18.75L3 20.25V5.25C3 5.05109 3.07902 4.86032 3.21967 4.71967C3.36032 4.57902 3.55109 4.5 3.75 4.5H20.25C20.4489 4.5 20.6397 4.57902 20.7803 4.71967C20.921 4.86032 21 5.05109 21 5.25Z" fill="#00B0CB"/>
<path id="Vector_2" d="M20.25 3.75H3.75C3.35218 3.75 2.97064 3.90804 2.68934 4.18934C2.40804 4.47064 2.25 4.85218 2.25 5.25V20.25C2.24991 20.3779 2.28253 20.5037 2.34477 20.6155C2.407 20.7272 2.49678 20.8212 2.60558 20.8884C2.71437 20.9557 2.83856 20.994 2.96633 20.9998C3.09411 21.0055 3.22124 20.9785 3.33563 20.9212L6 19.5881L8.66437 20.9212C8.76857 20.9734 8.88348 21.0005 9 21.0005C9.11652 21.0005 9.23143 20.9734 9.33563 20.9212L12 19.5881L14.6644 20.9212C14.7686 20.9734 14.8835 21.0005 15 21.0005C15.1165 21.0005 15.2314 20.9734 15.3356 20.9212L18 19.5881L20.6644 20.9212C20.7788 20.9785 20.9059 21.0055 21.0337 20.9998C21.1614 20.994 21.2856 20.9557 21.3944 20.8884C21.5032 20.8212 21.593 20.7272 21.6552 20.6155C21.7175 20.5037 21.7501 20.3779 21.75 20.25V5.25C21.75 4.85218 21.592 4.47064 21.3107 4.18934C21.0294 3.90804 20.6478 3.75 20.25 3.75ZM20.25 19.0369L18.3356 18.0787C18.2314 18.0266 18.1165 17.9995 18 17.9995C17.8835 17.9995 17.7686 18.0266 17.6644 18.0787L15 19.4119L12.3356 18.0787C12.2314 18.0266 12.1165 17.9995 12 17.9995C11.8835 17.9995 11.7686 18.0266 11.6644 18.0787L9 19.4119L6.33563 18.0787C6.23143 18.0266 6.11652 17.9995 6 17.9995C5.88349 17.9995 5.76857 18.0266 5.66438 18.0787L3.75 19.0369V5.25H20.25V19.0369ZM5.66438 15.6713C5.75251 15.7154 5.84849 15.7417 5.94681 15.7487C6.04513 15.7558 6.14387 15.7433 6.23739 15.7122C6.3309 15.681 6.41735 15.6317 6.4918 15.5671C6.56624 15.5025 6.62722 15.4238 6.67125 15.3356L7.21313 14.25H10.7869L11.3287 15.3356C11.3728 15.4238 11.4338 15.5024 11.5083 15.567C11.5827 15.6315 11.6692 15.6808 11.7627 15.712C11.8562 15.7431 11.9549 15.7556 12.0532 15.7486C12.1515 15.7416 12.2475 15.7153 12.3356 15.6713C12.4238 15.6272 12.5024 15.5662 12.567 15.4917C12.6315 15.4173 12.6808 15.3308 12.712 15.2373C12.7431 15.1438 12.7556 15.0451 12.7486 14.9468C12.7416 14.8485 12.7153 14.7525 12.6713 14.6644L9.67125 8.66437C9.60905 8.53957 9.51328 8.43458 9.39471 8.36119C9.27613 8.2878 9.13945 8.24892 9 8.24892C8.86055 8.24892 8.72387 8.2878 8.60529 8.36119C8.48672 8.43458 8.39095 8.53957 8.32875 8.66437L5.32875 14.6644C5.28461 14.7525 5.25828 14.8485 5.25126 14.9468C5.24424 15.0451 5.25667 15.1439 5.28784 15.2374C5.31901 15.3309 5.36831 15.4174 5.43292 15.4918C5.49753 15.5662 5.57618 15.6272 5.66438 15.6713ZM9 10.6772L10.0369 12.75H7.96313L9 10.6772ZM12.75 12C12.75 11.8011 12.829 11.6103 12.9697 11.4697C13.1103 11.329 13.3011 11.25 13.5 11.25H15V9.75C15 9.55109 15.079 9.36032 15.2197 9.21967C15.3603 9.07902 15.5511 9 15.75 9C15.9489 9 16.1397 9.07902 16.2803 9.21967C16.421 9.36032 16.5 9.55109 16.5 9.75V11.25H18C18.1989 11.25 18.3897 11.329 18.5303 11.4697C18.671 11.6103 18.75 11.8011 18.75 12C18.75 12.1989 18.671 12.3897 18.5303 12.5303C18.3897 12.671 18.1989 12.75 18 12.75H16.5V14.25C16.5 14.4489 16.421 14.6397 16.2803 14.7803C16.1397 14.921 15.9489 15 15.75 15C15.5511 15 15.3603 14.921 15.2197 14.7803C15.079 14.6397 15 14.4489 15 14.25V12.75H13.5C13.3011 12.75 13.1103 12.671 12.9697 12.5303C12.829 12.3897 12.75 12.1989 12.75 12Z" fill="#0028A3"/>
</g>
</svg>
