<svg width="24" height="24" viewBox="0 0 24 24" fill="none" xmlns="http://www.w3.org/2000/svg">
<g id="X">
<path id="Vector" d="M19.2801 18.2193C19.3497 18.289 19.405 18.3717 19.4427 18.4628C19.4804 18.5538 19.4999 18.6514 19.4999 18.7499C19.4999 18.8485 19.4804 18.9461 19.4427 19.0371C19.405 19.1281 19.3497 19.2109 19.2801 19.2806C19.2104 19.3502 19.1277 19.4055 19.0366 19.4432C18.9456 19.4809 18.848 19.5003 18.7494 19.5003C18.6509 19.5003 18.5533 19.4809 18.4623 19.4432C18.3712 19.4055 18.2885 19.3502 18.2188 19.2806L11.9994 13.0602L5.78007 19.2806C5.63933 19.4213 5.44846 19.5003 5.24944 19.5003C5.05042 19.5003 4.85955 19.4213 4.71882 19.2806C4.57808 19.1398 4.49902 18.949 4.49902 18.7499C4.49902 18.5509 4.57808 18.36 4.71882 18.2193L10.9391 11.9999L4.71882 5.78055C4.57808 5.63982 4.49902 5.44895 4.49902 5.24993C4.49902 5.05091 4.57808 4.86003 4.71882 4.7193C4.85955 4.57857 5.05042 4.49951 5.24944 4.49951C5.44846 4.49951 5.63933 4.57857 5.78007 4.7193L11.9994 10.9396L18.2188 4.7193C18.3595 4.57857 18.5504 4.49951 18.7494 4.49951C18.9485 4.49951 19.1393 4.57857 19.2801 4.7193C19.4208 4.86003 19.4999 5.05091 19.4999 5.24993C19.4999 5.44895 19.4208 5.63982 19.2801 5.78055L13.0598 11.9999L19.2801 18.2193Z" fill="white"/>
</g>
</svg>
