<svg xmlns="http://www.w3.org/2000/svg" width="16" height="19.2" viewBox="0 0 16 19.2">
  <path id="Icon_map-accounting" data-name="Icon map-accounting" d="M18,.72H5.2a1.6,1.6,0,0,0-1.6,1.6v16a1.6,1.6,0,0,0,1.6,1.6H18a1.6,1.6,0,0,0,1.6-1.6v-16A1.6,1.6,0,0,0,18,.72Zm-9.6,16a.8.8,0,0,1-.8.8H6a.8.8,0,0,1-.8-.8v-.4a.8.8,0,0,1,.8-.8H7.6a.8.8,0,0,1,.8.8Zm0-3.2a.8.8,0,0,1-.8.8H6a.8.8,0,0,1-.8-.8v-.4a.8.8,0,0,1,.8-.8H7.6a.8.8,0,0,1,.8.8Zm0-3.2a.8.8,0,0,1-.8.8H6a.8.8,0,0,1-.8-.8v-.4a.8.8,0,0,1,.8-.8H7.6a.8.8,0,0,1,.8.8Zm4.8,6.4a.8.8,0,0,1-.8.8H10.8a.8.8,0,0,1-.8-.8v-.4a.8.8,0,0,1,.8-.8h1.6a.8.8,0,0,1,.8.8v.4Zm0-3.2a.8.8,0,0,1-.8.8H10.8a.8.8,0,0,1-.8-.8v-.4a.8.8,0,0,1,.8-.8h1.6a.8.8,0,0,1,.8.8v.4Zm0-3.2a.8.8,0,0,1-.8.8H10.8a.8.8,0,0,1-.8-.8v-.4a.8.8,0,0,1,.8-.8h1.6a.8.8,0,0,1,.8.8v.4Zm4.8,6.4a.8.8,0,0,1-.8.8H15.6a.8.8,0,0,1-.8-.8v-.4a.8.8,0,0,1,.8-.8h1.6a.8.8,0,0,1,.8.8Zm0-3.2a.8.8,0,0,1-.8.8H15.6a.8.8,0,0,1-.8-.8v-.4a.8.8,0,0,1,.8-.8h1.6a.8.8,0,0,1,.8.8Zm0-3.2a.8.8,0,0,1-.8.8H15.6a.8.8,0,0,1-.8-.8v-.4a.8.8,0,0,1,.8-.8h1.6a.8.8,0,0,1,.8.8Zm0-3.6a.8.8,0,0,1-.8.8H6a.8.8,0,0,1-.8-.8V3.52a.8.8,0,0,1,.8-.8H17.2a.8.8,0,0,1,.8.8Z" transform="translate(-3.6 -0.72)" fill="#aaa"/>
</svg>
