<svg xmlns="http://www.w3.org/2000/svg" width="16" height="17.778" viewBox="0 0 16 17.778">
  <path id="Icon_material-perm-contact-calendar" data-name="Icon material-perm-contact-calendar" d="M18.722,3.278h-.889V1.5H16.056V3.278H8.944V1.5H7.167V3.278H6.278A1.777,1.777,0,0,0,4.5,5.056V17.5a1.777,1.777,0,0,0,1.778,1.778H18.722A1.783,1.783,0,0,0,20.5,17.5V5.056A1.783,1.783,0,0,0,18.722,3.278ZM12.5,5.944A2.667,2.667,0,1,1,9.833,8.611,2.663,2.663,0,0,1,12.5,5.944Zm5.333,10.667H7.167v-.889c0-1.778,3.556-2.756,5.333-2.756s5.333.978,5.333,2.756Z" transform="translate(-4.5 -1.5)" fill="#aaa"/>
</svg>
