<svg xmlns="http://www.w3.org/2000/svg" width="16" height="9.603" viewBox="0 0 16 9.603">
  <path id="Icon_awesome-handshake" data-name="Icon awesome-handshake" d="M10.868,4.5H8.72a.8.8,0,0,0-.54.21L5.723,6.96l-.008.01a.994.994,0,0,0-.052,1.4,1.043,1.043,0,0,0,1.4.068s.007,0,.01-.005l2-1.83a.4.4,0,1,1,.54.59l-.652.6,3.64,2.955a1.8,1.8,0,0,1,.2.192V6.1L11.433,4.735a.794.794,0,0,0-.565-.235ZM13.6,6.105v5.6a.8.8,0,0,0,.8.8H16v-6.4Zm1.2,5.6a.4.4,0,1,1,.4-.4A.4.4,0,0,1,14.8,11.7ZM0,12.5H1.6a.8.8,0,0,0,.8-.8v-5.6H0Zm1.2-1.6a.4.4,0,1,1-.4.4A.4.4,0,0,1,1.2,10.9Zm10.9.465L8.365,8.337l-.75.688A1.8,1.8,0,1,1,5.182,6.372L7.227,4.5H5.133a.8.8,0,0,0-.565.235L3.2,6.1v5.6h.457L5.92,13.745a1.6,1.6,0,0,0,2.25-.233l.005,0,.448.387A.929.929,0,0,0,9.93,13.76l.785-.965.135.11a.8.8,0,0,0,1.125-.118l.238-.292A.8.8,0,0,0,12.1,11.368Z" transform="translate(0 -4.5)" fill="#aaa"/>
</svg>
