<svg xmlns="http://www.w3.org/2000/svg" width="18" height="9.75" viewBox="0 0 18 9.75">
  <path id="Icon_material-group-add" data-name="Icon material-group-add" d="M6,11.25H3.75V9H2.25v2.25H0v1.5H2.25V15h1.5V12.75H6Zm7.5.75a2.25,2.25,0,1,0-.682-4.395,3.7,3.7,0,0,1,.675,2.145,3.774,3.774,0,0,1-.675,2.145A2.242,2.242,0,0,0,13.5,12ZM9.75,12A2.25,2.25,0,1,0,7.5,9.75,2.241,2.241,0,0,0,9.75,12Zm4.965,1.62a2.775,2.775,0,0,1,1.035,2.13v1.5H18v-1.5C18,14.6,16.222,13.882,14.715,13.62ZM9.75,13.5c-1.5,0-4.5.75-4.5,2.25v1.5h9v-1.5C14.25,14.25,11.25,13.5,9.75,13.5Z" transform="translate(0 -7.5)" fill="#aaa"/>
</svg>
