<svg xmlns="http://www.w3.org/2000/svg" width="16" height="14.769" viewBox="0 0 16 14.769">
  <g id="Icon_ionic-ios-briefcase" data-name="Icon ionic-ios-briefcase" transform="translate(-3.375 -4.5)">
    <path id="Path_97" data-name="Path 97" d="M4.606,24.365H18.144a1.229,1.229,0,0,0,1.231-1.231V15.75h-16v7.385A1.229,1.229,0,0,0,4.606,24.365Z" transform="translate(0 -5.096)" fill="#aaa"/>
    <path id="Path_98" data-name="Path 98" d="M18.144,6.962h-.308V6.654a.309.309,0,0,0-.308-.308H16.3a.309.309,0,0,0-.308.308v.308H14.913V5.731A1.234,1.234,0,0,0,13.683,4.5H9.067A1.234,1.234,0,0,0,7.837,5.731V6.962H6.76V6.654a.309.309,0,0,0-.308-.308H5.221a.309.309,0,0,0-.308.308v.308H4.606A1.229,1.229,0,0,0,3.375,8.192V9.731h16V8.192A1.229,1.229,0,0,0,18.144,6.962Zm-4.308,0H8.913V5.885a.309.309,0,0,1,.308-.308h4.308a.309.309,0,0,1,.308.308Z" fill="#aaa"/>
  </g>
</svg>
