<svg xmlns="http://www.w3.org/2000/svg" width="16" height="12.801" viewBox="0 0 16 12.801">
  <path id="Icon_awesome-user-cog" data-name="Icon awesome-user-cog" d="M15.264,9.333a2.933,2.933,0,0,0,0-1.065l.645-.373a.181.181,0,0,0,.083-.213,3.752,3.752,0,0,0-.83-1.435.182.182,0,0,0-.225-.035l-.645.373a2.935,2.935,0,0,0-.923-.533V5.308a.182.182,0,0,0-.143-.178,3.772,3.772,0,0,0-1.655,0,.182.182,0,0,0-.143.178v.745a2.935,2.935,0,0,0-.923.533l-.645-.373a.183.183,0,0,0-.225.035,3.752,3.752,0,0,0-.83,1.435.184.184,0,0,0,.083.213l.645.373a2.933,2.933,0,0,0,0,1.065l-.645.373a.181.181,0,0,0-.083.213,3.771,3.771,0,0,0,.83,1.435.182.182,0,0,0,.225.035l.645-.373a2.935,2.935,0,0,0,.923.533v.745a.182.182,0,0,0,.143.178,3.772,3.772,0,0,0,1.655,0,.182.182,0,0,0,.143-.178v-.745a2.935,2.935,0,0,0,.923-.533l.645.373a.183.183,0,0,0,.225-.035,3.752,3.752,0,0,0,.83-1.435.184.184,0,0,0-.083-.213Zm-2.863.68A1.213,1.213,0,1,1,13.614,8.8,1.214,1.214,0,0,1,12.4,10.014ZM5.6,6.4A3.2,3.2,0,1,0,2.4,3.2,3.2,3.2,0,0,0,5.6,6.4Zm5.031,5.663c-.058-.03-.115-.065-.17-.1l-.2.115A.981.981,0,0,1,9.051,11.9a4.559,4.559,0,0,1-1.005-1.74.978.978,0,0,1,.448-1.143l.2-.115q0-.1,0-.2l-.2-.115a.977.977,0,0,1-.448-1.143c.023-.073.055-.145.08-.218-.1-.008-.188-.03-.285-.03H7.423a4.352,4.352,0,0,1-3.645,0H3.36A3.361,3.361,0,0,0,0,10.561V11.6a1.2,1.2,0,0,0,1.2,1.2H10a1.2,1.2,0,0,0,.68-.213.974.974,0,0,1-.05-.3Z" fill="#aaa"/>
</svg>
